<?xml version="1.0" encoding="utf-8"?>
<svg height="175.44554" width="500" id="svg2" version="1.1" xmlns="http://www.w3.org/2000/svg">
  <path d="M 32.568 49.319 L 32.568 49.624 C 45.644 49.88 55.299 52.617 61.532 57.836 C 67.766 63.054 70.884 69.362 70.884 76.757 C 70.884 85.017 67.341 91.836 60.241 97.199 C 53.155 102.578 43.713 105.268 31.944 105.268 C 21.773 105.268 13.912 103.121 8.347 98.848 C 2.782 94.574 0 89.708 0 84.232 C 0 80.599 1.247 77.653 3.741 75.428 C 6.234 73.203 9.229 72.099 12.712 72.099 C 15.979 72.099 18.793 73.075 21.119 75.011 C 23.46 76.966 24.616 79.542 24.616 82.729 C 24.616 86.986 21.909 90.556 16.481 93.437 C 15.418 93.998 14.87 94.637 14.87 95.342 C 14.87 96.654 16.39 97.808 19.447 98.8 C 22.488 99.793 25.589 100.273 28.781 100.273 C 39.227 100.273 44.458 92.188 44.458 76.022 C 44.458 60.014 38.179 52.01 25.635 52.01 L 15.219 52.457 C 13.121 52.457 12.056 51.641 12.056 50.01 C 12.056 48.135 13.166 47.19 15.372 47.19 L 22.959 47.495 C 30.697 47.495 35.882 45.686 38.513 42.052 C 41.159 38.434 42.466 33.28 42.466 26.588 C 42.466 19.705 41.477 14.631 39.486 11.398 C 37.494 8.147 34.073 6.531 29.238 6.531 C 26.608 6.531 24.13 6.996 21.818 7.939 C 19.507 8.869 18.337 9.78 18.337 10.693 C 18.337 11.541 19.097 12.422 20.618 13.335 C 24.601 16.008 26.608 18.905 26.608 22.027 C 26.608 25.1 25.498 27.533 23.263 29.358 C 21.028 31.168 18.518 32.08 15.721 32.08 C 12.498 32.08 9.625 31.039 7.1 28.974 C 4.576 26.893 3.299 24.332 3.299 21.243 C 3.299 15.992 6.113 11.445 11.738 7.62 C 17.363 3.776 24.57 1.857 33.389 1.857 C 43.136 1.857 51.346 4.034 58.036 8.371 C 64.741 12.71 68.085 18.264 68.085 25.068 C 68.085 38.45 56.241 46.534 32.568 49.319" style="fill-opacity: 1; fill-rule: nonzero; stroke: none; fill: rgb(255, 255, 255);" id="path18"/>
  <path d="M 94.967 98.415 L 94.967 6.37 L 81.253 6.37 L 81.253 1.393 L 136.201 1.393 C 152.09 1.393 164.679 6.131 173.94 15.623 C 183.199 25.1 187.836 37.074 187.836 51.529 C 187.836 59.02 186.422 66.08 183.595 72.659 C 180.766 79.254 176.418 85.258 170.549 90.652 C 164.679 96.047 158.659 99.52 152.486 101.073 C 146.313 102.626 138.741 103.394 129.74 103.394 L 81.253 103.394 L 81.253 98.415 Z M 121.408 6.37 L 121.408 98.415 L 129.967 98.415 C 143.059 98.415 150.965 94.798 153.686 87.578 C 156.409 80.342 157.762 67.985 157.762 50.489 C 157.762 36.803 156.925 26.957 155.253 20.986 C 153.596 15 151.057 11.061 147.665 9.19 C 144.275 7.315 139.957 6.37 134.741 6.37 L 121.408 6.37" style="fill-opacity: 1; fill-rule: nonzero; stroke: none; fill: rgb(255, 255, 255);" id="path20"/>
  <path d="M 203.178 52.01 C 203.178 36.753 207.951 24.268 217.531 14.551 C 227.094 4.851 238.574 0 251.953 0 C 264.375 0 275.491 4.562 285.296 13.686 C 295.105 22.81 300 35.792 300 52.617 C 300 68.385 295.378 81.031 286.103 90.54 C 276.829 100.049 265.502 104.804 252.122 104.804 C 237.662 104.804 225.878 99.744 216.802 89.659 C 207.723 79.574 203.178 67.024 203.178 52.01 Z M 269.926 52.441 C 269.926 36.818 269.621 26.524 269.013 21.563 C 268.39 16.583 266.808 12.581 264.255 9.539 C 261.699 6.499 257.488 4.978 251.635 4.978 C 246.693 4.978 242.756 6.21 239.821 8.66 C 236.887 11.125 235.062 15.063 234.331 20.49 C 233.617 25.916 233.252 36.513 233.252 52.282 C 233.252 67.889 233.555 78.23 234.179 83.272 C 234.787 88.315 236.431 92.333 239.091 95.326 C 241.752 98.319 245.933 99.808 251.635 99.808 C 256.362 99.808 260.225 98.608 263.204 96.207 C 266.185 93.789 268.056 89.883 268.801 84.457 C 269.561 79.03 269.926 68.353 269.926 52.441" style="fill-opacity: 1; fill-rule: nonzero; stroke: none; fill: rgb(255, 255, 255);" id="path22"/>
</svg>