<?xml version="1.0" encoding="utf-8"?>
<svg id="svg2" version="1.1" xmlns="http://www.w3.org/2000/svg">
  <path d="M 28.66 43.572 L 28.66 43.841 C 40.167 44.066 48.663 46.485 54.148 51.096 C 59.634 55.706 62.378 61.279 62.378 67.811 C 62.378 75.109 59.26 81.134 53.012 85.871 C 46.776 90.624 38.467 93 28.111 93 C 19.16 93 12.243 91.103 7.345 87.328 C 2.448 83.552 0 79.253 0 74.415 C 0 71.206 1.097 68.604 3.292 66.638 C 5.486 64.672 8.122 63.696 11.187 63.696 C 14.062 63.696 16.538 64.559 18.585 66.269 C 20.645 67.996 21.662 70.272 21.662 73.088 C 21.662 76.849 19.28 80.002 14.503 82.548 C 13.568 83.043 13.086 83.608 13.086 84.231 C 13.086 85.39 14.423 86.409 17.113 87.286 C 19.789 88.163 22.518 88.587 25.327 88.587 C 34.52 88.587 39.123 81.444 39.123 67.162 C 39.123 53.02 33.598 45.949 22.559 45.949 L 13.393 46.343 C 11.546 46.343 10.609 45.623 10.609 44.182 C 10.609 42.525 11.586 41.69 13.527 41.69 L 20.204 41.96 C 27.013 41.96 31.576 40.362 33.891 37.151 C 36.22 33.955 37.37 29.401 37.37 23.489 C 37.37 17.408 36.5 12.926 34.748 10.069 C 32.995 7.197 29.984 5.77 25.729 5.77 C 23.415 5.77 21.234 6.18 19.2 7.013 C 17.166 7.836 16.137 8.64 16.137 9.447 C 16.137 10.196 16.805 10.974 18.144 11.781 C 21.649 14.142 23.415 16.701 23.415 19.46 C 23.415 22.175 22.438 24.324 20.471 25.937 C 18.505 27.536 16.296 28.341 13.834 28.341 C 10.998 28.341 8.47 27.421 6.248 25.597 C 4.027 23.759 2.903 21.496 2.903 18.767 C 2.903 14.128 5.379 10.112 10.329 6.732 C 15.279 3.336 21.622 1.64 29.382 1.64 C 37.96 1.64 45.184 3.564 51.072 7.395 C 56.972 11.229 59.915 16.135 59.915 22.147 C 59.915 33.969 49.492 41.111 28.66 43.572" style="fill-opacity: 1; fill-rule: nonzero; stroke: none; fill: rgb(255, 255, 255);" id="path18"/>
  <path d="M 83.571 86.945 L 83.571 5.628 L 71.503 5.628 L 71.503 1.231 L 119.857 1.231 C 133.839 1.231 144.918 5.416 153.067 13.802 C 161.215 22.175 165.296 32.753 165.296 45.524 C 165.296 52.142 164.051 58.378 161.564 64.191 C 159.074 70.018 155.248 75.322 150.083 80.087 C 144.918 84.853 139.62 87.922 134.188 89.293 C 128.755 90.666 122.092 91.345 114.171 91.345 L 71.503 91.345 L 71.503 86.945 Z M 106.839 5.628 L 106.839 86.945 L 114.371 86.945 C 125.892 86.945 132.849 83.75 135.244 77.372 C 137.64 70.979 138.831 60.062 138.831 44.605 C 138.831 32.514 138.094 23.815 136.623 18.541 C 135.164 13.252 132.93 9.772 129.945 8.119 C 126.962 6.462 123.162 5.628 118.572 5.628 L 106.839 5.628" style="fill-opacity: 1; fill-rule: nonzero; stroke: none; fill: rgb(255, 255, 255);" id="path20"/>
  <path d="M 178.797 45.949 C 178.797 32.47 182.997 21.44 191.427 12.855 C 199.843 4.286 209.945 0 221.719 0 C 232.65 0 242.432 4.031 251.06 12.091 C 259.692 20.152 264 31.621 264 46.485 C 264 60.415 259.933 71.587 251.771 79.988 C 243.61 88.389 233.642 92.59 221.867 92.59 C 209.143 92.59 198.773 88.12 190.786 79.21 C 182.796 70.3 178.797 59.213 178.797 45.949 Z M 237.535 46.329 C 237.535 32.527 237.266 23.433 236.731 19.05 C 236.183 14.65 234.791 11.115 232.544 8.427 C 230.295 5.741 226.589 4.398 221.439 4.398 C 217.09 4.398 213.625 5.486 211.042 7.651 C 208.461 9.828 206.855 13.307 206.211 18.102 C 205.583 22.896 205.262 32.257 205.262 46.189 C 205.262 59.977 205.528 69.113 206.078 73.567 C 206.613 78.022 208.059 81.572 210.4 84.217 C 212.742 86.861 216.421 88.176 221.439 88.176 C 225.599 88.176 228.998 87.116 231.62 84.995 C 234.243 82.858 235.889 79.408 236.545 74.614 C 237.214 69.819 237.535 60.387 237.535 46.329" style="fill-opacity: 1; fill-rule: nonzero; stroke: none; fill: rgb(255, 255, 255);" id="path22"/>
</svg>