<?xml version="1.0" encoding="utf-8"?>
<svg version="1.1" xmlns="http://www.w3.org/2000/svg">
  <path d="M 76.076 75.994 L 41.856 75.994 L 35.177 82.808 L 27.653 90.222 C 26.207 91.848 25.16 93.315 24.52 94.629 C 24.019 95.637 23.802 96.644 23.848 97.652 C 23.902 98.706 24.644 99.682 26.082 100.582 C 27.52 101.48 29.855 101.997 33.08 102.129 L 33.19 104.386 L 0 104.386 L 0.71 102.129 C 3.632 101.738 6.21 100.902 8.445 99.636 C 11.414 97.879 15.625 94.27 21.075 88.796 L 96.125 14.456 L 99.813 14.456 L 99.805 86.406 C 99.828 90.165 99.86 92.438 99.899 93.226 C 100.055 96.219 100.899 98.39 102.447 99.75 C 104.001 101.117 106.502 101.906 109.97 102.125 L 109.267 104.382 L 61.227 104.382 L 62.017 102.125 C 66.759 101.773 69.478 101.468 70.173 101.212 C 71.68 100.601 73.009 99.319 74.173 97.382 C 75.329 95.437 75.931 92.07 75.962 87.262 L 76.07 75.992 Z M 75.811 70.69 L 76.552 41.99 L 47.242 70.69 L 75.812 70.69" style="fill: rgb(255, 255, 255);"/>
  <path d="M 179.776 16.494 L 191.076 77.034 L 240.816 16.494 L 279.836 16.494 L 278.961 18.751 C 273.617 18.751 269.593 19.658 266.901 21.479 C 264.215 23.299 262.019 26.893 260.323 32.269 L 242.713 88.649 C 241.581 92.243 241.055 94.915 241.151 96.665 C 241.228 98.281 242.112 99.586 243.8 100.571 C 245.488 101.555 248.736 102.093 253.541 102.18 L 252.916 104.437 L 197.546 104.437 L 198.413 102.18 C 204.365 102.18 208.713 101.274 211.463 99.452 C 214.205 97.632 216.432 94.03 218.127 88.652 L 235.957 31.552 L 176.197 104.442 L 172.759 104.442 L 158.999 30.122 L 140.719 88.652 C 139.969 91.058 139.633 93.074 139.71 94.699 C 139.82 96.886 140.851 98.643 142.796 99.98 C 144.75 101.315 147.992 102.052 152.531 102.184 L 151.828 104.441 L 115.148 104.441 L 115.774 102.184 C 120.188 102.052 123.531 101.309 125.814 99.949 C 129.838 97.497 132.649 93.731 134.259 88.649 L 154.939 23.559 C 152.549 21.567 150.423 20.271 148.564 19.661 C 146.712 19.06 143.626 18.754 139.322 18.754 L 140.182 16.497 L 179.792 16.497" style="fill: rgb(255, 255, 255);"/>
  <path d="M 289.576 18.694 L 290.365 16.437 L 344.595 16.437 L 343.642 18.694 C 338.727 18.694 335.017 19.57 332.512 21.32 C 330.004 23.062 327.911 26.71 326.223 32.27 L 308.643 88.56 C 307.369 92.583 306.768 95.27 306.831 96.622 C 306.91 98.199 307.737 99.419 309.309 100.294 C 311.331 101.427 315.073 102.044 320.539 102.13 L 319.829 104.387 L 264.869 104.387 L 265.658 102.13 C 271.174 102.13 275.166 101.286 277.648 99.607 C 280.124 97.926 282.266 94.24 284.054 88.557 L 301.634 32.267 C 302.712 28.767 303.204 26.125 303.118 24.329 C 303.033 22.719 302.203 21.446 300.634 20.532 C 299.063 19.61 295.368 19.001 289.574 18.695" style="fill: rgb(255, 255, 255);"/>
  <path d="M 507.076 75.994 L 472.866 75.994 L 466.186 82.808 L 458.662 90.222 C 457.216 91.848 456.168 93.315 455.522 94.629 C 455.029 95.637 454.802 96.644 454.857 97.652 C 454.911 98.706 455.653 99.682 457.092 100.582 C 458.528 101.48 460.856 101.997 464.091 102.129 L 464.201 104.386 L 431.011 104.386 L 431.715 102.129 C 434.645 101.738 437.221 100.902 439.45 99.636 C 442.418 97.879 446.636 94.27 452.09 88.796 L 527.14 14.456 L 530.828 14.456 L 530.813 86.406 C 530.844 90.165 530.875 92.438 530.914 93.226 C 531.063 96.219 531.914 98.39 533.46 99.75 C 535.008 101.117 537.515 101.906 540.976 102.125 L 540.273 104.382 L 492.233 104.382 L 493.031 102.125 C 497.765 101.773 500.491 101.468 501.187 101.212 C 502.687 100.601 504.022 99.319 505.178 97.382 C 506.343 95.437 506.937 92.07 506.976 87.262 L 507.077 75.992 Z M 506.811 70.69 L 507.561 41.99 L 478.251 70.69 L 506.811 70.69" style="fill: rgb(255, 255, 255);"/>
  <path d="M 446.276 15.294 C 447.073 16.029 447.298 18.45 447.298 18.45 L 442.024 42.6 L 439.173 42.6 C 438.33 34.459 438.033 28.6 433.604 25.02 C 429.182 21.441 426.893 19.434 419.224 19.434 C 411.326 19.434 401.344 21.841 393.664 26.224 C 385.993 30.607 376.474 37.364 371.364 46.494 C 366.263 55.626 363.175 65.224 363.676 75.284 C 364.113 83.916 367.02 90.514 372.395 95.064 C 377.769 99.618 383.915 101.892 390.835 101.892 C 393.757 101.892 397.273 101.267 401.385 100.009 L 408.626 76.789 C 409.852 72.89 410.431 70.344 410.376 69.133 C 410.291 67.531 409.368 66.18 407.595 65.078 C 405.814 63.977 402.829 63.423 398.627 63.423 L 399.313 60.907 L 446.993 60.907 L 446.383 63.423 C 443.554 63.564 441.351 63.993 439.774 64.735 C 438.204 65.469 436.984 66.555 436.133 67.985 C 435.624 68.829 434.891 71.024 433.922 74.547 L 425.75 100.707 C 414.2 104.497 401.94 106.395 388.97 106.395 C 378.96 106.395 370.39 104.989 363.23 102.184 C 356.075 99.372 350.03 94.927 345.12 88.834 C 340.199 82.74 337.55 75.804 337.159 68.024 C 336.332 51.434 344.971 37.754 363.079 26.994 C 377.269 18.65 393.269 15.004 411.629 14.104 C 413.371 14.104 417.864 13.683 424.129 13.683 C 429.45 13.683 435.609 13.854 444.529 14.487 C 444.529 14.487 445.295 14.394 446.271 15.3" style="fill: rgb(255, 255, 255);"/>
  <path d="M 593.556 37.494 L 593.556 81.374 C 593.556 93.484 603.166 103.314 615.006 103.314 L 662.026 103.314 C 673.866 103.314 683.476 93.488 683.476 81.374 L 683.47 70.164 L 662.19 70.164 L 662.19 74.383 C 662.19 79.829 658.292 83.813 652.972 83.813 L 623.732 83.813 C 618.418 83.813 614.522 79.83 614.522 74.383 L 614.522 46.443 C 614.522 40.997 618.418 37.013 623.732 37.013 L 651.062 37.013 C 656.382 37.013 660.281 40.997 660.281 46.443 L 660.281 48.716 L 681.561 48.716 L 681.568 37.496 C 681.568 25.386 671.958 15.556 660.118 15.556 L 614.998 15.556 C 603.158 15.556 593.548 25.384 593.548 37.496" style="fill: rgb(255, 255, 255);"/>
  <path d="M 717.486 83.894 L 717.486 35.134 L 755.146 35.134 C 761.725 35.134 767.056 40.594 767.056 47.334 L 767.056 71.714 C 767.056 78.44 761.721 83.904 755.146 83.904 L 717.486 83.904 Z M 696.516 103.394 L 764.986 103.394 C 777.686 103.394 788.346 92.484 788.346 79.504 L 788.346 39.524 C 788.346 26.544 777.686 15.634 764.986 15.634 L 696.516 15.634 L 696.516 103.394" style="fill: rgb(255, 255, 255);"/>
  <path d="M 890.976 25.894 C 882.436 25.894 873.736 30.402 873.736 39.014 L 873.736 46.983 L 873.822 46.99 L 873.822 58.51 L 940.542 58.51 L 940.542 46.17 L 892.462 46.17 C 886.267 44.592 893.057 39.544 896.206 39.178 L 925.076 39.178 C 933.616 39.178 940.536 32.184 940.536 23.578 L 940.536 15.601 C 940.536 6.991 933.615 0.001 925.076 0.001 L 891.096 0.001 C 882.557 0.001 873.726 5.039 873.726 13.661 L 873.726 21.63 L 890.526 21.63 L 890.526 20.012 C 890.526 16.145 893.338 13.308 897.174 13.308 L 918.774 13.308 C 922.469 13.308 925.212 15.942 925.406 19.598 C 925.211 23.246 922.468 25.878 918.774 25.878 L 890.964 25.887" style="fill: rgb(255, 255, 255);"/>
  <path d="M 853.076 29.294 C 859.536 28.81 864.276 26.794 864.276 19.676 L 864.276 11.7 C 864.276 3.09 857.347 0 848.816 0 L 818.636 0 C 810.106 0 801.266 5.038 801.266 13.66 L 801.266 21.629 L 818.076 21.629 L 818.076 20.011 C 818.076 16.144 820.881 13.307 824.717 13.307 L 842.507 13.307 C 846.203 13.307 848.947 13.995 849.142 17.644 C 848.947 21.3 846.203 23.924 842.507 23.924 L 828.047 23.933 L 828.047 34.763 L 844.417 34.763 C 848.113 34.763 850.853 37.395 851.048 41.052 C 850.853 44.7 848.113 45.38 844.417 45.38 L 824.717 45.38 C 820.881 45.38 818.076 42.551 818.076 38.684 L 818.076 37.06 L 801.266 37.06 L 801.266 45.036 C 801.266 53.646 810.104 58.686 818.636 58.686 L 850.726 58.686 C 860.467 58.514 866.186 53.647 866.186 45.036 L 866.186 39.014 C 866.186 31.208 860.5 29.545 853.086 29.303" style="fill: rgb(255, 255, 255);"/>
</svg>