<?xml version="1.0" encoding="utf-8"?>
<svg id="svg2" enable-background="new 0 0 566.929 104.51" version="1.1" y="0px" x="0px" xmlns="http://www.w3.org/2000/svg" xmlns:bx="https://boxy-svg.com">
  <g transform="matrix(0.44, 0, 0, 0.438811, 0, 44)">
    <polygon id="polygon12" points="472.341 59.181 416.322 79.494 472.698 79.494 494.145 67.659" style="fill: rgb(255, 255, 255);" bx:origin="-5.35 -2.913"/>
    <polygon id="polygon14" points="420.03 0.552 486.576 0.552 575.19 45.474 540.435 45.474 516.006 34.242 500.937 40.371" style="fill: rgb(255, 255, 255);" bx:origin="-2.707 -0.012"/>
    <polygon id="polygon16" points="543.969 21.132 600 0.828 543.624 0.828 522.189 12.654" style="fill: rgb(255, 255, 255);" bx:origin="-6.711 -0.041"/>
    <polygon id="polygon18" points="596.301 79.761 529.746 79.761 441.129 34.839 475.887 34.839 500.313 46.071 515.382 39.942" style="fill: rgb(255, 255, 255);" bx:origin="-2.843 -0.776"/>
    <rect id="rect20" height="53.904" width="44.112" y="0.009" style="fill: rgb(255, 255, 255);" bx:origin="-0.001 0"/>
    <rect id="rect22" height="16.503" width="113.037" y="60.513" style="fill: rgb(255, 255, 255);" bx:origin="0 -3.667"/>
    <polygon id="polygon24" points="71.679 0.009 124.071 0.009 159.915 30.255 134.007 49.263" style="fill: rgb(255, 255, 255);" bx:origin="-0.813 0"/>
    <polygon id="polygon26" points="137.856 52.257 137.856 77.013 179.211 77.013 179.211 52.257 259.161 0.009 220.566 0.009 140.616 52.257" style="fill: rgb(255, 255, 255);" bx:origin="-1.137 0"/>
    <polygon id="polygon28" points="264.684 8.253 308.79 35.757 308.79 77.013 264.684 77.013" style="fill: rgb(255, 255, 255);" bx:origin="-6.002 -0.12"/>
    <polygon id="polygon30" points="270.195 0.009 383.238 77.013 408.048 77.013 408.048 0 386.544 0 386.544 54.159 306.039 0.009" style="fill: rgb(255, 255, 255);" bx:origin="-1.96 0"/>
  </g>
  <g transform="matrix(1.000521, 0, 0, 1.006174, -2.581944, 43.929947)">
    <path id="path5" d="M 110.812 -42.195 C 112.117 -43.873 114.82 -44.159 116.422 -42.752 C 117.077 -42.197 117.536 -41.433 117.771 -40.611 C 120.737 -30.364 123.716 -20.122 126.678 -9.874 C 124.927 -9.872 123.176 -9.877 121.426 -9.872 C 120.601 -12.697 119.795 -15.528 118.98 -18.357 C 115.595 -18.364 112.212 -18.358 108.827 -18.359 C 107.999 -15.533 107.181 -12.703 106.367 -9.871 C 104.626 -9.878 102.885 -9.873 101.144 -9.875 C 103.962 -19.65 106.783 -29.425 109.614 -39.196 C 109.945 -40.217 110.07 -41.36 110.806 -42.195 M 113.894 -35.916 C 112.652 -31.67 111.437 -27.417 110.202 -23.17 C 112.662 -23.159 115.121 -23.166 117.58 -23.166 C 116.356 -27.417 115.131 -31.666 113.897 -35.916 Z" style="fill: rgb(255, 255, 255);"/>
    <path id="path7" d="M 147.682 -41.975 C 148.595 -43.303 150.359 -43.948 151.911 -43.538 C 153.332 -43.209 154.419 -41.979 154.794 -40.595 C 157.757 -30.355 160.731 -20.119 163.693 -9.88 C 161.94 -9.867 160.189 -9.88 158.436 -9.872 C 157.621 -12.7 156.815 -15.532 155.993 -18.359 C 152.614 -18.358 149.236 -18.365 145.857 -18.356 C 145.05 -15.526 144.217 -12.703 143.409 -9.873 C 141.67 -9.871 139.931 -9.875 138.193 -9.871 C 141.009 -19.7 143.858 -29.521 146.697 -39.342 C 147 -40.23 147.116 -41.208 147.689 -41.975 M 147.265 -23.165 C 149.715 -23.162 152.163 -23.164 154.612 -23.164 C 153.394 -27.423 152.156 -31.676 150.941 -35.935 C 149.716 -31.678 148.482 -27.425 147.267 -23.165 Z" style="fill: rgb(255, 255, 255);"/>
    <path id="path9" d="M 122.76 -43.589 L 141.755 -43.589 L 141.755 -38.445 C 139.424 -38.444 137.093 -38.448 134.763 -38.444 C 134.763 -28.921 134.764 -19.396 134.761 -9.874 L 129.752 -9.874 C 129.752 -19.396 129.751 -28.92 129.753 -38.444 C 127.422 -38.448 125.092 -38.444 122.76 -38.445 C 122.764 -40.16 122.76 -41.874 122.764 -43.589 Z" style="fill: rgb(255, 255, 255);"/>
    <path id="path11" d="M 169.261 -43.38 C 169.743 -43.546 170.256 -43.604 170.764 -43.591 C 172.76 -43.584 174.757 -43.59 176.753 -43.588 C 180.115 -43.527 183.324 -41.432 184.779 -38.394 C 185.786 -36.421 185.891 -34.126 185.636 -31.962 C 185.461 -29.695 184.515 -27.43 182.78 -25.928 C 181.863 -25.108 180.722 -24.611 179.742 -23.881 C 179.203 -23.469 179.176 -22.668 179.454 -22.097 C 182.104 -17.99 184.858 -13.947 187.564 -9.874 C 185.585 -9.871 183.607 -9.879 181.628 -9.871 C 179.039 -13.777 176.476 -17.702 173.897 -21.614 C 173.139 -22.728 172.932 -24.202 173.386 -25.473 C 173.741 -26.447 174.588 -27.16 175.533 -27.528 C 177.336 -28.219 179.114 -29.305 180.113 -31.013 C 180.873 -32.297 180.834 -33.882 180.492 -35.288 C 180.091 -37.112 178.321 -38.548 176.449 -38.485 C 175.156 -38.476 173.862 -38.492 172.57 -38.479 C 171.985 -38.492 171.435 -37.982 171.442 -37.387 C 171.436 -28.216 171.446 -19.043 171.44 -9.871 C 169.757 -9.875 168.076 -9.871 166.394 -9.873 C 166.39 -19.747 166.397 -29.622 166.39 -39.496 C 166.4 -41.226 167.625 -42.854 169.259 -43.38 Z" style="fill: rgb(255, 255, 255);"/>
    <path id="path13" d="M 190.207 -43.589 L 195.516 -43.589 C 195.515 -32.35 195.52 -21.112 195.514 -9.872 C 193.745 -9.877 191.976 -9.872 190.207 -9.875 C 190.212 -21.113 190.212 -32.351 190.212 -43.589 Z" style="fill: rgb(255, 255, 255);"/>
    <path id="path15" d="M 68.564 -43.657 C 69.414 -43.66 70.264 -43.657 71.115 -43.66 C 71.119 -41.652 71.115 -39.644 71.117 -37.636 C 71.126 -35.96 71.078 -34.285 71.009 -32.611 C 70.895 -30.193 70.744 -27.77 70.345 -25.381 C 70.072 -23.734 69.504 -22.144 68.8 -20.637 C 67.651 -18.205 65.846 -16.147 63.818 -14.417 C 62.003 -12.813 59.836 -11.645 57.557 -10.855 C 56.268 -10.41 54.941 -10.066 53.591 -9.875 C 53.592 -11.559 53.592 -13.242 53.591 -14.927 C 55.217 -15.171 56.78 -15.752 58.232 -16.517 C 59.955 -17.431 61.505 -18.662 62.811 -20.112 C 64.159 -21.609 65.233 -23.342 66.048 -25.184 C 67.009 -27.3 67.523 -29.586 67.872 -31.875 C 68.31 -34.785 68.492 -37.728 68.56 -40.669 C 68.57 -41.665 68.561 -42.662 68.564 -43.657 Z" style="fill: rgb(255, 255, 255);"/>
    <path id="path17" d="M 72.141 -43.655 C 73.707 -43.665 75.273 -43.656 76.838 -43.659 C 76.839 -32.397 76.839 -21.136 76.838 -9.875 C 75.276 -9.872 73.714 -9.883 72.152 -9.869 C 72.133 -13.46 72.149 -17.051 72.144 -20.642 C 72.143 -28.313 72.147 -35.983 72.141 -43.655 Z" style="fill: rgb(255, 255, 255);"/>
    <path id="path19" d="M 77.883 -43.659 C 78.729 -43.659 79.574 -43.661 80.42 -43.658 C 80.392 -40.224 80.509 -36.785 80.916 -33.373 C 81.25 -30.724 81.72 -28.054 82.771 -25.587 C 83.767 -23.198 85.203 -20.978 87.075 -19.188 C 88.862 -17.478 91.028 -16.161 93.382 -15.404 C 94.038 -15.193 94.71 -15.027 95.392 -14.928 C 95.391 -13.244 95.391 -11.561 95.392 -9.878 C 94.051 -10.061 92.736 -10.408 91.456 -10.845 C 89.932 -11.377 88.458 -12.067 87.104 -12.951 C 86.115 -13.589 85.217 -14.353 84.353 -15.15 C 82.93 -16.468 81.656 -17.965 80.699 -19.661 C 79.951 -20.981 79.405 -22.409 78.977 -23.864 C 78.585 -25.327 78.418 -26.839 78.265 -28.342 C 77.971 -31.592 77.861 -34.858 77.882 -38.12 C 77.883 -39.968 77.883 -41.814 77.883 -43.659 Z" style="fill: rgb(255, 255, 255);"/>
    <path id="path21" d="M 68.564 -43.657 C 68.561 -42.661 68.57 -41.665 68.56 -40.669 C 68.492 -37.727 68.31 -34.785 67.872 -31.874 C 67.523 -29.585 67.009 -27.299 66.048 -25.183 C 65.233 -23.341 64.159 -21.608 62.811 -20.111 C 61.505 -18.66 59.954 -17.43 58.232 -16.516 C 56.78 -15.75 55.217 -15.17 53.591 -14.926 C 53.592 -13.242 53.592 -11.558 53.591 -9.873 C 54.941 -10.065 56.268 -10.409 57.557 -10.854 C 59.836 -11.644 62.003 -12.812 63.818 -14.416 C 65.846 -16.146 67.651 -18.204 68.8 -20.636 C 69.504 -22.144 70.072 -23.733 70.345 -25.38 C 70.744 -27.77 70.895 -30.192 71.009 -32.61 C 71.078 -34.284 71.126 -35.959 71.117 -37.635 C 71.115 -39.643 71.119 -41.651 71.115 -43.659 C 70.264 -43.657 69.414 -43.66 68.564 -43.657" style="fill: rgb(255, 255, 255);"/>
    <path id="path23" d="M 72.141 -43.655 C 72.147 -35.983 72.142 -28.313 72.145 -20.642 C 72.15 -17.051 72.133 -13.46 72.153 -9.869 C 73.714 -9.882 75.277 -9.872 76.839 -9.875 C 76.839 -21.136 76.839 -32.397 76.839 -43.659 C 75.273 -43.656 73.707 -43.665 72.141 -43.655" style="fill: rgb(255, 255, 255);"/>
    <path id="path25" d="M 77.883 -43.659 C 77.883 -41.814 77.883 -39.967 77.883 -38.122 C 77.862 -34.859 77.972 -31.594 78.266 -28.344 C 78.419 -26.84 78.586 -25.329 78.978 -23.866 C 79.405 -22.411 79.952 -20.983 80.7 -19.663 C 81.656 -17.967 82.931 -16.469 84.354 -15.152 C 85.217 -14.354 86.117 -13.591 87.105 -12.953 C 88.458 -12.069 89.933 -11.379 91.457 -10.847 C 92.737 -10.409 94.052 -10.062 95.393 -9.88 C 95.392 -11.563 95.392 -13.246 95.393 -14.93 C 94.71 -15.03 94.039 -15.194 93.382 -15.406 C 91.029 -16.163 88.863 -17.479 87.076 -19.19 C 85.204 -20.979 83.768 -23.199 82.772 -25.589 C 81.721 -28.056 81.25 -30.726 80.917 -33.375 C 80.509 -36.787 80.393 -40.226 80.421 -43.66 C 79.574 -43.661 78.729 -43.659 77.883 -43.659" style="fill: rgb(255, 255, 255);"/>
  </g>
</svg>