<?xml version="1.0" encoding="utf-8"?>
<svg xmlns="http://www.w3.org/2000/svg">
  <path id="Path_13" data-name="Path 13" d="M 0 43.725 L 10.589 0.001 L 16.151 22.385 L 10.878 43.809 L 0.001 43.727 Z" style="fill: rgb(204, 204, 204);"/>
  <path id="Path_14" data-name="Path 14" d="M 10.588 0 L 21.341 0 L 30.57 36.31 L 19.691 36.31 L 10.586 0 Z" style="fill: rgb(254, 254, 254);"/>
  <path id="Path_15" data-name="Path 15" d="M 27.85 4.312 L 33.286 25.436 L 30.568 36.308 L 25.132 14.803 L 27.85 4.31 Z" style="fill: rgb(204, 204, 204);"/>
  <path id="Path_16" data-name="Path 16" d="M 27.85 4.312 L 34.953 31.915 L 45.69 31.915 L 38.467 4.312 Z" style="fill: rgb(255, 255, 255);"/>
  <path id="Path_17" data-name="Path 17" d="M 51.746 8.624 L 45.689 31.915 L 40.21 11.014 L 41.034 8.624 Z" style="fill: rgb(204, 204, 204);"/>
  <path id="Path_28" data-name="Path 28" d="M 79.438 31.586 L 71.414 31.586 L 70.701 25.857 L 64.424 25.857 L 62.743 31.586 L 54.845 31.586 C 54.845 31.586 54.845 30.899 61.188 8.57 C 74.164 8.474 74.65 8.48 75.329 9.645 C 75.912 10.518 76.014 11.819 79.438 31.586 Z M 67.272 12.339 L 67.272 12.339 L 64.968 21.052 L 70.336 21.052 L 69.637 12.339 Z" style="fill: rgb(255, 255, 255);"/>
  <path id="Path_18" data-name="Path 18" d="M 83.834 30.775 C 82.934 29.482 82.812 28.805 87.465 12.784 C 79.633 12.849 78.922 12.784 78.922 12.784 L 80.475 8.571 L 103.255 8.571 L 101.96 12.784 L 94.971 12.784 C 94.971 12.784 94.978 12.815 89.794 31.568 C 85.257 31.552 84.566 31.827 83.833 30.775 Z" style="fill: rgb(255, 255, 255);"/>
  <path id="Path_19" data-name="Path 19" d="M 124.348 9.546 C 125.125 10.711 124.736 11.359 119.047 31.567 C 101.438 31.68 101.826 31.551 100.92 30.515 C 99.894 29.342 100.531 28.569 106.104 8.57 C 123.998 8.57 123.578 8.383 124.348 9.546 Z M 112.575 12.524 L 112.575 12.524 L 108.433 27.797 L 112.575 27.797 L 116.716 12.524 Z" style="fill: rgb(255, 255, 255);"/>
  <path id="Path_20" data-name="Path 20" d="M 123.966 31.567 C 123.519 31.197 124.548 29.975 130.179 8.57 C 158.752 8.475 157.198 8.188 158.169 9.645 C 158.725 10.478 158.648 10.97 153.218 31.567 C 143.899 31.489 145.258 31.567 145.258 31.567 L 149.918 11.748 L 147.265 11.748 L 142.086 31.567 L 134.062 31.567 L 139.498 11.748 L 136.909 11.748 L 131.473 31.567 Z" style="fill: rgb(255, 255, 255);"/>
  <path id="Path_21" data-name="Path 21" d="M 157.198 30.71 C 156.907 29.643 157.198 29.832 162.797 8.57 C 170.886 8.378 170.563 8.57 170.563 8.57 C 170.563 8.57 170.298 9.934 164.092 31.567 C 158.559 31.489 157.474 31.722 157.199 30.713 Z" style="fill: rgb(255, 255, 255);"/>
  <path id="Path_22" data-name="Path 22" d="M 168.491 31.567 L 169.721 27.24 L 182.049 27.24 C 182.049 27.24 182.211 26.375 183.764 20.55 C 172.633 20.517 172.335 21.069 171.468 19.644 C 171.073 18.994 171.591 18.472 174.186 8.57 C 191.524 8.635 194.637 8.57 194.637 8.57 L 193.602 12.266 L 181.952 12.363 C 181.952 12.363 181.816 12.135 180.399 16.667 C 192.048 16.634 191.559 16.727 192.146 17.314 C 193.019 18.187 192.728 18.673 189.201 31.567 C 167.325 31.681 168.491 31.567 168.491 31.567 Z" style="fill: rgb(255, 255, 255);"/>
  <path id="Path_23" data-name="Path 23" d="M 198.845 8.57 C 192.438 30.349 192.594 30.082 193.311 31.002 C 193.991 31.875 195.059 31.506 222.337 31.586 C 227.774 10.539 228.421 8.57 228.421 8.57 L 220.396 8.57 L 214.83 28.704 L 211.982 28.704 L 217.548 8.57 L 209.782 8.57 L 204.216 28.575 L 201.368 28.575 L 206.934 8.57 Z" style="fill: rgb(255, 255, 255);"/>
  <path id="Path_24" data-name="Path 24" d="M 251.073 8.57 C 254.051 30.123 254.147 30.355 254.827 31.034 C 255.409 31.617 255.441 31.584 270.392 31.584 C 275.925 9.742 270.682 30.415 276.184 8.57 L 268.159 8.57 L 263.402 28.349 L 261.686 28.349 L 259.356 8.57 C 259.356 8.57 257.382 8.475 251.071 8.57 Z" style="fill: rgb(255, 255, 255);"/>
  <path id="Path_25" data-name="Path 25" d="M 300 8.57 C 300 8.57 299.126 8.57 280.326 8.57 C 274.662 30.703 274.662 30.596 275.148 31.196 C 275.635 31.795 276.313 31.584 294.822 31.567 C 295.243 28.866 295.34 27.507 295.34 27.507 L 283.4 27.507 L 284.986 20.809 L 295.437 20.711 L 296.376 16.667 L 286.021 16.667 L 287.186 12.266 L 299.224 12.266 L 300 8.57 Z" style="fill: rgb(255, 255, 255);"/>
  <path id="Path_27" data-name="Path 27" d="M 250.813 31.586 L 242.789 31.586 L 242.076 25.857 L 235.798 25.857 L 234.116 31.586 L 226.219 31.586 C 226.219 31.586 226.219 30.899 232.562 8.57 C 245.539 8.474 246.024 8.48 246.703 9.645 C 247.287 10.518 247.388 11.819 250.813 31.586 Z M 238.645 12.339 L 238.645 12.339 L 236.344 21.052 L 241.714 21.052 L 241.015 12.339 Z" style="fill: rgb(255, 255, 255);"/>
</svg>