<?xml version="1.0" encoding="utf-8"?>
<svg preserveAspectRatio="none" xmlns="http://www.w3.org/2000/svg">
  <path d="M 55.56 19.51 L 57.54 25.75 L 51.27 25.75 L 49.89 20.17 L 48.66 20.17 L 47.7 25.75 L 42 25.75 L 45.3 7 L 54.3 7 C 57.72 7 59.43 8.53 59.43 11.59 C 59.43 12.85 59.24 14.05 58.86 15.19 C 58.16 17.35 57.06 18.79 55.56 19.51 Z M 51.27 11.8 L 50.13 11.8 L 49.47 15.55 L 50.79 15.55 C 51.47 15.55 51.983 15.477 52.33 15.33 C 52.683 15.177 52.923 14.747 53.05 14.04 C 53.183 13.327 53.25 12.89 53.25 12.73 C 53.25 12.33 53.097 12.073 52.79 11.96 C 52.477 11.853 51.97 11.8 51.27 11.8 Z" style="white-space: pre; fill: rgb(255, 255, 255);"/>
  <path d="M 71.11 16.22 L 70.46 19.85 L 65.71 19.85 L 65.38 21.75 L 71.21 21.75 L 70.51 25.75 L 59.93 25.75 L 62.68 10.12 L 73.13 10.12 L 71.83 14.12 L 66.71 14.12 L 66.36 16.22 L 71.11 16.22 Z M 86.43 10.12 L 85.71 14.12 L 82.26 14.12 L 80.23 25.75 L 75.48 25.75 L 77.51 14.12 L 74.08 14.12 L 74.81 10.12 L 86.43 10.12 Z M 96.98 20.55 L 98.63 25.75 L 93.41 25.75 L 92.26 21.1 L 91.23 21.1 L 90.43 25.75 L 85.68 25.75 L 88.43 10.12 L 95.93 10.12 C 98.783 10.12 100.21 11.397 100.21 13.95 C 100.21 14.997 100.05 15.997 99.73 16.95 C 99.15 18.75 98.233 19.95 96.98 20.55 Z M 93.41 14.12 L 92.46 14.12 L 91.91 17.25 L 93.01 17.25 C 93.577 17.25 94.003 17.187 94.29 17.06 C 94.583 16.933 94.783 16.577 94.89 15.99 C 95.003 15.397 95.06 15.033 95.06 14.9 C 95.06 14.567 94.93 14.353 94.67 14.26 C 94.41 14.167 93.99 14.12 93.41 14.12 Z M 106.885 15.35 L 105.735 21.85 L 107.705 21.85 C 108.352 21.85 108.835 21.77 109.155 21.61 C 109.475 21.45 109.685 21.087 109.785 20.52 L 110.935 14.02 L 108.925 14.02 C 108.298 14.02 107.825 14.1 107.505 14.26 C 107.192 14.42 106.985 14.783 106.885 15.35 Z M 109.755 9.75 C 111.875 9.75 113.385 10.163 114.285 10.99 C 115.185 11.81 115.635 13.08 115.635 14.8 C 115.635 16.513 115.362 18.31 114.815 20.19 C 114.275 22.063 113.418 23.52 112.245 24.56 C 111.072 25.607 109.355 26.13 107.095 26.13 C 104.835 26.13 103.255 25.717 102.355 24.89 C 101.455 24.063 101.005 22.793 101.005 21.08 C 101.005 20.26 101.122 19.18 101.355 17.84 C 101.588 16.493 101.898 15.333 102.285 14.36 C 102.665 13.387 103.182 12.54 103.835 11.82 C 105.082 10.44 107.055 9.75 109.755 9.75 Z" style="white-space: pre; fill: rgb(255, 255, 255);"/>
  <path d="M 121.875 22.78 L 120.705 25.75 L 114.705 25.75 L 122.595 7 L 131.415 7 L 132.735 25.75 L 126.705 25.75 L 126.585 22.78 L 121.875 22.78 Z M 126.135 12.76 L 125.835 12.76 L 123.735 18.01 L 126.135 18.01 L 126.135 12.76 Z" style="white-space: pre; fill: rgb(255, 255, 255);"/>
  <path d="M 145.425 21.27 L 145.025 25.47 C 143.958 25.91 142.608 26.13 140.975 26.13 C 138.875 26.13 137.372 25.72 136.465 24.9 C 135.558 24.08 135.105 22.82 135.105 21.12 C 135.105 20.407 135.222 19.35 135.455 17.95 C 135.955 15.083 136.815 13 138.035 11.7 C 139.262 10.4 141.202 9.75 143.855 9.75 C 144.468 9.75 145.172 9.813 145.965 9.94 C 146.758 10.06 147.338 10.213 147.705 10.4 L 146.305 14.22 C 145.318 13.987 144.395 13.87 143.535 13.87 C 142.682 13.87 142.072 13.953 141.705 14.12 C 141.338 14.287 141.112 14.62 141.025 15.12 L 139.875 21.67 C 140.475 21.803 141.092 21.87 141.725 21.87 C 143.078 21.87 144.312 21.67 145.425 21.27 Z M 160.255 25.75 L 155.505 25.75 L 156.445 20.22 L 152.875 20.22 L 151.925 25.75 L 147.175 25.75 L 149.925 10.12 L 154.675 10.12 L 153.705 15.65 L 157.275 15.65 L 158.255 10.12 L 163.005 10.12 L 160.255 25.75 Z M 167.975 25.75 L 163.225 25.75 L 165.975 10.12 L 170.725 10.12 L 167.975 25.75 Z M 182.105 16.22 L 181.455 19.85 L 176.705 19.85 L 176.375 21.75 L 182.205 21.75 L 181.505 25.75 L 170.925 25.75 L 173.675 10.12 L 184.125 10.12 L 182.825 14.12 L 177.705 14.12 L 177.355 16.22 L 182.105 16.22 Z M 190.975 20.05 L 194.755 10.12 L 199.775 10.12 L 193.355 25.75 L 186.405 25.75 L 185.475 10.12 L 190.755 10.12 L 190.755 20.05 L 190.975 20.05 Z M 209.905 16.22 L 209.255 19.85 L 204.505 19.85 L 204.175 21.75 L 210.005 21.75 L 209.305 25.75 L 198.725 25.75 L 201.475 10.12 L 211.925 10.12 L 210.625 14.12 L 205.505 14.12 L 205.155 16.22 L 209.905 16.22 Z M 218.105 18.17 L 216.475 25.75 L 211.525 25.75 L 215.175 10.12 L 221.375 10.12 L 221.825 18.07 L 222.005 18.07 L 225.255 10.12 L 231.455 10.12 L 229.595 25.75 L 224.625 25.75 L 225.675 18.17 L 225.505 18.17 L 222.375 25.75 L 218.755 25.75 L 218.225 18.17 L 218.105 18.17 Z M 243.43 16.22 L 242.78 19.85 L 238.03 19.85 L 237.7 21.75 L 243.53 21.75 L 242.83 25.75 L 232.25 25.75 L 235 10.12 L 245.45 10.12 L 244.15 14.12 L 239.03 14.12 L 238.68 16.22 L 243.43 16.22 Z M 258.7 25.75 L 254.23 25.75 L 251.68 20.2 C 251.613 20.08 251.58 19.917 251.58 19.71 C 251.58 19.503 251.597 19.267 251.63 19 L 251.43 19 L 250.25 25.75 L 245.5 25.75 L 248.25 10.12 L 252.73 10.12 L 255.28 15.67 C 255.327 15.79 255.35 15.953 255.35 16.16 C 255.35 16.367 255.333 16.603 255.3 16.87 L 255.5 16.87 L 256.7 10.12 L 261.45 10.12 L 258.7 25.75 Z M 275.125 10.12 L 274.405 14.12 L 270.955 14.12 L 268.925 25.75 L 264.175 25.75 L 266.205 14.12 L 262.775 14.12 L 263.505 10.12 L 275.125 10.12 Z M 273.925 25.47 L 275.325 21.35 C 276.725 21.73 278.008 21.92 279.175 21.92 C 280.342 21.92 281.285 21.87 282.005 21.77 L 282.205 20.52 L 280.125 20.32 C 278.545 20.173 277.425 19.817 276.765 19.25 C 276.105 18.683 275.775 17.883 275.775 16.85 C 275.775 16.397 275.825 15.897 275.925 15.35 C 276.312 13.217 277.008 11.75 278.015 10.95 C 279.022 10.15 280.585 9.75 282.705 9.75 C 284.818 9.75 286.685 9.957 288.305 10.37 L 287.005 14.37 C 285.552 14.123 284.385 14 283.505 14 C 282.618 14 281.868 14.04 281.255 14.12 L 281.055 15.35 L 282.725 15.52 C 284.425 15.707 285.635 16.113 286.355 16.74 C 287.068 17.36 287.425 18.197 287.425 19.25 C 287.425 20.317 287.192 21.417 286.725 22.55 C 286.492 23.13 286.238 23.617 285.965 24.01 C 285.692 24.403 285.342 24.737 284.915 25.01 C 284.488 25.283 284.102 25.493 283.755 25.64 C 283.402 25.78 282.958 25.883 282.425 25.95 C 281.645 26.07 280.688 26.13 279.555 26.13 C 277.482 26.13 275.605 25.91 273.925 25.47 Z" style="white-space: pre; fill: rgb(255, 255, 255);"/>
  <path d="M 33.226 3.853 L 26.967 3.853 L 26.967 1.445 C 26.967 0.644 26.322 0 25.522 0 L 9.149 0 C 8.348 0 7.705 0.644 7.705 1.445 L 7.705 3.853 L 1.444 3.853 C 0.644 3.853 0 4.496 0 5.297 L 0 8.668 C 0 10.817 1.354 13.026 3.726 14.73 C 5.622 16.096 7.927 16.963 10.347 17.239 C 12.237 20.376 14.446 21.67 14.446 21.67 L 14.446 26.003 L 11.557 26.003 C 9.432 26.003 7.705 27.25 7.705 29.374 L 7.705 30.097 C 7.705 30.494 8.029 30.819 8.427 30.819 L 26.244 30.819 C 26.641 30.819 26.967 30.494 26.967 30.097 L 26.967 29.374 C 26.967 27.25 25.239 26.003 23.114 26.003 L 20.225 26.003 L 20.225 21.67 C 20.225 21.67 22.434 20.376 24.324 17.239 C 26.75 16.963 29.055 16.096 30.945 14.73 C 33.311 13.026 34.671 10.817 34.671 8.668 L 34.671 5.297 C 34.671 4.496 34.027 3.853 33.226 3.853 Z M 5.977 11.606 C 4.509 10.546 3.852 9.366 3.852 8.668 L 3.852 7.705 L 7.716 7.705 C 7.777 9.667 8.065 11.389 8.487 12.894 C 7.578 12.581 6.729 12.147 5.977 11.606 Z M 30.819 8.668 C 30.819 9.637 29.753 10.841 28.693 11.606 C 27.942 12.147 27.086 12.581 26.178 12.894 C 26.599 11.389 26.888 9.667 26.948 7.705 L 30.819 7.705 L 30.819 8.668 Z" style="fill: rgb(255, 255, 255);"/>
</svg>