<?xml version="1.0" encoding="utf-8"?>
<svg version="1.1" xmlns="http://www.w3.org/2000/svg">
  <path id="path3347" d="M 230.87 119.239 L 230.824 73.474 L 223.474 99.042 L 216.135 73.591 L 216.091 108.331 L 192.128 90.436 L 193.944 89.08 L 193.86 0.003 L 216.638 0.062 L 223.465 23.876 L 230.303 0.031 L 264 0.14 L 252.943 8.366 L 252.923 135.797 Z M 11.188 8.345 L 0 0 L 63.062 0.085 L 70.279 5.576 L 70.286 89.05 L 72.198 90.429 L 11.202 136 Z M 48.198 73.468 L 48.174 25.295 L 46.483 23.92 L 33.37 23.982 L 33.341 84.561 Z M 72.147 86.421 L 72.135 5.567 L 79.533 0.048 L 123.799 0.045 L 131.182 5.587 L 131.209 99.147 L 110.274 114.825 Z M 107.21 23.872 L 96.045 23.949 L 94.301 25.283 L 94.325 73.49 L 108.991 84.442 L 109.029 25.31 Z M 133.108 99.235 L 133.054 5.545 L 140.428 0.031 L 184.752 0.073 L 192.173 5.593 L 192.122 86.26 L 154.198 114.806 Z M 169.982 73.458 L 169.977 25.263 L 168.112 23.844 L 156.965 23.88 L 155.172 25.254 L 155.283 84.293 Z" style="fill-opacity: 1; stroke: none; fill: rgb(255, 255, 255);"/>
</svg>