<?xml version="1.0" encoding="utf-8"?>
<svg version="1.1" xmlns="http://www.w3.org/2000/svg">
  <path id="path3347" d="M 262.352 135.898 L 262.3 83.739 L 253.948 112.878 L 245.608 83.872 L 245.558 123.466 L 218.327 103.071 L 220.391 101.525 L 220.296 0.003 L 246.18 0.071 L 253.938 27.211 L 261.708 0.035 L 300 0.159 L 287.435 9.535 L 287.413 154.768 Z M 12.714 9.511 L 0 0 L 71.661 0.097 L 79.863 6.354 L 79.87 101.491 L 82.043 103.063 L 12.73 155 Z M 54.771 83.732 L 54.743 28.828 L 52.822 27.261 L 37.921 27.333 L 37.888 96.375 Z M 81.985 98.494 L 81.972 6.344 L 90.378 0.054 L 140.681 0.051 L 149.07 6.367 L 149.101 112.999 L 125.311 130.867 Z M 121.829 27.207 L 109.142 27.294 L 107.16 28.815 L 107.188 83.757 L 123.853 96.239 L 123.897 28.845 Z M 151.259 113.099 L 151.198 6.319 L 159.577 0.035 L 209.946 0.083 L 218.378 6.374 L 218.32 98.311 L 175.225 130.846 Z M 193.161 83.721 L 193.156 28.792 L 191.036 27.175 L 178.369 27.216 L 176.332 28.782 L 176.458 96.069 Z" style="fill-opacity: 1; stroke: none; fill: rgb(255, 255, 255);"/>
</svg>