<?xml version="1.0" encoding="utf-8"?>
<svg version="1.1" id="Layer_1" xmlns="http://www.w3.org/2000/svg">
  <g transform="matrix(0.627351, 0, 0, 0.617429, -112.410645, 43.998764)">
    <path id="path5" d="M 225.74 59.585 C 220.683 66.455 215.674 68.407 213.483 69.46 C 211.296 70.516 207.98 71.343 205.08 71.343 C 196.943 71.343 190.594 68.691 186.029 63.405 C 181.464 58.097 179.183 50.657 179.183 41.004 C 179.183 29.596 182.061 19.919 187.842 11.932 C 193.621 3.97 201.284 0.002 210.834 0.002 C 218.079 0.002 224.005 2.036 228.645 6.127 C 233.283 10.198 235.591 16.597 235.591 25.302 L 221.576 25.302 C 221.576 21.135 220.656 18.208 218.818 16.522 C 216.986 14.859 214.352 14.014 210.907 14.014 C 205.276 14.014 200.934 16.769 197.833 22.252 C 194.758 27.758 193.192 34.007 193.192 41.028 C 193.192 45.817 194.212 49.736 196.194 52.76 C 198.204 55.813 201.203 57.325 205.201 57.325 C 209.368 57.325 212.59 56.133 214.923 53.776 C 217.231 51.447 218.942 48.418 220.034 44.721 L 206.984 44.721 L 209.096 32.022 L 234.544 32.022 L 232.387 44.323 C 232.39 44.329 230.776 52.714 225.74 59.585 L 225.74 59.585 Z" style="fill-opacity: 1; fill: rgb(255, 255, 255);"/>
    <polygon id="polygon9" points="346.74 1.764 335.355 69.684 323.102 69.684 332.751 17.044 311.467 69.684 301.423 69.684 296.785 17.068 289.462 69.684 277.064 69.684 288.397 1.764 305.789 1.764 309.684 49.588 329.23 1.637" style="fill-opacity: 1; fill: rgb(255, 255, 255);"/>
    <polygon id="polygon11" points="359.714 28.057 379.734 28.057 377.646 41.23 357.629 41.23 355.052 55.692 377.646 55.692 375.419 69.684 339.797 69.684 351.057 1.689 386.254 1.689 384.1 15.777 361.947 15.777" style="fill-opacity: 1; fill: rgb(255, 255, 255);"/>
    <path id="path13" d="M 253.028 1.637 L 225.643 69.684 L 238.989 69.684 L 243.874 56.411 L 261.338 56.411 L 262.478 69.684 L 275.401 69.684 L 267.662 1.64 L 253.028 1.64 Z M 248.116 44.803 L 258.04 17.738 L 260.345 44.803 L 248.116 44.803 Z" style="fill-opacity: 1; fill: rgb(255, 255, 255);"/>
    <path id="path5_1_" d="M 455.384 59.585 C 450.324 66.455 445.321 68.407 443.13 69.46 C 440.94 70.516 437.624 71.343 434.724 71.343 C 426.59 71.343 420.238 68.691 415.676 63.408 C 411.108 58.097 408.827 50.657 408.827 41.007 C 408.827 29.596 411.705 19.922 417.486 11.935 C 423.264 3.973 430.928 0.002 440.481 0.002 C 447.723 0.002 453.652 2.039 458.289 6.13 C 462.93 10.201 465.235 16.6 465.235 25.305 L 451.223 25.305 C 451.223 21.138 450.306 18.211 448.468 16.525 C 446.633 14.862 444.002 14.02 440.554 14.02 C 434.923 14.02 430.581 16.772 427.483 22.255 C 424.405 27.761 422.842 34.01 422.842 41.031 C 422.842 45.82 423.859 49.739 425.841 52.763 C 427.854 55.816 430.853 57.328 434.848 57.328 C 439.018 57.328 442.24 56.139 444.573 53.779 C 446.881 51.45 448.592 48.424 449.684 44.725 L 436.634 44.725 L 438.743 32.025 L 464.194 32.025 L 462.034 44.329 C 462.034 44.329 460.42 52.714 455.384 59.585 L 455.384 59.585 Z" style="fill-opacity: 1; fill: rgb(255, 255, 255);"/>
    <polygon id="polygon15" points="481.532 28.081 501.524 28.081 499.466 41.23 479.447 41.23 476.846 55.692 499.466 55.692 497.234 69.705 461.611 69.705 472.875 1.689 508.075 1.689 505.917 15.777 483.761 15.777" style="fill-opacity: 1; fill: rgb(255, 255, 255);"/>
    <path id="path17" d="M 525.783 1.665 L 498.398 69.708 L 511.771 69.708 L 516.629 56.435 L 534.117 56.435 L 535.258 69.708 L 548.157 69.708 L 540.417 1.665 L 525.783 1.665 Z M 520.895 44.8 L 530.795 17.738 L 533.127 44.8 L 520.895 44.8 Z" style="fill-opacity: 1; fill: rgb(255, 255, 255);"/>
    <path id="path19" d="M 568.846 31.578 L 571.824 14.835 L 578.966 14.835 C 581.594 14.835 583.556 15.306 584.871 16.25 C 586.184 17.216 586.829 19.126 586.829 22.004 C 586.829 25.23 585.764 27.61 583.655 29.197 C 581.519 30.788 578.818 31.578 575.545 31.578 L 568.846 31.578 L 568.846 31.578 Z M 560.784 1.689 L 549.523 69.705 L 562.543 69.705 L 566.912 43.783 L 572.938 43.783 L 583.009 69.705 L 597.942 69.705 L 586.778 41.004 C 590.673 39.022 594.023 35.721 596.355 32.275 C 598.784 28.727 600 24.584 600 19.847 C 600 13.423 598.561 8.807 595.658 5.955 C 592.783 3.104 588.685 1.689 583.429 1.689 L 560.784 1.689 L 560.784 1.689 Z" style="fill-opacity: 1; fill: rgb(255, 255, 255);"/>
  </g>
  <g transform="matrix(1.419355, 0, 0, 1.428571, -107.000023, 54.255703)">
    <path d="M 124.001 -9.979 L 136.288 -9.979 C 141.309 -9.979 145.395 -14.036 145.395 -19.02 C 145.395 -24.003 141.309 -28.037 136.288 -28.037 L 133.084 -28.037 C 132.832 -28.037 132.629 -28.236 132.629 -28.487 C 132.629 -28.763 132.83 -28.962 133.084 -28.962 L 145.345 -28.962 L 145.371 -32.77 L 133.084 -32.77 C 130.711 -32.77 128.795 -30.867 128.795 -28.511 C 128.795 -26.133 130.711 -24.203 133.084 -24.203 L 136.288 -24.203 C 139.164 -24.203 141.511 -21.874 141.511 -19.019 C 141.511 -16.164 139.164 -13.859 136.288 -13.859 L 124.001 -13.859 L 124.001 -9.979 L 124.001 -9.979 Z" id="path-1" style="fill-opacity: 1; fill: rgb(255, 255, 255);"/>
    <path d="M 124.001 -14.737 L 136.288 -14.737 C 138.684 -14.737 140.602 -16.666 140.602 -19.02 C 140.602 -21.374 138.685 -23.303 136.288 -23.303 L 133.084 -23.303 C 130.208 -23.303 127.887 -25.657 127.887 -28.512 C 127.887 -31.368 130.208 -33.67 133.084 -33.67 L 145.37 -33.67 L 145.345 -37.527 L 133.083 -37.527 C 128.062 -37.527 124 -33.496 124 -28.487 C 124 -23.503 128.062 -19.471 133.083 -19.471 L 136.262 -19.471 C 136.514 -19.471 136.717 -19.27 136.717 -19.02 C 136.717 -18.769 136.514 -18.569 136.262 -18.569 L 124 -18.569 L 124.001 -14.737 L 124.001 -14.737 Z" id="path7" style="fill-opacity: 1; fill: rgb(255, 255, 255);"/>
    <path d="M 154.907 -13.835 C 152.789 -13.835 151.049 -15.513 151.049 -17.667 L 151.049 -29.915 C 151.049 -31.968 152.789 -33.696 154.907 -33.696 L 168.027 -33.696 L 168.027 -37.527 L 154.907 -37.527 C 150.644 -37.527 147.187 -34.096 147.187 -29.865 L 147.187 -17.667 C 147.187 -13.434 150.643 -10.004 154.907 -10.004 L 167.977 -10.004 L 167.977 -13.834 L 154.907 -13.835 L 154.907 -13.835 Z" id="path9" style="fill-opacity: 1; fill: rgb(255, 255, 255);"/>
    <path d="M 151.981 -29.865 C 151.981 -31.467 153.292 -32.795 154.907 -32.795 L 168.027 -32.795 L 168.027 -28.963 L 156.725 -28.963 C 155.815 -28.963 155.815 -28.061 155.815 -28.061 L 165.252 -28.061 L 165.252 -24.229 L 151.981 -24.229 L 151.981 -29.865 L 151.981 -29.865 Z" id="path11" style="fill-opacity: 1; fill: rgb(255, 255, 255);"/>
    <path d="M 154.907 -14.762 C 153.292 -14.762 151.981 -16.064 151.981 -17.667 L 151.981 -23.303 L 165.252 -23.303 L 165.252 -19.471 L 155.815 -19.471 C 155.815 -18.569 156.724 -18.569 156.724 -18.569 L 167.976 -18.569 L 167.976 -14.763 L 154.907 -14.762 L 154.907 -14.762 Z" id="path-2" style="fill-opacity: 1; fill: rgb(255, 255, 255);"/>
    <path d="M 177.236 -13.835 C 175.092 -13.835 173.35 -15.565 173.35 -17.667 L 173.35 -29.865 C 173.35 -31.968 175.092 -33.696 177.212 -33.696 L 189.928 -33.696 L 189.928 -37.527 L 177.186 -37.527 C 172.922 -37.527 169.465 -34.096 169.465 -29.865 L 169.465 -17.667 C 169.465 -13.434 172.947 -10.004 177.212 -10.004 L 189.928 -10.004 L 189.928 -28.06 L 179.002 -28.06 L 179.002 -24.229 L 186.068 -24.229 L 186.068 -13.835 L 177.236 -13.835 L 177.236 -13.835 Z" id="path15" style="fill-opacity: 1; fill: rgb(255, 255, 255);"/>
    <path d="M 174.258 -17.667 C 174.258 -16.065 175.597 -14.737 177.211 -14.737 L 185.158 -14.737 L 185.158 -23.327 L 179.002 -23.327 L 179.002 -19.471 L 181.298 -19.471 L 181.298 -18.569 L 179.028 -18.569 C 178.522 -18.569 178.119 -18.993 178.119 -19.471 L 178.119 -28.06 C 178.119 -28.06 178.119 -28.963 179.028 -28.963 L 189.928 -28.963 L 189.928 -32.795 L 177.211 -32.795 C 175.597 -32.795 174.258 -31.467 174.258 -29.865 L 174.258 -17.667 L 174.258 -17.667 Z" id="path-3" style="fill-opacity: 1; fill: rgb(255, 255, 255);"/>
    <path d="M 201.861 -32.844 C 202.037 -33.345 202.492 -33.696 203.047 -33.696 C 203.602 -33.696 204.057 -33.344 204.233 -32.844 L 210.39 -14.712 L 201.384 -14.712 L 201.384 -18.97 L 204.411 -18.97 L 203.049 -23.003 L 198.607 -10.004 L 194.067 -10.004 L 201.861 -32.844 L 201.861 -32.844 Z" id="path-4" style="fill-opacity: 1; fill: rgb(255, 255, 255);"/>
    <path d="M 211.651 -13.835 L 201.382 -13.835 L 201.382 -10.005 L 217 -10.005 L 208.875 -33.922 C 208.168 -36.25 205.822 -37.979 203.047 -37.979 C 200.272 -37.979 197.925 -36.276 197.219 -33.922 L 189.017 -10.005 L 193.104 -10.005 L 201.051 -33.27 C 201.38 -34.047 202.136 -34.573 203.045 -34.573 C 203.928 -34.573 204.685 -34.047 205.014 -33.27 L 211.651 -13.835 L 211.651 -13.835 Z" id="path-5" style="fill-opacity: 1; fill: rgb(255, 255, 255);"/>
  </g>
</svg>