<?xml version="1.0" encoding="utf-8"?>
<svg id="svg2" version="1.1" xmlns="http://www.w3.org/2000/svg">
  <g>
    <polygon id="_43443024" points="286.972 0.484 300 0.484 281.633 29.057 278.654 51.348 266.88 51.348 270.331 25.913 258.557 0.484 271.272 0.484 277.554 14.929" style="fill: rgb(255, 255, 255);"/>
    <polygon id="_43441624" points="149.773 31.253 165.31 31.253 166.881 19.951 151.499 19.951 152.6 11.786 170.491 11.786 172.221 0.484 142.551 0.484 135.487 51.348 164.998 51.348 166.568 40.041 148.673 40.041" style="fill: rgb(255, 255, 255);"/>
    <path id="_43775888" d="M 59.352 26.227 L 63.277 15.71 L 64.534 26.227 L 59.353 26.227 Z M 55.114 36.274 L 65.787 36.274 L 67.673 51.344 L 86.98 51.344 L 95.929 23.715 L 100.325 51.344 L 110.53 51.344 L 121.832 22.146 L 123.716 51.344 L 135.017 51.344 L 131.878 0.482 L 118.377 0.482 L 107.858 27.325 L 103.776 0.482 L 91.689 0.482 L 77.874 42.239 L 72.694 0.482 L 57.624 0.482 L 40.826 42.708 L 43.024 26.227 L 22.614 26.227 L 21.2 36.272 L 30.149 36.272 L 29.52 39.726 C 27.951 40.667 24.341 40.825 22.928 40.825 C 21.516 40.825 10.998 39.884 11.468 28.58 C 11.936 17.279 27.005 6.761 44.901 12.569 L 46.629 1.737 C 34.698 -2.343 3.363 -0.059 0.161 27.952 C -1.721 44.436 13.35 52.285 23.395 52.13 C 29.203 52.444 35.798 50.246 38.151 48.989 L 37.367 51.344 L 49.298 51.344 L 55.106 36.274 Z" style="fill: rgb(255, 255, 255);"/>
    <path id="_44102912" d="M 245.841 0.014 C 237.678 -0.301 225.904 4.409 221.98 23.404 C 218.056 42.397 228.572 50.09 238.306 51.347 C 248.039 52.602 261.697 46.48 264.207 28.271 C 266.722 10.06 257.768 0.485 245.841 0.014 Z M 244.588 10.846 C 247.884 10.846 254.947 13.044 253.22 26.228 C 251.494 39.415 243.331 40.985 240.349 40.672 C 237.364 40.356 231.243 38.317 232.97 26.228 C 234.7 14.143 241.135 10.688 244.591 10.846 Z" style="fill: rgb(255, 255, 255);"/>
    <path id="_44104296" d="M 196.234 19.951 L 202.828 19.951 C 207.693 19.951 208.636 16.811 208.791 15.556 C 208.948 14.3 207.536 11.788 205.026 11.788 L 197.334 11.788 L 196.238 19.951 Z M 193.408 40.044 L 202.357 40.044 C 207.222 40.044 208.321 36.277 208.478 35.02 C 208.635 33.765 207.222 31.253 204.711 31.253 L 194.665 31.253 L 193.41 40.044 Z M 180.226 51.347 L 187.291 0.485 L 208.953 0.485 C 214.135 0.485 221.669 6.452 220.728 14.456 C 219.786 22.463 217.274 22.935 215.547 24.19 C 218.217 26.543 220.884 30.31 219.786 37.375 C 218.686 44.441 212.878 51.347 202.676 51.347 L 180.227 51.347 Z" style="fill: rgb(255, 255, 255);"/>
    <path id="path12" d="M 61.895 56.917 L 55.235 56.917 L 39.537 83.346 L 58.226 83.346 L 58.226 77.487 L 50.609 77.487 L 58.226 63.825 L 69.268 83.378 L 77.779 83.378 L 77.779 83.316 L 91.07 83.316 C 102.573 83.316 108.341 78.875 108.341 70.087 C 108.341 68.575 108.155 67.157 107.754 65.831 L 118.362 83.317 L 123.451 83.317 L 138.716 56.95 L 130.636 56.95 L 121.105 74.217 L 111.052 56.948 L 102.356 56.948 L 104.761 60.895 C 101.956 58.243 97.915 56.948 92.642 56.948 L 75.156 56.948 L 75.156 78.873 L 61.895 56.917 L 61.895 56.917 Z M 82.681 62.898 L 92.705 62.898 C 97.915 62.898 100.567 65.181 100.567 69.744 C 100.567 72.49 99.736 74.495 98.162 75.542 C 96.65 76.622 93.783 77.146 89.774 77.146 L 82.712 77.146 L 82.712 62.898 L 82.681 62.898 Z" style="fill-opacity: 1; fill: rgb(255, 255, 255);"/>
    <polygon id="polygon14" points="149.972 56.917 143.28 56.917 127.643 83.345 135.539 83.345 135.539 83.283 146.332 83.283 146.332 77.393 138.778 77.393 146.272 63.794 157.312 83.345 165.915 83.345 165.915 83.283 170.295 83.283 170.295 67.34 190.248 83.283 195.428 83.283 195.428 56.917 188.52 56.917 188.52 72.674 168.382 56.917 163.231 56.917 163.231 78.843" style="fill-opacity: 1; fill: rgb(255, 255, 255);"/>
    <path id="path16" d="M 199.376 58.395 C 198.296 59.353 197.742 61.079 197.742 63.547 L 197.742 76.622 C 197.742 79.151 198.296 80.878 199.345 81.834 C 200.363 82.791 202.212 83.284 204.928 83.284 L 220.439 83.284 C 223.123 83.284 225.065 82.791 226.083 81.834 C 227.1 80.879 227.687 79.151 227.687 76.622 L 227.687 72.952 L 220.07 72.83 L 220.07 76.9 L 205.328 76.9 L 205.328 63.054 L 220.07 63.054 L 220.07 66.662 L 227.687 66.662 L 227.687 63.547 C 227.687 60.957 227.101 59.229 226.083 58.395 C 225.065 57.378 223.277 56.885 220.439 56.885 L 204.928 56.885 C 202.244 56.917 200.393 57.38 199.376 58.395 L 199.376 58.395 Z" style="fill-opacity: 1; fill: rgb(255, 255, 255);"/>
    <polygon id="polygon18" points="237.832 66.693 237.832 62.898 258.401 62.898 258.401 56.917 230.215 56.917 230.215 83.283 258.74 83.283 258.74 77.177 237.832 77.177 237.832 72.49 249.89 72.49 249.89 66.693" style="fill-opacity: 1; fill: rgb(255, 255, 255);"/>
  </g>
</svg>