<?xml version="1.0" encoding="utf-8"?>
<svg id="svg2" version="1.1" enable-background="new 0 0 566.929 98.574" y="0px" x="0px" xmlns="http://www.w3.org/2000/svg">
  <g>
    <polygon id="_43443024" points="573.944 0.968 600 0.968 563.266 58.114 557.307 102.696 533.76 102.696 540.661 51.826 517.114 0.968 542.544 0.968 555.107 29.858" style="fill: rgb(255, 255, 255);"/>
    <polygon id="_43441624" points="299.546 62.507 330.62 62.507 333.761 39.902 302.997 39.902 305.2 23.573 340.981 23.573 344.442 0.968 285.102 0.968 270.973 102.696 329.995 102.696 333.136 80.082 297.346 80.082" style="fill: rgb(255, 255, 255);"/>
    <path id="_43775888" d="M 118.703 52.454 L 126.553 31.421 L 129.067 52.454 L 118.706 52.454 Z M 110.227 72.548 L 131.574 72.548 L 135.346 102.687 L 173.96 102.687 L 191.858 47.43 L 200.65 102.687 L 221.059 102.687 L 243.664 44.292 L 247.432 102.687 L 270.034 102.687 L 263.755 0.965 L 236.754 0.965 L 215.715 54.65 L 207.551 0.965 L 183.377 0.965 L 155.748 84.478 L 145.387 0.965 L 115.248 0.965 L 81.651 85.417 L 86.047 52.454 L 45.227 52.454 L 42.4 72.545 L 60.298 72.545 L 59.04 79.452 C 55.902 81.334 48.682 81.651 45.855 81.651 C 43.031 81.651 21.995 79.769 22.936 57.161 C 23.871 34.559 54.01 13.522 89.801 25.139 L 93.258 3.475 C 69.395 -4.686 6.725 -0.118 0.322 55.905 C -3.443 88.872 26.699 104.57 46.79 104.259 C 58.406 104.887 71.595 100.491 76.302 97.977 L 74.733 102.687 L 98.596 102.687 L 110.212 72.548 Z" style="fill: rgb(255, 255, 255);"/>
    <path id="_44102912" d="M 491.682 0.029 C 475.356 -0.601 451.807 8.819 443.959 46.808 C 436.111 84.795 457.144 100.18 476.611 102.693 C 496.078 105.204 523.393 92.96 528.414 56.542 C 533.444 20.121 515.536 0.971 491.682 0.029 Z M 489.175 21.693 C 495.768 21.693 509.894 26.089 506.439 52.457 C 502.988 78.83 486.662 81.971 480.697 81.344 C 474.728 80.713 462.485 76.634 465.939 52.457 C 469.4 28.286 482.269 21.376 489.181 21.693 Z" style="fill: rgb(255, 255, 255);"/>
    <path id="_44104296" d="M 392.467 39.902 L 405.655 39.902 C 415.386 39.902 417.272 33.623 417.582 31.113 C 417.896 28.6 415.072 23.576 410.051 23.576 L 394.667 23.576 L 392.476 39.902 Z M 386.816 80.088 L 404.714 80.088 C 414.444 80.088 416.641 72.554 416.955 70.041 C 417.269 67.531 414.444 62.507 409.421 62.507 L 389.329 62.507 L 386.819 80.088 Z M 360.451 102.693 L 374.581 0.971 L 417.905 0.971 C 428.269 0.971 443.337 12.904 441.455 28.913 C 439.572 44.926 434.548 45.87 431.093 48.38 C 436.434 53.087 441.768 60.621 439.572 74.751 C 437.372 88.881 425.756 102.693 405.351 102.693 L 360.454 102.693 Z" style="fill: rgb(255, 255, 255);"/>
    <path id="path12" d="M 123.79 113.833 L 110.469 113.833 L 79.074 166.692 L 116.452 166.692 L 116.452 154.973 L 101.218 154.973 L 116.452 127.649 L 138.535 166.755 L 155.558 166.755 L 155.558 166.631 L 182.14 166.631 C 205.146 166.631 216.681 157.749 216.681 140.173 C 216.681 137.15 216.31 134.314 215.507 131.662 L 236.724 166.634 L 246.901 166.634 L 277.432 113.899 L 261.272 113.899 L 242.209 148.434 L 222.103 113.896 L 204.711 113.896 L 209.521 121.789 C 203.912 116.485 195.829 113.896 185.284 113.896 L 150.311 113.896 L 150.311 157.746 L 123.79 113.833 L 123.79 113.833 Z M 165.361 125.796 L 185.41 125.796 C 195.829 125.796 201.133 130.361 201.133 139.488 C 201.133 144.98 199.471 148.99 196.324 151.084 C 193.3 153.244 187.565 154.291 179.548 154.291 L 165.424 154.291 L 165.424 125.796 L 165.361 125.796 Z" style="fill-opacity: 1; fill: rgb(255, 255, 255);"/>
    <polygon id="polygon14" points="299.944 113.833 286.56 113.833 255.286 166.689 271.078 166.689 271.078 166.565 292.663 166.565 292.663 154.786 277.556 154.786 292.543 127.588 314.623 166.689 331.83 166.689 331.83 166.565 340.589 166.565 340.589 134.679 380.495 166.565 390.856 166.565 390.856 113.833 377.04 113.833 377.04 145.348 336.763 113.833 326.462 113.833 326.462 157.685" style="fill-opacity: 1; fill: rgb(255, 255, 255);"/>
    <path id="path16" d="M 398.752 116.79 C 396.592 118.706 395.484 122.157 395.484 127.094 L 395.484 153.244 C 395.484 158.301 396.592 161.755 398.689 163.668 C 400.725 165.581 404.424 166.568 409.855 166.568 L 440.878 166.568 C 446.246 166.568 450.129 165.581 452.166 163.668 C 454.199 161.758 455.373 158.301 455.373 153.244 L 455.373 145.903 L 440.139 145.659 L 440.139 153.799 L 410.655 153.799 L 410.655 126.107 L 440.139 126.107 L 440.139 133.324 L 455.373 133.324 L 455.373 127.094 C 455.373 121.913 454.202 118.458 452.166 116.79 C 450.129 114.756 446.554 113.77 440.878 113.77 L 409.855 113.77 C 404.488 113.833 400.785 114.759 398.752 116.79 L 398.752 116.79 Z" style="fill-opacity: 1; fill: rgb(255, 255, 255);"/>
    <polygon id="polygon18" points="475.664 133.385 475.664 125.796 516.801 125.796 516.801 113.833 460.43 113.833 460.43 166.565 517.479 166.565 517.479 154.354 475.664 154.354 475.664 144.98 499.78 144.98 499.78 133.385" style="fill-opacity: 1; fill: rgb(255, 255, 255);"/>
  </g>
  <path d="M 189.993 196.965 L 184.393 196.965 L 184.393 190.775 L 180.193 190.775 L 180.193 196.965 L 174.593 196.965 L 174.593 179.465 L 180.193 179.465 L 180.193 185.655 L 184.393 185.655 L 184.393 179.465 L 189.993 179.465 L 189.993 196.965 Z M 197.612 194.195 L 196.962 196.965 L 191.052 196.965 L 195.592 179.465 L 204.242 179.465 L 208.782 196.965 L 202.872 196.965 L 202.232 194.195 L 197.612 194.195 Z M 200.072 184.845 L 199.762 184.845 L 198.612 189.745 L 201.192 189.745 L 200.072 184.845 Z M 221.463 191.955 L 221.883 196.655 C 220.71 197.142 219.237 197.385 217.463 197.385 C 215.69 197.385 214.267 197.198 213.193 196.825 C 212.12 196.452 211.273 195.865 210.653 195.065 C 210.04 194.258 209.61 193.315 209.363 192.235 C 209.123 191.148 209.003 189.812 209.003 188.225 C 209.003 186.638 209.123 185.302 209.363 184.215 C 209.61 183.122 210.04 182.172 210.653 181.365 C 211.847 179.818 214.04 179.045 217.233 179.045 C 217.947 179.045 218.783 179.115 219.743 179.255 C 220.703 179.395 221.417 179.568 221.883 179.775 L 221.043 184.055 C 219.83 183.795 218.72 183.665 217.713 183.665 C 216.707 183.665 216.007 183.758 215.613 183.945 C 215.22 184.132 215.023 184.505 215.023 185.065 L 215.023 192.405 C 215.75 192.552 216.487 192.625 217.233 192.625 C 218.82 192.625 220.23 192.402 221.463 191.955 Z M 229.553 189.345 L 229.443 189.345 L 229.443 196.965 L 223.843 196.965 L 223.843 179.465 L 229.443 179.465 L 229.443 186.605 L 229.553 186.605 C 229.593 186.045 229.686 185.598 229.833 185.265 L 232.583 179.465 L 238.623 179.465 L 234.423 188.065 L 238.763 196.965 L 232.723 196.965 L 229.833 190.695 C 229.686 190.355 229.593 189.905 229.553 189.345 Z M 239.746 196.655 L 240.526 192.035 C 242.246 192.468 243.793 192.685 245.166 192.685 C 246.539 192.685 247.646 192.628 248.486 192.515 L 248.486 191.115 L 245.966 190.885 C 243.686 190.685 242.123 190.142 241.276 189.255 C 240.423 188.368 239.996 187.055 239.996 185.315 C 239.996 182.928 240.516 181.285 241.556 180.385 C 242.589 179.492 244.346 179.045 246.826 179.045 C 249.313 179.045 251.553 179.278 253.546 179.745 L 252.846 184.225 C 251.113 183.945 249.723 183.805 248.676 183.805 C 247.629 183.805 246.743 183.852 246.016 183.945 L 246.016 185.315 L 248.036 185.515 C 250.483 185.755 252.173 186.338 253.106 187.265 C 254.039 188.185 254.506 189.468 254.506 191.115 C 254.506 192.288 254.346 193.282 254.026 194.095 C 253.706 194.908 253.329 195.525 252.896 195.945 C 252.456 196.365 251.833 196.685 251.026 196.905 C 250.226 197.132 249.523 197.268 248.916 197.315 C 248.309 197.362 247.503 197.385 246.496 197.385 C 244.069 197.385 241.819 197.142 239.746 196.655 Z M 265.761 190.245 L 261.421 190.245 L 261.421 186.215 L 265.761 186.215 L 265.761 181.875 L 269.791 181.875 L 269.791 186.215 L 274.161 186.215 L 274.161 190.245 L 269.791 190.245 L 269.791 194.615 L 265.761 194.615 L 265.761 190.245 Z M 297.2 196.965 L 291.6 196.965 L 291.6 190.775 L 287.4 190.775 L 287.4 196.965 L 281.8 196.965 L 281.8 179.465 L 287.4 179.465 L 287.4 185.655 L 291.6 185.655 L 291.6 179.465 L 297.2 179.465 L 297.2 196.965 Z M 299.159 188.225 C 299.159 185.038 299.756 182.712 300.949 181.245 C 302.142 179.778 304.299 179.045 307.419 179.045 C 310.539 179.045 312.696 179.778 313.889 181.245 C 315.082 182.712 315.679 185.038 315.679 188.225 C 315.679 189.812 315.552 191.148 315.299 192.235 C 315.046 193.315 314.612 194.258 313.999 195.065 C 313.386 195.865 312.536 196.452 311.449 196.825 C 310.369 197.198 309.026 197.385 307.419 197.385 C 305.812 197.385 304.469 197.198 303.389 196.825 C 302.302 196.452 301.452 195.865 300.839 195.065 C 300.226 194.258 299.792 193.315 299.539 192.235 C 299.286 191.148 299.159 189.812 299.159 188.225 Z M 305.179 185.315 L 305.179 192.595 L 307.499 192.595 C 308.266 192.595 308.822 192.508 309.169 192.335 C 309.516 192.155 309.689 191.748 309.689 191.115 L 309.689 183.835 L 307.339 183.835 C 306.592 183.835 306.046 183.922 305.699 184.095 C 305.352 184.275 305.179 184.682 305.179 185.315 Z M 323.128 188.485 L 322.788 196.965 L 316.938 196.965 L 317.998 179.465 L 325.308 179.465 L 327.498 188.365 L 327.688 188.365 L 329.878 179.465 L 337.178 179.465 L 338.248 196.965 L 332.398 196.965 L 332.058 188.485 L 331.858 188.485 L 329.738 196.965 L 325.448 196.965 L 323.298 188.485 L 323.128 188.485 Z M 351.545 186.295 L 351.545 190.355 L 345.945 190.355 L 345.945 192.485 L 352.805 192.485 L 352.805 196.965 L 340.345 196.965 L 340.345 179.465 L 352.665 179.465 L 351.965 183.945 L 345.945 183.945 L 345.945 186.295 L 351.545 186.295 Z M 365.234 196.965 L 355.184 196.965 L 355.184 179.465 L 364.254 179.465 C 365.934 179.465 367.134 179.792 367.854 180.445 C 368.574 181.098 368.934 182.052 368.934 183.305 C 368.934 184.552 368.704 185.515 368.244 186.195 C 367.791 186.882 367.181 187.325 366.414 187.525 L 366.414 187.695 C 368.674 188.088 369.804 189.628 369.804 192.315 C 369.804 193.715 369.431 194.842 368.684 195.695 C 367.938 196.542 366.788 196.965 365.234 196.965 Z M 362.964 189.995 L 360.784 189.995 L 360.784 192.845 L 362.944 192.845 C 363.724 192.845 364.114 192.372 364.114 191.425 C 364.114 190.472 363.731 189.995 362.964 189.995 Z M 362.544 183.305 L 360.784 183.305 L 360.784 185.905 L 362.524 185.905 C 363.231 185.905 363.584 185.472 363.584 184.605 C 363.584 183.738 363.238 183.305 362.544 183.305 Z M 384 191.145 L 387.02 196.965 L 380.86 196.965 L 378.56 191.755 L 377.36 191.755 L 377.36 196.965 L 371.76 196.965 L 371.76 179.465 L 380.58 179.465 C 384.593 179.465 386.6 181.508 386.6 185.595 C 386.6 188.395 385.733 190.245 384 191.145 Z M 378.65 183.945 L 377.36 183.945 L 377.36 187.445 L 378.65 187.445 C 379.323 187.445 379.813 187.375 380.12 187.235 C 380.426 187.095 380.58 186.772 380.58 186.265 L 380.58 185.125 C 380.58 184.618 380.426 184.295 380.12 184.155 C 379.813 184.015 379.323 183.945 378.65 183.945 Z M 400.179 186.295 L 400.179 190.355 L 394.579 190.355 L 394.579 192.485 L 401.439 192.485 L 401.439 196.965 L 388.979 196.965 L 388.979 179.465 L 401.299 179.465 L 400.599 183.945 L 394.579 183.945 L 394.579 186.295 L 400.179 186.295 Z M 418.208 189.235 L 419.558 179.465 L 425.408 179.465 L 422.658 196.965 L 415.358 196.965 L 414.068 190.525 L 413.728 190.525 L 412.468 196.965 L 405.158 196.965 L 402.418 179.465 L 408.268 179.465 L 409.588 189.235 L 409.758 189.235 L 411.768 179.465 L 416.058 179.465 L 418.038 189.235 L 418.208 189.235 Z" style="fill: rgb(255, 255, 255); white-space: pre;"/>
</svg>