<?xml version="1.0" encoding="utf-8"?>
<svg id="svg2" version="1.1" xmlns="http://www.w3.org/2000/svg">
  <g>
    <path id="path5256" d="M 142.251 67.53 C 141.796 66.149 140.592 64.834 140.592 64.834 C 140.592 64.834 138.784 62.487 135.232 61.685 C 132.19 61.049 129.801 62.39 129.801 62.39 C 129.801 62.39 127.631 63.259 126 65.057 C 123.403 67.557 122.656 71.206 122.656 71.206 C 122.656 71.206 121.66 74.383 123.237 76.9 L 124.95 78.973 C 127.369 80.991 129.953 81.196 129.953 81.196 C 129.953 81.196 132.039 81.667 134.473 81.032 C 136.6 80.602 138.148 79.552 138.148 79.552 C 138.148 79.552 141.672 77.604 142.639 73.625 L 142.251 67.53 Z M 136.763 74.148 C 136.763 74.148 135.355 76.609 132.26 76.317 C 128.625 75.945 128.198 72.753 128.198 72.753 C 128.198 72.753 127.699 70.404 129.938 68.358 C 132.205 66.453 134.568 66.742 134.568 66.742 C 134.568 66.742 136.156 66.893 136.973 69.52 C 138.023 72.864 136.763 74.148 136.763 74.148" style="fill-opacity: 1; fill: rgb(255, 255, 255);"/>
    <path id="path5262" d="M 153.996 74.19 C 152.833 73.934 150.969 74.411 150.969 74.411 C 150.969 74.411 148.373 75.364 147.972 75.35 C 147.819 75.13 147.489 70.886 147.584 69.188 C 147.64 66.189 147.389 63.743 147.389 63.743 C 147.389 63.743 147.266 60.854 145.718 59.142 C 143.894 57.303 142.622 58.092 141.891 58.532 C 140.135 60.109 140.951 62.028 140.951 62.028 L 141.863 64.614 C 141.863 64.614 142.305 65.719 142.251 67.528 L 142.637 73.623 C 142.637 74.439 143.301 79.925 143.301 79.925 C 143.301 79.925 143.369 81.708 145.083 82.025 C 146.839 82.316 148.565 81.444 149.298 81.098 C 150.03 80.754 150.997 80.45 150.997 80.45 C 150.997 80.45 151.799 80.27 152.6 80.202 C 154.48 80.021 155.156 79.691 155.156 79.691 C 155.156 79.691 155.883 79.581 156.373 78.888 C 156.862 78.196 157.453 74.951 153.996 74.19" style="fill-opacity: 1; fill: rgb(255, 255, 255);"/>
    <path id="path5264" d="M 123.237 76.898 C 122.001 76.529 120.585 76.775 120.585 76.775 C 120.585 76.775 116.576 77.161 114.49 76.719 C 111.257 76.153 111.365 72.67 111.365 72.67 C 111.365 72.67 111.257 70.361 113.204 67.239 C 115.609 63.383 118.263 62.692 118.263 62.692 C 118.263 62.692 118.924 62.444 119.547 62.775 C 119.934 65.012 122.102 64.998 122.102 64.998 C 122.102 64.998 125.227 65.207 125.073 61.421 C 124.714 58.311 121.716 57.884 120.458 57.593 C 116.688 56.915 114.239 58.934 114.239 58.934 C 114.239 58.934 111.711 60.301 108.685 65.068 C 106.624 68.025 106.376 70.348 106.376 70.348 C 106.376 70.348 106.128 70.9 106.224 73.361 C 106.17 75.281 106.889 76.677 106.889 76.677 C 106.889 76.677 107.98 79.982 111.435 81.335 C 113.535 82.206 116.603 82.192 116.603 82.192 C 116.603 82.192 119.574 82.15 121.853 82.026 C 123.098 82.123 123.692 81.472 123.692 81.472 C 123.692 81.472 125.086 80.561 124.949 78.971 C 124.949 78.971 124.679 77.33 123.237 76.898" style="fill-opacity: 1; fill: rgb(255, 255, 255);"/>
    <path id="path5258" d="M 173.44 66.797 C 171.023 62.846 166.766 62.251 166.766 62.251 C 166.766 62.251 165.411 61.794 162.51 62.18 C 157.066 63.218 155.172 67.405 155.172 67.405 C 155.172 67.405 153.223 70.472 153.997 74.19 L 156.376 78.888 C 158.131 80.533 158.849 80.533 158.959 80.631 C 161.281 81.681 163.975 81.073 163.975 81.073 C 163.975 81.073 167.376 80.741 170.485 78.322 C 172.971 76.498 174.05 73.818 174.05 73.818 L 174.38 70.22 L 173.44 66.797 L 173.44 66.797 Z M 166.822 74.866 C 162.912 77.217 160.45 74.646 160.45 74.646 C 160.45 74.646 159.359 73.926 159.123 71.743 C 158.956 69.215 161.474 67.902 161.474 67.902 C 161.474 67.902 162.8 67.086 164.458 67.211 C 166.116 67.335 166.639 67.225 167.982 68.221 C 169.252 69.367 169.169 70.209 169.169 70.209 C 169.169 70.209 169.626 73.057 166.822 74.866" style="fill-opacity: 1; fill: rgb(255, 255, 255);"/>
    <path id="path5260" d="M 174.048 73.818 C 174.048 73.818 174.131 76.028 173.786 76.568 C 173.316 77.576 173.386 78.556 173.386 78.556 C 173.386 78.556 173.066 81.542 176.524 82.038 C 178.898 82.025 179.188 80.048 179.23 79.205 C 179.367 78.543 179.313 75.461 179.313 75.461 L 182.395 77.975 C 182.395 77.975 184.633 79.855 185.948 80.946 C 187.316 82.023 187.66 82.218 187.66 82.218 C 187.66 82.218 187.951 82.562 189 82.438 C 189.845 82.453 190.619 81.691 190.619 81.691 C 190.619 81.691 191.598 80.975 191.847 79.716 C 192.15 78.224 190.99 77.491 190.99 77.491 C 190.99 77.491 186.708 74.036 183.806 71.659 C 185.753 70.595 186.693 69.864 186.693 69.864 C 186.693 69.864 189.403 68.067 189.982 65.317 C 190.785 62.289 188.504 61.102 188.504 61.102 C 188.504 61.102 187.08 60.08 185.879 59.54 C 182.851 58.062 180.033 58.365 180.033 58.365 C 180.033 58.365 176.026 58.089 173.415 61.31 C 172.212 62.871 172.959 64.917 172.959 64.917 C 172.959 64.917 173.107 65.244 173.442 66.795 C 174.112 69.918 174.048 73.818 174.048 73.818 L 174.048 73.818 Z M 179.3 67.681 L 179.037 64.075 C 179.037 64.075 181.566 64.019 182.616 64.199 C 184.69 64.516 184.578 65.098 184.578 65.098 C 184.578 65.098 184.509 65.83 182.934 66.549 C 181.222 67.377 179.3 67.681 179.3 67.681" style="fill-opacity: 1; fill: rgb(255, 255, 255);"/>
    <polygon id="_43443024" points="286.972 0.484 300 0.484 281.633 29.057 278.654 51.348 266.88 51.348 270.331 25.913 258.557 0.484 271.272 0.484 277.554 14.929" style="fill: rgb(255, 255, 255);"/>
    <polygon id="_43441624" points="149.773 31.253 165.31 31.253 166.881 19.951 151.499 19.951 152.6 11.786 170.491 11.786 172.221 0.484 142.551 0.484 135.487 51.348 164.998 51.348 166.568 40.041 148.673 40.041" style="fill: rgb(255, 255, 255);"/>
    <path id="_43775888" d="M 59.352 26.227 L 63.277 15.71 L 64.534 26.227 L 59.353 26.227 Z M 55.114 36.274 L 65.787 36.274 L 67.673 51.344 L 86.98 51.344 L 95.929 23.715 L 100.325 51.344 L 110.53 51.344 L 121.832 22.146 L 123.716 51.344 L 135.017 51.344 L 131.878 0.482 L 118.377 0.482 L 107.858 27.325 L 103.776 0.482 L 91.689 0.482 L 77.874 42.239 L 72.694 0.482 L 57.624 0.482 L 40.826 42.708 L 43.024 26.227 L 22.614 26.227 L 21.2 36.272 L 30.149 36.272 L 29.52 39.726 C 27.951 40.667 24.341 40.825 22.928 40.825 C 21.516 40.825 10.998 39.884 11.468 28.58 C 11.936 17.279 27.005 6.761 44.901 12.569 L 46.629 1.737 C 34.698 -2.343 3.363 -0.059 0.161 27.952 C -1.721 44.436 13.35 52.285 23.395 52.13 C 29.203 52.444 35.798 50.246 38.151 48.989 L 37.367 51.344 L 49.298 51.344 L 55.106 36.274 Z" style="fill: rgb(255, 255, 255);"/>
    <path id="_44102912" d="M 245.841 0.014 C 237.678 -0.301 225.904 4.409 221.98 23.404 C 218.056 42.397 228.572 50.09 238.306 51.347 C 248.039 52.602 261.697 46.48 264.207 28.271 C 266.722 10.06 257.768 0.485 245.841 0.014 Z M 244.588 10.846 C 247.884 10.846 254.947 13.044 253.22 26.228 C 251.494 39.415 243.331 40.985 240.349 40.672 C 237.364 40.356 231.243 38.317 232.97 26.228 C 234.7 14.143 241.135 10.688 244.591 10.846 Z" style="fill: rgb(255, 255, 255);"/>
    <path id="_44104296" d="M 196.234 19.951 L 202.828 19.951 C 207.693 19.951 208.636 16.811 208.791 15.556 C 208.948 14.3 207.536 11.788 205.026 11.788 L 197.334 11.788 L 196.238 19.951 Z M 193.408 40.044 L 202.357 40.044 C 207.222 40.044 208.321 36.277 208.478 35.02 C 208.635 33.765 207.222 31.253 204.711 31.253 L 194.665 31.253 L 193.41 40.044 Z M 180.226 51.347 L 187.291 0.485 L 208.953 0.485 C 214.135 0.485 221.669 6.452 220.728 14.456 C 219.786 22.463 217.274 22.935 215.547 24.19 C 218.217 26.543 220.884 30.31 219.786 37.375 C 218.686 44.441 212.878 51.347 202.676 51.347 L 180.227 51.347 Z" style="fill: rgb(255, 255, 255);"/>
  </g>
</svg>