<?xml version="1.0" encoding="utf-8"?>
<svg id="svg2" version="1.1" enable-background="new 0 0 566.929 98.574" y="0px" x="0px" xmlns="http://www.w3.org/2000/svg">
  <g transform="matrix(0.5, 0, 0, 0.5, 0.000246, -0.000036)">
    <path id="path5256" d="M 284.502 135.059 C 283.591 132.298 281.183 129.667 281.183 129.667 C 281.183 129.667 277.568 124.973 270.463 123.37 C 264.38 122.097 259.601 124.779 259.601 124.779 C 259.601 124.779 255.262 126.517 252 130.114 C 246.805 135.113 245.311 142.412 245.311 142.412 C 245.311 142.412 243.32 148.766 246.473 153.799 L 249.9 157.945 C 254.737 161.982 259.905 162.392 259.905 162.392 C 259.905 162.392 264.078 163.333 268.945 162.063 C 273.199 161.203 276.295 159.103 276.295 159.103 C 276.295 159.103 283.343 155.208 285.277 147.249 L 284.502 135.059 Z M 273.525 148.296 C 273.525 148.296 270.71 153.217 264.519 152.634 C 257.25 151.889 256.396 145.505 256.396 145.505 C 256.396 145.505 255.398 140.807 259.875 136.716 C 264.41 132.905 269.135 133.484 269.135 133.484 C 269.135 133.484 272.312 133.786 273.945 139.039 C 276.045 145.728 273.525 148.296 273.525 148.296" style="fill-opacity: 1; fill: rgb(255, 255, 255);"/>
    <path id="path5262" d="M 307.991 148.38 C 305.665 147.867 301.938 148.821 301.938 148.821 C 301.938 148.821 296.746 150.728 295.943 150.7 C 295.638 150.26 294.978 141.772 295.168 138.375 C 295.279 132.377 294.778 127.486 294.778 127.486 C 294.778 127.486 294.531 121.708 291.435 118.283 C 287.788 114.605 285.244 116.183 283.781 117.064 C 280.269 120.217 281.901 124.055 281.901 124.055 L 283.726 129.227 C 283.726 129.227 284.61 131.438 284.502 135.056 L 285.274 147.246 C 285.274 148.878 286.602 159.849 286.602 159.849 C 286.602 159.849 286.738 163.415 290.165 164.049 C 293.677 164.631 297.129 162.887 298.595 162.196 C 300.059 161.508 301.993 160.899 301.993 160.899 C 301.993 160.899 303.598 160.54 305.2 160.404 C 308.959 160.042 310.311 159.381 310.311 159.381 C 310.311 159.381 311.765 159.161 312.746 157.776 C 313.724 156.391 314.906 149.901 307.991 148.38" style="fill-opacity: 1; fill: rgb(255, 255, 255);"/>
    <path id="path5264" d="M 246.473 153.796 C 244.002 153.057 241.169 153.549 241.169 153.549 C 241.169 153.549 233.152 154.321 228.979 153.437 C 222.513 152.306 222.73 145.339 222.73 145.339 C 222.73 145.339 222.513 140.722 226.408 134.477 C 231.218 126.765 236.525 125.383 236.525 125.383 C 236.525 125.383 237.847 124.888 239.093 125.549 C 239.868 130.023 244.204 129.996 244.204 129.996 C 244.204 129.996 250.453 130.413 250.145 122.842 C 249.427 116.621 243.431 115.767 240.915 115.185 C 233.375 113.83 228.478 117.867 228.478 117.867 C 228.478 117.867 223.421 120.601 217.369 130.135 C 213.247 136.049 212.752 140.695 212.752 140.695 C 212.752 140.695 212.255 141.8 212.448 146.721 C 212.339 150.562 213.778 153.353 213.778 153.353 C 213.778 153.353 215.96 159.963 222.869 162.67 C 227.069 164.411 233.206 164.383 233.206 164.383 C 233.206 164.383 239.147 164.299 243.706 164.052 C 246.195 164.245 247.384 162.944 247.384 162.944 C 247.384 162.944 250.172 161.122 249.897 157.942 C 249.897 157.942 249.357 154.659 246.473 153.796" style="fill-opacity: 1; fill: rgb(255, 255, 255);"/>
    <path id="path5258" d="M 346.88 133.593 C 342.046 125.691 333.532 124.502 333.532 124.502 C 333.532 124.502 330.822 123.588 325.02 124.36 C 314.131 126.436 310.344 134.809 310.344 134.809 C 310.344 134.809 306.446 140.943 307.994 148.38 L 312.752 157.776 C 316.261 161.065 317.697 161.065 317.918 161.261 C 322.561 163.361 327.95 162.145 327.95 162.145 C 327.95 162.145 334.751 161.481 340.969 156.644 C 345.941 152.996 348.099 147.635 348.099 147.635 L 348.76 140.439 L 346.88 133.593 L 346.88 133.593 Z M 333.643 149.732 C 325.823 154.433 320.899 149.291 320.899 149.291 C 320.899 149.291 318.717 147.852 318.246 143.486 C 317.911 138.429 322.947 135.804 322.947 135.804 C 322.947 135.804 325.599 134.172 328.915 134.422 C 332.231 134.67 333.278 134.45 335.964 136.441 C 338.504 138.734 338.338 140.418 338.338 140.418 C 338.338 140.418 339.252 146.114 333.643 149.732" style="fill-opacity: 1; fill: rgb(255, 255, 255);"/>
    <path id="path5260" d="M 348.096 147.635 C 348.096 147.635 348.262 152.055 347.571 153.135 C 346.632 155.151 346.771 157.112 346.771 157.112 C 346.771 157.112 346.132 163.083 353.047 164.076 C 357.796 164.049 358.375 160.096 358.46 158.409 C 358.734 157.085 358.626 150.921 358.626 150.921 L 364.79 155.95 C 364.79 155.95 369.265 159.71 371.896 161.891 C 374.632 164.046 375.32 164.435 375.32 164.435 C 375.32 164.435 375.902 165.123 377.999 164.875 C 379.689 164.905 381.237 163.382 381.237 163.382 C 381.237 163.382 383.195 161.949 383.693 159.432 C 384.299 156.448 381.979 154.982 381.979 154.982 C 381.979 154.982 373.416 148.072 367.611 143.317 C 371.506 141.19 373.386 139.727 373.386 139.727 C 373.386 139.727 378.805 136.133 379.964 130.633 C 381.569 124.577 377.007 122.203 377.007 122.203 C 377.007 122.203 374.159 120.16 371.757 119.08 C 365.701 116.123 360.065 116.729 360.065 116.729 C 360.065 116.729 352.051 116.177 346.829 122.619 C 344.424 125.742 345.917 129.833 345.917 129.833 C 345.917 129.833 346.213 130.488 346.883 133.59 C 348.223 139.835 348.096 147.635 348.096 147.635 L 348.096 147.635 Z M 358.599 135.361 L 358.074 128.15 C 358.074 128.15 363.131 128.038 365.231 128.397 C 369.379 129.031 369.156 130.195 369.156 130.195 C 369.156 130.195 369.017 131.659 365.867 133.098 C 362.443 134.754 358.599 135.361 358.599 135.361" style="fill-opacity: 1; fill: rgb(255, 255, 255);"/>
    <polygon id="_43443024" points="573.943 0.969 599.999 0.969 563.265 58.115 557.307 102.697 533.759 102.697 540.661 51.827 517.113 0.969 542.543 0.969 555.107 29.859" style="fill: rgb(255, 255, 255);"/>
    <polygon id="_43441624" points="299.545 62.507 330.619 62.507 333.761 39.903 302.997 39.903 305.199 23.573 340.981 23.573 344.441 0.969 285.101 0.969 270.973 102.697 329.995 102.697 333.135 80.083 297.345 80.083" style="fill: rgb(255, 255, 255);"/>
    <path id="_43775888" d="M 118.703 52.455 L 126.553 31.421 L 129.067 52.455 L 118.705 52.455 Z M 110.227 72.549 L 131.573 72.549 L 135.345 102.689 L 173.959 102.689 L 191.857 47.431 L 200.649 102.689 L 221.059 102.689 L 243.663 44.293 L 247.431 102.689 L 270.033 102.689 L 263.755 0.965 L 236.753 0.965 L 215.715 54.651 L 207.551 0.965 L 183.377 0.965 L 155.747 84.479 L 145.387 0.965 L 115.247 0.965 L 81.651 85.417 L 86.047 52.455 L 45.227 52.455 L 42.399 72.545 L 60.297 72.545 L 59.039 79.453 C 55.901 81.335 48.681 81.651 45.855 81.651 C 43.031 81.651 21.995 79.769 22.935 57.161 C 23.871 34.559 54.009 13.523 89.801 25.139 L 93.257 3.475 C 69.395 -4.685 6.725 -0.117 0.321 55.905 C -3.443 88.873 26.699 104.571 46.789 104.261 C 58.405 104.889 71.595 100.493 76.301 97.979 L 74.733 102.689 L 98.595 102.689 L 110.211 72.549 Z" style="fill: rgb(255, 255, 255);"/>
    <path id="_44102912" d="M 491.681 0.029 C 475.355 -0.601 451.807 8.819 443.959 46.809 C 436.111 84.795 457.143 100.181 476.611 102.695 C 496.077 105.205 523.393 92.961 528.413 56.543 C 533.443 20.121 515.535 0.971 491.681 0.029 Z M 489.175 21.693 C 495.767 21.693 509.893 26.089 506.439 52.457 C 502.987 78.831 486.661 81.971 480.697 81.345 C 474.727 80.713 462.485 76.635 465.939 52.457 C 469.399 28.287 482.269 21.377 489.181 21.693 Z" style="fill: rgb(255, 255, 255);"/>
    <path id="_44104296" d="M 392.467 39.903 L 405.655 39.903 C 415.385 39.903 417.271 33.623 417.581 31.113 C 417.895 28.601 415.071 23.577 410.051 23.577 L 394.667 23.577 L 392.475 39.903 Z M 386.815 80.089 L 404.713 80.089 C 414.443 80.089 416.641 72.555 416.955 70.041 C 417.269 67.531 414.443 62.507 409.421 62.507 L 389.329 62.507 L 386.819 80.089 Z M 360.451 102.695 L 374.581 0.971 L 417.905 0.971 C 428.269 0.971 443.337 12.905 441.455 28.913 C 439.571 44.927 434.547 45.871 431.093 48.381 C 436.433 53.087 441.767 60.621 439.571 74.751 C 437.371 88.883 425.755 102.695 405.351 102.695 L 360.453 102.695 Z" style="fill: rgb(255, 255, 255);"/>
  </g>
  <path d="M 94.997 96.627 L 92.197 96.627 L 92.197 93.532 L 90.097 93.532 L 90.097 96.627 L 87.297 96.627 L 87.297 87.877 L 90.097 87.877 L 90.097 90.972 L 92.197 90.972 L 92.197 87.877 L 94.997 87.877 L 94.997 96.627 Z M 98.806 95.242 L 98.481 96.627 L 95.526 96.627 L 97.796 87.877 L 102.121 87.877 L 104.391 96.627 L 101.436 96.627 L 101.116 95.242 L 98.806 95.242 Z M 100.036 90.567 L 99.881 90.567 L 99.306 93.017 L 100.596 93.017 L 100.036 90.567 Z M 110.732 94.122 L 110.942 96.472 C 110.355 96.715 109.619 96.837 108.732 96.837 C 107.845 96.837 107.134 96.743 106.597 96.557 C 106.06 96.37 105.637 96.077 105.327 95.677 C 105.02 95.273 104.805 94.802 104.682 94.262 C 104.562 93.718 104.502 93.05 104.502 92.257 C 104.502 91.463 104.562 90.795 104.682 90.252 C 104.805 89.705 105.02 89.23 105.327 88.827 C 105.924 88.053 107.02 87.667 108.617 87.667 C 108.974 87.667 109.392 87.702 109.872 87.772 C 110.352 87.842 110.709 87.928 110.942 88.032 L 110.522 90.172 C 109.915 90.042 109.36 89.977 108.857 89.977 C 108.354 89.977 108.004 90.023 107.807 90.117 C 107.61 90.21 107.512 90.397 107.512 90.677 L 107.512 94.347 C 107.875 94.42 108.244 94.457 108.617 94.457 C 109.41 94.457 110.115 94.345 110.732 94.122 Z M 114.777 92.817 L 114.722 92.817 L 114.722 96.627 L 111.922 96.627 L 111.922 87.877 L 114.722 87.877 L 114.722 91.447 L 114.777 91.447 C 114.797 91.167 114.843 90.943 114.917 90.777 L 116.292 87.877 L 119.312 87.877 L 117.212 92.177 L 119.382 96.627 L 116.362 96.627 L 114.917 93.492 C 114.843 93.322 114.797 93.097 114.777 92.817 Z M 119.873 96.472 L 120.263 94.162 C 121.123 94.378 121.897 94.487 122.583 94.487 C 123.27 94.487 123.823 94.458 124.243 94.402 L 124.243 93.702 L 122.983 93.587 C 121.843 93.487 121.062 93.215 120.638 92.772 C 120.212 92.328 119.998 91.672 119.998 90.802 C 119.998 89.608 120.258 88.787 120.778 88.337 C 121.295 87.89 122.173 87.667 123.413 87.667 C 124.657 87.667 125.777 87.783 126.773 88.017 L 126.423 90.257 C 125.557 90.117 124.862 90.047 124.338 90.047 C 123.815 90.047 123.372 90.07 123.008 90.117 L 123.008 90.802 L 124.018 90.902 C 125.242 91.022 126.087 91.313 126.553 91.777 C 127.02 92.237 127.253 92.878 127.253 93.702 C 127.253 94.288 127.173 94.785 127.013 95.192 C 126.853 95.598 126.665 95.907 126.448 96.117 C 126.228 96.327 125.917 96.487 125.513 96.597 C 125.113 96.71 124.762 96.778 124.458 96.802 C 124.155 96.825 123.752 96.837 123.248 96.837 C 122.035 96.837 120.91 96.715 119.873 96.472 Z M 132.881 93.267 L 130.711 93.267 L 130.711 91.252 L 132.881 91.252 L 132.881 89.082 L 134.896 89.082 L 134.896 91.252 L 137.081 91.252 L 137.081 93.267 L 134.896 93.267 L 134.896 95.452 L 132.881 95.452 L 132.881 93.267 Z M 148.6 96.627 L 145.8 96.627 L 145.8 93.532 L 143.7 93.532 L 143.7 96.627 L 140.9 96.627 L 140.9 87.877 L 143.7 87.877 L 143.7 90.972 L 145.8 90.972 L 145.8 87.877 L 148.6 87.877 L 148.6 96.627 Z M 149.58 92.257 C 149.58 90.663 149.878 89.5 150.475 88.767 C 151.071 88.033 152.15 87.667 153.71 87.667 C 155.27 87.667 156.348 88.033 156.945 88.767 C 157.541 89.5 157.84 90.663 157.84 92.257 C 157.84 93.05 157.776 93.718 157.65 94.262 C 157.523 94.802 157.306 95.273 157 95.677 C 156.693 96.077 156.268 96.37 155.725 96.557 C 155.185 96.743 154.513 96.837 153.71 96.837 C 152.906 96.837 152.235 96.743 151.695 96.557 C 151.151 96.37 150.726 96.077 150.42 95.677 C 150.113 95.273 149.896 94.802 149.77 94.262 C 149.643 93.718 149.58 93.05 149.58 92.257 Z M 152.59 90.802 L 152.59 94.442 L 153.75 94.442 C 154.133 94.442 154.411 94.398 154.585 94.312 C 154.758 94.222 154.845 94.018 154.845 93.702 L 154.845 90.062 L 153.67 90.062 C 153.296 90.062 153.023 90.105 152.85 90.192 C 152.676 90.282 152.59 90.485 152.59 90.802 Z M 161.564 92.387 L 161.394 96.627 L 158.469 96.627 L 158.999 87.877 L 162.654 87.877 L 163.749 92.327 L 163.844 92.327 L 164.939 87.877 L 168.589 87.877 L 169.124 96.627 L 166.199 96.627 L 166.029 92.387 L 165.929 92.387 L 164.869 96.627 L 162.724 96.627 L 161.649 92.387 L 161.564 92.387 Z M 175.773 91.292 L 175.773 93.322 L 172.973 93.322 L 172.973 94.387 L 176.403 94.387 L 176.403 96.627 L 170.173 96.627 L 170.173 87.877 L 176.333 87.877 L 175.983 90.117 L 172.973 90.117 L 172.973 91.292 L 175.773 91.292 Z M 182.617 96.627 L 177.592 96.627 L 177.592 87.877 L 182.127 87.877 C 182.967 87.877 183.567 88.04 183.927 88.367 C 184.287 88.693 184.467 89.17 184.467 89.797 C 184.467 90.42 184.352 90.902 184.122 91.242 C 183.896 91.585 183.591 91.807 183.207 91.907 L 183.207 91.992 C 184.337 92.188 184.902 92.958 184.902 94.302 C 184.902 95.002 184.716 95.565 184.342 95.992 C 183.969 96.415 183.394 96.627 182.617 96.627 Z M 181.482 93.142 L 180.392 93.142 L 180.392 94.567 L 181.472 94.567 C 181.862 94.567 182.057 94.33 182.057 93.857 C 182.057 93.38 181.866 93.142 181.482 93.142 Z M 181.272 89.797 L 180.392 89.797 L 180.392 91.097 L 181.262 91.097 C 181.616 91.097 181.792 90.88 181.792 90.447 C 181.792 90.013 181.619 89.797 181.272 89.797 Z M 192 93.717 L 193.51 96.627 L 190.43 96.627 L 189.28 94.022 L 188.68 94.022 L 188.68 96.627 L 185.88 96.627 L 185.88 87.877 L 190.29 87.877 C 192.297 87.877 193.3 88.898 193.3 90.942 C 193.3 92.342 192.867 93.267 192 93.717 Z M 189.325 90.117 L 188.68 90.117 L 188.68 91.867 L 189.325 91.867 C 189.662 91.867 189.907 91.832 190.06 91.762 C 190.213 91.692 190.29 91.53 190.29 91.277 L 190.29 90.707 C 190.29 90.453 190.213 90.292 190.06 90.222 C 189.907 90.152 189.662 90.117 189.325 90.117 Z M 200.09 91.292 L 200.09 93.322 L 197.29 93.322 L 197.29 94.387 L 200.72 94.387 L 200.72 96.627 L 194.49 96.627 L 194.49 87.877 L 200.65 87.877 L 200.3 90.117 L 197.29 90.117 L 197.29 91.292 L 200.09 91.292 Z M 209.104 92.762 L 209.779 87.877 L 212.704 87.877 L 211.329 96.627 L 207.679 96.627 L 207.034 93.407 L 206.864 93.407 L 206.234 96.627 L 202.579 96.627 L 201.209 87.877 L 204.134 87.877 L 204.794 92.762 L 204.879 92.762 L 205.884 87.877 L 208.029 87.877 L 209.019 92.762 L 209.104 92.762 Z" style="fill: rgb(255, 255, 255); white-space: pre;"/>
</svg>