<?xml version="1.0" encoding="utf-8"?>
<svg id="svg2" version="1.1" enable-background="new 0 0 566.929 98.574" y="0px" x="0px" xmlns="http://www.w3.org/2000/svg">
  <g>
    <polygon id="_43443024" points="573.944 0.968 600 0.968 563.266 58.114 557.307 102.696 533.76 102.696 540.661 51.826 517.114 0.968 542.544 0.968 555.107 29.858" style="fill: rgb(255, 255, 255);"/>
    <polygon id="_43441624" points="299.546 62.507 330.62 62.507 333.761 39.902 302.997 39.902 305.2 23.573 340.981 23.573 344.442 0.968 285.102 0.968 270.973 102.696 329.995 102.696 333.136 80.082 297.346 80.082" style="fill: rgb(255, 255, 255);"/>
    <path id="_43775888" d="M 118.703 52.454 L 126.553 31.421 L 129.067 52.454 L 118.706 52.454 Z M 110.227 72.548 L 131.574 72.548 L 135.346 102.687 L 173.96 102.687 L 191.858 47.43 L 200.65 102.687 L 221.059 102.687 L 243.664 44.292 L 247.432 102.687 L 270.034 102.687 L 263.755 0.965 L 236.754 0.965 L 215.715 54.65 L 207.551 0.965 L 183.377 0.965 L 155.748 84.478 L 145.387 0.965 L 115.248 0.965 L 81.651 85.417 L 86.047 52.454 L 45.227 52.454 L 42.4 72.545 L 60.298 72.545 L 59.04 79.452 C 55.902 81.334 48.682 81.651 45.855 81.651 C 43.031 81.651 21.995 79.769 22.936 57.161 C 23.871 34.559 54.01 13.522 89.801 25.139 L 93.258 3.475 C 69.395 -4.686 6.725 -0.118 0.322 55.905 C -3.443 88.872 26.699 104.57 46.79 104.259 C 58.406 104.887 71.595 100.491 76.302 97.977 L 74.733 102.687 L 98.596 102.687 L 110.212 72.548 Z" style="fill: rgb(255, 255, 255);"/>
    <path id="_44102912" d="M 491.682 0.029 C 475.356 -0.601 451.807 8.819 443.959 46.808 C 436.111 84.795 457.144 100.18 476.611 102.693 C 496.078 105.204 523.393 92.96 528.414 56.542 C 533.444 20.121 515.536 0.971 491.682 0.029 Z M 489.175 21.693 C 495.768 21.693 509.894 26.089 506.439 52.457 C 502.988 78.83 486.662 81.971 480.697 81.344 C 474.728 80.713 462.485 76.634 465.939 52.457 C 469.4 28.286 482.269 21.376 489.181 21.693 Z" style="fill: rgb(255, 255, 255);"/>
    <path id="_44104296" d="M 392.467 39.902 L 405.655 39.902 C 415.386 39.902 417.272 33.623 417.582 31.113 C 417.896 28.6 415.072 23.576 410.051 23.576 L 394.667 23.576 L 392.476 39.902 Z M 386.816 80.088 L 404.714 80.088 C 414.444 80.088 416.641 72.554 416.955 70.041 C 417.269 67.531 414.444 62.507 409.421 62.507 L 389.329 62.507 L 386.819 80.088 Z M 360.451 102.693 L 374.581 0.971 L 417.905 0.971 C 428.269 0.971 443.337 12.904 441.455 28.913 C 439.572 44.926 434.548 45.87 431.093 48.38 C 436.434 53.087 441.768 60.621 439.572 74.751 C 437.372 88.881 425.756 102.693 405.351 102.693 L 360.454 102.693 Z" style="fill: rgb(255, 255, 255);"/>
    <path id="path5256" d="M 284.502 135.059 C 283.591 132.298 281.183 129.667 281.183 129.667 C 281.183 129.667 277.568 124.973 270.463 123.37 C 264.38 122.097 259.601 124.779 259.601 124.779 C 259.601 124.779 255.262 126.517 252 130.114 C 246.805 135.113 245.311 142.412 245.311 142.412 C 245.311 142.412 243.32 148.766 246.473 153.799 L 249.9 157.945 C 254.737 161.982 259.905 162.392 259.905 162.392 C 259.905 162.392 264.078 163.333 268.945 162.063 C 273.199 161.203 276.295 159.103 276.295 159.103 C 276.295 159.103 283.343 155.208 285.277 147.249 L 284.502 135.059 Z M 273.525 148.296 C 273.525 148.296 270.71 153.217 264.519 152.634 C 257.25 151.889 256.396 145.505 256.396 145.505 C 256.396 145.505 255.398 140.807 259.875 136.716 C 264.41 132.905 269.135 133.484 269.135 133.484 C 269.135 133.484 272.312 133.786 273.945 139.039 C 276.045 145.728 273.525 148.296 273.525 148.296" style="fill-opacity: 1; fill: rgb(255, 255, 255);"/>
    <path id="path5262" d="M 307.991 148.38 C 305.665 147.867 301.938 148.821 301.938 148.821 C 301.938 148.821 296.746 150.728 295.943 150.7 C 295.638 150.26 294.978 141.772 295.168 138.375 C 295.279 132.377 294.778 127.486 294.778 127.486 C 294.778 127.486 294.531 121.708 291.435 118.283 C 287.788 114.605 285.244 116.183 283.781 117.064 C 280.269 120.217 281.901 124.055 281.901 124.055 L 283.726 129.227 C 283.726 129.227 284.61 131.438 284.502 135.056 L 285.274 147.246 C 285.274 148.878 286.602 159.849 286.602 159.849 C 286.602 159.849 286.738 163.415 290.165 164.049 C 293.677 164.631 297.129 162.887 298.595 162.196 C 300.059 161.508 301.993 160.899 301.993 160.899 C 301.993 160.899 303.598 160.54 305.2 160.404 C 308.959 160.042 310.311 159.381 310.311 159.381 C 310.311 159.381 311.765 159.161 312.746 157.776 C 313.724 156.391 314.906 149.901 307.991 148.38" style="fill-opacity: 1; fill: rgb(255, 255, 255);"/>
    <path id="path5264" d="M 246.473 153.796 C 244.002 153.057 241.169 153.549 241.169 153.549 C 241.169 153.549 233.152 154.321 228.979 153.437 C 222.513 152.306 222.73 145.339 222.73 145.339 C 222.73 145.339 222.513 140.722 226.408 134.477 C 231.218 126.765 236.525 125.383 236.525 125.383 C 236.525 125.383 237.847 124.888 239.093 125.549 C 239.868 130.023 244.204 129.996 244.204 129.996 C 244.204 129.996 250.453 130.413 250.145 122.842 C 249.427 116.621 243.431 115.767 240.915 115.185 C 233.375 113.83 228.478 117.867 228.478 117.867 C 228.478 117.867 223.421 120.601 217.369 130.135 C 213.247 136.049 212.752 140.695 212.752 140.695 C 212.752 140.695 212.255 141.8 212.448 146.721 C 212.339 150.562 213.778 153.353 213.778 153.353 C 213.778 153.353 215.96 159.963 222.869 162.67 C 227.069 164.411 233.206 164.383 233.206 164.383 C 233.206 164.383 239.147 164.299 243.706 164.052 C 246.195 164.245 247.384 162.944 247.384 162.944 C 247.384 162.944 250.172 161.122 249.897 157.942 C 249.897 157.942 249.357 154.659 246.473 153.796" style="fill-opacity: 1; fill: rgb(255, 255, 255);"/>
    <path id="path5258" d="M 346.88 133.593 C 342.046 125.691 333.532 124.502 333.532 124.502 C 333.532 124.502 330.822 123.588 325.02 124.36 C 314.131 126.436 310.344 134.809 310.344 134.809 C 310.344 134.809 306.446 140.943 307.994 148.38 L 312.752 157.776 C 316.261 161.065 317.697 161.065 317.918 161.261 C 322.561 163.361 327.95 162.145 327.95 162.145 C 327.95 162.145 334.751 161.481 340.969 156.644 C 345.941 152.996 348.099 147.635 348.099 147.635 L 348.76 140.439 L 346.88 133.593 L 346.88 133.593 Z M 333.643 149.732 C 325.823 154.433 320.899 149.291 320.899 149.291 C 320.899 149.291 318.717 147.852 318.246 143.486 C 317.911 138.429 322.947 135.804 322.947 135.804 C 322.947 135.804 325.599 134.172 328.915 134.422 C 332.231 134.67 333.278 134.45 335.964 136.441 C 338.504 138.734 338.338 140.418 338.338 140.418 C 338.338 140.418 339.252 146.114 333.643 149.732" style="fill-opacity: 1; fill: rgb(255, 255, 255);"/>
    <path id="path5260" d="M 348.096 147.635 C 348.096 147.635 348.262 152.055 347.571 153.135 C 346.632 155.151 346.771 157.112 346.771 157.112 C 346.771 157.112 346.132 163.083 353.047 164.076 C 357.796 164.049 358.375 160.096 358.46 158.409 C 358.734 157.085 358.626 150.921 358.626 150.921 L 364.79 155.95 C 364.79 155.95 369.265 159.71 371.896 161.891 C 374.632 164.046 375.32 164.435 375.32 164.435 C 375.32 164.435 375.902 165.123 377.999 164.875 C 379.689 164.905 381.237 163.382 381.237 163.382 C 381.237 163.382 383.195 161.949 383.693 159.432 C 384.299 156.448 381.979 154.982 381.979 154.982 C 381.979 154.982 373.416 148.072 367.611 143.317 C 371.506 141.19 373.386 139.727 373.386 139.727 C 373.386 139.727 378.805 136.133 379.964 130.633 C 381.569 124.577 377.007 122.203 377.007 122.203 C 377.007 122.203 374.159 120.16 371.757 119.08 C 365.701 116.123 360.065 116.729 360.065 116.729 C 360.065 116.729 352.051 116.177 346.829 122.619 C 344.424 125.742 345.917 129.833 345.917 129.833 C 345.917 129.833 346.213 130.488 346.883 133.59 C 348.223 139.835 348.096 147.635 348.096 147.635 L 348.096 147.635 Z M 358.599 135.361 L 358.074 128.15 C 358.074 128.15 363.131 128.038 365.231 128.397 C 369.379 129.031 369.156 130.195 369.156 130.195 C 369.156 130.195 369.017 131.659 365.867 133.098 C 362.443 134.754 358.599 135.361 358.599 135.361" style="fill-opacity: 1; fill: rgb(255, 255, 255);"/>
  </g>
  <path d="M 189.993 193.253 L 184.393 193.253 L 184.393 187.063 L 180.193 187.063 L 180.193 193.253 L 174.593 193.253 L 174.593 175.753 L 180.193 175.753 L 180.193 181.943 L 184.393 181.943 L 184.393 175.753 L 189.993 175.753 L 189.993 193.253 Z M 197.612 190.483 L 196.962 193.253 L 191.052 193.253 L 195.592 175.753 L 204.242 175.753 L 208.782 193.253 L 202.872 193.253 L 202.232 190.483 L 197.612 190.483 Z M 200.072 181.133 L 199.762 181.133 L 198.612 186.033 L 201.192 186.033 L 200.072 181.133 Z M 221.463 188.243 L 221.883 192.943 C 220.71 193.43 219.237 193.673 217.463 193.673 C 215.69 193.673 214.267 193.486 213.193 193.113 C 212.12 192.74 211.273 192.153 210.653 191.353 C 210.04 190.546 209.61 189.603 209.363 188.523 C 209.123 187.436 209.003 186.1 209.003 184.513 C 209.003 182.926 209.123 181.59 209.363 180.503 C 209.61 179.41 210.04 178.46 210.653 177.653 C 211.847 176.106 214.04 175.333 217.233 175.333 C 217.947 175.333 218.783 175.403 219.743 175.543 C 220.703 175.683 221.417 175.856 221.883 176.063 L 221.043 180.343 C 219.83 180.083 218.72 179.953 217.713 179.953 C 216.707 179.953 216.007 180.046 215.613 180.233 C 215.22 180.42 215.023 180.793 215.023 181.353 L 215.023 188.693 C 215.75 188.84 216.487 188.913 217.233 188.913 C 218.82 188.913 220.23 188.69 221.463 188.243 Z M 229.553 185.633 L 229.443 185.633 L 229.443 193.253 L 223.843 193.253 L 223.843 175.753 L 229.443 175.753 L 229.443 182.893 L 229.553 182.893 C 229.593 182.333 229.686 181.886 229.833 181.553 L 232.583 175.753 L 238.623 175.753 L 234.423 184.353 L 238.763 193.253 L 232.723 193.253 L 229.833 186.983 C 229.686 186.643 229.593 186.193 229.553 185.633 Z M 239.746 192.943 L 240.526 188.323 C 242.246 188.756 243.793 188.973 245.166 188.973 C 246.539 188.973 247.646 188.916 248.486 188.803 L 248.486 187.403 L 245.966 187.173 C 243.686 186.973 242.123 186.43 241.276 185.543 C 240.423 184.656 239.996 183.343 239.996 181.603 C 239.996 179.216 240.516 177.573 241.556 176.673 C 242.589 175.78 244.346 175.333 246.826 175.333 C 249.313 175.333 251.553 175.566 253.546 176.033 L 252.846 180.513 C 251.113 180.233 249.723 180.093 248.676 180.093 C 247.629 180.093 246.743 180.14 246.016 180.233 L 246.016 181.603 L 248.036 181.803 C 250.483 182.043 252.173 182.626 253.106 183.553 C 254.039 184.473 254.506 185.756 254.506 187.403 C 254.506 188.576 254.346 189.57 254.026 190.383 C 253.706 191.196 253.329 191.813 252.896 192.233 C 252.456 192.653 251.833 192.973 251.026 193.193 C 250.226 193.42 249.523 193.556 248.916 193.603 C 248.309 193.65 247.503 193.673 246.496 193.673 C 244.069 193.673 241.819 193.43 239.746 192.943 Z M 265.761 186.533 L 261.421 186.533 L 261.421 182.503 L 265.761 182.503 L 265.761 178.163 L 269.791 178.163 L 269.791 182.503 L 274.161 182.503 L 274.161 186.533 L 269.791 186.533 L 269.791 190.903 L 265.761 190.903 L 265.761 186.533 Z M 297.2 193.253 L 291.6 193.253 L 291.6 187.063 L 287.4 187.063 L 287.4 193.253 L 281.8 193.253 L 281.8 175.753 L 287.4 175.753 L 287.4 181.943 L 291.6 181.943 L 291.6 175.753 L 297.2 175.753 L 297.2 193.253 Z M 299.159 184.513 C 299.159 181.326 299.756 179 300.949 177.533 C 302.142 176.066 304.299 175.333 307.419 175.333 C 310.539 175.333 312.696 176.066 313.889 177.533 C 315.082 179 315.679 181.326 315.679 184.513 C 315.679 186.1 315.552 187.436 315.299 188.523 C 315.046 189.603 314.612 190.546 313.999 191.353 C 313.386 192.153 312.536 192.74 311.449 193.113 C 310.369 193.486 309.026 193.673 307.419 193.673 C 305.812 193.673 304.469 193.486 303.389 193.113 C 302.302 192.74 301.452 192.153 300.839 191.353 C 300.226 190.546 299.792 189.603 299.539 188.523 C 299.286 187.436 299.159 186.1 299.159 184.513 Z M 305.179 181.603 L 305.179 188.883 L 307.499 188.883 C 308.266 188.883 308.822 188.796 309.169 188.623 C 309.516 188.443 309.689 188.036 309.689 187.403 L 309.689 180.123 L 307.339 180.123 C 306.592 180.123 306.046 180.21 305.699 180.383 C 305.352 180.563 305.179 180.97 305.179 181.603 Z M 323.128 184.773 L 322.788 193.253 L 316.938 193.253 L 317.998 175.753 L 325.308 175.753 L 327.498 184.653 L 327.688 184.653 L 329.878 175.753 L 337.178 175.753 L 338.248 193.253 L 332.398 193.253 L 332.058 184.773 L 331.858 184.773 L 329.738 193.253 L 325.448 193.253 L 323.298 184.773 L 323.128 184.773 Z M 351.545 182.583 L 351.545 186.643 L 345.945 186.643 L 345.945 188.773 L 352.805 188.773 L 352.805 193.253 L 340.345 193.253 L 340.345 175.753 L 352.665 175.753 L 351.965 180.233 L 345.945 180.233 L 345.945 182.583 L 351.545 182.583 Z M 365.234 193.253 L 355.184 193.253 L 355.184 175.753 L 364.254 175.753 C 365.934 175.753 367.134 176.08 367.854 176.733 C 368.574 177.386 368.934 178.34 368.934 179.593 C 368.934 180.84 368.704 181.803 368.244 182.483 C 367.791 183.17 367.181 183.613 366.414 183.813 L 366.414 183.983 C 368.674 184.376 369.804 185.916 369.804 188.603 C 369.804 190.003 369.431 191.13 368.684 191.983 C 367.938 192.83 366.788 193.253 365.234 193.253 Z M 362.964 186.283 L 360.784 186.283 L 360.784 189.133 L 362.944 189.133 C 363.724 189.133 364.114 188.66 364.114 187.713 C 364.114 186.76 363.731 186.283 362.964 186.283 Z M 362.544 179.593 L 360.784 179.593 L 360.784 182.193 L 362.524 182.193 C 363.231 182.193 363.584 181.76 363.584 180.893 C 363.584 180.026 363.238 179.593 362.544 179.593 Z M 384 187.433 L 387.02 193.253 L 380.86 193.253 L 378.56 188.043 L 377.36 188.043 L 377.36 193.253 L 371.76 193.253 L 371.76 175.753 L 380.58 175.753 C 384.593 175.753 386.6 177.796 386.6 181.883 C 386.6 184.683 385.733 186.533 384 187.433 Z M 378.65 180.233 L 377.36 180.233 L 377.36 183.733 L 378.65 183.733 C 379.323 183.733 379.813 183.663 380.12 183.523 C 380.426 183.383 380.58 183.06 380.58 182.553 L 380.58 181.413 C 380.58 180.906 380.426 180.583 380.12 180.443 C 379.813 180.303 379.323 180.233 378.65 180.233 Z M 400.179 182.583 L 400.179 186.643 L 394.579 186.643 L 394.579 188.773 L 401.439 188.773 L 401.439 193.253 L 388.979 193.253 L 388.979 175.753 L 401.299 175.753 L 400.599 180.233 L 394.579 180.233 L 394.579 182.583 L 400.179 182.583 Z M 418.208 185.523 L 419.558 175.753 L 425.408 175.753 L 422.658 193.253 L 415.358 193.253 L 414.068 186.813 L 413.728 186.813 L 412.468 193.253 L 405.158 193.253 L 402.418 175.753 L 408.268 175.753 L 409.588 185.523 L 409.758 185.523 L 411.768 175.753 L 416.058 175.753 L 418.038 185.523 L 418.208 185.523 Z" style="fill: rgb(255, 255, 255); white-space: pre;"/>
</svg>