<?xml version="1.0" encoding="utf-8"?>
<svg id="svg2" version="1.1" enable-background="new 0 0 566.929 98.574" y="0px" x="0px" xmlns="http://www.w3.org/2000/svg">
  <g id="g4" fill="#fff" transform="translate(.0055519 -.00064086)">
    <polygon id="_43443024" points="542.31 0.917 566.93 0.917 532.22 54.913 526.59 97.041 504.34 97.041 510.86 48.973 488.61 0.917 512.64 0.917 524.51 28.215"/>
    <polygon id="_43441624" points="283.03 59.066 312.39 59.066 315.36 37.706 286.29 37.706 288.37 22.276 322.18 22.276 325.45 0.917 269.38 0.917 256.03 97.041 311.8 97.041 314.77 75.671 280.95 75.671"/>
    <path id="_43775888" d="m112.15 49.565 7.416-19.874 2.375 19.874h-9.79zm-8.01 18.987h20.172l3.563 28.48h36.488l16.91-52.213 8.309 52.213h19.283l21.359-55.179 3.561 55.179h21.359l-5.934-96.119h-25.514l-19.88 50.727-7.715-50.727h-22.842l-26.105 78.912-9.791-78.912h-28.48l-31.744 79.8 4.154-31.149h-38.571l-2.672 18.987h16.912l-1.188 6.526c-2.967 1.778-9.789 2.076-12.459 2.076s-22.545-1.779-21.656-23.14c0.882-21.358 29.362-41.234 63.181-30.258l3.266-20.47c-22.548-7.712-81.766-3.396-87.815 49.543-3.559 31.149 24.921 45.983 43.906 45.688 10.977 0.594 23.438-3.561 27.887-5.935l-1.482 4.451h22.547l10.977-28.48z"/>
    <path id="_44102912" d="m464.58 0.028c-15.428-0.594-37.678 8.306-45.094 44.204-7.416 35.894 12.459 50.431 30.852 52.804 18.396 2.373 44.205-9.196 48.951-43.609 4.75-34.414-12.17-52.508-34.71-53.399zm-2.37 20.47c6.229 0 19.578 4.154 16.314 29.071-3.262 24.92-18.688 27.887-24.326 27.293-5.637-0.594-17.207-4.448-13.943-27.293 3.27-22.841 15.43-29.368 21.96-29.071z"/>
    <path id="_44104296" d="m370.83 37.706h12.461c9.197 0 10.977-5.934 11.271-8.305 0.297-2.375-2.371-7.122-7.117-7.122h-14.537l-2.07 15.427zm-5.34 37.971h16.912c9.195 0 11.271-7.119 11.566-9.493 0.299-2.373-2.371-7.118-7.117-7.118h-18.986l-2.37 16.611zm-24.91 21.361 13.35-96.118h40.938c9.793 0 24.031 11.274 22.252 26.403-1.779 15.13-6.527 16.02-9.791 18.393 5.045 4.447 10.088 11.568 8.012 24.918-2.078 13.352-13.055 26.403-32.338 26.403l-42.42 0.001z"/>
  </g>
  <path d="M 173.457 125.21 L 167.857 125.21 L 167.857 119.02 L 163.657 119.02 L 163.657 125.21 L 158.057 125.21 L 158.057 107.71 L 163.657 107.71 L 163.657 113.9 L 167.857 113.9 L 167.857 107.71 L 173.457 107.71 L 173.457 125.21 Z M 181.076 122.44 L 180.426 125.21 L 174.516 125.21 L 179.056 107.71 L 187.706 107.71 L 192.246 125.21 L 186.336 125.21 L 185.696 122.44 L 181.076 122.44 Z M 183.536 113.09 L 183.226 113.09 L 182.076 117.99 L 184.656 117.99 L 183.536 113.09 Z M 204.927 120.2 L 205.347 124.9 C 204.174 125.387 202.701 125.63 200.927 125.63 C 199.154 125.63 197.731 125.443 196.657 125.07 C 195.584 124.697 194.737 124.11 194.117 123.31 C 193.504 122.503 193.074 121.56 192.827 120.48 C 192.587 119.393 192.467 118.057 192.467 116.47 C 192.467 114.883 192.587 113.547 192.827 112.46 C 193.074 111.367 193.504 110.417 194.117 109.61 C 195.311 108.063 197.504 107.29 200.697 107.29 C 201.411 107.29 202.247 107.36 203.207 107.5 C 204.167 107.64 204.881 107.813 205.347 108.02 L 204.507 112.3 C 203.294 112.04 202.184 111.91 201.177 111.91 C 200.171 111.91 199.471 112.003 199.077 112.19 C 198.684 112.377 198.487 112.75 198.487 113.31 L 198.487 120.65 C 199.214 120.797 199.951 120.87 200.697 120.87 C 202.284 120.87 203.694 120.647 204.927 120.2 Z M 213.017 117.59 L 212.907 117.59 L 212.907 125.21 L 207.307 125.21 L 207.307 107.71 L 212.907 107.71 L 212.907 114.85 L 213.017 114.85 C 213.057 114.29 213.15 113.843 213.297 113.51 L 216.047 107.71 L 222.087 107.71 L 217.887 116.31 L 222.227 125.21 L 216.187 125.21 L 213.297 118.94 C 213.15 118.6 213.057 118.15 213.017 117.59 Z M 223.21 124.9 L 223.99 120.28 C 225.71 120.713 227.257 120.93 228.63 120.93 C 230.003 120.93 231.11 120.873 231.95 120.76 L 231.95 119.36 L 229.43 119.13 C 227.15 118.93 225.587 118.387 224.74 117.5 C 223.887 116.613 223.46 115.3 223.46 113.56 C 223.46 111.173 223.98 109.53 225.02 108.63 C 226.053 107.737 227.81 107.29 230.29 107.29 C 232.777 107.29 235.017 107.523 237.01 107.99 L 236.31 112.47 C 234.577 112.19 233.187 112.05 232.14 112.05 C 231.093 112.05 230.207 112.097 229.48 112.19 L 229.48 113.56 L 231.5 113.76 C 233.947 114 235.637 114.583 236.57 115.51 C 237.503 116.43 237.97 117.713 237.97 119.36 C 237.97 120.533 237.81 121.527 237.49 122.34 C 237.17 123.153 236.793 123.77 236.36 124.19 C 235.92 124.61 235.297 124.93 234.49 125.15 C 233.69 125.377 232.987 125.513 232.38 125.56 C 231.773 125.607 230.967 125.63 229.96 125.63 C 227.533 125.63 225.283 125.387 223.21 124.9 Z M 249.225 118.49 L 244.885 118.49 L 244.885 114.46 L 249.225 114.46 L 249.225 110.12 L 253.255 110.12 L 253.255 114.46 L 257.625 114.46 L 257.625 118.49 L 253.255 118.49 L 253.255 122.86 L 249.225 122.86 L 249.225 118.49 Z M 280.664 125.21 L 275.064 125.21 L 275.064 119.02 L 270.864 119.02 L 270.864 125.21 L 265.264 125.21 L 265.264 107.71 L 270.864 107.71 L 270.864 113.9 L 275.064 113.9 L 275.064 107.71 L 280.664 107.71 L 280.664 125.21 Z M 282.623 116.47 C 282.623 113.283 283.22 110.957 284.413 109.49 C 285.606 108.023 287.763 107.29 290.883 107.29 C 294.003 107.29 296.16 108.023 297.353 109.49 C 298.546 110.957 299.143 113.283 299.143 116.47 C 299.143 118.057 299.016 119.393 298.763 120.48 C 298.51 121.56 298.076 122.503 297.463 123.31 C 296.85 124.11 296 124.697 294.913 125.07 C 293.833 125.443 292.49 125.63 290.883 125.63 C 289.276 125.63 287.933 125.443 286.853 125.07 C 285.766 124.697 284.916 124.11 284.303 123.31 C 283.69 122.503 283.256 121.56 283.003 120.48 C 282.75 119.393 282.623 118.057 282.623 116.47 Z M 288.643 113.56 L 288.643 120.84 L 290.963 120.84 C 291.73 120.84 292.286 120.753 292.633 120.58 C 292.98 120.4 293.153 119.993 293.153 119.36 L 293.153 112.08 L 290.803 112.08 C 290.056 112.08 289.51 112.167 289.163 112.34 C 288.816 112.52 288.643 112.927 288.643 113.56 Z M 306.592 116.73 L 306.252 125.21 L 300.402 125.21 L 301.462 107.71 L 308.772 107.71 L 310.962 116.61 L 311.152 116.61 L 313.342 107.71 L 320.642 107.71 L 321.712 125.21 L 315.862 125.21 L 315.522 116.73 L 315.322 116.73 L 313.202 125.21 L 308.912 125.21 L 306.762 116.73 L 306.592 116.73 Z M 335.009 114.54 L 335.009 118.6 L 329.409 118.6 L 329.409 120.73 L 336.269 120.73 L 336.269 125.21 L 323.809 125.21 L 323.809 107.71 L 336.129 107.71 L 335.429 112.19 L 329.409 112.19 L 329.409 114.54 L 335.009 114.54 Z M 348.698 125.21 L 338.648 125.21 L 338.648 107.71 L 347.718 107.71 C 349.398 107.71 350.598 108.037 351.318 108.69 C 352.038 109.343 352.398 110.297 352.398 111.55 C 352.398 112.797 352.168 113.76 351.708 114.44 C 351.255 115.127 350.645 115.57 349.878 115.77 L 349.878 115.94 C 352.138 116.333 353.268 117.873 353.268 120.56 C 353.268 121.96 352.895 123.087 352.148 123.94 C 351.402 124.787 350.252 125.21 348.698 125.21 Z M 346.428 118.24 L 344.248 118.24 L 344.248 121.09 L 346.408 121.09 C 347.188 121.09 347.578 120.617 347.578 119.67 C 347.578 118.717 347.195 118.24 346.428 118.24 Z M 346.008 111.55 L 344.248 111.55 L 344.248 114.15 L 345.988 114.15 C 346.695 114.15 347.048 113.717 347.048 112.85 C 347.048 111.983 346.702 111.55 346.008 111.55 Z M 367.464 119.39 L 370.484 125.21 L 364.324 125.21 L 362.024 120 L 360.824 120 L 360.824 125.21 L 355.224 125.21 L 355.224 107.71 L 364.044 107.71 C 368.057 107.71 370.064 109.753 370.064 113.84 C 370.064 116.64 369.197 118.49 367.464 119.39 Z M 362.114 112.19 L 360.824 112.19 L 360.824 115.69 L 362.114 115.69 C 362.787 115.69 363.277 115.62 363.584 115.48 C 363.89 115.34 364.044 115.017 364.044 114.51 L 364.044 113.37 C 364.044 112.863 363.89 112.54 363.584 112.4 C 363.277 112.26 362.787 112.19 362.114 112.19 Z M 383.643 114.54 L 383.643 118.6 L 378.043 118.6 L 378.043 120.73 L 384.903 120.73 L 384.903 125.21 L 372.443 125.21 L 372.443 107.71 L 384.763 107.71 L 384.063 112.19 L 378.043 112.19 L 378.043 114.54 L 383.643 114.54 Z M 401.672 117.48 L 403.022 107.71 L 408.872 107.71 L 406.122 125.21 L 398.822 125.21 L 397.532 118.77 L 397.192 118.77 L 395.932 125.21 L 388.622 125.21 L 385.882 107.71 L 391.732 107.71 L 393.052 117.48 L 393.222 117.48 L 395.232 107.71 L 399.522 107.71 L 401.502 117.48 L 401.672 117.48 Z" style="fill: rgb(255, 255, 255); white-space: pre;"/>
</svg>