<?xml version="1.0" encoding="utf-8"?>
<svg version="1.1" id="Layer_1" xmlns="http://www.w3.org/2000/svg">
  <path id="path16" d="M 146.426 2.157 L 142.695 13.457 L 144.537 13.457 L 148.276 2.546 C 148.412 2.047 148.821 1.682 149.303 1.682 C 149.79 1.682 150.199 2.047 150.335 2.546 L 153.495 11.775 L 148.537 11.775 L 148.537 13.457 L 155.916 13.457 L 152.184 2.157 C 151.826 0.911 150.671 0 149.303 0 C 147.938 0 146.784 0.911 146.426 2.157 Z M 148.611 9.175 L 149.264 7.247 L 149.945 9.175 L 148.611 9.175 Z M 148.342 3.642 L 144.999 13.457 L 147.154 13.457 L 148.536 9.388 L 148.536 11.312 L 152.876 11.312 L 150.299 3.642 C 150.167 3.215 149.778 1.986 149.318 1.986 C 148.858 1.986 148.467 3.214 148.342 3.642 L 148.342 3.642 Z M 136.545 2.142 L 143.002 2.142 L 143.002 0.306 L 136.39 0.306 C 134.607 0.306 133.162 1.747 133.162 3.519 L 133.162 10.248 C 133.162 12.021 134.607 13.459 136.39 13.459 L 143.002 13.459 L 143.002 4.891 L 137.775 4.891 L 137.775 6.574 L 141.156 6.574 L 141.156 11.619 L 136.545 11.619 C 135.693 11.619 135.008 10.936 135.008 10.092 L 135.008 3.668 C 135.008 2.827 135.693 2.142 136.545 2.142 Z M 137.775 7.033 L 137.775 8.87 L 138.849 8.87 L 138.849 9.329 L 137.775 9.329 C 137.52 9.329 137.313 9.122 137.313 8.87 L 137.313 4.892 C 137.313 4.639 137.52 4.433 137.775 4.433 L 143.002 4.433 L 143.002 2.6 L 137.007 2.6 C 136.155 2.6 135.465 3.285 135.465 4.129 L 135.465 9.634 C 135.465 10.477 136.155 11.162 137.007 11.162 L 140.697 11.162 L 140.697 7.033 L 137.775 7.033 L 137.775 7.033 Z M 125.936 2.142 L 132.393 2.142 L 132.393 0.306 L 125.78 0.306 C 123.997 0.306 122.553 1.747 122.553 3.519 L 122.553 10.174 C 122.553 11.945 123.997 13.386 125.78 13.386 L 132.393 13.386 L 132.393 11.55 L 125.936 11.55 C 125.087 11.55 124.398 10.867 124.398 10.023 L 124.398 3.67 C 124.398 2.827 125.087 2.142 125.936 2.142 L 125.936 2.142 Z M 131.007 6.574 L 131.007 4.892 L 126.703 4.892 C 126.703 4.639 126.91 4.433 127.165 4.433 L 132.392 4.433 L 132.392 2.6 L 126.397 2.6 C 125.549 2.6 124.861 3.285 124.861 4.129 L 124.861 6.574 L 131.007 6.574 L 131.007 6.574 Z M 131.007 7.188 L 131.007 8.869 L 126.703 8.869 C 126.703 9.122 126.91 9.329 127.165 9.329 L 132.392 9.329 L 132.392 11.16 L 126.397 11.16 C 125.549 11.16 124.861 10.477 124.861 9.631 L 124.861 7.186 L 131.007 7.188 L 131.007 7.188 Z M 115.207 9.479 L 111.329 9.479 L 111.329 11.162 L 117.248 11.162 L 117.324 11.162 C 118.434 11.121 119.323 10.211 119.323 9.099 C 119.323 7.96 118.395 7.033 117.248 7.033 L 114.915 7.033 C 113.973 6.676 113.172 5.746 113.172 4.662 C 113.172 3.268 114.462 2.14 115.863 2.14 L 121.631 2.14 L 121.631 0.304 L 115.632 0.304 C 113.256 0.304 111.329 2.224 111.329 4.586 C 111.329 6.952 113.41 8.869 115.786 8.869 L 115.786 8.849 L 115.798 8.869 L 117.172 8.869 C 117.339 8.869 117.479 9.005 117.479 9.175 C 117.479 9.344 117.339 9.479 117.172 9.479 L 115.207 9.479 L 115.207 9.479 Z M 117.751 4.282 L 121.633 4.282 L 121.633 2.6 L 115.713 2.6 L 115.633 2.6 C 114.522 2.64 113.635 3.55 113.635 4.663 C 113.635 5.806 114.565 6.73 115.714 6.73 L 118.046 6.73 C 118.99 7.09 119.786 8.016 119.786 9.1 C 119.786 10.494 118.496 11.622 117.095 11.622 L 111.33 11.622 L 111.33 13.459 L 117.326 13.459 C 119.703 13.459 121.633 11.542 121.633 9.176 C 121.633 6.813 119.551 4.893 117.174 4.893 L 117.174 4.917 L 117.159 4.893 L 115.789 4.893 C 115.617 4.893 115.482 4.76 115.482 4.589 C 115.482 4.424 115.617 4.285 115.789 4.285 L 117.751 4.282 L 117.751 4.282 Z" style="fill-opacity: 1; fill: rgb(255, 255, 255);"/>
  <polygon id="polygon37" points="120.901 19.821 120.901 46.958 111.71 46.958 111.71 36.934 94.096 26.968 94.096 46.958 84.905 46.958 84.905 19.821 94.479 19.821 111.71 29.569 111.71 19.821" style="fill-opacity: 1; fill: rgb(255, 255, 255);"/>
  <rect id="rect58" x="211.185" y="19.69" width="9.554" height="27.31" style="fill-opacity: 1; fill: rgb(255, 255, 255);"/>
  <polygon id="polygon79" points="152.422 25.152 136.726 25.152 136.726 30.615 155.561 30.615 146.535 36.077 136.726 36.077 136.726 41.539 162.232 41.539 153.206 47 127.307 47 127.307 25.934 136.726 19.69 161.447 19.69" style="fill-opacity: 1; fill: rgb(255, 255, 255);"/>
  <polygon id="polygon100" points="68.969 25.255 53.361 25.255 53.361 30.684 72.09 30.684 63.116 36.117 53.361 36.117 53.361 41.548 78.725 41.548 69.749 46.979 43.996 46.979 43.996 26.03 53.361 19.821 77.945 19.821" style="fill-opacity: 1; fill: rgb(255, 255, 255);"/>
  <polygon id="polygon121" points="0 26.032 9.368 19.821 37.864 19.821 28.886 25.258 9.368 25.258 9.368 41.556 26.935 41.556 26.935 34.958 16.005 34.958 24.982 29.525 36.304 29.525 36.304 40.78 26.935 46.99 0 46.99" style="fill-opacity: 1; fill: rgb(255, 255, 255);"/>
  <polygon points="205.347 41.459 196.19 47 167.925 47 177.082 41.459 194.996 41.459 194.996 35.919 167.925 35.919 167.925 25.233 177.082 19.69 205.746 19.69 196.589 25.233 177.878 25.233 177.878 30.377 205.347 30.377" id="polygon170" style="fill-opacity: 1; fill: rgb(255, 255, 255);"/>
  <polygon points="263.603 41.459 254.446 47 226.181 47 235.338 41.459 253.253 41.459 253.253 35.919 226.181 35.919 226.181 25.233 235.338 19.69 264 19.69 254.844 25.233 236.133 25.233 236.133 30.377 263.603 30.377" id="polygon202" style="fill-opacity: 1; fill: rgb(255, 255, 255);"/>
</svg>