<?xml version="1.0" encoding="utf-8"?>
<svg version="1.1" id="Layer_1" x="0px" y="0px" enable-background="new -1 -1 568.929 116.145" xmlns="http://www.w3.org/2000/svg">
  <g>
    <path id="path16" d="M 332.787 4.932 L 324.306 30.762 L 328.494 30.762 L 336.99 5.82 C 337.299 4.68 338.229 3.846 339.324 3.846 C 340.431 3.846 341.361 4.68 341.67 5.82 L 348.852 26.919 L 337.584 26.919 L 337.584 30.762 L 354.354 30.762 L 345.873 4.932 C 345.06 2.082 342.435 0 339.324 0 C 336.222 0 333.6 2.082 332.787 4.932 Z M 337.752 20.973 L 339.237 16.566 L 340.785 20.973 L 337.752 20.973 Z M 337.14 8.325 L 329.544 30.762 L 334.44 30.762 L 337.581 21.462 L 337.581 25.86 L 347.445 25.86 L 341.589 8.325 C 341.289 7.35 340.404 4.542 339.36 4.542 C 338.313 4.542 337.425 7.347 337.14 8.325 L 337.14 8.325 Z M 310.329 4.896 L 325.005 4.896 L 325.005 0.699 L 309.978 0.699 C 305.925 0.699 302.64 3.993 302.64 8.046 L 302.64 23.427 C 302.64 27.48 305.925 30.765 309.978 30.765 L 325.005 30.765 L 325.005 11.181 L 313.125 11.181 L 313.125 15.027 L 320.808 15.027 L 320.808 26.562 L 310.329 26.562 C 308.394 26.562 306.837 24.999 306.837 23.07 L 306.837 8.385 C 306.837 6.462 308.394 4.896 310.329 4.896 Z M 313.125 16.077 L 313.125 20.277 L 315.567 20.277 L 315.567 21.324 L 313.125 21.324 C 312.546 21.324 312.075 20.853 312.075 20.277 L 312.075 11.184 C 312.075 10.605 312.546 10.134 313.125 10.134 L 325.005 10.134 L 325.005 5.943 L 311.379 5.943 C 309.444 5.943 307.875 7.509 307.875 9.438 L 307.875 22.023 C 307.875 23.949 309.444 25.515 311.379 25.515 L 319.767 25.515 L 319.767 16.077 L 313.125 16.077 L 313.125 16.077 Z M 286.218 4.896 L 300.894 4.896 L 300.894 0.699 L 285.864 0.699 C 281.811 0.699 278.529 3.993 278.529 8.046 L 278.529 23.256 C 278.529 27.306 281.811 30.6 285.864 30.6 L 300.894 30.6 L 300.894 26.403 L 286.218 26.403 C 284.289 26.403 282.723 24.84 282.723 22.911 L 282.723 8.388 C 282.723 6.462 284.289 4.896 286.218 4.896 L 286.218 4.896 Z M 297.744 15.027 L 297.744 11.184 L 287.961 11.184 C 287.961 10.605 288.432 10.134 289.011 10.134 L 300.891 10.134 L 300.891 5.943 L 287.265 5.943 C 285.339 5.943 283.776 7.509 283.776 9.438 L 283.776 15.027 L 297.744 15.027 L 297.744 15.027 Z M 297.744 16.431 L 297.744 20.274 L 287.961 20.274 C 287.961 20.853 288.432 21.324 289.011 21.324 L 300.891 21.324 L 300.891 25.512 L 287.265 25.512 C 285.339 25.512 283.776 23.949 283.776 22.017 L 283.776 16.428 L 297.744 16.431 L 297.744 16.431 Z M 261.834 21.669 L 253.02 21.669 L 253.02 25.515 L 266.472 25.515 L 266.646 25.515 C 269.169 25.422 271.188 23.343 271.188 20.799 C 271.188 18.195 269.079 16.077 266.472 16.077 L 261.171 16.077 C 259.029 15.261 257.208 13.134 257.208 10.656 C 257.208 7.47 260.142 4.89 263.325 4.89 L 276.435 4.89 L 276.435 0.696 L 262.8 0.696 C 257.4 0.696 253.02 5.085 253.02 10.485 C 253.02 15.894 257.751 20.274 263.151 20.274 L 263.151 20.229 L 263.178 20.274 L 266.301 20.274 C 266.679 20.274 266.997 20.583 266.997 20.973 C 266.997 21.36 266.679 21.669 266.301 21.669 L 261.834 21.669 L 261.834 21.669 Z M 267.615 9.789 L 276.438 9.789 L 276.438 5.943 L 262.983 5.943 L 262.803 5.943 C 260.277 6.033 258.261 8.115 258.261 10.659 C 258.261 13.272 260.376 15.384 262.986 15.384 L 268.287 15.384 C 270.432 16.206 272.241 18.324 272.241 20.802 C 272.241 23.988 269.31 26.568 266.124 26.568 L 253.023 26.568 L 253.023 30.765 L 266.649 30.765 C 272.052 30.765 276.438 26.385 276.438 20.976 C 276.438 15.576 271.707 11.187 266.304 11.187 L 266.304 11.241 L 266.271 11.187 L 263.157 11.187 C 262.767 11.187 262.458 10.881 262.458 10.491 C 262.458 10.113 262.767 9.795 263.157 9.795 L 267.615 9.789 L 267.615 9.789 Z" style="fill-opacity: 1; fill: rgb(255, 253, 253);"/>
    <polygon id="polygon37" points="274.776 45.312 274.776 107.346 253.887 107.346 253.887 84.429 213.855 61.647 213.855 107.346 192.966 107.346 192.966 45.312 214.725 45.312 253.887 67.593 253.887 45.312" style="fill-opacity: 1; fill: rgb(255, 253, 253);"/>
    <rect id="rect58" x="479.967" y="45.012" width="21.714" height="62.43" style="fill-opacity: 1; fill: rgb(255, 253, 253);"/>
    <polygon id="polygon79" points="346.413 57.498 310.74 57.498 310.74 69.984 353.547 69.984 333.033 82.47 310.74 82.47 310.74 94.956 368.709 94.956 348.195 107.442 289.335 107.442 289.335 59.283 310.74 45.012 366.924 45.012" style="fill-opacity: 1; fill: rgb(255, 253, 253);"/>
    <polygon id="polygon100" points="156.747 57.732 121.275 57.732 121.275 70.143 163.842 70.143 143.445 82.563 121.275 82.563 121.275 94.977 178.92 94.977 158.52 107.394 99.99 107.394 99.99 59.505 121.275 45.312 177.147 45.312" style="fill-opacity: 1; fill: rgb(255, 253, 253);"/>
    <polygon id="polygon121" points="0 59.508 21.291 45.312 86.055 45.312 65.649 57.738 21.291 57.738 21.291 94.995 61.215 94.995 61.215 79.914 36.375 79.914 56.778 67.494 82.509 67.494 82.509 93.222 61.215 107.418 0 107.418" style="fill-opacity: 1; fill: rgb(255, 253, 253);"/>
    <polygon points="466.698 94.776 445.887 107.442 381.648 107.442 402.459 94.776 443.172 94.776 443.172 82.11 381.648 82.11 381.648 57.681 402.459 45.012 467.604 45.012 446.793 57.681 404.268 57.681 404.268 69.441 466.698 69.441" id="polygon170" style="fill-opacity: 1; fill: rgb(255, 253, 253);"/>
    <polygon id="polygon142" points="443.172 94.776 443.172 82.11 381.648 82.11 381.648 57.681 402.459 45.012 467.604 45.012 446.793 57.681 404.268 57.681 404.268 69.441 466.698 69.441 466.698 94.776 445.887 107.442 381.648 107.442 402.459 94.776" style="fill-opacity: 1; fill: rgb(255, 253, 253);"/>
    <polygon points="599.097 94.776 578.286 107.442 514.047 107.442 534.858 94.776 575.574 94.776 575.574 82.11 514.047 82.11 514.047 57.681 534.858 45.012 600 45.012 579.192 57.681 536.667 57.681 536.667 69.441 599.097 69.441" id="polygon202" style="fill-opacity: 1; fill: rgb(255, 253, 253);"/>
    <polygon id="polygon163" points="575.574 94.776 575.574 82.11 514.047 82.11 514.047 57.681 534.858 45.012 600 45.012 579.192 57.681 536.667 57.681 536.667 69.441 599.097 69.441 599.097 94.776 578.286 107.442 514.047 107.442 534.858 94.776" style="fill-opacity: 1; fill: rgb(255, 253, 253);"/>
  </g>
  <path d="M 189.992 140.348 L 184.392 140.348 L 184.392 134.158 L 180.192 134.158 L 180.192 140.348 L 174.592 140.348 L 174.592 122.848 L 180.192 122.848 L 180.192 129.038 L 184.392 129.038 L 184.392 122.848 L 189.992 122.848 L 189.992 140.348 Z M 197.611 137.578 L 196.961 140.348 L 191.051 140.348 L 195.591 122.848 L 204.241 122.848 L 208.781 140.348 L 202.871 140.348 L 202.231 137.578 L 197.611 137.578 Z M 200.071 128.228 L 199.761 128.228 L 198.611 133.128 L 201.191 133.128 L 200.071 128.228 Z M 221.462 135.338 L 221.882 140.038 C 220.709 140.525 219.236 140.768 217.462 140.768 C 215.689 140.768 214.266 140.581 213.192 140.208 C 212.119 139.835 211.272 139.248 210.652 138.448 C 210.039 137.641 209.609 136.698 209.362 135.618 C 209.122 134.531 209.002 133.195 209.002 131.608 C 209.002 130.021 209.122 128.685 209.362 127.598 C 209.609 126.505 210.039 125.555 210.652 124.748 C 211.846 123.201 214.039 122.428 217.232 122.428 C 217.946 122.428 218.782 122.498 219.742 122.638 C 220.702 122.778 221.416 122.951 221.882 123.158 L 221.042 127.438 C 219.829 127.178 218.719 127.048 217.712 127.048 C 216.706 127.048 216.006 127.141 215.612 127.328 C 215.219 127.515 215.022 127.888 215.022 128.448 L 215.022 135.788 C 215.749 135.935 216.486 136.008 217.232 136.008 C 218.819 136.008 220.229 135.785 221.462 135.338 Z M 229.552 132.728 L 229.442 132.728 L 229.442 140.348 L 223.842 140.348 L 223.842 122.848 L 229.442 122.848 L 229.442 129.988 L 229.552 129.988 C 229.592 129.428 229.685 128.981 229.832 128.648 L 232.582 122.848 L 238.622 122.848 L 234.422 131.448 L 238.762 140.348 L 232.722 140.348 L 229.832 134.078 C 229.685 133.738 229.592 133.288 229.552 132.728 Z M 239.745 140.038 L 240.525 135.418 C 242.245 135.851 243.792 136.068 245.165 136.068 C 246.538 136.068 247.645 136.011 248.485 135.898 L 248.485 134.498 L 245.965 134.268 C 243.685 134.068 242.122 133.525 241.275 132.638 C 240.422 131.751 239.995 130.438 239.995 128.698 C 239.995 126.311 240.515 124.668 241.555 123.768 C 242.588 122.875 244.345 122.428 246.825 122.428 C 249.312 122.428 251.552 122.661 253.545 123.128 L 252.845 127.608 C 251.112 127.328 249.722 127.188 248.675 127.188 C 247.628 127.188 246.742 127.235 246.015 127.328 L 246.015 128.698 L 248.035 128.898 C 250.482 129.138 252.172 129.721 253.105 130.648 C 254.038 131.568 254.505 132.851 254.505 134.498 C 254.505 135.671 254.345 136.665 254.025 137.478 C 253.705 138.291 253.328 138.908 252.895 139.328 C 252.455 139.748 251.832 140.068 251.025 140.288 C 250.225 140.515 249.522 140.651 248.915 140.698 C 248.308 140.745 247.502 140.768 246.495 140.768 C 244.068 140.768 241.818 140.525 239.745 140.038 Z M 265.76 133.628 L 261.42 133.628 L 261.42 129.598 L 265.76 129.598 L 265.76 125.258 L 269.79 125.258 L 269.79 129.598 L 274.16 129.598 L 274.16 133.628 L 269.79 133.628 L 269.79 137.998 L 265.76 137.998 L 265.76 133.628 Z M 297.199 140.348 L 291.599 140.348 L 291.599 134.158 L 287.399 134.158 L 287.399 140.348 L 281.799 140.348 L 281.799 122.848 L 287.399 122.848 L 287.399 129.038 L 291.599 129.038 L 291.599 122.848 L 297.199 122.848 L 297.199 140.348 Z M 299.158 131.608 C 299.158 128.421 299.755 126.095 300.948 124.628 C 302.141 123.161 304.298 122.428 307.418 122.428 C 310.538 122.428 312.695 123.161 313.888 124.628 C 315.081 126.095 315.678 128.421 315.678 131.608 C 315.678 133.195 315.551 134.531 315.298 135.618 C 315.045 136.698 314.611 137.641 313.998 138.448 C 313.385 139.248 312.535 139.835 311.448 140.208 C 310.368 140.581 309.025 140.768 307.418 140.768 C 305.811 140.768 304.468 140.581 303.388 140.208 C 302.301 139.835 301.451 139.248 300.838 138.448 C 300.225 137.641 299.791 136.698 299.538 135.618 C 299.285 134.531 299.158 133.195 299.158 131.608 Z M 305.178 128.698 L 305.178 135.978 L 307.498 135.978 C 308.265 135.978 308.821 135.891 309.168 135.718 C 309.515 135.538 309.688 135.131 309.688 134.498 L 309.688 127.218 L 307.338 127.218 C 306.591 127.218 306.045 127.305 305.698 127.478 C 305.351 127.658 305.178 128.065 305.178 128.698 Z M 323.127 131.868 L 322.787 140.348 L 316.937 140.348 L 317.997 122.848 L 325.307 122.848 L 327.497 131.748 L 327.687 131.748 L 329.877 122.848 L 337.177 122.848 L 338.247 140.348 L 332.397 140.348 L 332.057 131.868 L 331.857 131.868 L 329.737 140.348 L 325.447 140.348 L 323.297 131.868 L 323.127 131.868 Z M 351.544 129.678 L 351.544 133.738 L 345.944 133.738 L 345.944 135.868 L 352.804 135.868 L 352.804 140.348 L 340.344 140.348 L 340.344 122.848 L 352.664 122.848 L 351.964 127.328 L 345.944 127.328 L 345.944 129.678 L 351.544 129.678 Z M 365.233 140.348 L 355.183 140.348 L 355.183 122.848 L 364.253 122.848 C 365.933 122.848 367.133 123.175 367.853 123.828 C 368.573 124.481 368.933 125.435 368.933 126.688 C 368.933 127.935 368.703 128.898 368.243 129.578 C 367.79 130.265 367.18 130.708 366.413 130.908 L 366.413 131.078 C 368.673 131.471 369.803 133.011 369.803 135.698 C 369.803 137.098 369.43 138.225 368.683 139.078 C 367.937 139.925 366.787 140.348 365.233 140.348 Z M 362.963 133.378 L 360.783 133.378 L 360.783 136.228 L 362.943 136.228 C 363.723 136.228 364.113 135.755 364.113 134.808 C 364.113 133.855 363.73 133.378 362.963 133.378 Z M 362.543 126.688 L 360.783 126.688 L 360.783 129.288 L 362.523 129.288 C 363.23 129.288 363.583 128.855 363.583 127.988 C 363.583 127.121 363.237 126.688 362.543 126.688 Z M 383.999 134.528 L 387.019 140.348 L 380.859 140.348 L 378.559 135.138 L 377.359 135.138 L 377.359 140.348 L 371.759 140.348 L 371.759 122.848 L 380.579 122.848 C 384.592 122.848 386.599 124.891 386.599 128.978 C 386.599 131.778 385.732 133.628 383.999 134.528 Z M 378.649 127.328 L 377.359 127.328 L 377.359 130.828 L 378.649 130.828 C 379.322 130.828 379.812 130.758 380.119 130.618 C 380.425 130.478 380.579 130.155 380.579 129.648 L 380.579 128.508 C 380.579 128.001 380.425 127.678 380.119 127.538 C 379.812 127.398 379.322 127.328 378.649 127.328 Z M 400.178 129.678 L 400.178 133.738 L 394.578 133.738 L 394.578 135.868 L 401.438 135.868 L 401.438 140.348 L 388.978 140.348 L 388.978 122.848 L 401.298 122.848 L 400.598 127.328 L 394.578 127.328 L 394.578 129.678 L 400.178 129.678 Z M 418.207 132.618 L 419.557 122.848 L 425.407 122.848 L 422.657 140.348 L 415.357 140.348 L 414.067 133.908 L 413.727 133.908 L 412.467 140.348 L 405.157 140.348 L 402.417 122.848 L 408.267 122.848 L 409.587 132.618 L 409.757 132.618 L 411.767 122.848 L 416.057 122.848 L 418.037 132.618 L 418.207 132.618 Z" style="fill: rgb(255, 255, 255); white-space: pre;"/>
</svg>