<?xml version="1.0" encoding="utf-8"?>
<svg version="1.1" id="Layer_1" x="0px" y="0px" enable-background="new 0 0 566.929 67.639" xmlns="http://www.w3.org/2000/svg">
  <g>
    <path id="path5" d="M 225.74 59.585 C 220.683 66.455 215.674 68.407 213.483 69.46 C 211.296 70.516 207.98 71.343 205.08 71.343 C 196.943 71.343 190.594 68.691 186.029 63.405 C 181.464 58.097 179.183 50.657 179.183 41.004 C 179.183 29.596 182.061 19.919 187.842 11.932 C 193.621 3.97 201.284 0.002 210.834 0.002 C 218.079 0.002 224.005 2.036 228.645 6.127 C 233.283 10.198 235.591 16.597 235.591 25.302 L 221.576 25.302 C 221.576 21.135 220.656 18.208 218.818 16.522 C 216.986 14.859 214.352 14.014 210.907 14.014 C 205.276 14.014 200.934 16.769 197.833 22.252 C 194.758 27.758 193.192 34.007 193.192 41.028 C 193.192 45.817 194.212 49.736 196.194 52.76 C 198.204 55.813 201.203 57.325 205.201 57.325 C 209.368 57.325 212.59 56.133 214.923 53.776 C 217.231 51.447 218.942 48.418 220.034 44.721 L 206.984 44.721 L 209.096 32.022 L 234.544 32.022 L 232.387 44.323 C 232.39 44.329 230.776 52.714 225.74 59.585 L 225.74 59.585 Z" style="fill-opacity: 1; fill: rgb(255, 255, 255);"/>
    <polygon id="polygon9" points="346.74 1.764 335.355 69.684 323.102 69.684 332.751 17.044 311.467 69.684 301.423 69.684 296.785 17.068 289.462 69.684 277.064 69.684 288.397 1.764 305.789 1.764 309.684 49.588 329.23 1.637" style="fill-opacity: 1; fill: rgb(255, 255, 255);"/>
    <polygon id="polygon11" points="359.714 28.057 379.734 28.057 377.646 41.23 357.629 41.23 355.052 55.692 377.646 55.692 375.419 69.684 339.797 69.684 351.057 1.689 386.254 1.689 384.1 15.777 361.947 15.777" style="fill-opacity: 1; fill: rgb(255, 255, 255);"/>
    <path id="path13" d="M 253.028 1.637 L 225.643 69.684 L 238.989 69.684 L 243.874 56.411 L 261.338 56.411 L 262.478 69.684 L 275.401 69.684 L 267.662 1.64 L 253.028 1.64 Z M 248.116 44.803 L 258.04 17.738 L 260.345 44.803 L 248.116 44.803 Z" style="fill-opacity: 1; fill: rgb(255, 255, 255);"/>
    <path id="path5_1_" d="M 455.384 59.585 C 450.324 66.455 445.321 68.407 443.13 69.46 C 440.94 70.516 437.624 71.343 434.724 71.343 C 426.59 71.343 420.238 68.691 415.676 63.408 C 411.108 58.097 408.827 50.657 408.827 41.007 C 408.827 29.596 411.705 19.922 417.486 11.935 C 423.264 3.973 430.928 0.002 440.481 0.002 C 447.723 0.002 453.652 2.039 458.289 6.13 C 462.93 10.201 465.235 16.6 465.235 25.305 L 451.223 25.305 C 451.223 21.138 450.306 18.211 448.468 16.525 C 446.633 14.862 444.002 14.02 440.554 14.02 C 434.923 14.02 430.581 16.772 427.483 22.255 C 424.405 27.761 422.842 34.01 422.842 41.031 C 422.842 45.82 423.859 49.739 425.841 52.763 C 427.854 55.816 430.853 57.328 434.848 57.328 C 439.018 57.328 442.24 56.139 444.573 53.779 C 446.881 51.45 448.592 48.424 449.684 44.725 L 436.634 44.725 L 438.743 32.025 L 464.194 32.025 L 462.034 44.329 C 462.034 44.329 460.42 52.714 455.384 59.585 L 455.384 59.585 Z" style="fill-opacity: 1; fill: rgb(255, 255, 255);"/>
    <polygon id="polygon15" points="481.532 28.081 501.524 28.081 499.466 41.23 479.447 41.23 476.846 55.692 499.466 55.692 497.234 69.705 461.611 69.705 472.875 1.689 508.075 1.689 505.917 15.777 483.761 15.777" style="fill-opacity: 1; fill: rgb(255, 255, 255);"/>
    <path id="path17" d="M 525.783 1.665 L 498.398 69.708 L 511.771 69.708 L 516.629 56.435 L 534.117 56.435 L 535.258 69.708 L 548.157 69.708 L 540.417 1.665 L 525.783 1.665 Z M 520.895 44.8 L 530.795 17.738 L 533.127 44.8 L 520.895 44.8 Z" style="fill-opacity: 1; fill: rgb(255, 255, 255);"/>
    <path id="path19" d="M 568.846 31.578 L 571.824 14.835 L 578.966 14.835 C 581.594 14.835 583.556 15.306 584.871 16.25 C 586.184 17.216 586.829 19.126 586.829 22.004 C 586.829 25.23 585.764 27.61 583.655 29.197 C 581.519 30.788 578.818 31.578 575.545 31.578 L 568.846 31.578 L 568.846 31.578 Z M 560.784 1.689 L 549.523 69.705 L 562.543 69.705 L 566.912 43.783 L 572.938 43.783 L 583.009 69.705 L 597.942 69.705 L 586.778 41.004 C 590.673 39.022 594.023 35.721 596.355 32.275 C 598.784 28.727 600 24.584 600 19.847 C 600 13.423 598.561 8.807 595.658 5.955 C 592.783 3.104 588.685 1.689 583.429 1.689 L 560.784 1.689 L 560.784 1.689 Z" style="fill-opacity: 1; fill: rgb(255, 255, 255);"/>
    <path id="path21" d="M 10.872 27.816 C 22.361 8.544 38.181 -3.486 46.204 0.907 C 54.209 5.319 51.388 24.515 39.874 43.774 C 28.384 63.049 12.567 75.076 4.562 70.682 C -3.461 66.274 -0.621 47.072 10.872 27.816 Z" style="fill-opacity: 1; fill: rgb(255, 255, 255);"/>
    <path id="path21_2_" d="M 62.277 27.816 C 73.77 8.544 89.587 -3.486 97.607 0.907 C 105.612 5.319 102.791 24.515 91.28 43.774 C 79.787 63.049 63.97 75.076 55.968 70.682 C 47.945 66.274 50.784 47.072 62.277 27.816 Z" style="fill-opacity: 1; fill: rgb(255, 255, 255);"/>
    <path id="path21_3_" d="M 113.683 27.816 C 125.173 8.541 140.993 -3.486 149.013 0.904 C 157.018 5.316 154.196 24.515 142.685 43.774 C 131.193 63.049 115.379 75.076 107.374 70.679 C 99.348 66.274 102.19 47.072 113.683 27.816 Z" style="fill-opacity: 1; fill: rgb(255, 255, 255);"/>
  </g>
  <path d="M 189.992 100.643 L 184.392 100.643 L 184.392 94.453 L 180.192 94.453 L 180.192 100.643 L 174.592 100.643 L 174.592 83.143 L 180.192 83.143 L 180.192 89.333 L 184.392 89.333 L 184.392 83.143 L 189.992 83.143 L 189.992 100.643 Z M 197.611 97.873 L 196.961 100.643 L 191.051 100.643 L 195.591 83.143 L 204.241 83.143 L 208.781 100.643 L 202.871 100.643 L 202.231 97.873 L 197.611 97.873 Z M 200.071 88.523 L 199.761 88.523 L 198.611 93.423 L 201.191 93.423 L 200.071 88.523 Z M 221.462 95.633 L 221.882 100.333 C 220.709 100.82 219.236 101.063 217.462 101.063 C 215.689 101.063 214.266 100.876 213.192 100.503 C 212.119 100.13 211.272 99.543 210.652 98.743 C 210.039 97.936 209.609 96.993 209.362 95.913 C 209.122 94.826 209.002 93.49 209.002 91.903 C 209.002 90.316 209.122 88.98 209.362 87.893 C 209.609 86.8 210.039 85.85 210.652 85.043 C 211.846 83.496 214.039 82.723 217.232 82.723 C 217.946 82.723 218.782 82.793 219.742 82.933 C 220.702 83.073 221.416 83.246 221.882 83.453 L 221.042 87.733 C 219.829 87.473 218.719 87.343 217.712 87.343 C 216.706 87.343 216.006 87.436 215.612 87.623 C 215.219 87.81 215.022 88.183 215.022 88.743 L 215.022 96.083 C 215.749 96.23 216.486 96.303 217.232 96.303 C 218.819 96.303 220.229 96.08 221.462 95.633 Z M 229.552 93.023 L 229.442 93.023 L 229.442 100.643 L 223.842 100.643 L 223.842 83.143 L 229.442 83.143 L 229.442 90.283 L 229.552 90.283 C 229.592 89.723 229.685 89.276 229.832 88.943 L 232.582 83.143 L 238.622 83.143 L 234.422 91.743 L 238.762 100.643 L 232.722 100.643 L 229.832 94.373 C 229.685 94.033 229.592 93.583 229.552 93.023 Z M 239.745 100.333 L 240.525 95.713 C 242.245 96.146 243.792 96.363 245.165 96.363 C 246.538 96.363 247.645 96.306 248.485 96.193 L 248.485 94.793 L 245.965 94.563 C 243.685 94.363 242.122 93.82 241.275 92.933 C 240.422 92.046 239.995 90.733 239.995 88.993 C 239.995 86.606 240.515 84.963 241.555 84.063 C 242.588 83.17 244.345 82.723 246.825 82.723 C 249.312 82.723 251.552 82.956 253.545 83.423 L 252.845 87.903 C 251.112 87.623 249.722 87.483 248.675 87.483 C 247.628 87.483 246.742 87.53 246.015 87.623 L 246.015 88.993 L 248.035 89.193 C 250.482 89.433 252.172 90.016 253.105 90.943 C 254.038 91.863 254.505 93.146 254.505 94.793 C 254.505 95.966 254.345 96.96 254.025 97.773 C 253.705 98.586 253.328 99.203 252.895 99.623 C 252.455 100.043 251.832 100.363 251.025 100.583 C 250.225 100.81 249.522 100.946 248.915 100.993 C 248.308 101.04 247.502 101.063 246.495 101.063 C 244.068 101.063 241.818 100.82 239.745 100.333 Z M 265.76 93.923 L 261.42 93.923 L 261.42 89.893 L 265.76 89.893 L 265.76 85.553 L 269.79 85.553 L 269.79 89.893 L 274.16 89.893 L 274.16 93.923 L 269.79 93.923 L 269.79 98.293 L 265.76 98.293 L 265.76 93.923 Z M 297.199 100.643 L 291.599 100.643 L 291.599 94.453 L 287.399 94.453 L 287.399 100.643 L 281.799 100.643 L 281.799 83.143 L 287.399 83.143 L 287.399 89.333 L 291.599 89.333 L 291.599 83.143 L 297.199 83.143 L 297.199 100.643 Z M 299.158 91.903 C 299.158 88.716 299.755 86.39 300.948 84.923 C 302.141 83.456 304.298 82.723 307.418 82.723 C 310.538 82.723 312.695 83.456 313.888 84.923 C 315.081 86.39 315.678 88.716 315.678 91.903 C 315.678 93.49 315.551 94.826 315.298 95.913 C 315.045 96.993 314.611 97.936 313.998 98.743 C 313.385 99.543 312.535 100.13 311.448 100.503 C 310.368 100.876 309.025 101.063 307.418 101.063 C 305.811 101.063 304.468 100.876 303.388 100.503 C 302.301 100.13 301.451 99.543 300.838 98.743 C 300.225 97.936 299.791 96.993 299.538 95.913 C 299.285 94.826 299.158 93.49 299.158 91.903 Z M 305.178 88.993 L 305.178 96.273 L 307.498 96.273 C 308.265 96.273 308.821 96.186 309.168 96.013 C 309.515 95.833 309.688 95.426 309.688 94.793 L 309.688 87.513 L 307.338 87.513 C 306.591 87.513 306.045 87.6 305.698 87.773 C 305.351 87.953 305.178 88.36 305.178 88.993 Z M 323.127 92.163 L 322.787 100.643 L 316.937 100.643 L 317.997 83.143 L 325.307 83.143 L 327.497 92.043 L 327.687 92.043 L 329.877 83.143 L 337.177 83.143 L 338.247 100.643 L 332.397 100.643 L 332.057 92.163 L 331.857 92.163 L 329.737 100.643 L 325.447 100.643 L 323.297 92.163 L 323.127 92.163 Z M 351.544 89.973 L 351.544 94.033 L 345.944 94.033 L 345.944 96.163 L 352.804 96.163 L 352.804 100.643 L 340.344 100.643 L 340.344 83.143 L 352.664 83.143 L 351.964 87.623 L 345.944 87.623 L 345.944 89.973 L 351.544 89.973 Z M 365.233 100.643 L 355.183 100.643 L 355.183 83.143 L 364.253 83.143 C 365.933 83.143 367.133 83.47 367.853 84.123 C 368.573 84.776 368.933 85.73 368.933 86.983 C 368.933 88.23 368.703 89.193 368.243 89.873 C 367.79 90.56 367.18 91.003 366.413 91.203 L 366.413 91.373 C 368.673 91.766 369.803 93.306 369.803 95.993 C 369.803 97.393 369.43 98.52 368.683 99.373 C 367.937 100.22 366.787 100.643 365.233 100.643 Z M 362.963 93.673 L 360.783 93.673 L 360.783 96.523 L 362.943 96.523 C 363.723 96.523 364.113 96.05 364.113 95.103 C 364.113 94.15 363.73 93.673 362.963 93.673 Z M 362.543 86.983 L 360.783 86.983 L 360.783 89.583 L 362.523 89.583 C 363.23 89.583 363.583 89.15 363.583 88.283 C 363.583 87.416 363.237 86.983 362.543 86.983 Z M 383.999 94.823 L 387.019 100.643 L 380.859 100.643 L 378.559 95.433 L 377.359 95.433 L 377.359 100.643 L 371.759 100.643 L 371.759 83.143 L 380.579 83.143 C 384.592 83.143 386.599 85.186 386.599 89.273 C 386.599 92.073 385.732 93.923 383.999 94.823 Z M 378.649 87.623 L 377.359 87.623 L 377.359 91.123 L 378.649 91.123 C 379.322 91.123 379.812 91.053 380.119 90.913 C 380.425 90.773 380.579 90.45 380.579 89.943 L 380.579 88.803 C 380.579 88.296 380.425 87.973 380.119 87.833 C 379.812 87.693 379.322 87.623 378.649 87.623 Z M 400.178 89.973 L 400.178 94.033 L 394.578 94.033 L 394.578 96.163 L 401.438 96.163 L 401.438 100.643 L 388.978 100.643 L 388.978 83.143 L 401.298 83.143 L 400.598 87.623 L 394.578 87.623 L 394.578 89.973 L 400.178 89.973 Z M 418.207 92.913 L 419.557 83.143 L 425.407 83.143 L 422.657 100.643 L 415.357 100.643 L 414.067 94.203 L 413.727 94.203 L 412.467 100.643 L 405.157 100.643 L 402.417 83.143 L 408.267 83.143 L 409.587 92.913 L 409.757 92.913 L 411.767 83.143 L 416.057 83.143 L 418.037 92.913 L 418.207 92.913 Z" style="fill: rgb(255, 255, 255); white-space: pre;"/>
</svg>