<?xml version="1.0" encoding="utf-8"?>
<svg xmlns="http://www.w3.org/2000/svg">
  <path d="M 71.702 51.747 L 94.241 51.747 C 103.454 51.747 110.95 44.249 110.95 35.038 C 110.95 25.828 103.454 18.375 94.241 18.375 L 88.365 18.375 C 87.902 18.375 87.53 18.006 87.53 17.542 C 87.53 17.033 87.9 16.664 88.365 16.664 L 110.859 16.664 L 110.906 9.627 L 88.365 9.627 C 84.013 9.627 80.495 13.146 80.495 17.497 C 80.495 21.894 84.012 25.458 88.365 25.458 L 94.241 25.458 C 99.518 25.458 103.824 29.764 103.824 35.039 C 103.824 40.316 99.518 44.574 94.241 44.574 L 71.702 44.574 L 71.702 51.747 L 71.702 51.747 Z" id="path5" style="fill-opacity: 1; fill: rgb(255, 255, 255);"/>
  <path d="M 71.702 42.953 L 94.241 42.953 C 98.639 42.953 102.158 39.389 102.158 35.038 C 102.158 30.687 98.64 27.124 94.241 27.124 L 88.365 27.124 C 83.089 27.124 78.83 22.773 78.83 17.496 C 78.83 12.219 83.089 7.962 88.365 7.962 L 110.904 7.962 L 110.858 0.834 L 88.362 0.834 C 79.152 0.834 71.7 8.285 71.7 17.542 C 71.7 26.753 79.152 34.205 88.362 34.205 L 94.194 34.205 C 94.657 34.205 95.028 34.576 95.028 35.038 C 95.028 35.501 94.657 35.871 94.194 35.871 L 71.7 35.871 L 71.702 42.953 L 71.702 42.953 Z" id="path7" style="fill-opacity: 1; fill: rgb(255, 255, 255);"/>
  <path d="M 128.4 44.619 C 124.514 44.619 121.32 41.518 121.32 37.537 L 121.32 14.903 C 121.32 11.109 124.514 7.915 128.4 7.915 L 152.469 7.915 L 152.469 0.834 L 128.4 0.834 C 120.579 0.834 114.238 7.175 114.238 14.997 L 114.238 37.537 C 114.238 45.36 120.578 51.701 128.4 51.701 L 152.377 51.701 L 152.377 44.62 L 128.4 44.619 L 128.4 44.619 Z" id="path9" style="fill-opacity: 1; fill: rgb(255, 255, 255);"/>
  <path d="M 123.031 14.996 C 123.031 12.034 125.438 9.58 128.4 9.58 L 152.469 9.58 L 152.469 16.662 L 131.734 16.662 C 130.066 16.662 130.066 18.328 130.066 18.328 L 147.377 18.328 L 147.377 25.41 L 123.031 25.41 L 123.031 14.996 L 123.031 14.996 Z" id="path11" style="fill-opacity: 1; fill: rgb(255, 255, 255);"/>
  <path d="M 128.4 42.908 C 125.438 42.908 123.031 40.5 123.031 37.538 L 123.031 27.122 L 147.376 27.122 L 147.376 34.203 L 130.066 34.203 C 130.066 35.87 131.732 35.87 131.732 35.87 L 152.375 35.87 L 152.375 42.906 L 128.4 42.908 L 128.4 42.908 Z" id="path13" style="fill-opacity: 1; fill: rgb(255, 255, 255);"/>
  <path d="M 169.363 44.619 C 165.429 44.619 162.234 41.424 162.234 37.537 L 162.234 14.997 C 162.234 11.109 165.43 7.915 169.317 7.915 L 192.646 7.915 L 192.646 0.834 L 169.27 0.834 C 161.448 0.834 155.108 7.175 155.108 14.997 L 155.108 37.537 C 155.108 45.36 161.493 51.701 169.317 51.701 L 192.646 51.701 L 192.646 18.33 L 172.603 18.33 L 172.603 25.411 L 185.564 25.411 L 185.564 44.619 L 169.363 44.619 L 169.363 44.619 Z" id="path15" style="fill-opacity: 1; fill: rgb(255, 255, 255);"/>
  <path d="M 163.899 37.537 C 163.899 40.499 166.354 42.953 169.316 42.953 L 183.895 42.953 L 183.895 27.077 L 172.602 27.077 L 172.602 34.205 L 176.815 34.205 L 176.815 35.871 L 172.65 35.871 C 171.723 35.871 170.983 35.086 170.983 34.205 L 170.983 18.329 C 170.983 18.329 170.983 16.662 172.65 16.662 L 192.644 16.662 L 192.644 9.58 L 169.316 9.58 C 166.355 9.58 163.9 12.033 163.9 14.996 L 163.899 37.537 L 163.899 37.537 Z" id="path17" style="fill-opacity: 1; fill: rgb(255, 255, 255);"/>
  <path d="M 214.537 9.49 C 214.86 8.564 215.694 7.916 216.713 7.916 C 217.731 7.916 218.566 8.565 218.89 9.49 L 230.183 43 L 213.661 43 L 213.661 35.131 L 219.216 35.131 L 216.716 27.678 L 208.568 51.701 L 200.237 51.701 L 214.537 9.49 L 214.537 9.49 Z" id="path19" style="fill-opacity: 1; fill: rgb(255, 255, 255);"/>
  <path d="M 232.497 44.619 L 213.658 44.619 L 213.658 51.7 L 242.309 51.7 L 227.405 7.498 C 226.108 3.194 221.803 0 216.711 0 C 211.622 0 207.317 3.148 206.02 7.498 L 190.975 51.7 L 198.474 51.7 L 213.052 8.702 C 213.654 7.267 215.042 6.295 216.708 6.295 C 218.329 6.295 219.719 7.267 220.32 8.702 L 232.497 44.619 L 232.497 44.619 Z" id="path21" style="fill-opacity: 1; fill: rgb(255, 255, 255);"/>
  <path id="path6717" d="M 49.036 97.892 L 31.547 97.892 L 31.547 95.911 C 32.18 95.895 32.993 95.828 33.988 95.715 C 34.984 95.605 35.666 95.447 36.039 95.24 C 36.616 94.889 37.039 94.485 37.308 94.027 C 37.578 93.571 37.712 93 37.712 92.311 L 37.712 63.527 L 37.294 63.527 L 23.793 97.25 L 22.4 97.25 L 9.54 62.83 L 9.178 62.83 L 9.178 86.455 C 9.178 88.741 9.322 90.481 9.61 91.671 C 9.899 92.861 10.34 93.716 10.936 94.235 C 11.345 94.624 12.19 95 13.473 95.354 C 14.756 95.707 15.593 95.894 15.984 95.909 L 15.984 97.89 L 0 97.89 L 0 95.909 C 0.838 95.836 1.715 95.697 2.636 95.493 C 3.556 95.289 4.267 94.983 4.77 94.573 C 5.421 94.055 5.867 93.253 6.109 92.174 C 6.352 91.098 6.471 89.292 6.471 86.762 L 6.471 66.511 C 6.471 65.34 6.332 64.383 6.053 63.64 C 5.775 62.897 5.375 62.292 4.854 61.827 C 4.278 61.324 3.571 60.953 2.734 60.71 C 1.897 60.47 1.07 60.331 0.252 60.292 L 0.252 58.312 L 13.753 58.312 L 25.076 87.99 L 34.756 63.165 C 35.109 62.257 35.412 61.303 35.663 60.306 C 35.914 59.311 36.05 58.645 36.068 58.312 L 48.982 58.312 L 48.982 60.292 C 48.461 60.311 47.796 60.395 46.987 60.543 C 46.179 60.694 45.588 60.833 45.216 60.961 C 44.585 61.183 44.156 61.558 43.932 62.078 C 43.709 62.598 43.598 63.165 43.598 63.778 L 43.598 92.312 C 43.598 92.964 43.709 93.511 43.932 93.958 C 44.156 94.403 44.583 94.796 45.216 95.127 C 45.552 95.316 46.147 95.488 47.002 95.645 C 47.857 95.801 48.536 95.893 49.038 95.908 L 49.038 97.891 L 49.036 97.891 L 49.036 97.892 Z" style="fill-opacity: 1; fill: rgb(255, 255, 255);"/>
  <path id="path6719" d="M 73.791 97.389 C 72.918 97.708 72.151 97.961 71.49 98.157 C 70.829 98.352 70.082 98.449 69.245 98.449 C 67.793 98.449 66.637 98.112 65.772 97.432 C 64.907 96.754 64.354 95.765 64.112 94.462 L 63.944 94.462 C 62.736 95.799 61.439 96.825 60.053 97.529 C 58.667 98.238 56.998 98.589 55.046 98.589 C 52.982 98.589 51.285 97.961 49.956 96.692 C 48.626 95.429 47.962 93.774 47.962 91.727 C 47.962 90.667 48.111 89.717 48.409 88.882 C 48.706 88.044 49.153 87.292 49.747 86.623 C 50.212 86.068 50.826 85.571 51.588 85.131 C 52.351 84.696 53.066 84.348 53.735 84.085 C 54.574 83.77 56.27 83.183 58.826 82.327 C 61.383 81.475 63.107 80.805 64 80.32 L 64 77.559 C 64 77.317 63.95 76.852 63.846 76.165 C 63.743 75.477 63.526 74.825 63.191 74.211 C 62.818 73.526 62.294 72.925 61.614 72.413 C 60.936 71.903 59.974 71.646 58.728 71.646 C 57.872 71.646 57.078 71.791 56.343 72.078 C 55.608 72.369 55.092 72.669 54.796 72.985 C 54.796 73.359 54.884 73.905 55.061 74.63 C 55.238 75.354 55.326 76.025 55.326 76.638 C 55.326 77.29 55.032 77.884 54.446 78.422 C 53.861 78.966 53.047 79.231 52.006 79.231 C 51.077 79.231 50.393 78.904 49.955 78.242 C 49.519 77.584 49.301 76.844 49.301 76.024 C 49.301 75.17 49.602 74.351 50.207 73.569 C 50.812 72.789 51.597 72.092 52.565 71.478 C 53.402 70.96 54.416 70.515 55.605 70.153 C 56.796 69.79 57.957 69.609 59.092 69.609 C 60.654 69.609 62.015 69.716 63.178 69.929 C 64.341 70.145 65.396 70.603 66.344 71.31 C 67.292 72 68.013 72.934 68.506 74.113 C 68.998 75.295 69.245 76.814 69.245 78.674 C 69.245 81.333 69.216 83.69 69.161 85.743 C 69.105 87.799 69.079 90.045 69.079 92.481 C 69.079 93.206 69.204 93.784 69.455 94.212 C 69.706 94.641 70.092 95.003 70.613 95.298 C 70.892 95.467 71.333 95.559 71.938 95.577 C 72.542 95.596 73.16 95.607 73.792 95.607 L 73.792 97.389 L 73.791 97.389 Z M 64.057 82.661 C 62.476 83.127 61.092 83.58 59.901 84.028 C 58.71 84.474 57.604 85.031 56.583 85.702 C 55.652 86.334 54.918 87.082 54.378 87.946 C 53.84 88.81 53.569 89.841 53.569 91.028 C 53.569 92.573 53.973 93.706 54.783 94.431 C 55.592 95.155 56.618 95.519 57.864 95.519 C 59.185 95.519 60.347 95.198 61.351 94.556 C 62.355 93.914 63.202 93.16 63.889 92.282 L 64.057 82.661 Z" style="fill-opacity: 1; fill: rgb(255, 255, 255);"/>
  <path id="path6721" d="M 88.757 84.419 C 89.519 85.089 90.105 85.861 90.515 86.732 C 90.924 87.609 91.128 88.678 91.128 89.94 C 91.128 92.49 90.174 94.572 88.27 96.189 C 86.364 97.806 83.894 98.616 80.864 98.616 C 79.264 98.616 77.79 98.326 76.442 97.75 C 75.093 97.174 74.131 96.646 73.555 96.16 L 72.998 97.974 L 70.906 97.974 L 70.627 88.404 L 72.551 88.404 C 72.7 89.129 73.016 89.978 73.499 90.941 C 73.983 91.909 74.569 92.781 75.257 93.563 C 75.982 94.383 76.851 95.07 77.865 95.628 C 78.878 96.184 80.018 96.466 81.282 96.466 C 83.067 96.466 84.444 96.061 85.411 95.251 C 86.377 94.443 86.862 93.285 86.862 91.777 C 86.862 90.996 86.709 90.326 86.402 89.757 C 86.095 89.191 85.643 88.695 85.049 88.264 C 84.435 87.836 83.682 87.452 82.789 87.107 C 81.897 86.764 80.902 86.423 79.804 86.088 C 78.929 85.828 77.959 85.472 76.89 85.014 C 75.82 84.557 74.905 84.022 74.142 83.409 C 73.324 82.76 72.654 81.958 72.133 81.011 C 71.613 80.063 71.352 78.947 71.352 77.664 C 71.352 75.414 72.189 73.509 73.862 71.945 C 75.537 70.383 77.777 69.601 80.585 69.601 C 81.662 69.601 82.765 69.741 83.891 70.018 C 85.015 70.299 85.931 70.632 86.638 71.022 L 87.28 69.572 L 89.288 69.572 L 89.706 78.412 L 87.782 78.412 C 87.392 76.442 86.549 74.839 85.257 73.6 C 83.964 72.365 82.388 71.746 80.528 71.746 C 79.004 71.746 77.803 72.129 76.929 72.891 C 76.055 73.656 75.619 74.576 75.619 75.653 C 75.619 76.49 75.762 77.187 76.051 77.744 C 76.34 78.303 76.771 78.775 77.349 79.168 C 77.905 79.541 78.608 79.89 79.454 80.214 C 80.301 80.539 81.346 80.909 82.593 81.315 C 83.821 81.705 84.978 82.163 86.066 82.682 C 87.153 83.211 88.049 83.789 88.757 84.419 Z" style="fill-opacity: 1; fill: rgb(255, 255, 255);"/>
  <path id="path6723" d="M 106.316 96.691 C 105.107 97.194 103.964 97.618 102.885 97.96 C 101.807 98.306 100.486 98.476 98.924 98.476 C 96.618 98.476 94.995 97.898 94.057 96.734 C 93.117 95.572 92.648 93.929 92.648 91.812 L 92.648 73.18 L 87.682 73.18 L 87.682 70.501 L 92.759 70.501 L 92.759 61.938 L 97.836 61.938 L 97.836 70.501 L 105.73 70.501 L 105.73 73.18 L 97.892 73.18 L 97.892 88.548 C 97.892 89.702 97.933 90.665 98.018 91.437 C 98.101 92.208 98.301 92.886 98.617 93.458 C 98.914 93.998 99.361 94.407 99.956 94.685 C 100.55 94.964 101.35 95.103 102.354 95.103 C 102.818 95.103 103.501 95.061 104.405 94.975 C 105.307 94.892 105.943 94.787 106.316 94.655 L 106.316 96.691 L 106.316 96.691 Z" style="fill-opacity: 1; fill: rgb(255, 255, 255);"/>
  <path id="path6725" d="M 127.585 91.421 C 126.432 93.616 124.889 95.363 122.954 96.664 C 121.021 97.967 118.798 98.615 116.288 98.615 C 114.076 98.615 112.137 98.225 110.471 97.444 C 108.808 96.664 107.437 95.603 106.357 94.265 C 105.279 92.927 104.474 91.366 103.944 89.581 C 103.414 87.794 103.15 85.911 103.15 83.919 C 103.15 82.134 103.433 80.381 104 78.66 C 104.568 76.943 105.4 75.393 106.497 74.017 C 107.557 72.699 108.872 71.633 110.444 70.823 C 112.015 70.013 113.778 69.609 115.73 69.609 C 117.738 69.609 119.458 69.928 120.889 70.558 C 122.322 71.191 123.483 72.055 124.376 73.15 C 125.232 74.195 125.868 75.423 126.287 76.834 C 126.704 78.247 126.915 79.782 126.915 81.435 L 126.915 83.276 L 108.701 83.276 C 108.701 85.082 108.873 86.718 109.216 88.187 C 109.561 89.657 110.104 90.948 110.848 92.065 C 111.572 93.144 112.521 93.994 113.693 94.617 C 114.864 95.242 116.259 95.549 117.877 95.549 C 119.532 95.549 120.958 95.164 122.158 94.39 C 123.359 93.623 124.516 92.23 125.631 90.223 L 127.585 91.421 Z M 121.42 80.933 C 121.42 79.892 121.332 78.776 121.156 77.586 C 120.978 76.396 120.695 75.402 120.305 74.601 C 119.878 73.747 119.292 73.052 118.547 72.509 C 117.804 71.972 116.845 71.701 115.675 71.701 C 113.721 71.701 112.099 72.514 110.807 74.143 C 109.515 75.77 108.813 78.033 108.701 80.933 L 121.42 80.933 L 121.42 80.933 Z" style="fill-opacity: 1; fill: rgb(255, 255, 255);"/>
  <path id="path6727" d="M 145.952 73.931 C 145.952 74.878 145.72 75.721 145.256 76.455 C 144.791 77.192 144.076 77.556 143.109 77.556 C 142.066 77.556 141.272 77.286 140.722 76.746 C 140.175 76.209 139.9 75.613 139.9 74.963 C 139.9 74.553 139.932 74.182 139.997 73.847 C 140.062 73.51 140.123 73.175 140.178 72.842 C 139.305 72.842 138.281 73.195 137.11 73.902 C 135.939 74.61 134.944 75.613 134.125 76.914 L 134.125 92.924 C 134.125 93.578 134.252 94.107 134.502 94.516 C 134.752 94.927 135.148 95.233 135.687 95.437 C 136.152 95.623 136.752 95.762 137.486 95.852 C 138.221 95.949 138.857 96.011 139.398 96.049 L 139.398 97.89 L 124.893 97.89 L 124.893 96.049 C 125.321 96.013 125.763 95.977 126.217 95.939 C 126.673 95.903 127.068 95.829 127.403 95.714 C 127.923 95.547 128.31 95.254 128.56 94.837 C 128.811 94.419 128.937 93.874 128.937 93.206 L 128.937 76.219 C 128.937 75.643 128.802 75.074 128.533 74.518 C 128.263 73.959 127.885 73.514 127.402 73.179 C 127.05 72.954 126.633 72.795 126.148 72.691 C 125.664 72.59 125.143 72.521 124.586 72.483 L 124.586 70.669 L 133.734 70.055 L 134.124 70.445 L 134.124 74.323 L 134.263 74.323 C 135.418 72.816 136.701 71.673 138.113 70.892 C 139.527 70.11 140.819 69.72 141.99 69.72 C 143.162 69.72 144.115 70.103 144.85 70.865 C 145.586 71.626 145.952 72.648 145.952 73.931 L 145.952 73.931 Z" style="fill-opacity: 1; fill: rgb(255, 255, 255);"/>
  <path id="path6729" d="M 175.66 79.734 C 176.496 80.666 177.113 81.682 177.513 82.789 C 177.915 83.896 178.115 85.184 178.115 86.651 C 178.115 90.15 176.82 93.033 174.237 95.299 C 171.652 97.57 168.445 98.701 164.614 98.701 C 162.847 98.701 161.082 98.43 159.315 97.88 C 157.549 97.333 156.023 96.666 154.74 95.886 L 153.541 97.923 L 151.311 97.923 L 150.921 84.367 L 153.18 84.367 C 153.645 86.039 154.189 87.552 154.812 88.899 C 155.436 90.25 156.258 91.506 157.281 92.679 C 158.248 93.777 159.377 94.65 160.668 95.301 C 161.961 95.953 163.463 96.277 165.172 96.277 C 166.456 96.277 167.574 96.11 168.534 95.775 C 169.491 95.439 170.269 94.963 170.863 94.351 C 171.457 93.737 171.897 93.018 172.188 92.191 C 172.477 91.365 172.621 90.41 172.621 89.33 C 172.621 87.754 172.176 86.276 171.284 84.909 C 170.392 83.541 169.063 82.506 167.294 81.799 C 166.085 81.315 164.7 80.78 163.138 80.195 C 161.577 79.61 160.228 79.057 159.094 78.534 C 156.863 77.531 155.128 76.215 153.891 74.587 C 152.654 72.961 152.037 70.835 152.037 68.212 C 152.037 66.708 152.344 65.304 152.957 64.001 C 153.571 62.7 154.444 61.536 155.579 60.514 C 156.657 59.549 157.932 58.789 159.4 58.24 C 160.869 57.692 162.404 57.418 164.002 57.418 C 165.825 57.418 167.456 57.696 168.898 58.256 C 170.338 58.812 171.656 59.465 172.844 60.206 L 173.989 58.309 L 176.22 58.309 L 176.444 71.446 L 174.186 71.446 C 173.778 69.94 173.317 68.502 172.805 67.121 C 172.294 65.747 171.631 64.499 170.811 63.384 C 170.012 62.308 169.035 61.444 167.883 60.802 C 166.73 60.162 165.316 59.84 163.644 59.84 C 161.879 59.84 160.371 60.409 159.125 61.541 C 157.879 62.678 157.256 64.062 157.256 65.697 C 157.256 67.409 157.655 68.826 158.455 69.952 C 159.255 71.077 160.418 72.001 161.942 72.726 C 163.299 73.377 164.632 73.939 165.942 74.411 C 167.253 74.887 168.523 75.395 169.75 75.933 C 170.867 76.417 171.939 76.966 172.971 77.58 C 173.999 78.2 174.896 78.915 175.66 79.734 L 175.66 79.734 Z" style="fill-opacity: 1; fill: rgb(255, 255, 255);"/>
  <path id="path6731" d="M 174.308 106.874 C 174.308 105.944 174.561 105.186 175.075 104.599 C 175.585 104.013 176.221 103.721 176.985 103.721 C 177.579 103.721 178.09 103.829 178.52 104.056 C 178.947 104.28 179.328 104.569 179.664 104.919 C 179.942 105.197 180.242 105.58 180.556 106.063 C 180.873 106.548 181.124 106.948 181.308 107.263 C 182.24 106.76 183.35 105.449 184.644 103.331 C 185.934 101.21 186.873 99.354 187.446 97.75 C 185.677 93.345 184.081 89.403 182.648 85.924 C 181.216 82.447 179.719 78.849 178.158 75.128 C 177.805 74.275 177.208 73.607 176.372 73.133 C 175.536 72.658 174.699 72.358 173.861 72.226 L 173.861 70.385 L 186.414 70.385 L 186.414 72.337 C 185.855 72.356 185.187 72.474 184.405 72.685 C 183.624 72.901 183.234 73.146 183.234 73.425 C 183.234 73.536 183.276 73.723 183.36 73.982 C 183.444 74.244 183.54 74.514 183.654 74.791 C 184.361 76.632 185.437 79.288 186.89 82.755 C 188.342 86.226 189.466 88.998 190.264 91.082 C 191.102 89.091 191.972 87.034 192.872 84.905 C 193.775 82.775 194.786 80.261 195.9 77.359 C 196.03 77.008 196.219 76.52 196.456 75.896 C 196.697 75.273 196.82 74.738 196.82 74.292 C 196.82 73.81 196.399 73.358 195.551 72.939 C 194.704 72.522 193.901 72.265 193.137 72.171 L 193.137 70.386 L 203.347 70.386 L 203.347 72.117 C 202.788 72.212 202.051 72.531 201.142 73.079 C 200.23 73.629 199.551 74.404 199.105 75.407 C 196.891 80.541 194.922 85.217 193.205 89.438 C 191.484 93.66 190.179 96.765 189.287 98.753 C 188.115 101.36 187.069 103.389 186.149 104.849 C 185.228 106.31 184.329 107.456 183.456 108.292 C 182.6 109.075 181.824 109.601 181.129 109.87 C 180.433 110.138 179.708 110.274 178.969 110.274 C 177.518 110.274 176.379 109.931 175.551 109.244 C 174.721 108.559 174.308 107.766 174.308 106.874 L 174.308 106.874 Z" style="fill-opacity: 1; fill: rgb(255, 255, 255);"/>
  <path id="path6733" d="M 216.748 84.419 C 217.508 85.089 218.096 85.861 218.505 86.732 C 218.915 87.609 219.118 88.678 219.118 89.94 C 219.118 92.49 218.164 94.572 216.261 96.189 C 214.352 97.806 211.885 98.616 208.853 98.616 C 207.256 98.616 205.779 98.326 204.434 97.75 C 203.084 97.174 202.122 96.646 201.545 96.16 L 200.987 97.974 L 198.895 97.974 L 198.617 88.404 L 200.541 88.404 C 200.688 89.129 201.004 89.978 201.49 90.941 C 201.974 91.909 202.559 92.781 203.249 93.563 C 203.972 94.383 204.841 95.07 205.856 95.628 C 206.868 96.184 208.007 96.466 209.272 96.466 C 211.056 96.466 212.434 96.061 213.4 95.251 C 214.365 94.443 214.851 93.285 214.851 91.777 C 214.851 90.996 214.697 90.326 214.39 89.757 C 214.083 89.191 213.631 88.695 213.036 88.264 C 212.424 87.836 211.67 87.452 210.779 87.107 C 209.886 86.764 208.89 86.423 207.793 86.088 C 206.917 85.828 205.946 85.472 204.878 85.014 C 203.806 84.557 202.893 84.022 202.13 83.409 C 201.314 82.76 200.641 81.958 200.121 81.011 C 199.599 80.063 199.34 78.947 199.34 77.664 C 199.34 75.414 200.178 73.509 201.852 71.945 C 203.527 70.383 205.764 69.601 208.574 69.601 C 209.651 69.601 210.755 69.741 211.878 70.018 C 213.002 70.299 213.92 70.632 214.627 71.022 L 215.27 69.572 L 217.277 69.572 L 217.695 78.412 L 215.771 78.412 C 215.381 76.442 214.538 74.839 213.249 73.6 C 211.954 72.365 210.381 71.746 208.519 71.746 C 206.994 71.746 205.793 72.129 204.92 72.891 C 204.045 73.656 203.61 74.576 203.61 75.653 C 203.61 76.49 203.753 77.187 204.042 77.744 C 204.331 78.303 204.762 78.775 205.339 79.168 C 205.898 79.541 206.602 79.89 207.447 80.214 C 208.29 80.539 209.338 80.909 210.584 81.315 C 211.814 81.705 212.97 82.163 214.059 82.682 C 215.143 83.211 216.04 83.789 216.748 84.419 L 216.748 84.419 Z" style="fill-opacity: 1; fill: rgb(255, 255, 255);"/>
  <path id="path6735" d="M 234.306 96.691 C 233.098 97.194 231.955 97.618 230.873 97.96 C 229.797 98.306 228.478 98.476 226.915 98.476 C 224.609 98.476 222.986 97.898 222.047 96.734 C 221.108 95.572 220.638 93.929 220.638 91.812 L 220.638 73.18 L 215.674 73.18 L 215.674 70.501 L 220.748 70.501 L 220.748 61.938 L 225.826 61.938 L 225.826 70.501 L 233.72 70.501 L 233.72 73.18 L 225.881 73.18 L 225.881 88.548 C 225.881 89.702 225.924 90.665 226.008 91.437 C 226.091 92.209 226.292 92.886 226.61 93.458 C 226.905 93.998 227.354 94.407 227.945 94.685 C 228.54 94.964 229.34 95.103 230.343 95.103 C 230.808 95.103 231.491 95.061 232.394 94.975 C 233.296 94.892 233.933 94.787 234.305 94.655 L 234.306 96.691 L 234.306 96.691 Z" style="fill-opacity: 1; fill: rgb(255, 255, 255);"/>
  <path id="path6737" d="M 255.575 91.421 C 254.423 93.616 252.879 95.363 250.944 96.664 C 249.01 97.967 246.788 98.615 244.277 98.615 C 242.069 98.615 240.128 98.225 238.462 97.444 C 236.798 96.664 235.428 95.603 234.346 94.265 C 233.27 92.927 232.463 91.366 231.933 89.581 C 231.402 87.794 231.14 85.911 231.14 83.919 C 231.14 82.134 231.425 80.381 231.99 78.66 C 232.557 76.943 233.39 75.393 234.486 74.017 C 235.545 72.699 236.861 71.633 238.433 70.823 C 240.003 70.013 241.767 69.609 243.717 69.609 C 245.727 69.609 247.446 69.928 248.877 70.558 C 250.309 71.191 251.471 72.055 252.364 73.15 C 253.22 74.195 253.856 75.423 254.275 76.834 C 254.691 78.247 254.901 79.782 254.901 81.435 L 254.901 83.276 L 236.689 83.276 C 236.689 85.082 236.862 86.718 237.204 88.187 C 237.547 89.657 238.09 90.948 238.837 92.065 C 239.559 93.144 240.512 93.994 241.681 94.617 C 242.851 95.242 244.245 95.549 245.866 95.549 C 247.522 95.549 248.946 95.164 250.148 94.39 C 251.347 93.623 252.505 92.23 253.623 90.223 L 255.575 91.421 Z M 249.409 80.933 C 249.409 79.892 249.322 78.776 249.145 77.586 C 248.97 76.396 248.684 75.402 248.294 74.601 C 247.868 73.747 247.283 73.052 246.537 72.509 C 245.792 71.972 244.835 71.701 243.663 71.701 C 241.712 71.701 240.088 72.514 238.796 74.143 C 237.505 75.77 236.802 78.033 236.69 80.933 L 249.409 80.933 L 249.409 80.933 Z" style="fill-opacity: 1; fill: rgb(255, 255, 255);"/>
  <path id="path6739" d="M 299.996 97.892 L 286.578 97.892 L 286.578 96.049 C 287.007 96.014 287.439 95.977 287.876 95.94 C 288.312 95.904 288.697 95.829 289.032 95.716 C 289.552 95.548 289.939 95.255 290.19 94.837 C 290.442 94.42 290.568 93.874 290.568 93.207 L 290.568 79.009 C 290.568 77.076 290.125 75.583 289.241 74.532 C 288.357 73.482 287.258 72.957 285.938 72.957 C 285.027 72.957 284.17 73.094 283.372 73.374 C 282.572 73.652 281.837 74.042 281.169 74.545 C 280.627 74.956 280.177 75.395 279.812 75.87 C 279.451 76.344 279.176 76.741 278.989 77.055 L 278.989 92.925 C 278.989 93.579 279.102 94.112 279.326 94.53 C 279.55 94.947 279.929 95.271 280.47 95.493 C 280.898 95.66 281.284 95.786 281.628 95.869 C 281.971 95.952 282.422 96.014 282.98 96.05 L 282.98 97.891 L 269.846 97.891 L 269.846 96.05 C 270.275 96.014 270.684 95.977 271.086 95.94 C 271.484 95.904 271.853 95.829 272.185 95.714 C 272.707 95.547 273.092 95.254 273.343 94.836 C 273.595 94.419 273.723 93.874 273.723 93.204 L 273.723 79.007 C 273.723 77.074 273.279 75.582 272.394 74.531 C 271.512 73.481 270.409 72.954 269.092 72.954 C 268.181 72.954 267.323 73.099 266.524 73.388 C 265.725 73.68 264.99 74.073 264.321 74.574 C 263.782 74.984 263.326 75.444 262.955 75.955 C 262.583 76.469 262.304 76.853 262.116 77.112 L 262.116 92.872 C 262.116 93.505 262.248 94.036 262.508 94.462 C 262.768 94.892 263.157 95.216 263.676 95.44 C 264.066 95.627 264.468 95.764 264.875 95.856 C 265.288 95.951 265.74 96.015 266.242 96.053 L 266.242 97.895 L 252.88 97.895 L 252.88 96.053 C 253.308 96.017 253.749 95.981 254.207 95.942 C 254.661 95.908 255.055 95.832 255.392 95.718 C 255.912 95.551 256.3 95.258 256.548 94.839 C 256.799 94.423 256.924 93.878 256.924 93.208 L 256.924 76.11 C 256.924 75.516 256.793 74.98 256.52 74.507 C 256.25 74.031 255.874 73.626 255.392 73.291 C 255.038 73.067 254.602 72.887 254.082 72.748 C 253.561 72.608 253.022 72.522 252.464 72.482 L 252.464 70.67 L 261.67 70.056 L 262.06 70.446 L 262.06 74.378 L 262.256 74.378 C 262.72 73.916 263.288 73.365 263.957 72.732 C 264.629 72.103 265.25 71.588 265.827 71.199 C 266.477 70.754 267.292 70.383 268.27 70.083 C 269.245 69.788 270.301 69.637 271.435 69.637 C 273.219 69.637 274.752 70.116 276.037 71.072 C 277.323 72.031 278.243 73.189 278.798 74.546 C 279.469 73.897 280.059 73.325 280.57 72.831 C 281.081 72.339 281.756 71.814 282.592 71.255 C 283.3 70.772 284.13 70.381 285.089 70.083 C 286.045 69.788 287.109 69.637 288.283 69.637 C 290.607 69.637 292.448 70.403 293.807 71.924 C 295.163 73.45 295.842 75.794 295.842 78.955 L 295.842 92.929 C 295.842 93.581 295.952 94.113 296.179 94.533 C 296.403 94.949 296.782 95.275 297.323 95.494 C 297.752 95.662 298.173 95.788 298.591 95.872 C 299.01 95.954 299.478 96.016 300 96.052 L 300 97.894 L 299.997 97.894 L 299.997 97.892 Z" style="fill-opacity: 1; fill: rgb(255, 255, 255);"/>
</svg>