<?xml version="1.0" encoding="utf-8"?>
<svg version="1.0" viewBox="0 0 266 60" width="266px" height="60px" xmlns="http://www.w3.org/2000/svg">
  <path d="M 6.741 9.422 L 14.012 9.422 L 23.036 36.815 L 32.191 9.422 L 39.356 9.422 L 45.939 48.696 L 38.773 48.696 L 34.58 23.891 L 26.273 48.696 L 19.718 48.696 L 11.519 23.891 L 7.246 48.696 L 0 48.696 L 6.741 9.422 M 51.882 9.422 L 59.764 9.422 C 64.029 9.422 67.098 9.821 68.973 10.622 C 70.866 11.406 72.353 12.688 73.432 14.466 C 74.529 16.229 75.077 18.348 75.077 20.822 C 75.077 23.563 74.361 25.841 72.928 27.657 C 71.512 29.472 69.583 30.736 67.142 31.449 C 65.709 31.858 63.1 32.063 59.313 32.063 L 59.313 48.696 L 51.882 48.696 L 51.882 9.422 M 59.313 24.774 L 61.675 24.774 C 63.533 24.774 64.825 24.64 65.55 24.372 C 66.275 24.106 66.842 23.67 67.248 23.064 C 67.672 22.442 67.885 21.693 67.885 20.822 C 67.885 19.309 67.302 18.205 66.133 17.511 C 65.285 16.995 63.71 16.737 61.409 16.737 L 59.313 16.737 L 59.313 24.774" style="fill: rgb(255, 255, 255);"/>
  <path d="M 84.799 13.104 L 79.47 41.913 C 79.255 43.159 79.094 44.08 79.094 44.783 C 79.094 47.383 80.816 48.791 83.884 48.791 C 85.66 48.791 88.459 48.032 92.335 46.625 L 92.335 44.512 C 90.666 45.054 89.213 45.325 87.975 45.325 C 86.737 45.325 85.768 44.242 85.768 42.563 C 85.768 41.48 86.037 40.18 86.36 38.609 L 91.958 8.447 L 89.589 8.447 L 80.385 10.504 L 80.385 12.4 L 84.799 13.104 M 118.151 21.606 L 116.16 22.905 C 113.953 22.039 111.908 21.551 109.916 21.551 C 105.126 21.551 100.658 23.989 97.967 28.104 C 95.814 31.408 94.737 34.981 94.737 38.881 C 94.737 45.108 97.644 48.737 102.488 48.737 C 105.126 48.737 108.032 47.274 111.046 44.404 C 111.046 44.512 111.046 44.621 111.046 44.675 C 111.046 47.274 112.446 48.628 115.083 48.628 C 117.129 48.628 119.82 47.978 123.211 46.733 L 123.211 44.729 C 121.919 45.108 120.735 45.325 119.658 45.325 C 118.421 45.325 117.398 44.242 117.398 42.4 C 117.398 41.696 117.559 40.397 117.882 38.609 L 119.497 29.837 C 120.304 25.342 121.004 22.58 121.327 21.606 L 118.151 21.606 M 111.531 24.205 L 113.684 27.454 L 111.154 41.805 C 109.109 43.484 107.386 44.35 105.718 44.35 C 103.08 44.35 101.627 42.238 101.627 38.122 C 101.627 29.892 105.825 24.151 110.831 24.151 C 111.1 24.151 111.316 24.205 111.531 24.205 M 132.106 21.551 L 123.817 23.447 L 123.817 25.235 L 128.5 25.667 C 129.092 26.804 129.576 28.213 129.846 29.729 L 133.075 46.896 L 135.12 46.896 C 132.214 52.473 129.523 55.397 127.1 55.613 L 123.494 52.202 C 121.556 52.581 120.372 53.989 120.372 55.831 C 120.372 57.997 122.31 60 124.894 60 C 129.307 60 133.775 55.722 138.511 47.166 C 142.656 39.693 144.809 31.895 149.007 26.263 L 152.183 24.476 L 152.183 23.014 L 147.931 21.606 L 146.262 21.606 C 142.925 29.404 140.234 36.118 138.027 41.696 L 136.197 29.892 C 135.39 24.692 134.421 21.985 132.106 21.551 M 158.757 36.011 C 159.349 36.011 159.888 36.065 160.426 36.065 C 169.415 36.065 174.367 32.761 174.367 27.617 C 174.367 24.042 171.891 21.714 167.692 21.714 C 164.463 21.714 161.018 23.014 158.273 25.342 C 154.29 28.754 152.191 33.411 152.191 38.502 C 152.191 44.946 155.743 48.791 161.718 48.791 C 164.947 48.791 168.823 47.328 172.752 44.242 L 172.86 40.939 C 169.63 43.484 166.723 44.729 164.409 44.729 C 160.803 44.729 158.65 42.238 158.65 37.636 C 158.65 37.148 158.704 36.606 158.757 36.011 M 159.188 33.736 C 160.695 27.617 163.494 24.422 166.293 24.422 C 167.908 24.422 168.93 25.505 168.93 27.183 C 168.93 30.324 165.216 33.465 159.188 33.736 M 186.846 21.606 L 177.588 23.826 L 177.588 25.667 L 182.056 26.317 L 177.75 48.303 L 184.37 48.303 L 186.47 35.74 C 187.277 30.92 189.269 27.942 193.628 26.101 L 195.082 30.216 C 195.135 30.216 195.189 30.216 195.189 30.216 C 198.365 30.216 200.41 28.213 200.41 25.613 C 200.41 23.23 198.742 21.66 196.427 21.66 C 193.898 21.66 190.668 24.042 187.223 28.862 L 188.73 21.606 L 186.846 21.606" style="fill: rgb(255, 255, 255);"/>
  <path d="M 212.738 27.784 C 212.74 7.962 234.101 -4.424 251.188 5.49 C 268.274 15.404 268.27 40.18 251.182 50.089 C 234.116 59.984 212.781 47.639 212.738 27.845" style="opacity: 1; color: black; fill-rule: nonzero; marker: none; stroke-miterlimit: 0; stroke-opacity: 1; visibility: visible; display: inline; overflow: visible; fill-opacity: 0; stroke-width: 4px; paint-order: fill; stroke-linejoin: bevel; fill: none; stroke: rgb(255, 255, 255);"/>
  <path d="M 227.888 11.109 L 258.194 28.687 L 227.833 45.331 L 227.888 11.109 Z" style="fill-opacity: 1; fill-rule: evenodd; stroke: none; stroke-width: 1px; stroke-linecap: butt; stroke-linejoin: miter; stroke-opacity: 1; fill: rgb(255, 255, 255);"/>
</svg>