<?xml version="1.0" encoding="utf-8"?>
<svg version="1.0" viewBox="0 0 208 47" width="208px" height="47px" xmlns="http://www.w3.org/2000/svg">
  <path d="M 5.26 7.756 L 10.934 7.756 L 17.975 29.002 L 25.119 7.756 L 30.71 7.756 L 35.846 38.217 L 30.255 38.217 L 26.983 18.979 L 20.501 38.217 L 15.386 38.217 L 8.988 18.979 L 5.654 38.217 L 0 38.217 L 5.26 7.756 M 40.484 7.756 L 46.634 7.756 C 49.962 7.756 52.357 8.066 53.82 8.687 C 55.297 9.295 56.457 10.289 57.299 11.669 C 58.155 13.036 58.583 14.679 58.583 16.598 C 58.583 18.724 58.024 20.491 56.906 21.899 C 55.801 23.307 54.296 24.287 52.391 24.84 C 51.273 25.157 49.237 25.316 46.282 25.316 L 46.282 38.217 L 40.484 38.217 L 40.484 7.756 M 46.282 19.663 L 48.125 19.663 C 49.575 19.663 50.583 19.559 51.149 19.352 C 51.715 19.145 52.157 18.807 52.474 18.337 C 52.805 17.854 52.971 17.274 52.971 16.598 C 52.971 15.424 52.516 14.568 51.604 14.03 C 50.942 13.63 49.713 13.43 47.918 13.43 L 46.282 13.43 L 46.282 19.663" style="fill: rgb(255, 255, 255);"/>
  <path d="M 66.169 10.612 L 62.011 32.956 C 61.843 33.922 61.717 34.636 61.717 35.182 C 61.717 37.198 63.061 38.29 65.455 38.29 C 66.841 38.29 69.025 37.702 72.049 36.61 L 72.049 34.972 C 70.747 35.392 69.613 35.602 68.647 35.602 C 67.681 35.602 66.925 34.762 66.925 33.46 C 66.925 32.62 67.135 31.612 67.387 30.394 L 71.755 7 L 69.907 7 L 62.725 8.596 L 62.725 10.066 L 66.169 10.612 M 92.194 17.206 L 90.64 18.214 C 88.918 17.542 87.322 17.164 85.768 17.164 C 82.03 17.164 78.544 19.054 76.444 22.246 C 74.764 24.808 73.924 27.58 73.924 30.604 C 73.924 35.434 76.192 38.248 79.972 38.248 C 82.03 38.248 84.298 37.114 86.65 34.888 C 86.65 34.972 86.65 35.056 86.65 35.098 C 86.65 37.114 87.742 38.164 89.8 38.164 C 91.396 38.164 93.496 37.66 96.142 36.694 L 96.142 35.14 C 95.134 35.434 94.21 35.602 93.37 35.602 C 92.404 35.602 91.606 34.762 91.606 33.334 C 91.606 32.788 91.732 31.78 91.984 30.394 L 93.244 23.59 C 93.874 20.104 94.42 17.962 94.672 17.206 L 92.194 17.206 M 87.028 19.222 L 88.708 21.742 L 86.734 32.872 C 85.138 34.174 83.794 34.846 82.492 34.846 C 80.434 34.846 79.3 33.208 79.3 30.016 C 79.3 23.632 82.576 19.18 86.482 19.18 C 86.692 19.18 86.86 19.222 87.028 19.222 M 103.083 17.164 L 96.615 18.634 L 96.615 20.02 L 100.269 20.356 C 100.731 21.238 101.109 22.33 101.319 23.506 L 103.839 36.82 L 105.435 36.82 C 103.167 41.146 101.067 43.414 99.177 43.582 L 96.363 40.936 C 94.851 41.23 93.927 42.322 93.927 43.75 C 93.927 45.43 95.439 46.984 97.455 46.984 C 100.899 46.984 104.385 43.666 108.081 37.03 C 111.315 31.234 112.995 25.186 116.271 20.818 L 118.749 19.432 L 118.749 18.298 L 115.431 17.206 L 114.129 17.206 C 111.525 23.254 109.425 28.462 107.703 32.788 L 106.275 23.632 C 105.645 19.6 104.889 17.5 103.083 17.164 M 123.879 28.378 C 124.341 28.378 124.761 28.42 125.181 28.42 C 132.195 28.42 136.059 25.858 136.059 21.868 C 136.059 19.096 134.127 17.29 130.851 17.29 C 128.331 17.29 125.643 18.298 123.501 20.104 C 120.393 22.75 118.755 26.362 118.755 30.31 C 118.755 35.308 121.527 38.29 126.189 38.29 C 128.709 38.29 131.733 37.156 134.799 34.762 L 134.883 32.2 C 132.363 34.174 130.095 35.14 128.289 35.14 C 125.475 35.14 123.795 33.208 123.795 29.638 C 123.795 29.26 123.837 28.84 123.879 28.378 M 124.215 26.614 C 125.391 21.868 127.575 19.39 129.759 19.39 C 131.019 19.39 131.817 20.23 131.817 21.532 C 131.817 23.968 128.919 26.404 124.215 26.614 M 145.797 17.206 L 138.573 18.928 L 138.573 20.356 L 142.059 20.86 L 138.699 37.912 L 143.865 37.912 L 145.503 28.168 C 146.133 24.43 147.687 22.12 151.089 20.692 L 152.223 23.884 C 152.265 23.884 152.307 23.884 152.307 23.884 C 154.785 23.884 156.381 22.33 156.381 20.314 C 156.381 18.466 155.079 17.248 153.273 17.248 C 151.299 17.248 148.779 19.096 146.091 22.834 L 147.267 17.206 L 145.797 17.206" style="fill: rgb(255, 255, 255);"/>
  <path d="M 166 21.998 C 166.002 6.624 182.67 -2.982 196.003 4.707 C 209.335 12.396 209.332 31.612 195.998 39.297 C 182.682 46.971 166.034 37.397 166 22.045" style="opacity: 1; color: black; fill: white; fill-rule: nonzero; marker: none; stroke-miterlimit: 0; stroke-opacity: 1; visibility: visible; display: inline; overflow: visible; fill-opacity: 0; stroke: rgb(255, 255, 255); stroke-width: 4px; paint-order: fill; stroke-linejoin: bevel;"/>
  <path d="M 177.822 9.065 L 201.47 22.698 L 177.779 35.607 L 177.822 9.065 Z" style="fill-opacity: 1; fill-rule: evenodd; stroke: none; stroke-width: 1px; stroke-linecap: butt; stroke-linejoin: miter; stroke-opacity: 1; fill: rgb(255, 255, 255);"/>
</svg>