<?xml version="1.0" encoding="utf-8"?>
<svg version="1.0" xmlns="http://www.w3.org/2000/svg">
  <path d="M 5.26 5.756 L 10.934 5.756 L 17.975 27.002 L 25.119 5.756 L 30.71 5.756 L 35.846 36.217 L 30.255 36.217 L 26.983 16.979 L 20.501 36.217 L 15.386 36.217 L 8.988 16.979 L 5.654 36.217 L 0 36.217 L 5.26 5.756 M 40.484 5.756 L 46.634 5.756 C 49.962 5.756 52.357 6.066 53.82 6.687 C 55.297 7.295 56.457 8.289 57.299 9.669 C 58.155 11.036 58.583 12.679 58.583 14.598 C 58.583 16.724 58.024 18.491 56.906 19.899 C 55.801 21.307 54.296 22.287 52.391 22.84 C 51.273 23.157 49.237 23.316 46.282 23.316 L 46.282 36.217 L 40.484 36.217 L 40.484 5.756 M 46.282 17.663 L 48.125 17.663 C 49.575 17.663 50.583 17.559 51.149 17.352 C 51.715 17.145 52.157 16.807 52.474 16.337 C 52.805 15.854 52.971 15.274 52.971 14.598 C 52.971 13.424 52.516 12.568 51.604 12.03 C 50.942 11.63 49.713 11.43 47.918 11.43 L 46.282 11.43 L 46.282 17.663" style="fill: rgb(255, 255, 255);"/>
  <path d="M 66.169 8.612 L 62.011 30.956 C 61.843 31.922 61.717 32.636 61.717 33.182 C 61.717 35.198 63.061 36.29 65.455 36.29 C 66.841 36.29 69.025 35.702 72.049 34.61 L 72.049 32.972 C 70.747 33.392 69.613 33.602 68.647 33.602 C 67.681 33.602 66.925 32.762 66.925 31.46 C 66.925 30.62 67.135 29.612 67.387 28.394 L 71.755 5 L 69.907 5 L 62.725 6.596 L 62.725 8.066 L 66.169 8.612 M 92.194 15.206 L 90.64 16.214 C 88.918 15.542 87.322 15.164 85.768 15.164 C 82.03 15.164 78.544 17.054 76.444 20.246 C 74.764 22.808 73.924 25.58 73.924 28.604 C 73.924 33.434 76.192 36.248 79.972 36.248 C 82.03 36.248 84.298 35.114 86.65 32.888 C 86.65 32.972 86.65 33.056 86.65 33.098 C 86.65 35.114 87.742 36.164 89.8 36.164 C 91.396 36.164 93.496 35.66 96.142 34.694 L 96.142 33.14 C 95.134 33.434 94.21 33.602 93.37 33.602 C 92.404 33.602 91.606 32.762 91.606 31.334 C 91.606 30.788 91.732 29.78 91.984 28.394 L 93.244 21.59 C 93.874 18.104 94.42 15.962 94.672 15.206 L 92.194 15.206 M 87.028 17.222 L 88.708 19.742 L 86.734 30.872 C 85.138 32.174 83.794 32.846 82.492 32.846 C 80.434 32.846 79.3 31.208 79.3 28.016 C 79.3 21.632 82.576 17.18 86.482 17.18 C 86.692 17.18 86.86 17.222 87.028 17.222 M 103.083 15.164 L 96.615 16.634 L 96.615 18.02 L 100.269 18.356 C 100.731 19.238 101.109 20.33 101.319 21.506 L 103.839 34.82 L 105.435 34.82 C 103.167 39.146 101.067 41.414 99.177 41.582 L 96.363 38.936 C 94.851 39.23 93.927 40.322 93.927 41.75 C 93.927 43.43 95.439 44.984 97.455 44.984 C 100.899 44.984 104.385 41.666 108.081 35.03 C 111.315 29.234 112.995 23.186 116.271 18.818 L 118.749 17.432 L 118.749 16.298 L 115.431 15.206 L 114.129 15.206 C 111.525 21.254 109.425 26.462 107.703 30.788 L 106.275 21.632 C 105.645 17.6 104.889 15.5 103.083 15.164 M 123.879 26.378 C 124.341 26.378 124.761 26.42 125.181 26.42 C 132.195 26.42 136.059 23.858 136.059 19.868 C 136.059 17.096 134.127 15.29 130.851 15.29 C 128.331 15.29 125.643 16.298 123.501 18.104 C 120.393 20.75 118.755 24.362 118.755 28.31 C 118.755 33.308 121.527 36.29 126.189 36.29 C 128.709 36.29 131.733 35.156 134.799 32.762 L 134.883 30.2 C 132.363 32.174 130.095 33.14 128.289 33.14 C 125.475 33.14 123.795 31.208 123.795 27.638 C 123.795 27.26 123.837 26.84 123.879 26.378 M 124.215 24.614 C 125.391 19.868 127.575 17.39 129.759 17.39 C 131.019 17.39 131.817 18.23 131.817 19.532 C 131.817 21.968 128.919 24.404 124.215 24.614 M 145.797 15.206 L 138.573 16.928 L 138.573 18.356 L 142.059 18.86 L 138.699 35.912 L 143.865 35.912 L 145.503 26.168 C 146.133 22.43 147.687 20.12 151.089 18.692 L 152.223 21.884 C 152.265 21.884 152.307 21.884 152.307 21.884 C 154.785 21.884 156.381 20.33 156.381 18.314 C 156.381 16.466 155.079 15.248 153.273 15.248 C 151.299 15.248 148.779 17.096 146.091 20.834 L 147.267 15.206 L 145.797 15.206" style="fill: rgb(255, 255, 255);"/>
  <path d="M 166 19.998 C 166.002 4.624 182.67 -4.982 196.003 2.707 C 209.335 10.396 209.332 29.612 195.998 37.297 C 182.682 44.971 166.034 35.397 166 20.045" style="opacity: 1; color: black; fill: white; fill-rule: nonzero; stroke-width: 6; stroke-linecap: round; stroke-linejoin: round; marker: none; stroke-miterlimit: 0; stroke-dasharray: none; stroke-dashoffset: 0; stroke-opacity: 1; visibility: visible; display: inline; overflow: visible; fill-opacity: 0; stroke: rgb(255, 255, 255);"/>
  <path d="M 177.822 7.065 L 201.47 20.698 L 177.779 33.607 L 177.822 7.065 Z" style="fill-opacity: 1; fill-rule: evenodd; stroke: none; stroke-width: 1px; stroke-linecap: butt; stroke-linejoin: miter; stroke-opacity: 1; fill: rgb(255, 255, 255);"/>
</svg>