<?xml version="1.0" encoding="utf-8"?>
<svg version="1.1" id="svg2" xmlns="http://www.w3.org/2000/svg" xmlns:bx="https://boxy-svg.com">
  <g>
    <path id="path2830" d="M 0 204.888 L 52.05 0 L 100.317 0 L 125.397 89.433 L 151.422 0 L 196.848 0 L 239.433 150.945 L 343.338 150.75 C 354.243 150.642 354.915 128.088 342.531 128.094 L 282.018 127.287 C 256.035 127.536 228.633 99.426 229.968 61.986 C 230.247 27.645 260.19 0.603 298.5 0.612 L 452.838 0.474 L 492.114 53.943 L 530.442 0 L 594.321 0.474 L 524.292 98.898 L 600 205.617 L 536.454 205.419 L 492.39 144.186 L 450.471 205.419 L 385.647 205.362 L 459.465 99.843 L 427.287 52.998 L 293.121 53.193 C 278.481 53.328 279.018 76.362 293.238 75.93 L 349.764 76.797 C 373.656 76.95 407.304 101.778 406.467 140.538 C 406.83 185.598 366.246 206.184 346.707 205.086 L 198.741 205.281 L 174.135 113.094 L 149.529 205.086 L 102.819 205.086 L 77.13 113.565 L 54.555 205.224 L 0 204.888 Z" style="fill: rgb(255, 255, 255);" bx:origin="0 0"/>
  </g>
  <path d="M 671.711 65.506 C 682.511 65.506 691.878 67.206 699.811 70.606 C 707.744 74.006 713.878 78.839 718.211 85.106 C 722.544 91.373 724.711 98.639 724.711 106.906 C 724.711 114.639 722.778 121.639 718.911 127.906 C 715.044 134.173 710.178 139.706 704.311 144.506 C 698.444 149.306 690.378 155.173 680.111 162.106 C 674.378 165.839 669.711 169.039 666.111 171.706 L 726.311 171.706 L 726.311 205.506 L 612.311 205.506 L 612.311 195.906 C 612.311 188.839 613.944 182.539 617.211 177.006 C 620.478 171.473 625.244 165.906 631.511 160.306 C 637.911 154.706 647.111 147.106 659.111 137.506 C 668.711 129.906 675.444 124.106 679.311 120.106 C 683.178 116.106 685.111 112.173 685.111 108.306 C 685.111 104.173 683.678 100.706 680.811 97.906 C 677.944 95.106 673.644 93.706 667.911 93.706 C 661.911 93.706 657.178 95.439 653.711 98.906 C 650.244 102.373 648.511 106.906 648.511 112.506 L 648.511 116.506 L 612.911 116.506 C 612.778 115.439 612.711 113.973 612.711 112.106 C 612.711 97.706 617.744 86.339 627.811 78.006 C 637.878 69.673 652.511 65.506 671.711 65.506 Z" transform="matrix(1, 0, 0, 1, 0, 0)" style="fill: rgb(255, 255, 255); white-space: pre;"/>
</svg>