<?xml version="1.0" encoding="utf-8"?>
<svg xmlns="http://www.w3.org/2000/svg">
    <path d="M 31.318 34.432 L 31.318 0.824 L 25.732 0.824 L 25.824 22.436 L 0 1.099 L 0.091 34.799 L 4.945 34.799 L 4.945 13.004 L 31.318 34.432 Z M 34.89 34.981 L 39.194 27.655 L 35.256 27.655 L 35.256 22.528 L 41.758 22.528 L 53.571 1.099 L 72.436 34.981 L 65.751 34.981 L 61.905 27.655 L 45.147 27.655 L 41.118 34.981 L 34.89 34.981 Z M 47.436 22.436 L 59.524 22.436 L 53.48 11.355 L 47.436 22.436 Z M 120.239 34.981 L 114.745 34.981 L 114.745 1.19 L 133.426 22.893 L 152.29 0.733 L 152.29 34.981 L 146.428 34.981 L 146.338 16.575 L 133.334 32.235 L 120.239 16.666 L 120.239 34.981 Z M 162.913 34.981 L 163.004 0.366 L 168.59 0.366 L 168.499 34.981 L 162.913 34.981 Z" style="fill: rgb(255, 255, 255);"/>
    <path d="M 72.253 18.407 C 72.253 8.242 80.495 0 90.661 0 C 100.825 0 109.067 8.242 109.067 18.407 C 109.067 28.571 100.825 36.813 90.661 36.813 C 80.495 36.813 72.253 28.571 72.253 18.407 Z M 90.661 31.319 C 97.804 31.319 103.571 25.549 103.571 18.407 C 103.571 11.356 97.803 5.586 90.661 5.586 C 83.609 5.586 77.839 11.356 77.839 18.407 C 77.839 25.549 83.608 31.319 90.661 31.319 Z" style="fill: rgb(255, 255, 255);"/>
</svg>