<?xml version="1.0" encoding="utf-8"?>
<svg version="1.1" xmlns="http://www.w3.org/2000/svg">
  <path d="M 10.639 30.132 L 9.931 30.132 C 8.915 30.132 8.014 29.821 7.225 29.197 C 6.438 28.573 6.043 27.374 6.043 25.593 L 6.043 6.863 L 26.332 32.156 L 27.648 32.158 L 27.648 6.361 C 27.648 4.894 27.77 4.469 28.012 3.865 C 28.254 3.262 28.592 2.826 29.024 2.559 C 29.457 2.291 30.306 2.074 31.568 1.906 L 31.568 0.593 L 21.503 0.593 L 21.503 1.906 C 23.163 1.875 24.347 2.303 25.05 3.189 C 25.563 3.846 25.82 4.497 25.82 6.362 L 25.82 19.871 L 10.026 0.593 L 0.416 0.593 L 0.416 1.634 C 1.329 1.665 1.362 1.97 1.849 2.229 L 4.422 4.82 L 4.42 25.591 C 4.42 27.235 4.095 28.397 3.447 29.081 C 2.799 29.764 1.649 30.114 0 30.129 L 0 31.385 L 10.634 31.385 L 10.634 30.129 L 10.639 30.132 Z" id="path19" style="fill: rgb(255, 255, 255);"/>
  <path d="M 60.962 21.75 L 59.498 21.75 C 58.735 24.494 57.477 26.537 55.729 27.874 C 53.981 29.211 51.655 29.881 48.757 29.881 L 47.103 29.881 C 46.217 29.881 45.577 29.758 45.179 29.517 C 44.783 29.273 44.511 28.96 44.366 28.579 C 44.222 28.199 44.149 27.157 44.149 25.454 L 44.149 16.734 C 45.638 16.734 47.384 16.929 48.167 17.317 C 48.95 17.705 49.637 18.465 50.228 19.592 C 50.82 20.72 51.207 21.966 51.392 23.734 L 52.65 23.734 L 52.65 7.686 L 51.392 7.686 C 51.146 10.096 50.577 11.715 49.687 12.951 C 48.797 14.187 47.36 14.804 45.381 14.804 L 44.147 14.804 L 44.147 4.04 C 44.137 2.169 45.807 2.385 45.807 2.385 L 47.753 2.385 C 50.111 2.385 51.717 2.522 52.574 2.797 C 54.043 3.254 55.179 3.971 55.983 4.944 C 56.786 5.92 57.409 7.527 57.853 9.765 L 58.907 9.765 L 58.907 0.591 L 32.688 0.591 L 32.688 1.855 L 33.514 1.855 C 34.522 1.855 35.316 2.068 35.896 2.492 C 36.308 2.782 36.591 3.194 36.742 3.726 C 36.819 4.046 36.858 4.905 36.858 6.305 L 36.858 25.699 C 36.858 27.25 36.774 28.209 36.606 28.573 C 36.392 29.091 36.086 29.457 35.691 29.669 C 35.14 29.989 34.416 30.149 33.514 30.149 L 32.688 30.149 L 32.688 31.608 L 59.351 31.608 L 60.954 21.746 L 60.962 21.75 Z" id="path17" style="fill: rgb(255, 255, 255);"/>
  <path d="M 76.709 32.613 C 82.143 32.613 86.352 30.614 89.333 26.614 C 91.581 23.6 92.707 20.112 92.707 16.142 C 92.707 11.499 91.198 7.632 88.184 4.539 C 85.168 1.448 81.248 -0.004 76.421 0.181 C 71.953 -0.003 68.187 1.454 65.13 4.553 C 62.066 7.65 60.539 11.523 60.539 16.166 C 60.539 20.302 61.714 23.878 64.069 26.892 C 67.046 30.704 71.261 32.613 76.714 32.613 M 70.316 6.054 C 71.76 3.135 73.867 1.676 76.638 1.676 C 78.143 1.676 79.472 2.098 80.626 2.944 C 81.78 3.789 82.73 5.238 83.475 7.289 C 84.219 9.342 84.592 12.433 84.592 16.568 C 84.592 20.041 84.228 22.858 83.497 25.018 C 82.768 27.177 81.748 28.75 80.437 29.734 C 79.409 30.503 78.128 30.887 76.592 30.887 C 74.313 30.887 72.542 29.996 71.273 28.213 C 69.456 25.662 68.547 21.721 68.547 16.386 C 68.547 11.896 69.135 8.454 70.311 6.057" id="path15" style="fill: rgb(255, 255, 255);"/>
  <path d="M 101.365 16.396 C 101.365 18.457 99.694 20.127 97.634 20.127 C 95.572 20.127 93.902 18.456 93.902 16.396 C 93.902 14.334 95.573 12.665 97.634 12.665 C 99.695 12.665 101.365 14.336 101.365 16.396 Z" id="path21" style="fill: rgb(255, 255, 255);"/>
  <path d="M 119.824 19.713 L 120.584 19.713 C 121.295 19.713 122.508 19.859 123.008 20.152 C 123.508 20.442 123.838 20.77 123.997 21.131 C 124.156 21.492 124.237 22.288 124.237 23.519 L 124.237 28.351 C 124.237 29.808 122.696 30.552 121.955 30.713 C 121.209 30.873 120.485 30.954 119.78 30.954 C 117.745 30.954 115.99 30.425 114.51 29.366 C 113.03 28.306 111.959 26.649 111.294 24.391 C 110.631 22.135 110.3 19.513 110.3 16.516 C 110.3 14.046 110.603 11.636 111.21 9.288 C 111.817 6.939 112.85 5.11 114.309 3.797 C 115.77 2.485 117.598 1.828 119.794 1.828 C 122.093 1.828 123.438 2.41 125.129 4.168 C 126.859 5.966 128.519 8.007 129.488 11.005 L 130.903 11.005 L 130.903 -0.002 L 130.097 -0.002 C 129.808 0.88 129.49 1.479 129.144 1.795 C 128.796 2.113 128.42 2.27 128.016 2.27 C 127.756 2.27 126.912 1.983 125.489 1.411 C 124.067 0.836 123.036 0.488 122.401 0.366 C 121.231 0.121 120.321 -0.002 118.863 -0.002 C 114.15 -0.002 110.24 1.617 107.131 4.856 C 104.023 8.096 102.47 12.063 102.47 16.759 C 102.47 19.383 102.975 21.754 103.987 23.872 C 104.782 25.514 105.883 26.99 107.292 28.303 C 108.702 29.615 110.331 30.674 112.171 31.481 C 114.015 32.286 116.331 32.689 119.12 32.689 C 121.305 32.689 123.408 32.464 125.441 32.013 C 127.472 31.56 129.425 30.891 131.309 30.004 L 131.309 23.512 C 131.309 22.373 131.373 21.658 131.503 21.368 C 131.734 20.814 132.061 20.418 132.487 20.178 C 132.912 19.939 134.075 19.783 135.157 19.705 L 135.157 18.642 L 119.819 18.642 L 119.819 19.705 L 119.824 19.713 Z" id="path9" style="fill: rgb(255, 255, 255);"/>
  <path d="M 155.079 28.122 C 153.331 29.46 151.005 30.128 148.104 30.128 L 146.45 30.128 C 145.563 30.128 144.923 30.008 144.526 29.764 C 144.131 29.52 143.857 29.209 143.713 28.828 C 143.568 28.448 143.495 27.406 143.495 25.703 L 143.495 16.983 C 144.986 16.983 146.73 17.177 147.514 17.566 C 148.296 17.954 148.983 18.713 149.573 19.841 C 150.166 20.968 150.554 22.214 150.738 23.982 L 151.995 23.982 L 151.995 7.934 L 150.738 7.934 C 150.491 10.346 149.924 11.964 149.033 13.199 C 148.143 14.435 146.706 15.053 144.726 15.053 L 143.493 15.053 L 143.493 4.288 C 143.484 2.417 145.152 2.634 145.152 2.634 L 147.1 2.634 C 149.456 2.634 151.061 2.772 151.918 3.046 C 153.386 3.503 154.523 4.219 155.326 5.194 C 156.13 6.169 156.752 7.775 157.196 10.015 L 158.25 10.015 L 158.25 0.848 L 132.031 0.848 L 132.031 2.104 L 132.858 2.104 C 133.865 2.104 134.66 2.317 135.238 2.742 C 135.652 3.032 135.935 3.444 136.087 3.976 C 136.164 4.294 136.202 5.155 136.202 6.555 L 136.202 25.948 C 136.202 27.5 136.118 28.459 135.95 28.825 C 135.736 29.342 135.429 29.708 135.034 29.921 C 134.483 30.241 133.758 30.4 132.859 30.4 L 132.031 30.4 L 132.031 31.859 L 158.694 31.859 L 160.297 21.998 L 158.833 21.998 C 158.07 24.742 156.814 26.785 155.066 28.122" id="path11" style="fill: rgb(255, 255, 255);"/>
  <path d="M 175.71 0.362 C 171.241 0.177 167.476 1.634 164.418 4.733 C 161.354 7.83 159.826 11.704 159.826 16.346 C 159.826 20.483 161.003 24.057 163.357 27.072 C 166.335 30.884 170.55 32.793 176.002 32.793 C 181.436 32.793 185.647 30.795 188.626 26.795 C 190.875 23.785 192 20.291 192 16.323 C 192 11.68 190.491 7.812 187.477 4.72 C 184.461 1.628 180.541 0.175 175.715 0.362 M 182.843 25.181 C 182.112 27.341 181.093 28.913 179.781 29.894 C 178.754 30.664 177.473 31.048 175.937 31.048 C 173.658 31.048 171.888 30.156 170.619 28.374 C 168.802 25.823 167.892 21.881 167.892 16.547 C 167.892 12.057 168.48 8.615 169.657 6.218 C 171.102 3.299 173.209 1.838 175.978 1.838 C 177.483 1.838 178.812 2.262 179.967 3.107 C 181.121 3.952 182.071 5.401 182.815 7.453 C 183.561 9.506 183.933 12.597 183.933 16.734 C 183.933 20.207 183.568 23.024 182.838 25.185" id="path13" style="fill: rgb(255, 255, 255);"/>
</svg>