<!DOCTYPE svg PUBLIC "-//W3C//DTD SVG 20010904//EN" "http://www.w3.org/TR/2001/REC-SVG-20010904/DTD/svg10.dtd">
<svg version="1.0" xmlns="http://www.w3.org/2000/svg" width="1200px" height="296px" viewBox="0 0 12000 2960" preserveAspectRatio="xMidYMid meet">
<g id="layer101" fill="#ffffff" stroke="none">
 <path d="M1377 2949 c-106 -10 -295 -52 -392 -86 -113 -40 -283 -128 -380 -198 -456 -326 -675 -872 -579 -1445 49 -294 185 -553 403 -771 228 -226 491 -361 826 -422 l120 -22 4625 0 4625 0 120 22 c228 41 434 123 616 245 125 83 306 264 388 386 221 336 298 738 216 1136 -88 426 -375 795 -770 990 -60 30 -142 66 -180 79 -104 37 -284 75 -410 87 -135 12 -9096 12 -9228 -1z m9303 -372 c445 -86 757 -341 886 -723 153 -458 8 -969 -354 -1241 -138 -104 -303 -178 -492 -219 -82 -18 -240 -19 -4720 -19 -4395 0 -4639 1 -4717 18 -450 97 -766 383 -872 789 -57 219 -47 478 26 681 153 428 527 693 1023 727 63 4 2142 7 4620 6 4315 -1 4509 -2 4600 -19z"/>
 <path d="M6045 2214 c-295 -65 -500 -321 -458 -571 28 -160 141 -301 305 -382 371 -184 844 8 918 372 6 32 9 65 6 73 -5 12 -65 14 -396 14 l-390 0 0 123 c0 97 4 130 19 162 34 76 106 115 187 102 83 -14 133 -87 134 -194 l0 -63 211 0 210 0 -6 23 c-15 48 -73 132 -128 183 -69 64 -157 114 -252 144 -93 29 -262 36 -360 14z m330 -706 c-9 -91 -22 -123 -61 -157 -41 -37 -69 -45 -133 -39 -93 9 -140 70 -149 190 l-5 68 178 0 177 0 -7 -62z"/>
 <path d="M10132 2220 c-322 -44 -555 -308 -513 -579 25 -157 138 -304 292 -380 118 -57 193 -75 319 -75 188 1 335 59 455 179 78 77 116 141 140 230 41 160 -6 316 -135 445 -137 137 -355 207 -558 180z m168 -135 c34 -18 56 -44 75 -88 12 -30 15 -84 14 -294 0 -171 -4 -269 -12 -291 -50 -135 -231 -148 -299 -20 -22 42 -23 51 -23 308 0 256 1 267 23 312 43 87 135 117 222 73z"/>
 <path d="M8640 2178 c-222 -78 -348 -263 -338 -497 3 -86 7 -105 40 -174 41 -86 121 -178 197 -226 138 -88 323 -94 473 -17 l48 25 0 -254 0 -255 210 0 210 0 -2 698 -3 697 -205 0 -205 0 -3 -23 c-2 -14 -9 -21 -15 -18 -124 54 -144 60 -242 63 -84 3 -110 0 -165 -19z m340 -150 c81 -41 85 -58 85 -323 0 -256 -4 -277 -68 -315 -54 -33 -110 -36 -164 -9 -84 42 -88 57 -88 324 0 213 2 233 20 265 23 40 93 80 140 80 17 0 51 -10 75 -22z"/>
 <path d="M1190 1480 l0 -700 218 0 218 0 295 477 294 477 3 -477 2 -477 220 0 220 0 -2 698 -3 697 -211 3 c-191 2 -212 1 -226 -15 -8 -10 -145 -228 -304 -485 l-289 -468 -3 485 -2 485 -215 0 -215 0 0 -700z"/>
 <path d="M2897 2173 c-4 -3 -7 -213 -7 -465 l0 -458 210 0 210 0 0 465 0 465 -203 0 c-112 0 -207 -3 -210 -7z"/>
 <path d="M3547 2174 c-4 -4 -7 -214 -7 -466 l0 -458 210 0 210 0 0 45 0 45 52 -39 c105 -80 251 -113 378 -87 108 23 190 68 260 142 68 74 97 140 111 259 10 89 12 524 3 549 -5 14 -33 16 -210 16 l-203 0 -3 -328 -3 -329 -28 -42 c-70 -105 -245 -108 -323 -5 l-29 37 -5 331 -5 331 -201 3 c-110 1 -203 -1 -207 -4z"/>
 <path d="M4997 2173 c-4 -3 -7 -213 -7 -465 l0 -458 -115 0 -116 0 3 -67 3 -68 113 -3 112 -3 0 -94 0 -95 210 0 210 0 0 95 0 95 115 0 115 0 0 70 0 70 -115 0 -115 0 0 465 0 465 -203 0 c-112 0 -207 -3 -210 -7z"/>
 <path d="M6947 2174 c-4 -4 -7 -214 -7 -466 l0 -458 210 0 210 0 0 45 0 45 43 -33 c62 -48 154 -85 238 -98 147 -21 304 35 409 147 104 112 122 200 118 574 l-3 245 -207 3 -208 2 0 -312 c-1 -327 -5 -364 -47 -410 -76 -84 -239 -74 -311 20 l-27 35 -5 331 -5 331 -201 3 c-110 1 -203 -1 -207 -4z"/>
 <path d="M2890 925 l0 -145 210 0 210 0 0 145 0 145 -210 0 -210 0 0 -145z"/>
 </g>

</svg>