<?xml version="1.0" encoding="utf-8"?>
<svg xmlns="http://www.w3.org/2000/svg">
  <path d="M 29.645 35.02 L 29.645 35.02 L 25.925 35.02 L 25.145 39.55 L 19.445 39.55 L 22.745 20.8 L 31.745 20.8 L 31.745 20.8 C 35.145 20.8 36.845 22.38 36.845 25.54 L 36.845 25.54 L 36.845 25.54 C 36.845 27.04 36.635 28.393 36.215 29.6 L 36.215 29.6 L 36.215 29.6 C 35.795 30.813 35.332 31.777 34.825 32.49 L 34.825 32.49 L 34.825 32.49 C 34.312 33.197 33.608 33.797 32.715 34.29 L 32.715 34.29 L 32.715 34.29 C 31.828 34.777 30.805 35.02 29.645 35.02 Z M 28.895 25.6 L 27.575 25.6 L 26.765 30.22 L 28.085 30.22 L 28.085 30.22 C 28.765 30.22 29.278 30.147 29.625 30 L 29.625 30 L 29.625 30 C 29.978 29.847 30.205 29.5 30.305 28.96 L 30.305 28.96 L 30.305 28.96 C 30.565 27.48 30.695 26.67 30.695 26.53 L 30.695 26.53 L 30.695 26.53 C 30.695 26.15 30.545 25.9 30.245 25.78 L 30.245 25.78 L 30.245 25.78 C 29.945 25.66 29.495 25.6 28.895 25.6 L 28.895 25.6 Z M 48.875 34.75 L 48.035 39.55 L 36.635 39.55 L 39.935 20.8 L 45.635 20.8 L 43.175 34.75 L 48.875 34.75 Z M 53.345 36.58 L 52.175 39.55 L 46.175 39.55 L 54.065 20.8 L 62.885 20.8 L 64.205 39.55 L 58.175 39.55 L 58.055 36.58 L 53.345 36.58 Z M 57.605 26.56 L 57.305 26.56 L 55.205 31.81 L 57.605 31.81 L 57.605 26.56 Z M 65.495 20.8 L 71.795 20.8 L 72.185 27.4 L 72.395 27.4 L 75.155 20.8 L 81.455 20.8 L 73.895 34.45 L 73.025 39.55 L 67.325 39.55 L 68.195 34.45 L 65.495 20.8 Z M 84.725 39.55 L 79.025 39.55 L 82.325 20.8 L 88.025 20.8 L 84.725 39.55 Z M 104.105 39.55 L 98.736 39.55 L 95.676 32.89 L 95.676 32.89 C 95.596 32.75 95.555 32.553 95.555 32.3 L 95.555 32.3 L 95.555 32.3 C 95.555 32.053 95.576 31.77 95.615 31.45 L 95.615 31.45 L 95.376 31.45 L 93.965 39.55 L 88.265 39.55 L 91.565 20.8 L 96.936 20.8 L 99.995 27.46 L 99.995 27.46 C 100.055 27.6 100.085 27.797 100.085 28.05 L 100.085 28.05 L 100.085 28.05 C 100.085 28.297 100.066 28.58 100.025 28.9 L 100.025 28.9 L 100.266 28.9 L 101.706 20.8 L 107.406 20.8 L 104.105 39.55 Z M 118.115 34.03 L 118.115 34.03 L 118.266 33.22 L 116.826 33.22 L 117.635 28.63 L 124.505 28.63 L 122.736 38.65 L 122.736 38.65 C 120.296 39.55 117.846 40 115.385 40 L 115.385 40 L 115.385 40 C 112.926 40 111.148 39.51 110.055 38.53 L 110.055 38.53 L 110.055 38.53 C 108.969 37.55 108.426 36.04 108.426 34 L 108.426 34 L 108.426 34 C 108.426 33.14 108.566 31.87 108.846 30.19 L 108.846 30.19 L 108.846 30.19 C 109.445 26.71 110.505 24.2 112.025 22.66 L 112.025 22.66 L 112.025 22.66 C 113.546 21.12 116.066 20.35 119.585 20.35 L 119.585 20.35 L 119.585 20.35 C 120.326 20.35 121.268 20.43 122.415 20.59 L 122.415 20.59 L 122.415 20.59 C 123.568 20.75 124.415 20.93 124.956 21.13 L 124.956 21.13 L 123.305 25.72 L 123.305 25.72 C 121.805 25.44 120.428 25.3 119.176 25.3 L 119.176 25.3 L 119.176 25.3 C 117.928 25.3 117.036 25.4 116.495 25.6 L 116.495 25.6 L 116.495 25.6 C 115.956 25.8 115.635 26.2 115.536 26.8 L 115.536 26.8 L 114.066 35.29 L 115.956 35.29 L 115.956 35.29 C 116.635 35.29 117.139 35.217 117.465 35.07 L 117.465 35.07 L 117.465 35.07 C 117.799 34.917 118.016 34.57 118.115 34.03 Z" style="white-space: pre; fill: rgb(255, 255, 255);"/>
  <path d="M 38.937 19.2 L 33.567 19.2 L 30.507 12.54 L 30.507 12.54 C 30.427 12.4 30.387 12.203 30.387 11.95 L 30.387 11.95 L 30.387 11.95 C 30.387 11.703 30.407 11.42 30.447 11.1 L 30.447 11.1 L 30.207 11.1 L 28.797 19.2 L 23.097 19.2 L 26.397 0.45 L 31.767 0.45 L 34.827 7.11 L 34.827 7.11 C 34.887 7.25 34.917 7.447 34.917 7.7 L 34.917 7.7 L 34.917 7.7 C 34.917 7.947 34.897 8.23 34.857 8.55 L 34.857 8.55 L 35.097 8.55 L 36.537 0.45 L 42.237 0.45 L 38.937 19.2 Z M 50.217 6.72 L 50.217 6.72 L 48.837 14.52 L 51.207 14.52 L 51.207 14.52 C 51.987 14.52 52.567 14.427 52.947 14.24 L 52.947 14.24 L 52.947 14.24 C 53.327 14.047 53.577 13.61 53.697 12.93 L 53.697 12.93 L 55.077 5.13 L 52.677 5.13 L 52.677 5.13 C 51.917 5.13 51.347 5.223 50.967 5.41 L 50.967 5.41 L 50.967 5.41 C 50.587 5.603 50.337 6.04 50.217 6.72 Z M 53.667 0 L 53.667 0 L 53.667 0 C 56.207 0 58.017 0.497 59.097 1.49 L 59.097 1.49 L 59.097 1.49 C 60.177 2.477 60.717 4 60.717 6.06 L 60.717 6.06 L 60.717 6.06 C 60.717 8.12 60.39 10.277 59.737 12.53 L 59.737 12.53 L 59.737 12.53 C 59.09 14.777 58.06 16.523 56.647 17.77 L 56.647 17.77 L 56.647 17.77 C 55.24 19.023 53.18 19.65 50.467 19.65 L 50.467 19.65 L 50.467 19.65 C 47.76 19.65 45.867 19.157 44.787 18.17 L 44.787 18.17 L 44.787 18.17 C 43.707 17.177 43.167 15.65 43.167 13.59 L 43.167 13.59 L 43.167 13.59 C 43.167 12.61 43.307 11.317 43.587 9.71 L 43.587 9.71 L 43.587 9.71 C 43.867 8.097 44.237 6.707 44.697 5.54 L 44.697 5.54 L 44.697 5.54 C 45.157 4.367 45.777 3.35 46.557 2.49 L 46.557 2.49 L 46.557 2.49 C 48.057 0.83 50.427 0 53.667 0 Z M 77.427 10.92 L 80.637 0.45 L 86.607 0.45 L 80.517 19.2 L 72.957 19.2 L 72.957 12.3 L 72.627 12.3 L 70.137 19.2 L 63.207 19.2 L 63.207 0.45 L 69.177 0.45 L 68.637 10.92 L 68.817 10.92 L 72.717 0.45 L 77.247 0.45 L 77.247 10.92 L 77.427 10.92 Z" style="white-space: pre; fill: rgb(255, 255, 255);"/>
  <path d="M 11.969 19.648 L 8.231 16.931 C 8.094 16.831 7.912 16.817 7.762 16.894 C 7.61 16.971 7.515 17.126 7.515 17.295 L 7.515 22.727 C 7.515 22.897 7.61 23.052 7.762 23.129 C 7.826 23.161 7.896 23.177 7.967 23.177 C 8.059 23.177 8.152 23.147 8.231 23.09 L 11.969 20.375 C 12.087 20.288 12.155 20.154 12.155 20.012 C 12.156 19.867 12.086 19.733 11.969 19.648 Z" style="fill: rgb(75, 186, 208);"/>
  <path d="M 9 11.001 C 4.028 11.001 0 15.029 0 20.001 C 0 24.971 4.028 28.998 9 28.998 C 13.971 28.998 18 24.971 18 20.001 C 18.001 15.029 13.971 11.001 9 11.001 Z M 9 27.497 C 4.86 27.497 1.503 24.142 1.503 20.001 C 1.503 15.862 4.86 12.503 9 12.503 C 13.14 12.503 16.496 15.862 16.496 20.001 C 16.497 24.142 13.14 27.497 9 27.497 Z" style="fill: rgb(204, 204, 204);"/>
</svg>