<?xml version="1.0" encoding="utf-8"?>
<svg xmlns="http://www.w3.org/2000/svg">
  <polygon class="st1" points="0 80.087 3.414 60.022 0.586 57.131 6.828 50.269 19.968 66.328 23.382 50.269 29.659 53.717 24.52 56.574 19.968 79.494 5.139 62.879 3.414 73.19 6.828 76.639" style="fill: rgb(255, 255, 255);"/>
  <path class="st1" d="M 41.074 53.543 L 44.006 53.543 C 46.109 53.543 47.524 53.647 48.248 53.891 C 49.489 54.275 49.8 54.902 50.351 55.773 C 50.903 56.609 51.731 58.036 51.731 59.952 L 53.628 51.976 L 30.728 51.976 L 30.59 52.673 L 31.521 52.673 C 32.418 52.673 32.521 52.846 32.97 53.229 C 33.28 53.473 33.453 53.856 33.521 54.31 C 33.521 54.588 33.418 55.354 33.142 56.574 L 31.556 64.063 C 31.314 64.482 30.866 64.725 30.487 65.004 C 29.762 65.492 29.073 65.735 29.073 65.735 C 29.073 65.735 29.693 65.839 30.177 66.328 C 30.487 66.641 30.728 67.024 30.866 67.163 L 29.418 74.339 C 29.142 75.698 28.866 76.534 28.659 76.848 C 28.383 77.3 28.038 77.614 27.624 77.823 C 27.072 78.101 26.348 78.241 26.348 78.241 L 26.21 78.938 L 48.11 78.938 L 49.661 70.89 C 48.489 73.259 48.282 74.548 46.454 75.698 C 44.627 76.848 42.971 77.44 40.35 77.44 L 38.66 77.44 C 37.867 77.44 37.315 77.335 37.005 77.127 C 36.694 76.917 36.487 76.639 36.453 76.325 C 36.384 76.012 36.522 75.106 36.832 73.608 L 38.419 66.606 C 39.764 66.606 40.729 66.78 41.385 67.128 C 42.005 67.476 42.385 67.512 43.006 68.313 C 43.73 69.289 44.696 69.776 44.523 71.343 L 46.592 60.51 C 45.937 62.6 44.73 62.844 43.316 63.61 C 42.005 64.307 41.04 64.586 39.281 64.586 L 38.729 64.586 L 41.074 53.543 Z" style="fill: rgb(255, 255, 255);"/>
  <path class="st1" d="M 71.251 78.938 L 75.803 69.183 C 75.803 69.183 70.871 72.319 66.698 72.075 C 62.698 71.832 59.456 68.243 59.973 64.167 C 60.973 55.877 69.526 53.683 69.526 53.683 L 72.941 58.838 L 76.941 57.688 L 74.147 50.164 C 74.147 50.164 68.905 50.478 63.698 53.369 C 58.352 56.33 53.042 61.972 53.593 68 C 54.835 82.038 66.112 80.087 67.285 80.052 C 68.423 80.052 71.251 78.938 71.251 78.938 Z" style="fill: rgb(255, 255, 255);"/>
  <path class="st1" d="M 117.464 47.307 L 113.911 47.307 L 116.774 41.455 C 115.98 41.455 113.843 41.038 113.049 40.341 C 112.049 39.4 111.221 37.554 111.773 35.325 C 112.394 32.886 115.119 31.004 118.119 31.771 C 120.257 32.329 121.499 33.408 121.843 35.743 C 122.016 36.822 121.947 37.867 121.223 39.47 L 117.464 47.307 Z M 114.808 36.753 C 114.808 39.295 118.705 39.366 118.705 36.857 C 118.705 34.209 114.808 34.209 114.808 36.753 Z" style="fill: rgb(255, 255, 255);"/>
  <path class="st1" d="M 126.878 31.736 C 130.293 31.283 133.293 34 132.224 37.554 C 132.051 38.111 131.12 39.295 131.12 39.295 C 131.12 39.295 132.569 40.619 132.707 41.49 C 133.362 45.113 130.672 47.203 127.948 47.307 C 125.051 47.377 121.878 45.426 122.499 41.699 C 122.568 41.211 122.913 40.723 123.085 40.41 C 123.257 40.097 124.051 39.295 124.051 39.295 C 124.051 39.295 122.981 37.588 122.878 36.857 C 122.533 34.245 124.085 32.12 126.878 31.736 Z M 126.223 36.056 C 126.223 37.937 129.051 37.937 129.051 36.161 C 129.051 34.175 126.223 34.14 126.223 36.056 Z M 127.672 44.347 C 129.879 44.347 129.879 41.002 127.637 41.002 C 125.361 41.002 125.43 44.347 127.672 44.347 Z" style="fill: rgb(255, 255, 255);"/>
  <path class="st1" d="M 138.777 31.736 C 140.501 31.562 142.018 32.189 142.881 33.025 C 145.433 35.464 145.846 43.546 142.777 46.227 C 141.536 47.342 138.915 47.9 136.914 46.924 C 135.018 45.984 133.88 43.441 133.707 40.514 C 133.397 35.916 134.707 32.155 138.777 31.736 Z M 139.363 44.347 C 142.398 44.277 142.294 34 138.88 34.906 C 136.466 35.498 136.5 44.381 139.363 44.347 Z" style="fill: rgb(255, 255, 255);"/>
  <path class="st1" d="M 150.847 31.632 C 152.572 31.458 154.089 32.084 154.951 32.921 C 157.503 35.359 157.917 43.441 154.848 46.123 C 153.606 47.237 150.985 47.795 148.985 46.82 C 147.088 45.88 145.95 43.337 145.778 40.41 C 145.467 35.812 146.778 32.05 150.847 31.632 Z M 151.433 44.243 C 154.468 44.173 154.365 33.896 150.951 34.802 C 148.537 35.394 148.571 44.277 151.433 44.243 Z" style="fill: rgb(255, 255, 255);"/>
  <path class="st1" d="M 102.634 31.876 L 102.634 34.941 C 94.357 32.677 94.426 46.227 102.531 43.964 L 102.531 47.028 C 89.977 50.164 89.908 28.95 102.634 31.876 Z" style="fill: rgb(255, 255, 255);"/>
  <path class="st1" d="M 87.115 41.002 L 87.115 37.972 C 88.563 37.972 89.46 37.45 89.46 36.404 C 89.46 35.534 89.322 34.662 86.356 34.662 L 86.356 47.307 L 83.183 47.307 L 83.252 31.562 L 86.321 31.562 C 92.219 31.597 92.909 33.966 92.909 36.299 C 92.909 39.609 90.598 41.002 87.115 41.002 Z" style="fill: rgb(255, 255, 255);"/>
  <polygon class="st1" points="165.677 32.711 165.677 35.673 158.848 35.673 158.848 32.711" style="fill: rgb(255, 255, 255);"/>
  <path class="st1" d="M 210.476 47.169 L 207.234 47.169 C 206.855 45.601 204.751 42.813 204.751 42.813 L 201.199 46.506 C 200.543 47.169 199.371 47.169 198.164 47.169 L 197.164 47.169 L 197.164 44.381 L 197.853 44.381 C 198.578 44.381 199.233 44.312 199.785 43.755 L 205.992 37.136 C 206.648 36.474 206.303 35.534 205.165 35.534 L 197.164 35.568 L 197.164 32.711 L 205.199 32.711 C 209.096 32.711 210.234 36.927 208.82 38.46 L 206.785 40.584 C 206.82 40.584 210.269 45.601 210.476 47.169 Z" style="fill: rgb(255, 255, 255);"/>
  <polygon class="st1" points="176.609 32.711 176.609 39.609 173.471 39.609 173.471 32.711" style="fill: rgb(255, 255, 255);"/>
  <path class="st1" d="M 184.403 32.711 L 184.403 41.699 C 184.403 44.729 182.162 46.994 179.368 46.994 L 173.505 46.994 L 173.505 44.032 L 178.954 44.032 C 180.472 44.032 181.299 43.232 181.299 41.595 C 181.299 39.958 181.299 32.711 181.299 32.711 L 184.403 32.711 Z" style="fill: rgb(255, 255, 255);"/>
  <path class="st1" d="M 171.781 33.513 L 171.781 41.665 C 171.781 44.765 168.988 46.994 166.47 46.994 L 158.848 46.994 L 158.848 43.859 L 166.435 43.859 C 167.711 43.859 168.711 43.162 168.711 41.734 L 168.711 33.548 L 171.781 33.513 Z" style="fill: rgb(255, 255, 255);"/>
  <polygon class="st1" points="165.677 40.201 158.848 40.201 158.848 37.275 165.677 37.275" style="fill: rgb(255, 255, 255);"/>
  <rect x="102.737" y="38.424" class="st1" width="7.587" height="2.369" style="fill: rgb(255, 255, 255);"/>
  <polygon class="st1" points="197.853 38.529 197.853 41.386 185.645 41.386 185.645 38.529" style="fill: rgb(255, 255, 255);"/>
  <circle class="st1" cx="211.545" cy="33.907" r="1.276" style="fill: rgb(255, 255, 255);" transform="matrix(1, 0, 0, 1.01008, 0, -0.318161)"/>
  <circle class="st1" cx="214.718" cy="33.907" r="1.276" style="fill: rgb(255, 255, 255);" transform="matrix(1, 0, 0, 1.01008, 0, -0.318161)"/>
  <path class="st1" d="M 172.816 95.205 L 162.745 95.205 L 170.884 78.624 C 168.677 78.624 162.607 77.44 160.4 75.42 C 157.538 72.807 155.192 67.512 156.813 61.207 C 158.607 54.275 166.332 49.014 174.713 51.174 C 180.713 52.707 184.231 55.773 185.266 62.426 C 185.748 65.492 185.541 68.452 183.541 72.98 L 172.816 95.205 Z M 165.367 65.422 C 165.367 72.633 176.402 72.842 176.402 65.701 C 176.402 58.246 165.367 58.177 165.367 65.422 Z" style="fill: rgb(255, 255, 255);"/>
  <path class="st1" d="M 200.957 51.243 C 210.648 49.99 219.098 57.688 216.132 67.687 C 215.683 69.254 213.028 72.598 213.028 72.598 C 213.028 72.598 217.063 76.394 217.511 78.833 C 219.373 89.04 211.752 95.031 203.992 95.276 C 195.784 95.519 186.783 89.91 188.542 79.39 C 188.783 77.962 189.714 76.604 190.197 75.768 C 190.68 74.932 192.922 72.598 192.922 72.598 C 192.922 72.598 189.921 67.791 189.645 65.735 C 188.645 58.281 193.025 52.255 200.957 51.243 Z M 199.026 63.471 C 199.026 68.835 207.027 68.765 207.027 63.75 C 207.027 58.072 199.026 58.002 199.026 63.471 Z M 203.164 86.846 C 209.407 86.846 209.441 77.37 203.061 77.37 C 196.646 77.406 196.819 86.846 203.164 86.846 Z" style="fill: rgb(255, 255, 255);"/>
  <path class="st1" d="M 234.582 51.243 C 239.479 50.757 243.756 52.532 246.17 54.867 C 253.343 61.799 254.516 84.581 245.894 92.175 C 242.342 95.31 234.962 96.912 229.34 94.125 C 223.96 91.444 220.787 84.302 220.235 76.046 C 219.408 63.053 223.098 52.428 234.582 51.243 Z M 236.238 86.846 C 244.86 86.671 244.515 57.619 234.858 60.127 C 228.03 61.903 228.133 87.054 236.238 86.846 Z" style="fill: rgb(255, 255, 255);"/>
  <path class="st1" d="M 140.881 51.592 L 140.881 60.231 C 117.464 53.856 117.636 92.105 140.57 85.765 L 140.57 94.404 C 105.048 103.356 104.876 43.301 140.881 51.592 Z" style="fill: rgb(255, 255, 255);"/>
  <path class="st1" d="M 94.185 77.474 L 94.219 68.87 C 98.358 68.87 100.841 67.408 100.841 64.376 C 100.841 61.868 100.427 59.395 92.046 59.395 L 92.081 95.205 L 83.08 95.205 L 83.183 50.721 L 91.874 50.721 C 108.566 50.791 110.532 57.549 110.532 64.098 C 110.497 73.504 104.013 77.474 94.185 77.474 Z" style="fill: rgb(255, 255, 255);"/>
  <rect x="142.053" y="69.393" class="st1" width="10.38" height="5.922" style="fill: rgb(255, 255, 255);"/>
  <rect x="255.482" y="51.139" class="st1" width="8.518" height="44.066" style="fill: rgb(255, 255, 255);"/>
</svg>