<?xml version="1.0" encoding="utf-8"?>
<svg xmlns="http://www.w3.org/2000/svg">
  <path d="M 19.971 9.957 L 30.498 9.957 L 30.498 20.254 L 19.971 20.254 Z M 0.005 50.003 L 19.828 50.003 L 19.91 29.952 L 50.003 29.963 L 49.884 0.035 L 10.346 0.037 L -0.02 10.368 Z" style="fill: rgb(255, 255, 255);"/>
  <path d="M 60.188 0.05 L 99.859 0.05 L 99.859 9.78 L 90.073 9.78 L 90.073 39.975 L 99.831 39.975 L 99.831 49.955 L 60.18 49.955 L 60.18 40.152 L 70.27 40.152 L 70.254 9.489 L 60.074 9.505 Z" style="fill: rgb(255, 255, 255);"/>
  <path d="M 110.04 10.682 L 120.724 0.003 L 149.913 0.003 L 149.913 9.893 L 130.119 9.893 L 130.119 40.083 L 149.704 40.083 L 149.704 49.942 L 110.256 49.942 Z" style="fill: rgb(255, 255, 255);"/>
  <path d="M 180.194 9.965 L 190.158 9.965 L 190.158 39.858 L 180.194 39.858 Z M 160.085 49.803 L 199.349 49.803 L 209.943 39.229 L 209.943 0.037 L 170.728 0.037 L 160.234 10.51 Z" style="fill: rgb(255, 255, 255);"/>
  <path d="M 220.215 19.884 L 240.125 19.884 L 240.125 29.88 L 220.215 29.88 L 220.215 19.884 Z" style="fill: rgb(255, 255, 255);"/>
  <path d="M 270.143 10.01 L 290.45 10.01 L 290.45 20.039 L 270.143 20.039 Z M 270.178 29.91 L 290.485 29.91 L 290.485 39.939 L 270.178 39.939 Z M 299.98 49.863 L 299.98 0.003 L 260.225 0.003 L 260.225 10.714 L 250.34 20.579 L 250.34 49.939 Z" style="fill: rgb(255, 255, 255);"/>
</svg>