<?xml version="1.0" encoding="utf-8"?>
<svg xmlns="http://www.w3.org/2000/svg">
  <path d="M 35.015 13.729 C 33.46 13.726 27.234 14.221 27.234 22.698 C 27.234 32.385 35.359 31.76 35.359 31.76 C 35.359 31.76 43.296 31.678 43.296 22.698 C 43.296 13.718 35.448 13.736 35.359 13.729 C 35.359 13.729 35.237 13.73 35.015 13.729 Z M 35.359 18.323 C 35.359 18.323 38.265 17.854 38.265 22.698 C 38.265 27.184 35.359 26.698 35.359 26.698 C 35.359 26.698 32.328 26.732 32.328 22.698 C 32.328 17.837 35.359 18.379 35.359 18.323 Z" id="path3667" style="fill-opacity: 1; stroke: none; stroke-width: 5.91784; stroke-linecap: butt; stroke-linejoin: round; stroke-miterlimit: 4; stroke-dasharray: none; stroke-opacity: 1; paint-order: markers stroke; fill: rgb(255, 255, 255);"/>
  <path d="M 46.402 6.654 L 51.491 6.654 L 51.491 20.373 L 55.429 13.732 L 60.866 13.732 L 55.429 21.685 L 60.866 31.773 L 55.429 31.773 L 51.491 23.376 L 51.491 31.773 L 46.402 31.773 Z" id="path3678" style="fill-opacity: 1; stroke: none; stroke-width: 5.91784; stroke-linecap: butt; stroke-linejoin: round; stroke-miterlimit: 4; stroke-dasharray: none; stroke-opacity: 1; paint-order: markers stroke; fill: rgb(255, 255, 255);"/>
  <path d="M 63.978 9.098 L 65.901 11.816 L 73.215 7.441 L 70.961 4.634 L 64.066 9.054 L 63.978 9.098 Z" id="path3711" style="fill-opacity: 1; stroke: none; stroke-width: 5.91784; stroke-linecap: butt; stroke-linejoin: round; stroke-miterlimit: 4; stroke-dasharray: none; stroke-opacity: 1; paint-order: markers stroke; fill: rgb(255, 255, 255);"/>
  <path d="M 79.509 31.773 L 84.009 31.773 L 84.009 21.404 C 84.009 21.404 84.196 18.677 86.509 18.677 C 88.821 18.677 88.821 21.404 88.821 21.404 L 88.821 31.773 L 93.071 31.773 L 93.071 21.404 C 93.071 21.404 93.165 18.677 95.478 18.677 C 97.79 18.677 97.79 21.404 97.79 21.404 L 97.79 31.773 L 102.196 31.773 L 102.196 18.677 C 102.196 18.677 102.509 13.732 97.79 13.732 C 93.071 13.732 93.071 16.674 93.071 16.674 C 93.071 16.674 93.634 13.732 88.821 13.732 C 84.009 13.732 84.009 16.674 84.009 16.674 C 84.009 16.674 84.696 13.732 82.103 13.732 C 79.509 13.732 79.509 13.732 79.509 13.732 Z" id="path3727" style="fill-opacity: 1; stroke: none; stroke-width: 5.91784; stroke-linecap: butt; stroke-linejoin: round; stroke-miterlimit: 4; stroke-dasharray: none; stroke-opacity: 1; paint-order: markers stroke; fill: rgb(255, 255, 255);"/>
  <path d="M 112.935 13.739 C 111.38 13.736 105.154 14.231 105.154 22.707 C 105.154 32.395 113.279 31.77 113.279 31.77 C 113.279 31.77 121.217 31.687 121.217 22.707 C 121.217 13.728 113.368 13.745 113.279 13.739 C 113.279 13.739 113.157 13.739 112.935 13.739 Z M 113.279 18.332 C 113.279 18.332 116.185 17.864 116.185 22.707 C 116.185 27.194 113.279 26.707 113.279 26.707 C 113.279 26.707 110.248 26.742 110.248 22.707 C 110.248 17.847 113.279 18.389 113.279 18.332 Z" id="path3667-1" style="fill-opacity: 1; stroke: none; stroke-width: 5.91784; stroke-linecap: butt; stroke-linejoin: round; stroke-miterlimit: 4; stroke-dasharray: none; stroke-opacity: 1; paint-order: markers stroke; fill: rgb(255, 255, 255);"/>
  <path d="M 124.036 31.773 L 128.942 31.773 L 128.942 21.404 C 128.942 21.404 128.817 18.677 131.536 18.677 C 134.255 18.677 134.255 21.404 134.255 21.404 L 134.255 31.773 L 138.817 31.773 L 138.817 18.677 C 138.817 18.677 138.848 13.732 134.255 13.732 C 129.661 13.732 128.942 16.674 128.942 16.674 C 128.942 16.674 129.38 13.732 127.567 13.732 C 125.755 13.732 124.036 13.732 124.036 13.732 Z" id="path3759" style="fill-opacity: 1; stroke: none; stroke-width: 5.91784; stroke-linecap: butt; stroke-linejoin: round; stroke-miterlimit: 4; stroke-dasharray: none; stroke-opacity: 1; paint-order: markers stroke; fill: rgb(255, 255, 255);"/>
  <path d="M 150.144 13.732 L 171.202 13.732 C 171.202 13.732 173.235 13.654 173.235 15.654 C 173.235 17.654 173.235 30.731 173.235 30.731 C 173.235 30.731 173.28 31.773 172.263 31.773 C 171.247 31.773 169.214 31.773 169.214 31.773 C 169.214 31.773 168.197 31.748 168.197 30.731 C 168.197 29.715 168.197 21.404 168.197 21.404 C 168.197 21.404 168.109 20.213 167.225 20.213 C 166.341 20.213 164.176 20.213 164.176 20.213 C 164.176 20.213 163.159 20.096 163.159 21.404 C 163.159 22.712 163.159 30.731 163.159 30.731 C 163.159 30.731 163.026 31.773 162.143 31.773 C 161.259 31.773 159.27 31.773 159.27 31.773 C 159.27 31.773 158.165 31.836 158.165 30.731 C 158.165 29.626 158.165 21.404 158.165 21.404 C 158.165 21.404 158.474 20.213 157.104 20.213 C 155.734 20.213 154.232 20.213 154.232 20.213 C 154.232 20.213 153.215 20.096 153.215 21.404 C 153.215 22.712 153.215 30.731 153.215 30.731 C 153.215 30.731 153.215 31.773 152.199 31.773 C 151.182 31.773 149.15 31.773 149.15 31.773 C 149.15 31.773 148.221 31.703 148.221 30.731 C 148.221 29.759 148.221 15.654 148.221 15.654 C 148.221 15.654 148.266 13.877 150.144 13.732 Z" id="path3775" style="fill-opacity: 1; stroke: none; stroke-width: 5.91784; stroke-linecap: butt; stroke-linejoin: round; stroke-miterlimit: 4; stroke-dasharray: none; stroke-opacity: 1; paint-order: markers stroke; fill: rgb(255, 255, 255);"/>
  <path d="M 181.185 22.712 C 181.185 22.712 182.163 22.638 182.163 23.677 C 182.163 24.716 182.163 30.731 182.163 30.731 C 182.163 30.731 182.06 31.773 181.217 31.773 C 180.373 31.773 179.154 31.773 179.154 31.773 C 179.154 31.773 178.141 31.746 178.141 30.731 C 178.141 29.716 178.141 23.677 178.141 23.677 C 178.141 23.677 178.185 22.712 179.185 22.712 C 180.185 22.712 181.123 22.748 181.185 22.712 Z" id="path3787" style="fill-opacity: 1; stroke: none; stroke-width: 5.91784; stroke-linecap: butt; stroke-linejoin: round; stroke-miterlimit: 4; stroke-dasharray: none; stroke-opacity: 1; paint-order: markers stroke; fill: rgb(255, 255, 255);"/>
  <path d="M 179.185 19.683 C 179.185 19.683 178.141 19.701 178.141 18.677 C 178.141 17.654 178.141 15.654 178.141 15.654 C 178.141 15.654 178.139 14.654 179.201 14.654 C 180.263 14.654 181.201 14.654 181.201 14.654 C 181.201 14.654 182.163 14.634 182.163 15.654 C 182.163 16.674 182.163 18.677 182.163 18.677 C 182.163 18.677 182.263 19.683 181.217 19.683 C 180.17 19.683 179.217 19.669 179.185 19.683 Z" id="path3789" style="fill-opacity: 1; stroke: none; stroke-width: 5.91784; stroke-linecap: butt; stroke-linejoin: round; stroke-miterlimit: 4; stroke-dasharray: none; stroke-opacity: 1; paint-order: markers stroke; fill: rgb(255, 255, 255);"/>
  <path d="M 187.154 30.731 C 187.154 30.731 187.185 31.773 188.185 31.773 C 189.185 31.773 191.123 31.773 191.123 31.773 C 191.123 31.773 192.154 31.715 192.154 30.731 C 192.154 29.748 192.154 21.404 192.154 21.404 C 192.154 21.404 192.185 20.213 193.154 20.213 C 194.123 20.213 196.154 20.213 196.154 20.213 C 196.154 20.213 197.185 20.096 197.185 21.404 C 197.185 22.712 197.185 30.731 197.185 30.731 C 197.185 30.731 197.123 31.773 198.185 31.773 C 199.248 31.773 200.217 31.773 200.217 31.773 C 200.217 31.773 201.154 31.715 201.154 30.731 C 201.154 29.748 201.154 16.674 201.154 16.674 C 201.154 16.674 201.123 14.654 199.154 14.654 C 197.185 14.654 189.185 14.654 189.185 14.654 C 189.185 14.654 187.154 14.671 187.154 16.674 C 187.154 18.677 187.248 30.841 187.154 30.731 Z" id="path3807" style="fill-opacity: 1; stroke: none; stroke-width: 5.91784; stroke-linecap: butt; stroke-linejoin: round; stroke-miterlimit: 4; stroke-dasharray: none; stroke-opacity: 1; paint-order: markers stroke; fill: rgb(255, 255, 255);"/>
  <path d="M 209.346 22.712 C 209.346 22.712 210.323 22.638 210.323 23.677 C 210.323 24.716 210.323 30.731 210.323 30.731 C 210.323 30.731 210.221 31.773 209.377 31.773 C 208.533 31.773 207.315 31.773 207.315 31.773 C 207.315 31.773 206.302 31.746 206.302 30.731 C 206.302 29.716 206.302 23.677 206.302 23.677 C 206.302 23.677 206.346 22.712 207.346 22.712 C 208.346 22.712 209.283 22.748 209.346 22.712 Z" id="path3787-7" style="fill-opacity: 1; stroke: none; stroke-width: 5.91784; stroke-linecap: butt; stroke-linejoin: round; stroke-miterlimit: 4; stroke-dasharray: none; stroke-opacity: 1; paint-order: markers stroke; fill: rgb(255, 255, 255);"/>
  <path d="M 207.346 19.683 C 207.346 19.683 206.302 19.701 206.302 18.677 C 206.302 17.654 206.302 15.654 206.302 15.654 C 206.302 15.654 206.3 14.654 207.362 14.654 C 208.424 14.654 209.362 14.654 209.362 14.654 C 209.362 14.654 210.323 14.634 210.323 15.654 C 210.323 16.674 210.323 18.677 210.323 18.677 C 210.323 18.677 210.424 19.683 209.377 19.683 C 208.33 19.683 207.377 19.669 207.346 19.683 Z" id="path3789-4" style="fill-opacity: 1; stroke: none; stroke-width: 5.91784; stroke-linecap: butt; stroke-linejoin: round; stroke-miterlimit: 4; stroke-dasharray: none; stroke-opacity: 1; paint-order: markers stroke; fill: rgb(255, 255, 255);"/>
  <path d="M 69.085 13.729 C 63.083 13.729 61.71 18.311 61.71 22.698 C 61.71 27.085 64.365 31.76 69.491 31.76 C 74.618 31.76 75.085 30.729 75.085 30.729 L 75.085 27.698 C 75.049 27.687 70.888 27.698 68.679 27.698 C 66.469 27.698 66.897 24.729 66.897 24.729 L 76.429 24.729 L 76.429 21.417 C 76.429 21.417 76.431 13.729 69.085 13.729 Z M 69.429 17.667 C 71.964 17.667 71.991 18.667 71.991 18.667 L 71.991 21.417 L 66.897 21.417 L 66.897 18.667 C 66.897 18.667 66.893 17.667 69.429 17.667 Z" id="path3696" style="fill-opacity: 1; stroke: none; stroke-width: 5.91784; stroke-linecap: butt; stroke-linejoin: round; stroke-miterlimit: 4; stroke-dasharray: none; stroke-opacity: 1; paint-order: markers stroke; fill: rgb(255, 255, 255);"/>
  <path d="M 9.188 8.042 L 9.188 31.76 L 14.813 31.76 L 14.813 23.385 L 19.188 23.385 C 19.188 23.385 24.844 22.916 24.844 18.323 L 24.844 13.729 C 24.844 13.729 24.809 8.042 19.188 8.042 C 13.623 8.042 9.212 8.121 9.188 8.042 Z M 14.813 12.635 C 14.821 12.637 16.92 12.635 17.813 12.635 C 19.353 13.091 19.188 14.667 19.188 14.667 L 19.188 16.667 C 19.188 18.33 17.813 18.667 17.813 18.667 L 14.813 18.667 Z" id="path2870" style="fill-opacity: 1; stroke: none; stroke-width: 5.91784; stroke-linecap: butt; stroke-linejoin: round; stroke-miterlimit: 4; stroke-dasharray: none; stroke-opacity: 1; paint-order: markers stroke; fill: rgb(255, 255, 255);"/>
</svg>