<?xml version="1.0" encoding="utf-8"?>
<svg version="1.1" xmlns="http://www.w3.org/2000/svg">
  <g transform="matrix(0.44, 0, 0, 0.438465, 0, 0)">
    <path d="M 84.453 80.481 C 93.252 70.194 106.32 63.669 120.918 63.669 C 123.846 63.669 126.711 63.948 129.495 64.446 C 131.373 59.313 132.396 53.769 132.396 47.982 C 132.396 21.483 110.907 0 84.408 0 C 57.903 0 36.42 21.483 36.42 47.985 C 36.42 53.778 37.452 59.328 39.333 64.464 C 42.141 63.954 45.03 63.669 47.988 63.669 C 62.586 63.672 75.651 70.197 84.453 80.481 Z M 129.495 64.449 C 123.735 80.217 109.941 92.106 93.072 95.187 C 94.947 100.323 95.976 105.876 95.976 111.657 C 95.976 123.564 91.632 134.448 84.453 142.833 C 93.255 153.12 106.32 159.648 120.918 159.648 C 147.423 159.648 168.906 138.162 168.906 111.657 C 168.906 88.083 151.905 68.496 129.495 64.449 Z M 75.834 95.196 C 58.929 92.145 45.105 80.244 39.333 64.467 C 16.965 68.541 0 88.113 0 111.657 C 0 138.162 21.486 159.648 47.988 159.648 C 62.586 159.648 75.651 153.12 84.453 142.836 C 77.277 134.448 72.933 123.564 72.933 111.66 C 72.933 105.876 73.959 100.329 75.834 95.196 Z M 75.834 95.196 C 78.618 95.7 81.48 95.97 84.408 95.97 C 87.369 95.97 90.261 95.697 93.072 95.184 C 91.089 89.751 88.14 84.792 84.453 80.478 C 80.763 84.792 77.817 89.766 75.834 95.196 Z" id="path9" style="fill-opacity: 1; fill: rgb(255, 255, 255);"/>
    <path d="M 267.966 84.275 C 267.966 93.698 264.765 100.922 258.366 105.947 C 251.964 110.969 242.898 113.48 231.162 113.48 L 216.096 113.48 L 216.096 153.749 L 209.295 153.749 L 209.295 56.273 L 233.163 56.273 C 256.365 56.273 267.966 65.606 267.966 84.275 Z M 216.096 107.612 L 229.497 107.612 C 240.474 107.612 248.409 105.8 253.299 102.176 C 258.186 98.555 260.631 92.675 260.631 84.542 C 260.631 77.03 258.321 71.465 253.698 67.841 C 249.075 64.22 241.92 62.408 232.23 62.408 L 216.096 62.408 L 216.096 107.612 L 216.096 107.612 Z" id="path13" style="fill-opacity: 1; fill: rgb(255, 255, 255);"/>
    <path d="M 371.109 104.879 C 371.109 120.347 367.245 132.581 359.508 141.581 C 351.771 150.587 341.106 155.087 327.507 155.087 C 313.947 155.087 303.303 150.587 295.569 141.581 C 287.835 132.581 283.968 120.305 283.968 104.744 C 283.968 89.234 287.868 77.021 295.668 68.108 C 303.471 59.195 314.127 54.74 327.639 54.74 C 341.244 54.74 351.885 59.219 359.577 68.174 C 367.263 77.132 371.109 89.366 371.109 104.879 Z M 291.369 104.879 C 291.369 118.835 294.48 129.623 300.702 137.249 C 306.924 144.872 315.861 148.685 327.507 148.685 C 339.24 148.685 348.21 144.908 354.408 137.348 C 360.606 129.791 363.708 118.973 363.708 104.879 C 363.708 90.833 360.606 80.066 354.408 72.578 C 348.21 65.087 339.285 61.343 327.639 61.343 C 316.038 61.343 307.092 65.12 300.804 72.677 C 294.513 80.231 291.369 90.968 291.369 104.879 Z" id="path15" style="fill-opacity: 1; fill: rgb(255, 255, 255);"/>
    <path d="M 400.314 111.278 L 400.314 153.749 L 393.51 153.749 L 393.51 56.273 L 416.712 56.273 C 428.805 56.273 437.739 58.505 443.52 62.972 C 449.298 67.439 452.187 74.165 452.187 83.141 C 452.187 89.678 450.465 95.189 447.021 99.677 C 443.574 104.168 438.345 107.39 431.319 109.346 L 457.788 153.752 L 449.655 153.752 L 424.515 111.278 L 400.314 111.278 L 400.314 111.278 Z M 400.314 105.41 L 418.914 105.41 C 427.137 105.41 433.515 103.58 438.051 99.911 C 442.584 96.245 444.855 90.836 444.855 83.675 C 444.855 76.253 442.629 70.856 438.186 67.475 C 433.74 64.097 426.492 62.408 416.445 62.408 L 400.314 62.408 L 400.314 105.41 Z" id="path17" style="fill-opacity: 1; fill: rgb(255, 255, 255);"/>
    <path d="M 500.055 153.749 L 493.191 153.749 L 493.191 62.675 L 461.517 62.675 L 461.517 56.273 L 531.726 56.273 L 531.726 62.675 L 500.055 62.675 L 500.055 153.749 L 500.055 153.749 Z" id="path19" style="fill-opacity: 1; fill: rgb(255, 255, 255);"/>
    <path d="M 600 128.612 C 600 136.751 597.009 143.195 591.03 147.95 C 585.051 152.705 577.107 155.084 567.195 155.084 C 555.282 155.084 546.147 153.77 539.79 151.145 L 539.79 144.344 C 546.816 147.323 555.768 148.814 566.658 148.814 C 574.662 148.814 581.007 146.981 585.696 143.318 C 590.385 139.646 592.728 134.834 592.728 128.879 C 592.728 125.192 591.951 122.135 590.391 119.711 C 588.837 117.29 586.305 115.079 582.795 113.078 C 579.279 111.077 574.128 108.92 567.324 106.61 C 557.37 103.19 550.491 99.488 546.69 95.513 C 542.886 91.532 540.987 86.231 540.987 79.61 C 540.987 72.32 543.843 66.377 549.558 61.775 C 555.27 57.173 562.611 54.875 571.59 54.875 C 580.746 54.875 589.347 56.609 597.393 60.074 L 594.927 65.942 C 586.836 62.564 579.102 60.872 571.725 60.872 C 564.525 60.872 558.792 62.54 554.526 65.876 C 550.254 69.209 548.124 73.745 548.124 79.478 C 548.124 83.078 548.775 86.036 550.086 88.346 C 551.394 90.659 553.545 92.735 556.518 94.583 C 559.497 96.425 564.609 98.639 571.854 101.216 C 579.453 103.841 585.165 106.382 588.987 108.851 C 592.803 111.317 595.596 114.119 597.351 117.251 C 599.121 120.38 600 124.169 600 128.612 Z" id="path21" style="fill-opacity: 1; fill: rgb(255, 255, 255);"/>
  </g>
  <path d="M 91.857 19.46 L 91.857 1.26 L 94.717 1.26 L 94.717 19.46 L 91.857 19.46 Z M 96.849 19.46 L 96.849 1.26 L 100.929 1.26 L 102.749 14.29 L 102.799 14.29 L 104.619 1.26 L 108.699 1.26 L 108.699 19.46 L 105.999 19.46 L 105.999 5.68 L 105.949 5.68 L 103.869 19.46 L 101.469 19.46 L 99.389 5.68 L 99.339 5.68 L 99.339 19.46 L 96.849 19.46 Z M 110.837 19.46 L 110.837 1.26 L 115.047 1.26 C 116.467 1.26 117.534 1.64 118.247 2.4 C 118.954 3.167 119.307 4.287 119.307 5.76 L 119.307 7.55 C 119.307 9.023 118.954 10.143 118.247 10.91 C 117.534 11.67 116.467 12.05 115.047 12.05 L 113.697 12.05 L 113.697 19.46 L 110.837 19.46 Z M 113.697 9.45 L 115.047 9.45 C 115.514 9.45 115.864 9.32 116.097 9.06 C 116.33 8.8 116.447 8.357 116.447 7.73 L 116.447 5.58 C 116.447 4.953 116.33 4.51 116.097 4.25 C 115.864 3.99 115.514 3.86 115.047 3.86 L 113.697 3.86 L 113.697 9.45 Z M 125.003 19.72 C 123.596 19.72 122.523 19.32 121.783 18.52 C 121.036 17.727 120.663 16.6 120.663 15.14 L 120.663 5.58 C 120.663 4.12 121.036 2.993 121.783 2.2 C 122.523 1.4 123.596 1 125.003 1 C 126.41 1 127.483 1.4 128.223 2.2 C 128.97 2.993 129.343 4.12 129.343 5.58 L 129.343 15.14 C 129.343 16.6 128.97 17.727 128.223 18.52 C 127.483 19.32 126.41 19.72 125.003 19.72 Z M 125.003 17.12 C 125.99 17.12 126.483 16.523 126.483 15.33 L 126.483 5.39 C 126.483 4.197 125.99 3.6 125.003 3.6 C 124.016 3.6 123.523 4.197 123.523 5.39 L 123.523 15.33 C 123.523 16.523 124.016 17.12 125.003 17.12 Z M 134.983 19.72 C 133.596 19.72 132.55 19.327 131.843 18.54 C 131.13 17.747 130.773 16.613 130.773 15.14 L 130.773 14.1 L 133.483 14.1 L 133.483 15.35 C 133.483 16.53 133.976 17.12 134.963 17.12 C 135.45 17.12 135.816 16.977 136.063 16.69 C 136.316 16.403 136.443 15.94 136.443 15.3 C 136.443 14.54 136.27 13.867 135.923 13.28 C 135.576 12.7 134.936 12.003 134.003 11.19 C 132.823 10.15 132 9.21 131.533 8.37 C 131.06 7.53 130.823 6.58 130.823 5.52 C 130.823 4.087 131.19 2.973 131.923 2.18 C 132.65 1.393 133.706 1 135.093 1 C 136.46 1 137.496 1.393 138.203 2.18 C 138.903 2.973 139.253 4.107 139.253 5.58 L 139.253 6.33 L 136.543 6.33 L 136.543 5.39 C 136.543 4.77 136.423 4.317 136.183 4.03 C 135.943 3.743 135.586 3.6 135.113 3.6 C 134.16 3.6 133.683 4.18 133.683 5.34 C 133.683 6 133.863 6.617 134.223 7.19 C 134.576 7.763 135.22 8.457 136.153 9.27 C 137.353 10.31 138.176 11.253 138.623 12.1 C 139.076 12.953 139.303 13.95 139.303 15.09 C 139.303 16.583 138.936 17.727 138.203 18.52 C 137.463 19.32 136.39 19.72 134.983 19.72 Z M 144.655 19.72 C 143.268 19.72 142.222 19.327 141.515 18.54 C 140.802 17.747 140.445 16.613 140.445 15.14 L 140.445 14.1 L 143.155 14.1 L 143.155 15.35 C 143.155 16.53 143.648 17.12 144.635 17.12 C 145.122 17.12 145.488 16.977 145.735 16.69 C 145.988 16.403 146.115 15.94 146.115 15.3 C 146.115 14.54 145.942 13.867 145.595 13.28 C 145.248 12.7 144.608 12.003 143.675 11.19 C 142.495 10.15 141.672 9.21 141.205 8.37 C 140.732 7.53 140.495 6.58 140.495 5.52 C 140.495 4.087 140.862 2.973 141.595 2.18 C 142.322 1.393 143.378 1 144.765 1 C 146.132 1 147.168 1.393 147.875 2.18 C 148.575 2.973 148.925 4.107 148.925 5.58 L 148.925 6.33 L 146.215 6.33 L 146.215 5.39 C 146.215 4.77 146.095 4.317 145.855 4.03 C 145.615 3.743 145.258 3.6 144.785 3.6 C 143.832 3.6 143.355 4.18 143.355 5.34 C 143.355 6 143.535 6.617 143.895 7.19 C 144.248 7.763 144.892 8.457 145.825 9.27 C 147.025 10.31 147.848 11.253 148.295 12.1 C 148.748 12.953 148.975 13.95 148.975 15.09 C 148.975 16.583 148.608 17.727 147.875 18.52 C 147.135 19.32 146.062 19.72 144.655 19.72 Z M 150.617 19.46 L 150.617 1.26 L 153.477 1.26 L 153.477 19.46 L 150.617 19.46 Z M 155.609 19.46 L 155.609 1.26 L 159.919 1.26 C 161.392 1.26 162.469 1.603 163.149 2.29 C 163.822 2.97 164.159 4.023 164.159 5.45 L 164.159 6.17 C 164.159 7.11 164.009 7.873 163.709 8.46 C 163.402 9.053 162.936 9.48 162.309 9.74 L 162.309 9.79 C 163.736 10.277 164.449 11.54 164.449 13.58 L 164.449 15.14 C 164.449 16.547 164.079 17.617 163.339 18.35 C 162.606 19.09 161.526 19.46 160.099 19.46 L 155.609 19.46 Z M 158.469 8.67 L 159.579 8.67 C 160.152 8.67 160.582 8.523 160.869 8.23 C 161.156 7.937 161.299 7.443 161.299 6.75 L 161.299 5.73 C 161.299 5.07 161.182 4.593 160.949 4.3 C 160.716 4.007 160.346 3.86 159.839 3.86 L 158.469 3.86 L 158.469 8.67 Z M 158.469 16.86 L 160.099 16.86 C 160.606 16.86 160.979 16.727 161.219 16.46 C 161.466 16.187 161.589 15.723 161.589 15.07 L 161.589 13.48 C 161.589 12.647 161.446 12.07 161.159 11.75 C 160.872 11.43 160.399 11.27 159.739 11.27 L 158.469 11.27 L 158.469 16.86 Z M 166.113 19.46 L 166.113 1.26 L 168.973 1.26 L 168.973 16.86 L 173.673 16.86 L 173.673 19.46 L 166.113 19.46 Z M 175.057 19.46 L 175.057 1.26 L 182.857 1.26 L 182.857 3.86 L 177.917 3.86 L 177.917 8.67 L 181.837 8.67 L 181.837 11.27 L 177.917 11.27 L 177.917 16.86 L 182.857 16.86 L 182.857 19.46 L 175.057 19.46 Z" style="fill: rgb(255, 255, 255); white-space: pre;"/>
</svg>