<?xml version="1.0" encoding="utf-8"?>
<svg xmlns="http://www.w3.org/2000/svg">
  <path d="M 45.56 12.96 L 47.54 19.2 L 41.27 19.2 L 39.89 13.62 L 38.66 13.62 L 37.7 19.2 L 32 19.2 L 35.3 0.45 L 44.3 0.45 C 47.72 0.45 49.43 1.98 49.43 5.04 C 49.43 6.3 49.24 7.5 48.86 8.64 C 48.16 10.8 47.06 12.24 45.56 12.96 Z M 41.27 5.25 L 40.13 5.25 L 39.47 9 L 40.79 9 C 41.47 9 41.983 8.927 42.33 8.78 C 42.683 8.627 42.923 8.197 43.05 7.49 C 43.183 6.777 43.25 6.34 43.25 6.18 C 43.25 5.78 43.097 5.523 42.79 5.41 C 42.477 5.303 41.97 5.25 41.27 5.25 Z M 63.38 7.77 L 62.6 12.12 L 56.9 12.12 L 56.51 14.4 L 63.5 14.4 L 62.66 19.2 L 49.97 19.2 L 53.27 0.45 L 65.81 0.45 L 64.25 5.25 L 58.1 5.25 L 57.68 7.77 L 63.38 7.77 Z M 81.77 0.45 L 80.9 5.25 L 76.76 5.25 L 74.33 19.2 L 68.63 19.2 L 71.06 5.25 L 66.95 5.25 L 67.82 0.45 L 81.77 0.45 Z M 94.43 12.96 L 96.41 19.2 L 90.14 19.2 L 88.76 13.62 L 87.53 13.62 L 86.57 19.2 L 80.87 19.2 L 84.17 0.45 L 93.17 0.45 C 96.59 0.45 98.3 1.98 98.3 5.04 C 98.3 6.3 98.11 7.5 97.73 8.64 C 97.03 10.8 95.93 12.24 94.43 12.96 Z M 90.14 5.25 L 89 5.25 L 88.34 9 L 89.66 9 C 90.34 9 90.853 8.927 91.2 8.78 C 91.553 8.627 91.793 8.197 91.92 7.49 C 92.053 6.777 92.12 6.34 92.12 6.18 C 92.12 5.78 91.967 5.523 91.66 5.41 C 91.347 5.303 90.84 5.25 90.14 5.25 Z M 106.31 6.72 L 104.93 14.52 L 107.3 14.52 C 108.08 14.52 108.66 14.427 109.04 14.24 C 109.42 14.047 109.67 13.61 109.79 12.93 L 111.17 5.13 L 108.77 5.13 C 108.01 5.13 107.44 5.223 107.06 5.41 C 106.68 5.603 106.43 6.04 106.31 6.72 Z M 109.76 0 C 112.3 0 114.11 0.497 115.19 1.49 C 116.27 2.477 116.81 4 116.81 6.06 C 116.81 8.12 116.483 10.277 115.83 12.53 C 115.183 14.777 114.153 16.523 112.74 17.77 C 111.333 19.023 109.273 19.65 106.56 19.65 C 103.853 19.65 101.96 19.157 100.88 18.17 C 99.8 17.177 99.26 15.65 99.26 13.59 C 99.26 12.61 99.4 11.317 99.68 9.71 C 99.96 8.097 100.33 6.707 100.79 5.54 C 101.25 4.367 101.87 3.35 102.65 2.49 C 104.15 0.83 106.52 0 109.76 0 Z M 123.17 16.23 L 122 19.2 L 116 19.2 L 123.89 0.45 L 132.71 0.45 L 134.03 19.2 L 128 19.2 L 127.88 16.23 L 123.17 16.23 Z M 127.43 6.21 L 127.13 6.21 L 125.03 11.46 L 127.43 11.46 L 127.43 6.21 Z M 149.57 12.96 L 151.55 19.2 L 145.28 19.2 L 143.9 13.62 L 142.67 13.62 L 141.71 19.2 L 136.01 19.2 L 139.31 0.45 L 148.31 0.45 C 151.73 0.45 153.44 1.98 153.44 5.04 C 153.44 6.3 153.25 7.5 152.87 8.64 C 152.17 10.8 151.07 12.24 149.57 12.96 Z M 145.28 5.25 L 144.14 5.25 L 143.48 9 L 144.8 9 C 145.48 9 145.993 8.927 146.34 8.78 C 146.693 8.627 146.933 8.197 147.06 7.49 C 147.193 6.777 147.26 6.34 147.26 6.18 C 147.26 5.78 147.107 5.523 146.8 5.41 C 146.487 5.303 145.98 5.25 145.28 5.25 Z M 166.88 13.83 L 166.4 18.87 C 165.12 19.39 163.5 19.65 161.54 19.65 C 159.02 19.65 157.213 19.16 156.12 18.18 C 155.033 17.2 154.49 15.69 154.49 13.65 C 154.49 12.79 154.63 11.52 154.91 9.84 C 155.51 6.4 156.543 3.9 158.01 2.34 C 159.483 0.78 161.81 0 164.99 0 C 165.73 0 166.577 0.077 167.53 0.23 C 168.477 0.377 169.17 0.56 169.61 0.78 L 167.93 5.37 C 166.75 5.09 165.647 4.95 164.62 4.95 C 163.587 4.95 162.85 5.05 162.41 5.25 C 161.97 5.45 161.7 5.85 161.6 6.45 L 160.22 14.31 C 160.94 14.47 161.68 14.55 162.44 14.55 C 164.06 14.55 165.54 14.31 166.88 13.83 Z M 184.67 19.2 L 178.97 19.2 L 180.11 12.57 L 175.82 12.57 L 174.68 19.2 L 168.98 19.2 L 172.28 0.45 L 177.98 0.45 L 176.81 7.08 L 181.1 7.08 L 182.27 0.45 L 187.97 0.45 L 184.67 19.2 Z" style="white-space: pre; fill: rgb(255, 255, 255);"/>
  <path style="fill-rule: evenodd; stroke-width: 0; stroke-miterlimit: 4; fill: rgb(255, 255, 255);" id="path5222" stroke-miterlimit="4" d="M 16.625 7.125 L 16.625 9.5 L 19 9.5 L 19 7.125 L 16.625 7.125 Z M 7.125 7.125 L 7.125 9.5 L 9.5 9.5 L 9.5 7.125 L 7.125 7.125 Z M 7.125 16.625 L 11.875 16.625 L 11.875 19 L 7.125 19 L 7.125 16.625 Z M 19 16.625 L 19 19 L 14.25 19 L 14.25 16.625 L 19 16.625 Z M 19 2.375 L 19 0 L 21.375 0 L 21.375 2.375 L 19 2.375 Z M 7.125 2.375 L 9.5 2.375 L 9.5 4.75 L 16.625 4.75 L 16.625 2.375 L 19 2.375 L 19 4.75 L 21.375 4.75 L 21.375 7.125 L 23.75 7.125 L 23.75 9.5 L 26.125 9.5 L 26.125 16.625 L 23.75 16.625 L 23.75 11.875 L 21.375 11.875 L 21.375 16.625 L 19 16.625 L 19 14.25 L 7.125 14.25 L 7.125 16.625 L 4.75 16.625 L 4.75 11.875 L 2.375 11.875 L 2.375 16.625 L 0 16.625 L 0 9.5 L 2.375 9.5 L 2.375 7.125 L 4.75 7.125 L 4.75 4.75 L 7.125 4.75 L 7.125 2.375 Z M 4.75 0 L 7.125 0 L 7.125 2.375 L 4.75 2.375 L 4.75 0 Z"/>
</svg>