<?xml version="1.0" encoding="utf-8"?>
<svg width="166.2346mm" height="28.361784mm" version="1.1" id="svg6880" xmlns="http://www.w3.org/2000/svg">
  <g id="layer1" transform="translate(256.96749,-142.47253)">
    <g id="g1068" transform="translate(-177.36006,-51.636473)">
      <g transform="matrix(0.122355, 0, 0, 0.122355, -11.889465, 186.234344)" id="g1667">
        <g id="g1641" style="fill:#000000;stroke:none">
          <g transform="translate(0,44.45)" id="g1460" style="fill:#000000;stroke:none">
            <path id="rect1450" d="m -240.24167,289.32706 h 147.372911 v 25.13541 H -240.24167 Z" style="opacity: 1; fill-opacity: 1; fill-rule: nonzero; stroke: none; stroke-width: 0.965; stroke-linecap: round; stroke-linejoin: round; stroke-miterlimit: 4; stroke-dasharray: none; stroke-opacity: 1; paint-order: stroke; fill: rgb(255, 255, 255);"/>
            <path style="opacity: 1; fill-opacity: 1; fill-rule: nonzero; stroke: none; stroke-width: 0.965; stroke-linecap: round; stroke-linejoin: round; stroke-miterlimit: 4; stroke-dasharray: none; stroke-opacity: 1; paint-order: stroke; fill: rgb(255, 255, 255);" d="m -225.425,277.42081 h 23.01875 V 345.6833 H -225.425 Z" id="rect1452"/>
            <path style="stroke: none; stroke-width: 0.965; stroke-linecap: butt; stroke-linejoin: miter; stroke-miterlimit: 4; stroke-dasharray: none; stroke-opacity: 1; fill: rgb(255, 255, 255);" d="M -128.85208,328.48542 V 277.42081 H -107.95 v 48.94795 c 0,32.19778 -22.4188,61.11874 -68.2625,61.11874 h -48.68333 v -28.04583 h 53.71041 c 28.21852,0 42.33334,-13.03384 42.33334,-30.95625 z" id="path1455"/>
          </g>
        </g>
        <g id="g1635" style="fill:#000000;stroke:none">
          <path id="path1483" d="m 4.1159507,380.17735 v 9.31132 c 0,9.48422 -6.1859503,14.403 -14.5929097,14.403 h -65.870467 v 28.04583 h 65.309196 c 19.2330167,0 34.611402,-12.99612 34.611402,-31.36748 v -26.56659" style="stroke: none; stroke-width: 0.965; stroke-linecap: butt; stroke-linejoin: miter; stroke-miterlimit: 4; stroke-dasharray: none; stroke-opacity: 1; fill: rgb(255, 255, 255);"/>
          <path id="rect1485" d="M -66.977745,321.61862 H 52.759003 v 26.56659 H -66.977745 Z" style="opacity: 1; fill-opacity: 1; fill-rule: nonzero; stroke: none; stroke-width: 0.965; stroke-linecap: round; stroke-linejoin: round; stroke-miterlimit: 4; stroke-dasharray: none; stroke-opacity: 1; paint-order: stroke; fill: rgb(255, 255, 255);"/>
          <path id="rect1487" d="M -76.332176,358.66217 H 61.365089 v 25.06988 H -76.332176 Z" style="opacity: 1; fill-opacity: 1; fill-rule: nonzero; stroke: none; stroke-width: 0.965; stroke-linecap: round; stroke-linejoin: round; stroke-miterlimit: 4; stroke-dasharray: none; stroke-opacity: 1; paint-order: stroke; fill: rgb(255, 255, 255);"/>
        </g>
        <g id="g1630" style="fill:#000000;stroke:none">
          <path id="path1483-1" d="m 195.69475,380.17735 v 9.31132 c 0,9.48422 -6.18595,14.403 -14.59291,14.403 H 87.916424 v 28.04583 h 92.624146 c 19.23302,0 34.61141,-12.99612 34.61141,-31.36748 v -41.90786" style="stroke: none; stroke-width: 0.965; stroke-linecap: butt; stroke-linejoin: miter; stroke-miterlimit: 4; stroke-dasharray: none; stroke-opacity: 1; fill: rgb(255, 255, 255);"/>
          <path id="rect1487-3" d="M 75.958008,358.66217 H 215.15198 v 25.06988 H 75.958008 Z" style="opacity: 1; fill-opacity: 1; fill-rule: nonzero; stroke: none; stroke-width: 0.97023; stroke-linecap: round; stroke-linejoin: round; stroke-miterlimit: 4; stroke-dasharray: none; stroke-opacity: 1; paint-order: stroke; fill: rgb(255, 255, 255);"/>
          <path id="rect1485-9" d="M 85.686607,321.61862 H 207.29425 v 26.56659 H 85.686607 Z" style="opacity: 1; fill-opacity: 1; fill-rule: nonzero; stroke: none; stroke-width: 0.97251; stroke-linecap: round; stroke-linejoin: round; stroke-miterlimit: 4; stroke-dasharray: none; stroke-opacity: 1; paint-order: stroke; fill: rgb(255, 255, 255);"/>
        </g>
        <g id="g1625" style="fill:#000000;stroke:none">
          <path id="rect1487-3-0" d="m -328.89497,350.80444 h 87.83696 v 25.06989 h -87.83696 z" style="opacity: 1; fill-opacity: 1; fill-rule: nonzero; stroke: none; stroke-width: 0.777787; stroke-linecap: round; stroke-linejoin: round; stroke-miterlimit: 4; stroke-dasharray: none; stroke-opacity: 1; paint-order: stroke; fill: rgb(255, 255, 255);" transform="scale(-1,1)"/>
          <path id="path1483-1-4" d="m 252.04857,321.4367 v 68.05198 c 0,9.48422 6.18595,14.403 14.59291,14.403 h 103.10339 v 28.04583 H 267.20275 c -19.23302,0 -34.61141,-12.99612 -34.61141,-31.36748 v -79.13851" style="stroke: none; stroke-width: 0.965; stroke-linecap: butt; stroke-linejoin: miter; stroke-miterlimit: 4; stroke-dasharray: none; stroke-opacity: 1; fill: rgb(255, 255, 255);"/>
          <path id="rect1487-3-0-0" d="M -369.79703,359.27115 H -241.058 v 19.77822 h -128.73903 z" style="opacity: 1; fill-opacity: 1; fill-rule: nonzero; stroke: none; stroke-width: 0.821518; stroke-linecap: round; stroke-linejoin: round; stroke-miterlimit: 4; stroke-dasharray: none; stroke-opacity: 1; paint-order: stroke; fill: rgb(255, 255, 255);" transform="scale(-1,1)"/>
          <path id="rect1575" d="m 336.75961,321.88281 h 13.2833 v 29.27938 h -13.2833 z" style="opacity: 1; fill-opacity: 1; fill-rule: nonzero; stroke: none; stroke-width: 0.970717; stroke-linecap: round; stroke-linejoin: round; stroke-miterlimit: 4; stroke-dasharray: none; stroke-opacity: 1; paint-order: stroke; fill: rgb(255, 255, 255);"/>
          <path id="rect1575-0" d="m 356.591,321.88281 h 13.2833 v 29.27938 H 356.591 Z" style="opacity: 1; fill-opacity: 1; fill-rule: nonzero; stroke: none; stroke-width: 0.970717; stroke-linecap: round; stroke-linejoin: round; stroke-miterlimit: 4; stroke-dasharray: none; stroke-opacity: 1; paint-order: stroke; fill: rgb(255, 255, 255);"/>
        </g>
        <g id="g1616" style="fill:#000000;stroke:none">
          <path id="rect1593" d="m 384.56155,406.53754 h 116.2947 v 25.39998 h -116.2947 z" style="opacity: 1; fill-opacity: 1; fill-rule: nonzero; stroke: none; stroke-width: 0.900718; stroke-linecap: round; stroke-linejoin: round; stroke-miterlimit: 4; stroke-dasharray: none; stroke-opacity: 1; paint-order: stroke; fill: rgb(255, 255, 255);"/>
          <path id="rect1593-1" d="m 396.4068,353.62085 h 77.93011 v 25.39998 H 396.4068 Z" style="opacity: 1; fill-opacity: 1; fill-rule: nonzero; stroke: none; stroke-width: 0.73733; stroke-linecap: round; stroke-linejoin: round; stroke-miterlimit: 4; stroke-dasharray: none; stroke-opacity: 1; paint-order: stroke; fill: rgb(255, 255, 255);"/>
          <path id="rect1611" d="m 457.19998,353.62085 h 17.13691 v 65.35207 h -17.13691 z" style="opacity: 1; fill-opacity: 1; fill-rule: nonzero; stroke: none; stroke-width: 0.965; stroke-linecap: round; stroke-linejoin: round; stroke-miterlimit: 4; stroke-dasharray: none; stroke-opacity: 1; paint-order: stroke; fill: rgb(255, 255, 255);"/>
        </g>
        <path id="rect1618" d="m 506.41251,361.55832 h 134.9375 v 27.51667 h -134.9375 z" style="opacity: 1; fill-opacity: 1; fill-rule: nonzero; stroke: none; stroke-width: 0.965; stroke-linecap: round; stroke-linejoin: round; stroke-miterlimit: 4; stroke-dasharray: none; stroke-opacity: 1; paint-order: stroke; fill: rgb(255, 255, 255);"/>
      </g>
      <g transform="matrix(0.683863, 0, 0, 0.683863, 82.739334, 69.874878)" id="g1683">
        <path style="opacity: 1; fill-opacity: 1; fill-rule: nonzero; stroke: none; stroke-width: 0.165; stroke-linecap: round; stroke-linejoin: round; stroke-miterlimit: 4; stroke-dasharray: none; stroke-opacity: 1; paint-order: stroke; fill: rgb(255, 255, 255);" d="m -149.11161,198.25611 c 4.11955,0 7.45911,3.33956 7.45911,7.45911 v 7.70126 c 1e-5,4.11955 -3.33955,7.45911 -7.45911,7.45911 h -33.2619 v -6.61458 h 28.9106 c 1.98498,0 3.59412,-1.60915 3.59412,-3.59412 v -2.07134 c 0,-1.98498 -1.60915,-3.59412 -3.59412,-3.59412 l -9.35491,-8.4e-4 h -12.11824 c -4.11937,0 -7.4588,-3.40837 -7.4588,-7.6128 v -7.85993 c -1e-5,-4.20442 3.33942,-7.61279 7.4588,-7.61279 h 30.08002 v 6.75086 h -25.7289 c -1.98489,0 -3.59397,1.64231 -3.59397,3.66817 v 2.11402 c 0,2.02588 1.60909,3.80649 3.59397,3.80666 l 7.96705,6.7e-4 z" id="path7449-8-3"/>
        <path style="opacity: 1; fill-opacity: 1; fill-rule: nonzero; stroke: none; stroke-width: 0.165; stroke-linecap: round; stroke-linejoin: round; stroke-miterlimit: 4; stroke-dasharray: none; stroke-opacity: 1; paint-order: stroke; fill: rgb(255, 255, 255);" d="m -137.04228,193.7551 v 6.63008 h 17.37568 c 1.48257,0 2.82981,1.19657 2.82981,2.66599 l -19.75229,5.16971 c -1.38833,0.372 -2.35386,1.63021 -2.35386,3.06751 v 2.16938 c 0,4.11955 3.33943,7.45949 7.45898,7.45949 l 15.78353,-5.3e-4 c 4.11848,-7e-5 7.45794,-3.33942 7.45794,-7.45897 v -12.2437 c 0,-4.11955 -3.33942,-7.45898 -7.45897,-7.45898 z m 20.33933,15.40319 v 2.60191 c 0,1.54662 -1.25373,2.80034 -2.80035,2.80034 h -8.61859 c -1.33506,0 -2.33134,-0.92697 -2.58228,-1.86345 z" id="path7449-9-0"/>
        <path style="opacity: 1; fill-opacity: 1; fill-rule: nonzero; stroke: none; stroke-width: 0.165; stroke-linecap: round; stroke-linejoin: round; stroke-miterlimit: 4; stroke-dasharray: none; stroke-opacity: 1; paint-order: stroke; fill: rgb(255, 255, 255);" d="m -94.063043,200.42708 h 5.758356 v -6.94531 h -5.754688 V 181.8401 h -8.272245 v 11.70782 h -3.43557 v 6.87916 h 3.4361 v 17.06269 c -1e-5,1.93971 1.57244,3.51216 3.512153,3.51216 h 10.051229 v -6.9488 l -5.295335,-0.004 z" id="path7449-9-3"/>
        <path style="opacity: 1; fill-opacity: 1; fill-rule: nonzero; stroke: none; stroke-width: 0.165; stroke-linecap: round; stroke-linejoin: round; stroke-miterlimit: 4; stroke-dasharray: none; stroke-opacity: 1; paint-order: stroke; fill: rgb(255, 255, 255);" d="m -55.372381,220.87029 v -6.63008 h -19.340123 c -1.48257,0 -2.8298,-1.19657 -2.8298,-2.66599 l 19.752282,-5.16971 c 1.38833,-0.372 2.35387,-1.63021 2.35387,-3.06751 v -2.16938 c 0,-4.11955 -3.33943,-7.45949 -7.45898,-7.45949 l -15.783532,5.3e-4 c -4.11848,7e-5 -7.45795,3.33942 -7.45795,7.45897 v 12.2437 c 0,4.11955 3.33943,7.45898 7.45898,7.45898 z M -77.676144,205.4671 v -2.60191 c 0,-1.54662 1.25372,-2.80035 2.80035,-2.80035 h 8.618592 c 1.33506,0 2.33134,0.92698 2.58227,1.86346 z" id="path7449-9-0-4"/>
        <path style="opacity: 1; fill-opacity: 1; fill-rule: nonzero; stroke: none; stroke-width: 0.165; stroke-linecap: round; stroke-linejoin: round; stroke-miterlimit: 4; stroke-dasharray: none; stroke-opacity: 1; paint-order: stroke; fill: rgb(255, 255, 255);" d="m -51.134745,181.84009 h 8.007662 v 39.16183 h -8.007662 z" id="rect7599"/>
        <path style="opacity: 1; fill-opacity: 1; fill-rule: nonzero; stroke: none; stroke-width: 0.165; stroke-linecap: round; stroke-linejoin: round; stroke-miterlimit: 4; stroke-dasharray: none; stroke-opacity: 1; paint-order: stroke; fill: rgb(255, 255, 255);" d="m -38.83162,181.84009 h 8.007663 v 39.16183 h -8.007663 z" id="rect7599-0"/>
        <path style="opacity: 1; fill-opacity: 1; fill-rule: nonzero; stroke: none; stroke-width: 0.165; stroke-linecap: round; stroke-linejoin: round; stroke-miterlimit: 4; stroke-dasharray: none; stroke-opacity: 1; paint-order: stroke; fill: rgb(255, 255, 255);" d="m -26.049582,193.7551 v 6.63008 h 17.3756899 c 1.48257,0 2.82981,1.19657 2.82981,2.66599 l -19.7522899,5.16971 c -1.38833,0.372 -2.35386,1.63022 -2.35386,3.06751 v 2.16938 c 0,4.11955 3.33942,7.45949 7.45898,7.45949 l 15.7835299,-5.3e-4 c 4.11848002,-7e-5 7.45794,-3.33942 7.45794,-7.45897 v -12.2437 c 0,-4.11955 -3.33941998,-7.45898 -7.45897,-7.45898 z m 20.3393399,15.40319 v 2.60191 c 0,1.54662 -1.25373,2.80035 -2.80035,2.80035 h -8.6185899 c -1.33506,0 -2.33135,-0.92698 -2.58228,-1.86346 z" id="path7449-9-0-0"/>
        <path style="stroke: none; stroke-width: 0.165; stroke-linecap: butt; stroke-linejoin: miter; stroke-miterlimit: 4; stroke-dasharray: none; stroke-opacity: 1; fill: rgb(255, 255, 255);" d="m 21.365104,221.26302 c -3.187061,0 -5.123374,-1.1036 -6.548438,-3.57188 L 2.6458333,193.61406 h 8.9958337 l 10.847916,20.96823 10.847916,-20.96823 h 8.995834 L 30.1625,217.69114 c -1.425064,2.46828 -3.361377,3.57188 -6.548438,3.57188 h -1.124479 z" id="path7641"/>
        <path style="opacity: 1; fill-opacity: 1; fill-rule: nonzero; stroke: none; stroke-width: 0.165; stroke-linecap: round; stroke-linejoin: round; stroke-miterlimit: 4; stroke-dasharray: none; stroke-opacity: 1; paint-order: stroke; fill: rgb(255, 255, 255);" d="m 44.51213,193.61405 h 8.007663 v 27.38787 H 44.51213 Z" id="rect7599-01"/>
        <circle style="opacity: 1; fill-opacity: 1; fill-rule: nonzero; stroke: none; stroke-width: 0.165; stroke-linecap: round; stroke-linejoin: round; stroke-miterlimit: 4; stroke-dasharray: none; stroke-opacity: 1; paint-order: stroke; fill: rgb(255, 255, 255);" id="path7673" cx="48.551044" cy="186.27188" r="4.4979167"/>
        <path style="opacity: 1; fill-opacity: 1; fill-rule: nonzero; stroke: none; stroke-width: 0.165; stroke-linecap: round; stroke-linejoin: round; stroke-miterlimit: 4; stroke-dasharray: none; stroke-opacity: 1; paint-order: stroke; fill: rgb(255, 255, 255);" d="m 87.238036,220.8703 v -6.63008 H 67.897912 c -1.48257,0 -2.8298,-1.19657 -2.8298,-2.66599 l 19.752283,-5.16971 c 1.388329,-0.372 2.353868,-1.63021 2.353868,-3.06751 v -2.16938 c 0,-4.11955 -3.339428,-7.45949 -7.458979,-7.45949 l -15.783532,5.3e-4 c -4.11848,7e-5 -7.45795,3.33942 -7.45795,7.45897 v 12.2437 c 0,4.11955 3.33943,7.45898 7.45898,7.45898 z M 64.934272,205.46711 v -2.60191 c 0,-1.54662 1.25372,-2.80035 2.80035,-2.80035 h 8.618592 c 1.33506,0 2.33134,0.92698 2.58227,1.86346 z" id="path7449-9-0-4-2"/>
        <g id="g7728" transform="translate(0.280633,44.45)" style="fill:#000000;stroke:none">
          <path id="path7641-2" d="m 104.97344,176.81302 c -3.18706,0 -5.123377,-1.1036 -6.54844,-3.57188 L 86.254166,149.16406 H 95.25 l 10.84792,20.96823 7.47447,-20.96823 h 7.47449 l -7.54063,23.74635 c -1.09433,2.40213 -3.09679,3.90261 -6.28385,3.90261 h -1.12448 z" style="stroke: none; stroke-width: 0.165; stroke-linecap: butt; stroke-linejoin: miter; stroke-miterlimit: 4; stroke-dasharray: none; stroke-opacity: 1; fill: rgb(255, 255, 255);"/>
          <path id="path7641-2-6" d="m 129.64583,176.81302 c 3.18706,0 5.12338,-1.1036 6.54844,-3.57188 l 12.17084,-24.07708 h -8.99584 l -10.84792,20.96823 -7.47447,-20.96823 h -7.47449 l 7.54063,23.74635 c 1.09433,2.40213 3.09679,3.90261 6.28385,3.90261 h 1.12448 z" style="stroke: none; stroke-width: 0.165; stroke-linecap: butt; stroke-linejoin: miter; stroke-miterlimit: 4; stroke-dasharray: none; stroke-opacity: 1; fill: rgb(255, 255, 255);"/>
        </g>
      </g>
      <g transform="matrix(0.174368, 0, 0, 0.193989, -29.224285, 188.847061)" id="g1016">
        <path style="stroke: none; stroke-width: 0.264583px; stroke-linecap: butt; stroke-linejoin: miter; stroke-opacity: 1; fill: rgb(255, 255, 255);" d="m -284.29767,259.021 h 91.29927 c -26.52018,-8.79346 -66.57893,-43.77147 -81.38357,-64.91977 15.84062,38.93737 18.90421,55.96464 -9.9157,64.91977 z" id="path882"/>
        <path style="stroke: none; stroke-width: 0.265; stroke-linecap: butt; stroke-linejoin: miter; stroke-miterlimit: 4; stroke-dasharray: none; stroke-opacity: 1; fill: rgb(255, 255, 255);" d="m -137.80724,27.21814 h 35.17266 v 66.790654 c -10.04831,-26.969418 -21.63317,-50.79349 -35.17266,-66.790654 z" id="path884"/>
        <path style="stroke: none; stroke-width: 0.264583px; stroke-linecap: butt; stroke-linejoin: miter; stroke-opacity: 1; fill: rgb(255, 255, 255);" d="m -171.4832,27.21814 h 19.83139 c 19.14698,27.933247 35.85653,54.073999 49.01723,85.8737 v 19.8314 C -123.02246,91.564683 -144.19665,51.330027 -171.4832,27.21814 Z" id="path886"/>
        <path style="stroke: none; stroke-width: 0.264583px; stroke-linecap: butt; stroke-linejoin: miter; stroke-opacity: 1; fill: rgb(255, 255, 255);" d="m -102.63458,167.58366 v -17.4625 C -130.10449,90.187112 -169.00143,48.750124 -201.87708,27.124998 h -41.01042 c 74.01562,26.31561 117.00148,80.695772 140.25292,140.458662 z" id="path899"/>
        <path style="opacity: 1; fill-opacity: 1; fill-rule: nonzero; stroke: none; stroke-width: 0.265; stroke-linecap: round; stroke-linejoin: round; stroke-miterlimit: 4; stroke-dasharray: none; stroke-opacity: 1; paint-order: stroke; fill: rgb(255, 255, 255);" d="M -115.379 238.985 C -137.796 272.112 -195.956 265.936 -246.661 211.707 C -287.226 168.324 -301.094 109.941 -277.301 76.17 C -255.195 44.794 -189.188 58.209 -152.512 98.039 C -116.401 137.257 -86.303 196.021 -115.379 238.985 Z M -155.658 176.796 C -172.087 176.796 -185.405 186.303 -185.405 198.03 C -185.405 209.758 -172.087 219.265 -155.658 219.265 C -139.229 219.265 -125.911 209.758 -125.911 198.03 C -125.911 186.303 -139.229 176.796 -155.658 176.796 Z M -165.944 117.836 C -171.441 117.829 -176.372 119.46 -179.983 122.874 C -187.028 129.535 -186.477 142.951 -178.675 154.973 C -177.187 154.779 -175.685 154.677 -174.18 154.67 C -159.213 154.677 -146.472 163.822 -144.124 176.242 C -137.984 176.594 -132.532 175.125 -128.9 171.784 C -120.018 163.614 -123.129 144.358 -137.236 130.852 C -146.052 122.411 -156.784 117.848 -165.944 117.836 Z M -232.004 104.242 C -238.012 104.209 -243.404 106.109 -247.203 110.144 C -254.43 117.819 -252.663 130.86 -244.987 142.362 C -242.223 141.818 -239.368 141.543 -236.5 141.542 C -219.392 141.55 -205.356 151.168 -204.73 163.313 C -200.589 162.548 -196.927 160.721 -194.139 157.76 C -184.787 147.828 -190.681 129.098 -204.766 116.156 C -213.129 108.471 -223.224 104.291 -232.004 104.242 Z M -219.829 164.728 C -236.258 164.728 -249.576 174.235 -249.576 185.963 C -249.576 197.69 -236.258 207.197 -219.829 207.197 C -203.4 207.197 -190.082 197.69 -190.082 185.963 C -190.082 174.235 -203.4 164.728 -219.829 164.728 Z" id="path901"/>
      </g>
    </g>
  </g>
</svg>