<?xml version="1.0" encoding="utf-8"?>
<svg version="1.1" id="Layer_1" xmlns="http://www.w3.org/2000/svg">
  <path d="M 0 13.636 L 0 7.792 C 0 2.597 2.597 0 7.792 0 L 42.857 0 L 42.857 7.792 L 7.792 7.792 L 7.792 13.636 L 35.065 13.636 C 40.26 13.636 42.857 16.234 42.857 21.429 L 42.857 27.273 C 42.857 32.468 40.26 35.065 35.065 35.065 L 0 35.065 L 0 27.273 L 35.065 27.273 L 35.065 21.429 L 7.792 21.429 C 2.597 21.429 0 18.832 0 13.636 Z" style="fill: rgb(255, 255, 255);"/>
  <path d="M 46.753 27.273 L 46.753 7.792 C 46.753 2.597 49.35 0 54.545 0 L 87.662 0 L 87.662 7.792 L 54.545 7.792 L 54.545 27.273 L 87.662 27.273 L 87.662 35.065 L 54.545 35.065 C 49.35 35.065 46.753 32.468 46.753 27.273 Z" style="fill: rgb(255, 255, 255);"/>
  <path d="M 91.558 21.429 L 91.558 13.636 L 105.195 13.636 L 105.195 21.429 L 91.558 21.429 Z" style="fill: rgb(255, 255, 255);"/>
  <path d="M 153.896 27.273 C 153.896 32.468 151.298 35.065 146.104 35.065 L 109.091 35.065 L 109.091 27.273 L 146.104 27.273 L 146.104 19.481 L 126.623 19.481 L 136.364 7.792 L 109.091 7.792 L 109.091 0 L 151.948 0 L 142.208 11.688 L 146.104 11.688 C 151.299 11.688 153.896 14.286 153.896 19.481 L 153.896 27.273 Z" style="fill: rgb(255, 255, 255);"/>
  <path d="M 202.597 27.273 C 202.597 32.468 200 35.065 194.805 35.065 L 165.584 35.065 C 160.389 35.065 157.792 32.468 157.792 27.273 L 157.792 7.792 C 157.792 2.597 160.389 0 165.584 0 L 194.805 0 C 200 0 202.597 2.597 202.597 7.792 L 202.597 27.273 Z M 194.805 27.273 L 194.805 7.792 L 165.584 7.792 L 165.584 27.273 L 194.805 27.273 Z" style="fill: rgb(255, 255, 255);"/>
  <path d="M 251.299 27.273 C 251.299 32.468 248.701 35.065 243.507 35.065 L 214.286 35.065 C 209.091 35.065 206.494 32.468 206.494 27.273 L 206.494 7.792 C 206.494 2.597 209.091 0 214.286 0 L 243.507 0 C 248.701 0 251.299 2.597 251.299 7.792 L 251.299 27.273 Z M 243.507 27.273 L 243.507 7.792 L 214.286 7.792 L 214.286 27.273 L 243.507 27.273 Z" style="fill: rgb(255, 255, 255);"/>
  <path d="M 300 27.273 C 300 32.468 297.403 35.065 292.208 35.065 L 262.987 35.065 C 257.792 35.065 255.195 32.468 255.195 27.273 L 255.195 7.792 C 255.195 2.597 257.792 0 262.987 0 L 292.208 0 C 297.403 0 300 2.597 300 7.792 L 300 27.273 Z M 292.208 27.273 L 292.208 7.792 L 262.987 7.792 L 262.987 27.273 L 292.208 27.273 Z" style="fill: rgb(255, 255, 255);"/>
</svg>