<?xml version="1.0" encoding="utf-8"?>
<svg version="1.1" xmlns="http://www.w3.org/2000/svg">
  <path d="M 558.925 52.886 L 544.793 52.83 L 544.184 52.83 L 544.025 53.418 L 539.261 70.575 L 539.234 70.68 L 539.234 70.789 L 539.164 95.56 L 529.064 95.56 L 531.413 68.393 C 531.536 66.933 531.037 66.778 530.305 68.044 L 491.027 135.955 C 490.298 137.225 488.497 138.132 487.037 137.978 L 475.714 136.778 C 474.25 136.622 472.721 135.345 472.311 133.941 L 464.153 106.017 L 468.429 106.017 L 469.23 106.017 L 469.23 105.216 L 469.23 76.061 L 480.264 76.061 L 487.23 101.808 C 487.612 103.219 488.5 103.327 489.208 102.045 L 525.941 35.165 L 540.914 35.165 L 541.489 35.165 L 541.676 34.617 L 548.427 14.425 L 559.6 15.394 C 561.063 15.521 562.153 16.818 562.024 18.276 L 558.925 52.886 Z M 552.601 123.613 L 545.75 123.613 L 545.253 123.613 L 545.034 124.057 L 543.709 126.738 L 538.39 127.438 L 537.746 127.521 L 537.698 128.173 L 536.665 142.807 L 527.745 141.887 C 526.287 141.734 525.194 140.416 525.318 138.957 L 528.926 97.157 L 539.959 97.157 L 540.76 97.157 L 540.763 96.359 L 540.83 70.896 L 545.395 54.433 L 558.778 54.487 L 552.601 123.613 Z M 548.096 143.986 L 538.258 142.974 L 539.252 128.933 L 544.347 128.266 L 544.769 128.209 L 544.958 127.828 L 546.256 125.213 L 552.46 125.213 L 550.993 141.611 C 550.861 143.067 549.557 144.137 548.096 143.986 Z M 449.732 56.648 C 449.316 55.243 448.819 55.279 448.614 56.729 L 442.649 99.496 L 431.648 99.496 L 427.95 97.493 L 427.775 97.394 L 427.574 97.391 L 420.717 97.35 L 429.028 41.676 L 439.95 41.676 L 440.535 41.676 L 440.712 41.12 L 443.865 31.232 L 468.131 31.232 L 479.824 74.466 L 468.426 74.466 L 467.619 74.466 L 467.619 75.262 L 467.619 104.42 L 463.677 104.42 L 449.732 56.648 Z M 435.352 132.56 L 418.368 131.082 C 416.904 130.953 415.883 129.666 416.1 128.215 L 418.654 111.129 L 440.664 113.741 L 438.376 130.157 C 438.177 131.605 436.816 132.686 435.352 132.56 Z M 427.366 98.989 L 431.064 100.994 L 431.245 101.093 L 431.446 101.093 L 442.429 101.093 L 440.884 112.156 L 418.889 109.547 L 420.476 98.944 L 427.366 98.989 Z M 437.484 3.187 L 458.54 5.298 C 460.003 5.445 461.512 6.723 461.892 8.138 L 467.707 29.633 L 443.287 29.633 L 442.7 29.633 L 442.522 30.19 L 439.369 40.079 L 429.272 40.079 L 434.434 5.553 C 434.647 4.106 436.021 3.04 437.484 3.187 Z M 536.55 15.842 C 537.255 14.557 539.032 13.608 540.495 13.737 L 546.786 14.28 L 540.336 33.566 L 526.818 33.566 L 536.55 15.842 Z" style="fill: rgb(255, 255, 255);"/>
  <path d="M 430.982 2.151 L 422.372 52.862 L 413.434 52.862 L 412.63 52.862 L 412.63 53.661 L 412.63 57.906 L 410.522 59.96 L 410.284 60.194 L 410.281 60.53 L 410.23 77.367 L 410.227 78.168 L 411.031 78.168 L 418.072 78.168 L 415.148 95.383 L 409.077 100.138 L 403.406 100.09 L 403.132 100.09 L 402.915 100.256 L 398.368 103.729 L 398.052 103.966 L 398.052 104.362 L 398.052 111.424 L 382.137 117.282 L 364.376 87.451 L 384.01 71.119 L 393.493 87.931 C 394.213 89.207 394.965 89.066 395.164 87.616 L 402.669 33.266 L 410.224 33.266 L 410.513 33.266 L 410.739 33.078 L 413.739 30.571 L 414.025 30.333 L 414.025 29.958 L 414.025 17.4 L 415.94 15.364 L 416.157 15.133 L 416.157 14.818 L 416.157 10.741 L 418.015 9.098 L 418.283 8.862 L 418.283 8.501 L 418.283 2.166 L 428.808 0.053 C 430.247 -0.238 431.226 0.708 430.982 2.151 Z M 411.886 60.866 L 413.994 58.809 L 414.235 58.575 L 414.235 58.239 L 414.235 54.46 L 422.101 54.46 L 418.349 76.568 L 411.841 76.568 L 411.886 60.866 Z M 409.492 128.747 C 409.249 130.191 407.866 131.596 406.424 131.866 L 395.023 134.016 C 393.583 134.286 391.782 133.478 391.032 132.22 L 382.974 118.677 L 399.136 112.73 L 399.657 112.537 L 399.657 111.979 L 399.657 104.756 L 403.671 101.693 L 409.345 101.738 L 409.628 101.741 L 409.848 101.568 L 414.756 97.724 L 409.492 128.747 Z M 326.95 19.643 L 349.46 15.004 C 350.893 14.707 352.661 15.509 353.384 16.785 L 358.103 25.157 L 353.185 25.157 L 352.776 25.157 L 352.532 25.485 L 351.116 27.412 L 343.564 27.412 L 342.76 27.412 L 342.76 28.211 L 342.76 38.043 L 334.963 38.043 L 325.691 22.47 C 324.944 21.209 325.507 19.937 326.95 19.643 Z M 343.567 39.641 L 344.371 39.641 L 344.371 38.838 L 344.371 29.006 L 351.526 29.006 L 351.935 29.006 L 352.176 28.679 L 353.589 26.752 L 359.006 26.752 L 383.218 69.702 L 363.553 86.055 L 335.915 39.641 L 343.567 39.641 Z M 406.279 7.141 C 406.478 5.692 407.821 4.268 409.258 3.977 L 416.681 2.487 L 416.681 8.141 L 414.82 9.78 L 414.549 10.02 L 414.549 10.38 L 414.549 14.5 L 412.636 16.535 L 412.42 16.767 L 412.42 17.082 L 412.42 29.586 L 409.929 31.666 L 402.888 31.666 L 406.279 7.141 Z" style="fill: rgb(255, 255, 255);"/>
  <path d="M 60.204 90.775 C 61.845 94.008 62.67 97.857 62.67 102.324 C 62.67 106.632 61.767 110.361 59.963 113.513 C 58.159 116.663 55.813 119.254 52.925 121.289 C 50.04 123.324 46.77 124.838 43.123 125.838 C 39.473 126.834 35.802 127.333 32.116 127.333 C 24.738 127.333 18.544 125.976 13.53 123.264 C 8.519 120.557 4.008 116.446 0 110.94 L 8.546 100.187 C 9.335 99.193 10.681 99.154 11.527 100.096 C 11.527 100.096 12.509 101.189 14.192 102.504 C 15.879 103.825 17.701 104.978 19.667 105.975 C 21.628 106.974 23.636 107.791 25.681 108.431 C 27.726 109.067 29.629 109.389 31.394 109.389 C 33.155 109.389 34.504 109.067 35.423 108.431 C 36.344 107.791 36.808 106.596 36.808 104.84 C 36.808 103.323 35.983 101.889 34.342 100.532 C 32.698 99.178 30.653 97.76 28.208 96.284 C 25.759 94.812 23.112 93.215 20.266 91.498 C 17.421 89.784 14.777 87.769 12.331 85.455 C 9.883 83.143 7.838 80.489 6.194 77.498 C 4.55 74.505 3.728 71.056 3.728 67.147 C 3.728 63.316 4.451 59.966 5.893 57.096 C 7.336 54.222 9.281 51.812 11.729 49.854 C 14.171 47.903 16.999 46.425 20.209 45.426 C 23.413 44.432 26.822 43.931 30.433 43.931 C 36.847 43.931 42.599 45.11 47.694 47.461 C 52.787 49.815 57.617 53.306 62.191 57.93 L 55.268 68.558 C 54.578 69.623 53.22 69.816 52.257 68.981 C 52.257 68.981 50.519 67.483 48.595 66.244 C 46.674 65.009 44.785 63.953 42.942 63.076 C 41.096 62.196 39.371 61.539 37.769 61.1 C 36.164 60.662 34.763 60.44 33.559 60.44 C 32.116 60.44 31.053 60.8 30.373 61.518 C 29.686 62.238 29.349 63.154 29.349 64.271 C 29.349 65.706 30.168 67.042 31.815 68.278 C 33.456 69.516 35.522 70.792 38.01 72.11 C 40.494 73.428 43.162 74.902 46.011 76.535 C 48.854 78.171 51.522 80.146 54.009 82.458 C 56.494 84.776 58.557 87.548 60.204 90.775 Z M 89.61 86.145 C 90.526 85.151 91.565 84.398 92.724 83.882 C 93.88 83.368 95.019 83.107 96.142 83.107 C 99.497 83.107 101.99 83.942 103.631 85.61 C 105.267 87.28 106.01 88.985 106.01 88.985 C 106.513 90.144 107.932 90.843 109.163 90.54 L 123.702 86.922 C 122.185 80.327 119.107 75.001 114.475 70.947 C 109.841 66.895 103.607 64.868 95.781 64.868 C 90.986 64.868 86.713 65.604 82.955 67.075 C 79.2 68.546 76.047 70.65 73.49 73.395 C 70.933 76.135 68.997 79.435 67.678 83.287 C 66.359 87.145 65.7 91.453 65.7 96.22 C 65.7 100.354 66.299 104.29 67.497 108.025 C 68.696 111.764 70.554 115.039 73.072 117.861 C 75.586 120.682 78.76 122.928 82.597 124.597 C 86.433 126.264 91.026 127.099 96.377 127.099 C 99.412 127.099 102.37 126.636 105.245 125.727 C 108.121 124.814 110.759 123.421 113.156 121.554 C 115.553 119.686 117.649 117.324 119.447 114.459 C 121.245 111.598 122.79 106.528 122.79 106.528 C 123.16 105.317 122.462 104.044 121.245 103.693 L 107.164 99.676 C 106.923 100.949 106.405 102.099 105.607 103.132 C 104.806 104.165 103.908 105.059 102.909 105.813 C 101.909 106.572 100.891 107.17 99.852 107.605 C 98.813 108.043 97.855 108.259 96.976 108.259 C 93.862 108.259 91.324 107.068 89.369 104.684 C 87.409 102.297 86.433 99.163 86.433 95.263 C 86.433 93.2 86.731 91.411 87.331 89.897 C 87.93 88.394 88.689 87.142 89.61 86.145 Z M 188.49 96.248 C 188.288 91.303 188.089 86.265 187.887 81.122 C 187.689 75.983 187.417 66.871 187.417 66.871 C 187.378 65.604 186.306 64.589 185.035 64.616 L 165.353 65.042 C 165.594 68.871 165.814 72.178 166.015 74.968 C 166.214 77.759 166.377 80.428 166.494 82.977 C 166.615 85.527 166.696 88.16 166.738 90.867 C 166.774 93.578 166.798 96.767 166.798 100.433 C 166.798 103.225 165.877 105.435 164.034 107.068 C 162.191 108.704 159.99 109.517 157.424 109.517 C 154.702 109.517 152.657 108.701 151.293 107.068 C 149.928 105.435 149.251 103.462 149.251 101.15 C 149.251 97.014 149.441 93.134 149.85 89.078 C 150.251 85.094 150.651 81.428 151.055 78.075 C 151.537 74.25 152.356 69.353 152.356 69.353 C 152.563 68.102 151.696 67.087 150.422 67.102 L 129.9 67.315 C 129.336 71.302 128.858 75.286 128.457 79.273 C 128.057 82.701 127.716 86.328 127.436 90.153 C 127.153 93.978 127.018 97.406 127.018 100.433 C 127.018 104.738 127.539 108.617 128.581 112.067 C 129.62 115.519 131.225 118.452 133.387 120.866 C 135.549 123.279 138.335 125.141 141.74 126.447 C 145.146 127.75 149.212 128.408 153.94 128.408 C 155.301 128.408 156.701 128.227 158.147 127.867 C 159.586 127.509 160.968 127.011 162.293 126.372 C 163.612 125.733 164.832 125 165.958 124.163 C 166.461 123.787 167.346 122.595 168.072 122.845 C 169.012 123.175 168.482 125.279 168.482 125.979 C 168.482 127.245 169.521 128.26 170.795 128.233 L 189.634 127.813 C 189.474 121.952 189.294 116.464 189.092 111.343 C 188.887 106.221 188.685 101.189 188.49 96.248 Z M 272.793 76.132 C 270.956 73.313 268.439 71.107 265.247 69.516 C 262.049 67.927 257.896 67.132 252.782 67.132 C 248.946 67.132 245.651 67.966 242.893 69.635 C 242.161 70.08 241.441 70.554 240.752 71.065 C 240.132 71.524 239.529 72.014 238.969 72.542 C 238.551 72.935 238.189 73.535 237.581 73.644 C 237.427 73.668 237.265 73.71 237.102 73.692 C 236.548 73.641 236.394 73.271 236.108 72.857 C 235.31 71.704 234.277 70.732 233.127 69.933 C 231.127 68.546 228.613 67.847 225.577 67.847 C 224.06 67.847 222.62 68.087 221.262 68.564 C 219.901 69.038 218.687 69.657 217.609 70.41 C 216.697 71.047 215.911 71.819 215.04 72.502 C 214.613 72.839 214.444 73.301 213.842 73.265 C 213.225 73.223 213.312 72.437 213.27 72.017 C 213.216 71.515 213.161 71.017 213.113 70.516 C 213.074 70.149 213.035 69.783 212.996 69.42 C 212.866 68.162 211.722 67.156 210.451 67.186 L 193.223 67.609 C 193.464 72.458 193.644 77.105 193.765 81.558 C 193.885 86.007 193.964 90.516 194.003 95.085 C 194.042 99.656 194.042 104.483 194.003 109.568 C 193.964 114.655 193.949 124.078 193.949 124.078 C 193.946 125.342 194.982 126.36 196.249 126.342 L 212.969 126.057 C 214.236 126.036 215.296 124.982 215.321 123.721 L 215.995 90.973 C 215.995 89.858 216.275 88.727 216.832 87.574 C 217.389 86.421 218.708 85.845 220.786 85.845 C 221.747 85.845 222.506 86.199 223.066 86.919 C 223.62 87.634 224.081 88.589 224.442 89.781 C 224.803 90.97 225.041 92.342 225.162 93.891 C 225.279 95.44 225.34 97.049 225.34 98.718 C 225.34 102.85 225.34 106.227 225.34 108.85 C 225.34 111.471 225.318 113.756 225.279 115.702 C 225.24 117.657 225.18 119.482 225.102 121.187 C 225.02 122.898 224.948 124.793 224.948 124.793 C 224.903 126.054 225.897 127.111 227.167 127.144 L 246.793 127.567 C 246.63 126.375 246.492 124.906 246.374 123.157 C 246.254 121.409 246.172 119.62 246.133 117.791 C 246.094 115.967 246.055 114.216 246.013 112.547 C 245.971 110.877 245.953 109.526 245.953 108.491 C 245.953 100.865 246.272 95.185 246.913 91.447 C 247.552 87.712 249.229 85.842 251.945 85.842 C 253.623 85.842 254.921 86.539 255.842 87.931 C 256.758 89.321 257.221 91.645 257.221 94.902 C 257.221 98.004 256.839 101.957 256.08 106.765 C 255.321 111.574 252.936 121.988 252.936 121.988 C 252.656 123.22 253.454 124.354 254.716 124.517 L 274.477 126.972 C 275.353 122.046 276.094 117.279 276.693 112.667 C 277.292 108.061 277.593 103.567 277.593 99.193 C 277.593 94.506 277.253 90.195 276.576 86.259 C 275.892 82.332 274.63 78.952 272.793 76.132 Z M 364.047 86.265 C 363.367 82.332 362.111 78.952 360.277 76.132 C 358.44 73.313 355.919 71.107 352.724 69.516 C 349.526 67.927 345.377 67.132 340.263 67.132 C 336.43 67.132 333.135 67.966 330.374 69.635 C 329.669 70.065 328.982 70.516 328.314 71.002 C 327.688 71.461 327.085 71.947 326.519 72.476 C 326.052 72.911 325.447 73.959 324.703 73.746 C 324.176 73.59 323.712 73.004 323.402 72.578 C 322.643 71.542 321.665 70.665 320.611 69.936 C 318.611 68.546 316.094 67.847 313.061 67.847 C 311.537 67.847 310.104 68.087 308.746 68.564 C 307.388 69.041 306.168 69.657 305.093 70.41 C 304.012 71.167 303.133 71.962 302.455 72.794 C 302.347 72.929 302.238 73.062 302.121 73.184 C 301.949 73.362 301.681 73.602 301.41 73.535 C 301.106 73.467 300.925 73.01 300.859 72.743 C 300.735 72.275 300.723 71.777 300.675 71.293 C 300.612 70.668 300.549 70.041 300.479 69.42 C 300.347 68.162 299.203 67.156 297.938 67.186 L 280.71 67.609 C 280.948 72.458 281.131 77.105 281.249 81.558 C 281.369 86.007 281.447 90.516 281.49 95.085 C 281.529 99.656 281.529 104.486 281.49 109.571 C 281.45 114.658 281.432 124.078 281.432 124.078 C 281.429 125.342 282.465 126.363 283.739 126.342 L 300.458 126.06 C 301.726 126.036 302.783 124.988 302.81 123.721 L 303.482 90.976 C 303.482 89.861 303.765 88.73 304.322 87.577 C 304.879 86.424 306.198 85.848 308.276 85.848 C 309.234 85.848 309.993 86.202 310.553 86.919 C 311.107 87.637 311.571 88.589 311.932 89.781 C 312.29 90.973 312.525 92.345 312.649 93.894 C 312.769 95.443 312.829 97.052 312.829 98.721 C 312.829 102.856 312.829 106.23 312.829 108.853 C 312.829 111.471 312.808 113.759 312.769 115.705 C 312.73 117.657 312.667 119.482 312.588 121.19 C 312.51 122.901 312.435 124.793 312.435 124.793 C 312.387 126.057 313.383 127.114 314.657 127.144 C 314.669 127.144 314.681 127.144 314.693 127.144 C 315.329 127.158 315.958 127.17 316.597 127.185 C 317.964 127.212 319.334 127.245 320.704 127.275 C 322.378 127.309 324.053 127.345 325.73 127.384 C 327.311 127.417 328.892 127.45 330.47 127.488 C 331.44 127.509 332.575 127.72 333.53 127.5 C 334.334 127.315 334.156 126.681 334.132 126.039 C 334.108 125.069 333.93 124.127 333.858 123.16 C 333.743 121.412 333.659 119.622 333.617 117.794 C 333.578 115.97 333.539 114.219 333.497 112.55 C 333.457 110.88 333.436 109.532 333.436 108.496 C 333.436 100.868 333.756 95.188 334.394 91.45 C 335.035 87.715 336.71 85.845 339.429 85.845 C 341.106 85.845 342.404 86.545 343.326 87.931 C 344.241 89.321 344.705 91.648 344.705 94.906 C 344.705 98.004 344.329 101.96 343.564 106.768 C 342.805 111.58 340.423 121.988 340.423 121.988 C 340.14 123.222 340.938 124.36 342.2 124.517 C 342.742 124.582 343.278 124.652 343.811 124.718 C 346.515 125.057 349.213 125.39 351.914 125.727 C 353.628 125.939 355.344 126.12 357.061 126.321 C 358.1 126.438 359.13 126.669 360.169 126.787 C 360.81 126.855 361.626 127.182 362.144 126.612 C 362.638 126.063 362.608 125.063 362.722 124.388 C 362.897 123.367 363.002 122.34 363.087 121.31 C 363.213 119.734 363.418 118.188 363.638 116.621 C 363.83 115.306 364.002 113.988 364.174 112.67 C 364.773 108.061 365.074 103.57 365.074 99.199 C 365.068 94.509 364.728 90.198 364.047 86.265 Z" style="fill: rgb(255, 255, 255);"/>
</svg>