<?xml version="1.0" encoding="utf-8"?>
<svg version="1.1" xmlns="http://www.w3.org/2000/svg">
  <path id="path16" d="M 330.245 5.126 L 321.431 31.972 L 325.783 31.972 L 334.614 6.049 C 334.935 4.864 335.901 3.997 337.04 3.997 C 338.19 3.997 339.157 4.864 339.478 6.049 L 346.942 27.978 L 335.231 27.978 L 335.231 31.972 L 352.661 31.972 L 343.846 5.126 C 343.001 2.164 340.273 0 337.04 0 C 333.816 0 331.09 2.164 330.245 5.126 Z M 335.406 21.798 L 336.949 17.218 L 338.558 21.798 L 335.406 21.798 Z M 334.77 8.653 L 326.875 31.972 L 331.963 31.972 L 335.228 22.306 L 335.228 26.878 L 345.48 26.878 L 339.394 8.653 C 339.082 7.639 338.162 4.721 337.077 4.721 C 335.989 4.721 335.066 7.636 334.77 8.653 L 334.77 8.653 Z M 306.904 5.089 L 322.157 5.089 L 322.157 0.727 L 306.539 0.727 C 302.326 0.727 298.912 4.15 298.912 8.363 L 298.912 24.349 C 298.912 28.561 302.326 31.976 306.539 31.976 L 322.157 31.976 L 322.157 11.621 L 309.81 11.621 L 309.81 15.618 L 317.795 15.618 L 317.795 27.607 L 306.904 27.607 C 304.893 27.607 303.274 25.983 303.274 23.978 L 303.274 8.715 C 303.274 6.716 304.893 5.089 306.904 5.089 Z M 309.81 16.71 L 309.81 21.075 L 312.348 21.075 L 312.348 22.163 L 309.81 22.163 C 309.208 22.163 308.718 21.674 308.718 21.075 L 308.718 11.624 C 308.718 11.022 309.208 10.533 309.81 10.533 L 322.157 10.533 L 322.157 6.177 L 307.995 6.177 C 305.984 6.177 304.353 7.804 304.353 9.809 L 304.353 22.89 C 304.353 24.891 305.984 26.519 307.995 26.519 L 316.713 26.519 L 316.713 16.71 L 309.81 16.71 L 309.81 16.71 Z M 281.844 5.089 L 297.097 5.089 L 297.097 0.727 L 281.476 0.727 C 277.264 0.727 273.852 4.15 273.852 8.363 L 273.852 24.171 C 273.852 28.38 277.264 31.804 281.476 31.804 L 297.097 31.804 L 297.097 27.442 L 281.844 27.442 C 279.839 27.442 278.211 25.817 278.211 23.812 L 278.211 8.718 C 278.211 6.716 279.839 5.089 281.844 5.089 L 281.844 5.089 Z M 293.824 15.618 L 293.824 11.624 L 283.656 11.624 C 283.656 11.022 284.145 10.533 284.747 10.533 L 297.094 10.533 L 297.094 6.177 L 282.932 6.177 C 280.93 6.177 279.306 7.804 279.306 9.809 L 279.306 15.618 L 293.824 15.618 L 293.824 15.618 Z M 293.824 17.078 L 293.824 21.072 L 283.656 21.072 C 283.656 21.674 284.145 22.163 284.747 22.163 L 297.094 22.163 L 297.094 26.516 L 282.932 26.516 C 280.93 26.516 279.306 24.891 279.306 22.883 L 279.306 17.074 L 293.824 17.078 L 293.824 17.078 Z M 256.501 22.522 L 247.34 22.522 L 247.34 26.519 L 261.321 26.519 L 261.502 26.519 C 264.124 26.422 266.223 24.261 266.223 21.617 C 266.223 18.911 264.031 16.71 261.321 16.71 L 255.811 16.71 C 253.585 15.861 251.693 13.651 251.693 11.075 C 251.693 7.764 254.742 5.082 258.05 5.082 L 271.676 5.082 L 271.676 0.723 L 257.505 0.723 C 251.892 0.723 247.34 5.285 247.34 10.898 C 247.34 16.519 252.257 21.072 257.869 21.072 L 257.869 21.025 L 257.897 21.072 L 261.143 21.072 C 261.536 21.072 261.867 21.393 261.867 21.798 C 261.867 22.2 261.536 22.522 261.143 22.522 L 256.501 22.522 L 256.501 22.522 Z M 262.509 10.174 L 271.679 10.174 L 271.679 6.177 L 257.695 6.177 L 257.508 6.177 C 254.882 6.27 252.787 8.434 252.787 11.078 C 252.787 13.794 254.985 15.989 257.698 15.989 L 263.207 15.989 C 265.437 16.844 267.317 19.045 267.317 21.621 C 267.317 24.932 264.271 27.613 260.959 27.613 L 247.343 27.613 L 247.343 31.976 L 261.505 31.976 C 267.121 31.976 271.679 27.423 271.679 21.801 C 271.679 16.189 266.762 11.627 261.146 11.627 L 261.146 11.683 L 261.112 11.627 L 257.876 11.627 C 257.47 11.627 257.149 11.309 257.149 10.904 C 257.149 10.511 257.47 10.18 257.876 10.18 L 262.509 10.174 L 262.509 10.174 Z" style="fill-opacity: 1; fill: rgb(255, 253, 253);"/>
  <path d="M 79.377 209.009 C 72.902 208.613 66.409 207.78 60.01 206.65 C 33.976 202.06 21.866 195.912 14.6 193.058 C 11.127 191.694 7.733 190.404 3.959 191.789 C 3.529 191.949 3.023 191.939 2.553 191.949 C 0.154 191.974 -0.581 191.041 0.461 188.9 C 1.701 186.351 3.159 183.898 4.624 181.462 C 8.6 174.868 12.628 168.306 16.638 161.731 C 16.823 161.429 17.034 161.14 17.216 160.833 C 18.032 159.463 18.93 158.198 20.805 158.459 C 22.566 158.706 22.946 160.16 23.314 161.535 C 24.12 164.534 25.95 166.766 28.357 168.626 C 34.049 173.034 40.483 175.998 47.227 178.353 C 55.978 181.406 64.983 183.314 74.129 184.749 C 84.959 186.451 95.846 186.668 106.719 186.037 C 115.938 185.5 125.019 183.836 133.707 180.441 C 138.997 178.375 143.007 174.727 146.223 170.268 C 150.483 164.355 148.738 156.223 142.929 151.601 C 135.041 145.322 125.866 142.838 116.148 141.17 C 107.41 139.673 98.684 139.833 89.939 139.946 C 85.832 139.999 76.017 140.389 72.252 143.88 C 70.868 145.101 69.768 145.193 69.109 144.599 C 68.449 144.003 68.421 143.057 68.415 142.232 C 68.34 133.694 68.331 125.153 68.387 116.619 C 68.406 113.824 69.712 112.977 71.878 114.497 C 74.614 116.412 77.653 117.25 80.824 117.658 C 86.09 118.334 103.284 117.737 106.797 117.279 C 116.189 116.05 115.367 116.198 120.849 114.729 C 126.714 113.159 132.312 109.039 135.233 105.639 C 135.279 105.582 135.327 105.526 135.374 105.469 C 139.446 100.565 138.077 94.919 134.291 90.875 C 130.651 86.994 126.08 84.51 120.987 83.01 C 112.641 80.547 104.094 79.2 95.421 79.609 C 79.719 80.347 64.321 82.746 50.125 90.049 C 46.876 91.722 43.826 93.826 40.825 95.934 C 38.263 97.73 36.972 100.364 36.9 103.535 C 36.863 105.184 37.125 107.067 35.166 107.787 C 33.192 108.512 32.171 106.794 31.044 105.652 C 23.812 98.307 16.613 90.931 9.404 83.563 C 8.989 83.138 8.528 82.733 8.22 82.237 C 7.35 80.83 7.887 79.659 9.555 79.467 C 11.422 79.251 13.425 79.546 15.159 78.981 C 17.724 78.145 20.12 76.78 22.56 75.583 C 29.044 72.403 35.359 68.82 42.021 66.079 C 52.571 61.739 63.677 59.407 75.018 58 C 85.873 56.653 105.03 56.09 118.886 58.138 C 128.146 59.539 137.327 61.397 145.924 65.232 C 153.507 68.609 160.914 72.384 166.575 78.761 C 170.667 83.37 173.417 88.523 174.337 94.769 C 175.219 100.756 174.237 106.227 171.674 111.599 C 169.914 115.297 167.276 117.693 163.649 119.869 C 156.534 124.137 152.324 125.201 151.423 125.75 C 149.99 126.62 149.928 127.782 151.387 128.617 C 152.7 129.368 154.21 129.813 155.673 130.269 C 164.236 132.941 171.59 137.641 177.719 144.081 C 182.2 148.782 184.85 154.415 185.742 161.074 C 186.655 167.894 185.054 173.922 182.105 179.851 C 179.813 184.463 176.01 187.71 172.011 190.652 C 163.919 196.608 154.911 200.637 145.249 203.498 C 138.062 205.623 130.774 207.065 123.395 208.041 C 98.169 210.798 85.283 209.369 79.377 209.009 Z M 373.477 210.17 C 370.639 207.177 363.006 206.907 361.819 206.907 C 308.356 206.907 254.895 206.904 201.429 206.907 C 195.993 206.907 195.017 207.576 195.682 200.688 C 196.772 189.415 200.913 178.94 209.099 170.852 C 210.666 169.257 211.19 168.716 214.773 165.47 C 229.951 151.714 260.195 140.687 260.195 140.687 C 260.195 140.687 285.499 131.342 299.711 125.75 C 306.094 123.239 312.327 120.34 318.013 116.406 C 338.625 100.157 327.923 84.03 300.745 80.272 C 281.71 77.549 264.368 82.196 248.335 92.42 C 246.244 93.757 244.476 95.089 242.455 96.54 C 238.872 99.57 235.795 103.105 235.129 107.011 C 234.771 109.118 235.114 110.572 235.158 110.917 C 235.293 112.009 235.625 113.743 234.816 114.537 C 233.839 115.492 231.81 114.534 230.909 113.68 C 222.648 105.874 214.375 98.084 206.104 90.288 C 205.586 89.798 204.631 88.755 204.631 88.755 C 204.631 88.755 203.727 87.706 203.695 86.988 C 203.661 86.181 204.455 85.421 205.403 85.126 C 209.91 84.293 211.988 84.03 214.692 82.051 C 221.97 76.733 229.574 71.976 237.698 68.016 C 248.556 62.719 259.975 59.573 271.932 57.962 C 281.129 56.722 308.138 52.514 339.689 66.543 C 348.009 70.192 355.146 75.361 360.525 82.651 C 363.709 86.965 375.706 110.622 351.256 129.518 C 342.515 136.533 332.081 140.866 321.537 144.548 C 312.512 147.699 305.89 150.065 291.123 154.333 C 279.911 157.667 271.863 160.277 259.033 166.365 C 248.829 171.203 242.128 177.088 242.128 177.088 C 242.128 177.088 238.787 179.666 239.434 181.681 C 239.993 183.433 242.784 183.258 244.423 183.261 C 283.899 183.286 323.376 183.276 362.852 183.28 C 366.936 183.28 370.896 182.994 374.014 179.785 C 374.47 179.317 375.669 179.066 376.213 179.336 C 376.733 179.596 377.094 180.671 377.1 181.386 C 377.16 190.633 377.164 200.085 377.111 209.329 C 377.103 210.227 376.809 210.547 376.363 210.808 C 375.688 211.2 374.255 210.993 373.477 210.17 Z M 426.881 58.044 C 435.296 58.044 443.714 58.044 452.132 58.048 C 452.961 58.048 453.8 57.984 454.619 58.082 C 456.497 58.304 456.786 59.099 455.608 60.631 C 453.505 63.372 453.523 63.667 455.916 66.201 C 455.997 66.286 456.085 66.368 456.166 66.453 C 467.913 78.335 479.66 90.218 491.41 102.1 C 491.994 102.691 492.543 103.331 493.215 103.808 C 494.393 104.656 495.658 104.675 496.816 103.739 C 497.463 103.224 498.034 102.612 498.615 102.021 C 510.218 90.322 521.817 78.622 533.415 66.92 C 533.833 66.5 534.269 66.091 534.64 65.63 C 536.188 63.708 536.15 63.03 534.709 60.97 C 533.409 59.215 533.409 58.144 536.059 58.079 C 536.637 58.063 537.237 58.048 537.83 58.048 C 554.904 58.048 571.977 58.044 589.048 58.054 C 590.106 58.054 591.196 58.04 592.22 58.264 C 592.656 58.361 593.187 59.017 593.26 59.485 C 593.331 59.943 593.011 60.751 592.628 60.942 C 591.476 61.52 590.238 62.016 588.979 62.292 C 584.201 63.338 580.307 65.696 576.853 69.215 C 561.992 84.36 546.976 99.352 532.043 114.424 C 528.297 118.211 524.614 122.073 520.944 125.936 C 518.62 128.378 518.614 129.531 520.969 131.939 C 525.104 136.159 529.355 140.266 533.472 144.502 C 536.52 147.641 539.356 150.992 542.43 154.103 C 550.601 162.365 558.871 170.526 567.053 178.774 C 572.561 184.325 578.017 189.924 583.431 195.569 C 586.546 198.822 590.176 201.092 594.556 202.213 C 596.151 202.616 597.711 203.225 599.219 203.893 C 599.627 204.075 600.054 204.851 599.994 205.285 C 599.928 205.731 599.344 206.304 598.873 206.455 C 598.104 206.697 597.24 206.7 596.421 206.7 C 578.991 206.713 561.565 206.71 544.135 206.7 C 543.428 206.7 542.694 206.716 542.022 206.525 C 540.914 206.211 540.496 205.541 541.18 204.393 C 541.758 203.425 542.668 202.324 542.565 201.375 C 542.449 200.371 541.416 199.384 540.609 198.562 C 527.088 184.765 513.546 170.993 500.006 157.218 C 499.51 156.71 499.008 156.205 498.496 155.711 C 495.504 152.819 494.408 152.782 491.413 155.765 C 482.756 164.374 474.09 172.981 465.511 181.675 C 459.941 187.321 454.512 193.108 449.03 198.847 C 446.964 201.008 446.967 201.146 448.533 204.012 C 449.428 205.648 449.093 206.371 447.222 206.638 C 446.411 206.756 445.569 206.71 444.738 206.71 C 427.905 206.713 411.068 206.731 394.235 206.682 C 392.722 206.675 390.191 207.087 390.059 205.246 C 389.796 203.321 392.119 203.225 393.484 202.901 C 399.613 201.466 404.296 197.972 408.632 193.522 C 422.45 179.349 436.499 165.404 450.408 151.319 C 454.726 146.944 458.855 142.382 463.122 137.955 C 464.767 136.253 466.591 134.731 468.275 133.066 C 471.788 129.578 471.8 128.648 468.419 125.235 C 458.17 114.867 447.896 104.524 437.654 94.15 C 429.327 85.722 420.969 77.32 412.748 68.786 C 409.583 65.502 405.865 63.457 401.492 62.437 C 400.685 62.249 399.893 61.997 399.099 61.752 C 397.974 61.404 396.584 61.14 396.738 59.605 C 396.895 58.044 398.266 58.044 399.486 58.048 C 400.198 58.051 400.911 58.044 401.62 58.044 C 410.041 58.044 418.463 58.044 426.881 58.044 Z" id="path23" style="fill-opacity: 1; fill: rgb(255, 255, 255);"/>
</svg>