<?xml version="1.0" encoding="utf-8"?>
<svg version="1.1" xmlns="http://www.w3.org/2000/svg">
  <path id="path16" d="M 145.308 2.259 L 141.43 14.092 L 143.344 14.092 L 147.23 2.667 C 147.371 2.144 147.796 1.762 148.298 1.762 C 148.804 1.762 149.229 2.144 149.37 2.667 L 152.654 12.331 L 147.502 12.331 L 147.502 14.092 L 155.171 14.092 L 151.292 2.259 C 150.92 0.954 149.72 0 148.298 0 C 146.879 0 145.68 0.954 145.308 2.259 Z M 147.579 9.608 L 148.258 7.589 L 148.965 9.608 L 147.579 9.608 Z M 147.299 3.814 L 143.825 14.092 L 146.064 14.092 L 147.5 9.832 L 147.5 11.846 L 152.011 11.846 L 149.333 3.814 C 149.196 3.367 148.791 2.081 148.314 2.081 C 147.835 2.081 147.429 3.366 147.299 3.814 L 147.299 3.814 Z M 135.038 2.243 L 141.749 2.243 L 141.749 0.321 L 134.877 0.321 C 133.023 0.321 131.521 1.829 131.521 3.686 L 131.521 10.732 C 131.521 12.589 133.023 14.093 134.877 14.093 L 141.749 14.093 L 141.749 5.122 L 136.316 5.122 L 136.316 6.884 L 139.83 6.884 L 139.83 12.168 L 135.038 12.168 C 134.153 12.168 133.441 11.453 133.441 10.568 L 133.441 3.842 C 133.441 2.96 134.153 2.243 135.038 2.243 Z M 136.316 7.365 L 136.316 9.289 L 137.433 9.289 L 137.433 9.769 L 136.316 9.769 C 136.051 9.769 135.836 9.553 135.836 9.289 L 135.836 5.124 C 135.836 4.858 136.051 4.643 136.316 4.643 L 141.749 4.643 L 141.749 2.723 L 135.518 2.723 C 134.633 2.723 133.915 3.44 133.915 4.323 L 133.915 10.089 C 133.915 10.971 134.633 11.688 135.518 11.688 L 139.354 11.688 L 139.354 7.365 L 136.316 7.365 L 136.316 7.365 Z M 124.011 2.243 L 130.723 2.243 L 130.723 0.321 L 123.849 0.321 C 121.996 0.321 120.495 1.829 120.495 3.686 L 120.495 10.653 C 120.495 12.509 121.996 14.018 123.849 14.018 L 130.723 14.018 L 130.723 12.095 L 124.011 12.095 C 123.129 12.095 122.413 11.379 122.413 10.495 L 122.413 3.843 C 122.413 2.96 123.129 2.243 124.011 2.243 L 124.011 2.243 Z M 129.283 6.884 L 129.283 5.124 L 124.809 5.124 C 124.809 4.858 125.024 4.643 125.289 4.643 L 130.721 4.643 L 130.721 2.723 L 124.49 2.723 C 123.609 2.723 122.895 3.44 122.895 4.323 L 122.895 6.884 L 129.283 6.884 L 129.283 6.884 Z M 129.283 7.527 L 129.283 9.288 L 124.809 9.288 C 124.809 9.553 125.024 9.769 125.289 9.769 L 130.721 9.769 L 130.721 11.687 L 124.49 11.687 C 123.609 11.687 122.895 10.971 122.895 10.086 L 122.895 7.526 L 129.283 7.527 L 129.283 7.527 Z M 112.86 9.927 L 108.83 9.927 L 108.83 11.688 L 114.981 11.688 L 115.061 11.688 C 116.215 11.646 117.138 10.693 117.138 9.527 C 117.138 8.335 116.174 7.365 114.981 7.365 L 112.557 7.365 C 111.577 6.991 110.745 6.016 110.745 4.881 C 110.745 3.422 112.086 2.24 113.542 2.24 L 119.537 2.24 L 119.537 0.319 L 113.302 0.319 C 110.832 0.319 108.83 2.329 108.83 4.803 C 108.83 7.281 110.993 9.288 113.462 9.288 L 113.462 9.267 L 113.475 9.288 L 114.903 9.288 C 115.076 9.288 115.221 9.429 115.221 9.608 C 115.221 9.785 115.076 9.927 114.903 9.927 L 112.86 9.927 L 112.86 9.927 Z M 115.504 4.485 L 119.539 4.485 L 119.539 2.723 L 113.386 2.723 L 113.303 2.723 C 112.148 2.764 111.226 3.717 111.226 4.882 C 111.226 6.079 112.193 7.047 113.387 7.047 L 115.811 7.047 C 116.792 7.424 117.619 8.394 117.619 9.529 C 117.619 10.989 116.279 12.171 114.822 12.171 L 108.831 12.171 L 108.831 14.093 L 115.062 14.093 C 117.533 14.093 119.539 12.087 119.539 9.609 C 119.539 7.135 117.375 5.125 114.904 5.125 L 114.904 5.15 L 114.889 5.125 L 113.465 5.125 C 113.287 5.125 113.146 4.985 113.146 4.806 C 113.146 4.633 113.287 4.487 113.465 4.487 L 115.504 4.485 L 115.504 4.485 Z" style="fill-opacity: 1; fill: rgb(255, 253, 253);"/>
  <path d="M 34.926 92.122 C 32.077 91.948 29.22 91.58 26.404 91.083 C 14.949 89.059 9.621 86.349 6.424 85.092 C 4.896 84.49 3.402 83.922 1.742 84.532 C 1.553 84.603 1.33 84.598 1.123 84.603 C 0.068 84.614 -0.256 84.203 0.203 83.259 C 0.748 82.135 1.39 81.054 2.034 79.981 C 3.784 77.075 5.556 74.183 7.321 71.285 C 7.402 71.151 7.495 71.024 7.575 70.889 C 7.934 70.285 8.329 69.727 9.154 69.842 C 9.929 69.951 10.096 70.591 10.258 71.197 C 10.613 72.52 11.418 73.503 12.477 74.323 C 14.981 76.266 17.812 77.572 20.78 78.61 C 24.63 79.956 28.592 80.797 32.617 81.43 C 37.382 82.179 42.172 82.275 46.956 81.997 C 51.013 81.761 55.008 81.027 58.831 79.531 C 61.159 78.62 62.923 77.012 64.338 75.047 C 66.212 72.441 65.445 68.856 62.889 66.819 C 59.418 64.052 55.381 62.957 51.105 62.222 C 47.26 61.562 43.421 61.633 39.573 61.682 C 37.766 61.706 33.447 61.877 31.791 63.416 C 31.182 63.954 30.698 63.995 30.408 63.734 C 30.117 63.47 30.105 63.053 30.103 62.69 C 30.07 58.926 30.066 55.162 30.09 51.4 C 30.099 50.169 30.673 49.796 31.626 50.466 C 32.83 51.309 34.167 51.679 35.562 51.859 C 37.88 52.157 45.445 51.893 46.991 51.692 C 51.123 51.15 50.761 51.215 53.173 50.568 C 55.754 49.876 58.217 48.06 59.502 46.561 C 59.523 46.536 59.544 46.511 59.564 46.486 C 61.356 44.325 60.754 41.836 59.088 40.054 C 57.486 38.343 55.475 37.248 53.234 36.587 C 49.562 35.502 45.801 34.908 41.985 35.088 C 35.076 35.414 28.301 36.471 22.055 39.69 C 20.625 40.428 19.283 41.354 17.963 42.284 C 16.836 43.075 16.268 44.236 16.236 45.633 C 16.22 46.361 16.335 47.19 15.473 47.508 C 14.604 47.827 14.155 47.07 13.659 46.567 C 10.477 43.33 7.31 40.079 4.138 36.831 C 3.955 36.644 3.752 36.466 3.617 36.246 C 3.234 35.626 3.47 35.11 4.204 35.025 C 5.026 34.93 5.907 35.06 6.67 34.812 C 7.798 34.443 8.853 33.841 9.926 33.314 C 12.779 31.912 15.558 30.333 18.489 29.125 C 23.131 27.212 28.018 26.184 33.008 25.564 C 37.784 24.97 46.213 24.723 52.31 25.625 C 56.384 26.242 60.424 27.062 64.206 28.751 C 67.543 30.24 70.802 31.904 73.293 34.715 C 75.093 36.746 76.303 39.017 76.708 41.77 C 77.096 44.409 76.664 46.821 75.536 49.189 C 74.762 50.818 73.601 51.874 72.005 52.833 C 68.875 54.714 67.022 55.183 66.626 55.425 C 65.996 55.809 65.968 56.321 66.61 56.688 C 67.188 57.02 67.852 57.216 68.496 57.417 C 72.264 58.595 75.5 60.666 78.196 63.505 C 80.168 65.577 81.334 68.06 81.726 70.995 C 82.128 74 81.424 76.658 80.126 79.27 C 79.118 81.304 77.444 82.734 75.685 84.031 C 72.124 86.657 68.161 88.432 63.909 89.693 C 60.747 90.63 57.54 91.266 54.294 91.696 C 43.194 92.911 37.524 92.281 34.926 92.122 Z M 164.33 92.634 C 163.081 91.315 159.723 91.196 159.2 91.196 C 135.677 91.196 112.154 91.195 88.629 91.196 C 86.237 91.196 85.807 91.49 86.1 88.455 C 86.58 83.487 88.402 78.87 92.003 75.304 C 92.693 74.601 92.924 74.363 94.5 72.932 C 101.178 66.869 114.486 62.009 114.486 62.009 C 114.486 62.009 125.62 57.89 131.873 55.425 C 134.681 54.318 137.424 53.041 139.926 51.307 C 148.995 44.145 144.286 37.037 132.328 35.381 C 123.952 34.181 116.322 36.228 109.267 40.735 C 108.347 41.324 107.569 41.911 106.68 42.551 C 105.104 43.886 103.75 45.444 103.457 47.166 C 103.299 48.095 103.45 48.736 103.469 48.887 C 103.529 49.369 103.675 50.133 103.319 50.483 C 102.889 50.904 101.996 50.482 101.6 50.105 C 97.965 46.665 94.325 43.231 90.686 39.795 C 90.458 39.579 90.038 39.119 90.038 39.119 C 90.038 39.119 89.64 38.657 89.626 38.341 C 89.611 37.985 89.96 37.65 90.377 37.52 C 92.36 37.153 93.275 37.037 94.464 36.164 C 97.667 33.821 101.012 31.724 104.587 29.979 C 109.365 27.644 114.389 26.257 119.65 25.547 C 123.697 25.001 135.581 23.146 149.463 29.329 C 153.124 30.937 156.264 33.216 158.631 36.429 C 160.032 38.331 165.311 48.758 154.553 57.086 C 150.707 60.178 146.116 62.088 141.476 63.711 C 137.505 65.1 134.592 66.143 128.094 68.024 C 123.161 69.492 119.62 70.643 113.974 73.327 C 109.485 75.459 106.536 78.053 106.536 78.053 C 106.536 78.053 105.066 79.189 105.351 80.078 C 105.597 80.85 106.825 80.773 107.546 80.774 C 124.916 80.785 142.285 80.78 159.655 80.782 C 161.452 80.782 163.194 80.656 164.566 79.241 C 164.767 79.035 165.294 78.925 165.534 79.044 C 165.762 79.158 165.921 79.632 165.924 79.947 C 165.95 84.023 165.952 88.189 165.929 92.264 C 165.925 92.659 165.796 92.801 165.6 92.916 C 165.303 93.088 164.672 92.997 164.33 92.634 Z M 187.828 25.583 C 191.53 25.583 195.234 25.583 198.938 25.585 C 199.303 25.585 199.672 25.557 200.032 25.6 C 200.859 25.698 200.986 26.049 200.467 26.724 C 199.542 27.932 199.55 28.061 200.603 29.178 C 200.639 29.216 200.677 29.252 200.713 29.289 C 205.882 34.526 211.05 39.764 216.22 45.001 C 216.477 45.262 216.719 45.544 217.015 45.755 C 217.533 46.128 218.089 46.136 218.599 45.724 C 218.884 45.497 219.135 45.227 219.391 44.966 C 224.496 39.81 229.599 34.654 234.703 29.496 C 234.886 29.31 235.078 29.13 235.242 28.927 C 235.923 28.08 235.906 27.781 235.272 26.873 C 234.7 26.1 234.7 25.627 235.866 25.599 C 236.12 25.592 236.384 25.585 236.645 25.585 C 244.158 25.585 251.67 25.583 259.181 25.588 C 259.647 25.588 260.126 25.582 260.577 25.68 C 260.769 25.723 261.002 26.012 261.034 26.218 C 261.066 26.42 260.925 26.776 260.756 26.86 C 260.249 27.116 259.705 27.334 259.151 27.455 C 257.048 27.917 255.335 28.956 253.815 30.507 C 247.276 37.182 240.669 43.79 234.099 50.434 C 232.451 52.103 230.83 53.805 229.215 55.507 C 228.193 56.583 228.19 57.092 229.226 58.153 C 231.046 60.013 232.916 61.823 234.728 63.691 C 236.069 65.074 237.317 66.55 238.669 67.922 C 242.264 71.564 245.903 75.16 249.503 78.796 C 251.927 81.243 254.327 83.711 256.71 86.198 C 258.08 87.633 259.677 88.632 261.605 89.127 C 262.306 89.305 262.993 89.573 263.656 89.868 C 263.836 89.948 264.024 90.289 263.997 90.481 C 263.968 90.678 263.711 90.93 263.504 90.996 C 263.166 91.104 262.786 91.105 262.425 91.105 C 254.756 91.111 247.089 91.109 239.419 91.105 C 239.108 91.105 238.785 91.112 238.49 91.028 C 238.002 90.889 237.818 90.594 238.119 90.088 C 238.373 89.661 238.774 89.176 238.729 88.758 C 238.678 88.315 238.223 87.88 237.868 87.517 C 231.919 81.437 225.96 75.367 220.003 69.295 C 219.784 69.071 219.563 68.848 219.338 68.631 C 218.022 67.356 217.539 67.34 216.222 68.655 C 212.413 72.45 208.6 76.243 204.825 80.075 C 202.374 82.563 199.985 85.114 197.573 87.644 C 196.664 88.596 196.665 88.656 197.354 89.92 C 197.748 90.641 197.601 90.959 196.778 91.078 C 196.421 91.13 196.05 91.109 195.685 91.109 C 188.278 91.111 180.87 91.119 173.463 91.097 C 172.798 91.094 171.684 91.275 171.626 90.464 C 171.51 89.615 172.532 89.573 173.133 89.43 C 175.83 88.798 177.89 87.258 179.798 85.297 C 185.878 79.05 192.06 72.903 198.179 66.695 C 200.079 64.766 201.896 62.756 203.774 60.805 C 204.497 60.054 205.3 59.384 206.041 58.65 C 207.587 57.112 207.592 56.702 206.104 55.198 C 201.595 50.628 197.074 46.07 192.568 41.497 C 188.904 37.783 185.226 34.08 181.609 30.318 C 180.216 28.871 178.581 27.969 176.656 27.519 C 176.301 27.437 175.953 27.326 175.604 27.218 C 175.109 27.065 174.497 26.948 174.565 26.271 C 174.634 25.583 175.237 25.583 175.774 25.585 C 176.087 25.586 176.401 25.583 176.713 25.583 C 180.418 25.583 184.124 25.583 187.828 25.583 Z" id="path23" style="fill-opacity: 1; fill: rgb(255, 255, 255);"/>
</svg>