<?xml version="1.0" encoding="utf-8"?>
<svg xmlns="http://www.w3.org/2000/svg">
  <path d="M 14.451 13.356 L 14.451 11.623 L 12.878 11.045 C 12.741 10.516 12.558 10.017 12.286 9.557 L 12.302 9.555 L 13.05 7.996 L 11.828 6.771 L 10.271 7.513 L 10.269 7.515 C 9.81 7.243 9.311 7.071 8.782 6.934 L 8.205 5.345 L 6.471 5.345 L 5.894 6.934 C 5.364 7.071 4.865 7.262 4.406 7.534 L 4.403 7.522 L 2.844 6.775 L 1.619 7.998 L 2.361 9.556 L 2.363 9.558 C 2.091 10.017 1.822 10.517 1.685 11.046 L 0 11.623 L 0 13.356 L 1.685 13.934 C 1.822 14.463 2.062 14.963 2.334 15.422 L 2.346 15.424 L 1.612 16.983 L 2.841 18.209 L 4.402 17.467 L 4.405 17.465 C 4.864 17.736 5.364 17.99 5.893 18.127 L 6.471 19.797 L 8.205 19.797 L 8.782 18.127 C 9.312 17.99 9.811 17.758 10.27 17.486 L 10.273 17.478 L 11.832 18.214 L 13.057 16.986 L 12.315 15.425 L 12.313 15.423 C 12.585 14.963 12.741 14.463 12.878 13.934 L 14.451 13.356 Z M 7.338 15.378 C 5.743 15.378 4.449 14.085 4.449 12.49 C 4.449 10.895 5.743 9.601 7.338 9.601 C 8.934 9.601 10.227 10.895 10.227 12.49 C 10.227 14.085 8.934 15.378 7.338 15.378 Z" style="fill: rgb(204, 204, 204);"/>
  <path d="M 19.991 2.884 L 19.612 1.969 L 18.631 2.018 C 18.443 1.768 18.225 1.55 17.981 1.367 L 17.982 1.365 L 18.034 0.38 L 17.119 0 L 16.458 0.733 L 16.458 0.735 C 16.156 0.692 15.846 0.689 15.537 0.733 L 14.876 0 L 13.961 0.379 L 14.012 1.364 C 13.763 1.552 13.546 1.773 13.362 2.017 L 13.361 2.016 L 12.375 1.965 L 11.997 2.88 L 12.729 3.54 L 12.731 3.541 C 12.696 3.824 12.681 4.155 12.725 4.464 L 11.987 5.127 L 12.366 6.042 L 13.356 5.989 C 13.544 6.239 13.767 6.455 14.011 6.638 L 14.011 6.64 L 13.961 7.625 L 14.964 8.004 L 15.712 7.271 L 15.712 7.269 C 15.906 7.305 16.237 7.314 16.546 7.271 L 17.163 8.004 L 18.056 7.625 L 17.994 6.64 C 18.244 6.452 18.456 6.231 18.639 5.987 L 18.638 5.988 L 19.622 6.038 L 20 5.123 L 19.267 4.463 L 19.265 4.462 C 19.308 4.16 19.306 3.852 19.263 3.543 L 19.991 2.884 Z M 16.629 5.527 C 15.787 5.875 14.822 5.476 14.473 4.633 C 14.124 3.791 14.524 2.826 15.366 2.477 C 16.209 2.128 17.174 2.528 17.523 3.37 C 17.871 4.213 17.471 5.178 16.629 5.527 Z" style="fill: rgb(204, 204, 204);"/>
  <path d="M 37.82 0.65 L 36.95 5.45 L 32.81 5.45 L 30.38 19.4 L 24.68 19.4 L 27.11 5.45 L 23 5.45 L 23.87 0.65 L 37.82 0.65 Z M 44.39 6.92 L 43.01 14.72 L 45.38 14.72 C 46.16 14.72 46.74 14.627 47.12 14.44 C 47.5 14.247 47.75 13.81 47.87 13.13 L 49.25 5.33 L 46.85 5.33 C 46.09 5.33 45.52 5.423 45.14 5.61 C 44.76 5.803 44.51 6.24 44.39 6.92 Z M 47.84 0.2 C 50.38 0.2 52.19 0.697 53.27 1.69 C 54.35 2.677 54.89 4.2 54.89 6.26 C 54.89 8.32 54.563 10.477 53.91 12.73 C 53.263 14.977 52.233 16.723 50.82 17.97 C 49.413 19.223 47.353 19.85 44.64 19.85 C 41.933 19.85 40.04 19.357 38.96 18.37 C 37.88 17.377 37.34 15.85 37.34 13.79 C 37.34 12.81 37.48 11.517 37.76 9.91 C 38.04 8.297 38.41 6.907 38.87 5.74 C 39.33 4.567 39.95 3.55 40.73 2.69 C 42.23 1.03 44.6 0.2 47.84 0.2 Z M 63.289 6.92 L 61.909 14.72 L 64.279 14.72 C 65.059 14.72 65.639 14.627 66.019 14.44 C 66.399 14.247 66.649 13.81 66.769 13.13 L 68.149 5.33 L 65.749 5.33 C 64.989 5.33 64.419 5.423 64.039 5.61 C 63.659 5.803 63.409 6.24 63.289 6.92 Z M 66.739 0.2 C 69.279 0.2 71.089 0.697 72.169 1.69 C 73.249 2.677 73.789 4.2 73.789 6.26 C 73.789 8.32 73.462 10.477 72.809 12.73 C 72.162 14.977 71.132 16.723 69.719 17.97 C 68.312 19.223 66.252 19.85 63.539 19.85 C 60.832 19.85 58.939 19.357 57.859 18.37 C 56.779 17.377 56.239 15.85 56.239 13.79 C 56.239 12.81 56.379 11.517 56.659 9.91 C 56.939 8.297 57.309 6.907 57.769 5.74 C 58.229 4.567 58.849 3.55 59.629 2.69 C 61.129 1.03 63.499 0.2 66.739 0.2 Z M 86.959 14.6 L 86.119 19.4 L 74.719 19.4 L 78.019 0.65 L 83.719 0.65 L 81.259 14.6 L 86.959 14.6 Z M 86.958 19.07 L 88.638 14.12 C 90.318 14.58 91.858 14.81 93.258 14.81 C 94.658 14.81 95.788 14.75 96.648 14.63 L 96.888 13.13 L 94.398 12.89 C 92.498 12.71 91.152 12.28 90.358 11.6 C 89.572 10.92 89.178 9.96 89.178 8.72 C 89.178 8.18 89.238 7.58 89.358 6.92 C 89.818 4.36 90.652 2.6 91.858 1.64 C 93.072 0.68 94.948 0.2 97.488 0.2 C 100.028 0.2 102.268 0.45 104.208 0.95 L 102.648 5.75 C 100.908 5.45 99.508 5.3 98.448 5.3 C 97.388 5.3 96.488 5.35 95.748 5.45 L 95.508 6.92 L 97.518 7.13 C 99.558 7.35 101.008 7.837 101.868 8.59 C 102.728 9.337 103.158 10.34 103.158 11.6 C 103.158 12.88 102.878 14.2 102.318 15.56 C 102.038 16.26 101.732 16.847 101.398 17.32 C 101.072 17.787 100.652 18.183 100.138 18.51 C 99.632 18.843 99.168 19.093 98.748 19.26 C 98.328 19.433 97.798 19.56 97.158 19.64 C 96.218 19.78 95.068 19.85 93.708 19.85 C 91.228 19.85 88.978 19.59 86.958 19.07 Z" style="white-space: pre; fill: rgb(255, 255, 255);"/>
</svg>