<?xml version="1.0" encoding="utf-8"?>
<svg xmlns="http://www.w3.org/2000/svg">
  <path d="M 19.685 19.045 L 21.365 14.095 C 23.045 14.555 24.585 14.785 25.985 14.785 C 27.385 14.785 28.515 14.725 29.375 14.605 L 29.615 13.105 L 27.125 12.865 C 25.225 12.685 23.878 12.255 23.085 11.575 C 22.298 10.895 21.905 9.935 21.905 8.695 C 21.905 8.155 21.965 7.555 22.085 6.895 C 22.545 4.335 23.378 2.575 24.585 1.615 C 25.798 0.655 27.675 0.175 30.215 0.175 C 32.755 0.175 34.995 0.425 36.935 0.925 L 35.375 5.725 C 33.635 5.425 32.235 5.275 31.175 5.275 C 30.115 5.275 29.215 5.325 28.475 5.425 L 28.235 6.895 L 30.245 7.105 C 32.285 7.325 33.735 7.812 34.595 8.565 C 35.455 9.312 35.885 10.315 35.885 11.575 C 35.885 12.855 35.605 14.175 35.045 15.535 C 34.765 16.235 34.458 16.822 34.125 17.295 C 33.798 17.762 33.378 18.158 32.865 18.485 C 32.358 18.818 31.895 19.068 31.475 19.235 C 31.055 19.408 30.525 19.535 29.885 19.615 C 28.945 19.755 27.795 19.825 26.435 19.825 C 23.955 19.825 21.705 19.565 19.685 19.045 Z M 50.885 7.945 L 50.105 12.295 L 44.405 12.295 L 44.015 14.575 L 51.005 14.575 L 50.165 19.375 L 37.475 19.375 L 40.775 0.625 L 53.315 0.625 L 51.755 5.425 L 45.605 5.425 L 45.185 7.945 L 50.885 7.945 Z M 69.275 0.625 L 68.405 5.425 L 64.265 5.425 L 61.835 19.375 L 56.135 19.375 L 58.565 5.425 L 54.455 5.425 L 55.325 0.625 L 69.275 0.625 Z M 84.275 0.625 L 83.405 5.425 L 79.265 5.425 L 76.835 19.375 L 71.135 19.375 L 73.565 5.425 L 69.455 5.425 L 70.325 0.625 L 84.275 0.625 Z M 88.835 19.375 L 83.135 19.375 L 86.435 0.625 L 92.135 0.625 L 88.835 19.375 Z M 108.215 19.375 L 102.845 19.375 L 99.785 12.715 C 99.705 12.575 99.665 12.378 99.665 12.125 C 99.665 11.878 99.685 11.595 99.725 11.275 L 99.485 11.275 L 98.075 19.375 L 92.375 19.375 L 95.675 0.625 L 101.045 0.625 L 104.105 7.285 C 104.165 7.425 104.195 7.622 104.195 7.875 C 104.195 8.122 104.175 8.405 104.135 8.725 L 104.375 8.725 L 105.815 0.625 L 111.515 0.625 L 108.215 19.375 Z M 122.225 13.855 L 122.375 13.045 L 120.935 13.045 L 121.745 8.455 L 128.615 8.455 L 126.845 18.475 C 124.405 19.375 121.955 19.825 119.495 19.825 C 117.035 19.825 115.258 19.335 114.165 18.355 C 113.078 17.375 112.535 15.865 112.535 13.825 C 112.535 12.965 112.675 11.695 112.955 10.015 C 113.555 6.535 114.615 4.025 116.135 2.485 C 117.655 0.945 120.175 0.175 123.695 0.175 C 124.435 0.175 125.378 0.255 126.525 0.415 C 127.678 0.575 128.525 0.755 129.065 0.955 L 127.415 5.545 C 125.915 5.265 124.538 5.125 123.285 5.125 C 122.038 5.125 121.145 5.225 120.605 5.425 C 120.065 5.625 119.745 6.025 119.645 6.625 L 118.175 15.115 L 120.065 15.115 C 120.745 15.115 121.248 15.042 121.575 14.895 C 121.908 14.742 122.125 14.395 122.225 13.855 Z M 129.065 19.045 L 130.745 14.095 C 132.425 14.555 133.965 14.785 135.365 14.785 C 136.765 14.785 137.895 14.725 138.755 14.605 L 138.995 13.105 L 136.505 12.865 C 134.605 12.685 133.258 12.255 132.465 11.575 C 131.678 10.895 131.285 9.935 131.285 8.695 C 131.285 8.155 131.345 7.555 131.465 6.895 C 131.925 4.335 132.758 2.575 133.965 1.615 C 135.178 0.655 137.055 0.175 139.595 0.175 C 142.135 0.175 144.375 0.425 146.315 0.925 L 144.755 5.725 C 143.015 5.425 141.615 5.275 140.555 5.275 C 139.495 5.275 138.595 5.325 137.855 5.425 L 137.615 6.895 L 139.625 7.105 C 141.665 7.325 143.115 7.812 143.975 8.565 C 144.835 9.312 145.265 10.315 145.265 11.575 C 145.265 12.855 144.985 14.175 144.425 15.535 C 144.145 16.235 143.838 16.822 143.505 17.295 C 143.178 17.762 142.758 18.158 142.245 18.485 C 141.738 18.818 141.275 19.068 140.855 19.235 C 140.435 19.408 139.905 19.535 139.265 19.615 C 138.325 19.755 137.175 19.825 135.815 19.825 C 133.335 19.825 131.085 19.565 129.065 19.045 Z" style="white-space: pre; fill: rgb(255, 255, 255);"/>
  <path d="M 14.451 13.356 L 14.451 11.623 L 12.878 11.045 C 12.741 10.516 12.558 10.017 12.286 9.557 L 12.302 9.555 L 13.05 7.996 L 11.828 6.771 L 10.271 7.513 L 10.269 7.515 C 9.81 7.243 9.311 7.071 8.782 6.934 L 8.205 5.345 L 6.471 5.345 L 5.894 6.934 C 5.364 7.071 4.865 7.262 4.406 7.534 L 4.403 7.522 L 2.844 6.775 L 1.619 7.998 L 2.361 9.556 L 2.363 9.558 C 2.091 10.017 1.822 10.517 1.685 11.046 L 0 11.623 L 0 13.356 L 1.685 13.934 C 1.822 14.463 2.062 14.963 2.334 15.422 L 2.346 15.424 L 1.612 16.983 L 2.841 18.209 L 4.402 17.467 L 4.405 17.465 C 4.864 17.736 5.364 17.99 5.893 18.127 L 6.471 19.797 L 8.205 19.797 L 8.782 18.127 C 9.312 17.99 9.811 17.758 10.27 17.486 L 10.273 17.478 L 11.832 18.214 L 13.057 16.986 L 12.315 15.425 L 12.313 15.423 C 12.585 14.963 12.741 14.463 12.878 13.934 L 14.451 13.356 Z M 7.338 15.378 C 5.743 15.378 4.449 14.085 4.449 12.49 C 4.449 10.895 5.743 9.601 7.338 9.601 C 8.934 9.601 10.227 10.895 10.227 12.49 C 10.227 14.085 8.934 15.378 7.338 15.378 Z" style="fill: rgb(255, 255, 255);"/>
  <path d="M 19.991 2.884 L 19.612 1.969 L 18.631 2.018 C 18.443 1.768 18.225 1.55 17.981 1.367 L 17.982 1.365 L 18.034 0.38 L 17.119 0 L 16.458 0.733 L 16.458 0.735 C 16.156 0.692 15.846 0.689 15.537 0.733 L 14.876 0 L 13.961 0.379 L 14.012 1.364 C 13.763 1.552 13.546 1.773 13.362 2.017 L 13.361 2.016 L 12.375 1.965 L 11.997 2.88 L 12.729 3.54 L 12.731 3.541 C 12.696 3.824 12.681 4.155 12.725 4.464 L 11.987 5.127 L 12.366 6.042 L 13.356 5.989 C 13.544 6.239 13.767 6.455 14.011 6.638 L 14.011 6.64 L 13.961 7.625 L 14.964 8.004 L 15.712 7.271 L 15.712 7.269 C 15.906 7.305 16.237 7.314 16.546 7.271 L 17.163 8.004 L 18.056 7.625 L 17.994 6.64 C 18.244 6.452 18.456 6.231 18.639 5.987 L 18.638 5.988 L 19.622 6.038 L 20 5.123 L 19.267 4.463 L 19.265 4.462 C 19.308 4.16 19.306 3.852 19.263 3.543 L 19.991 2.884 Z M 16.629 5.527 C 15.787 5.875 14.822 5.476 14.473 4.633 C 14.124 3.791 14.524 2.826 15.366 2.477 C 16.209 2.128 17.174 2.528 17.523 3.37 C 17.871 4.213 17.471 5.178 16.629 5.527 Z" style="fill: rgb(255, 255, 255);"/>
</svg>