<?xml version="1.0" encoding="utf-8"?>
<svg xmlns="http://www.w3.org/2000/svg">
  <g id="solarus_letters" transform="matrix(0.633566, 0, 0, 0.633566, -1.900699, -0.000155)">
    <path id="solarus_letter_s2" d="M36,37.14q-9.78-3.31-12.3-5.36a6.18,6.18,0,0,1-2.51-4.94,6.93,6.93,0,0,1,3.32-6.28c2.21-1.39,5.22-2.09,9-2.09A38.42,38.42,0,0,1,50.07,22l1.28-14a53.32,53.32,0,0,0-8.21-2A58.67,58.67,0,0,0,33,5.16q-14,0-22,5.9t-8,16.75q0,9.23,5.21,14.06T24.1,50.13q8,2.68,10.72,5.21a7.49,7.49,0,0,1,2.69,5.53A6.91,6.91,0,0,1,33.92,67a17.23,17.23,0,0,1-9.29,2.26A37.42,37.42,0,0,1,13,67.36a33.07,33.07,0,0,1-7.63-3.17L4,79.22q3.65,1.08,9.44,2.2A62.85,62.85,0,0,0,25.6,82.55q13.73,0,21.84-6t8.11-16.85q0-8.91-4.36-14T36,37.14Z" style="fill: rgb(255, 255, 255);"/>
    <path id="solarus_letter_la" d="M245.78,6.45,221.91,68.06H192.18V6.45H174.57V81.37l60.25-.1,6.12-16.43h29.74l6,16.43H296L266.49,6.45Zm-.22,45.4,10.51-30.38,10.1,30.38Z" style="fill: rgb(255, 255, 255);"/>
    <path id="solarus_letter_r" d="M347.43,59.36q-1.6-4.39-3.81-9.12a10.42,10.42,0,0,0-6.92-6q7.85-1.6,11.48-6.65a18.67,18.67,0,0,0,3.65-11.17q0-10.2-7-15.08T324.68,6.45H296V81.27h17.61V50.88H319a8.46,8.46,0,0,1,6.76,2.74,20.08,20.08,0,0,1,3.75,6.93L337,81.27H355.9l-8-20.94Zm-17-23.67C328.18,37.24,325,38,321,38h-7.41V19.33h6.87c4.44,0,7.77.73,10,2.19s3.39,3.85,3.39,7.15A7.9,7.9,0,0,1,330.47,35.69Z" style="fill: rgb(255, 255, 255);"/>
    <path id="solarus_letter_u" d="M402.27,49.6q0,9.56-3.47,14.54t-10.91,5c-4.87,0-8.47-1.61-10.85-4.83s-3.53-7.9-3.53-14.06V6.45H355.9V53.57q0,14.28,8.27,21.63T388,82.55q15.88,0,23.88-7.62t8-23V6.45H402.27Z" style="fill: rgb(255, 255, 255);"/>
    <path id="solarus_letter_s" d="M472.17,45.73q-4.35-5-15.18-8.59c-6.51-2.21-10.62-4-12.3-5.36a6.15,6.15,0,0,1-2.51-4.94,6.93,6.93,0,0,1,3.32-6.28c2.21-1.39,5.22-2.09,9-2.09A38.33,38.33,0,0,1,471,22l1.29-14a53.61,53.61,0,0,0-8.21-2A58.67,58.67,0,0,0,454,5.16q-14,0-22,5.9t-8,16.75c0,6.15,1.75,10.84,5.21,14.06s8.75,6,15.85,8.26q8,2.68,10.72,5.21a7.49,7.49,0,0,1,2.69,5.53,6.9,6.9,0,0,1-3.6,6.11,17.23,17.23,0,0,1-9.29,2.26A37.41,37.41,0,0,1,434,67.36c-3.86-1.25-6.42-2.31-7.64-3.17l-1.38,15c2.43.72,5.57,1.45,9.44,2.2a62.77,62.77,0,0,0,12.14,1.13q13.73,0,21.84-6t8.09-16.85Q476.51,50.78,472.17,45.73Z" style="fill: rgb(255, 255, 255);"/>
  </g>
  <path id="logo" d="M 70.389 0 C 44.306 -0.039 27.962 28.173 40.97 50.781 C 41.11 51.023 41.252 51.264 41.397 51.503 L 43.342 51.503 L 69.09 25.754 C 71.447 28.105 74.678 24.931 75.616 23.898 L 74.001 22.282 C 71.758 20.052 69.838 23.467 69.838 23.467 L 64.934 18.557 C 64.934 18.557 72.588 15.066 76.75 19.229 C 78.239 20.724 79.215 21.7 79.867 22.346 L 85.569 16.644 C 84.458 13.581 87.078 10.464 90.286 11.032 C 93.494 11.601 94.884 15.429 92.787 17.923 C 91.644 19.283 89.773 19.784 88.104 19.178 L 82.402 24.88 L 85.5 27.985 C 89.669 32.147 86.165 39.801 86.165 39.801 L 81.261 34.89 C 81.261 34.89 84.676 32.99 82.446 30.728 L 80.83 29.144 C 79.798 30.088 76.624 33.319 78.98 35.67 L 63.141 51.509 L 99.407 51.509 C 112.97 29.224 97.323 0.613 71.242 0.009 C 70.958 0.002 70.673 -0.001 70.389 0 Z" style="fill: rgb(255, 255, 255);"/>
  <g id="catchphrase_letters" transform="matrix(0.633566, 0, 0, 0.633566, -1.900699, -0.000155)">
    <path id="catchphrase_letter_a" d="M32.44,119.53H25.26L23,113.41H12l-2.28,6.12H3L13.77,91.71h7.7Zm-11.1-10.94L17.6,97.31l-3.91,11.28Z" style="fill: rgb(255, 255, 255);"/>
    <path id="catchphrase_letter_n" d="M53.91,111.54V91.71H60v27.82H52.11l-.23-.44L41.74,99.86v19.67H35.59V91.71h8.14Z" style="fill: rgb(255, 255, 255);"/>
    <path id="catchphrase_letter_a2" d="M104.26,119.53H97.08l-2.23-6.12H83.79l-2.27,6.12h-6.7L85.59,91.71h7.7ZM93.17,108.59,89.41,97.31,85.5,108.59Z" style="fill: rgb(255, 255, 255);"/>
    <path id="catchphrase_letter_r" d="M113.64,108.22v11.31h-6.55V91.71h10.65c3.27,0,5.78.62,7.51,1.82a6.37,6.37,0,0,1,2.58,5.61,6.94,6.94,0,0,1-1.34,4.14,6.68,6.68,0,0,1-4.28,2.48,3.87,3.87,0,0,1,2.57,2.24c.55,1.17,1,2.3,1.42,3.39l.17.36,3,7.78h-7l-2.8-7.71a7.38,7.38,0,0,0-1.41-2.56,3.09,3.09,0,0,0-2.51-1Zm0-4.78h2.74a6.16,6.16,0,0,0,3.51-.86,2.89,2.89,0,0,0,1.29-2.6,3,3,0,0,0-1.25-2.66,7,7,0,0,0-3.75-.82h-2.54Z" style="fill: rgb(255, 255, 255);"/>
    <path id="catchphrase_letter_p" d="M139.21,109.34v10.19h-6.55V91.71h8.55c3.74,0,6.6.72,8.56,2.14s3,3.6,3,6.53a8.19,8.19,0,0,1-2.8,6.64q-2.79,2.33-7.78,2.32Zm0-4.85,2.23.07a5.11,5.11,0,0,0,3.45-1.07,3.75,3.75,0,0,0,1.26-3,3.56,3.56,0,0,0-1.28-2.92,5.33,5.33,0,0,0-3.43-1h-2.23Z" style="fill: rgb(255, 255, 255);"/>
    <path id="catchphrase_letter_g" d="M162.06,105.67a9.09,9.09,0,0,0,2.61,6.8,9.29,9.29,0,0,0,6.82,2.55,9.54,9.54,0,0,0,1.93-.16,8.85,8.85,0,0,0,1.34-.36v-6.15h-5v-4.83h11.34v15a38.42,38.42,0,0,1-4.21,1,29.62,29.62,0,0,1-5.5.51q-7.53,0-11.79-3.77c-2.83-2.5-4.25-6-4.25-10.59s1.46-8.12,4.37-10.62,6.94-3.78,12.07-3.78a32.33,32.33,0,0,1,4.89.33,18,18,0,0,1,3.66,1v.28l-.44,5.1a13.54,13.54,0,0,0-3.44-1.26,17.36,17.36,0,0,0-3.83-.42,11.17,11.17,0,0,0-7.7,2.54A8.85,8.85,0,0,0,162.06,105.67Z" style="fill: rgb(255, 255, 255);"/>
    <path id="catchphrase_letter_g2" d="M203.76,105.67a9.13,9.13,0,0,0,2.6,6.8,9.3,9.3,0,0,0,6.83,2.55,9.67,9.67,0,0,0,1.93-.16,8.39,8.39,0,0,0,1.33-.36v-6.15h-5v-4.83h11.32v15a36.83,36.83,0,0,1-4.21,1,29.36,29.36,0,0,1-5.49.51q-7.53,0-11.79-3.77c-2.83-2.5-4.24-6-4.24-10.59s1.46-8.12,4.37-10.62,6.93-3.78,12.07-3.78a32.19,32.19,0,0,1,4.88.33,17.5,17.5,0,0,1,3.65,1v.28l-.44,5.1a13.2,13.2,0,0,0-3.43-1.26,17.4,17.4,0,0,0-3.82-.42,11.21,11.21,0,0,0-7.71,2.54A8.81,8.81,0,0,0,203.76,105.67Z" style="fill: rgb(255, 255, 255);"/>
    <path id="catchphrase_letter_a3" d="M255.15,119.53H248l-2.24-6.12h-11l-2.28,6.12h-6.7l10.77-27.82h7.71Zm-11.1-10.94-3.74-11.28-3.91,11.28Z" style="fill: rgb(255, 255, 255);"/>
    <path id="catchphrase_letter_m" d="M281.48,91.71h9.85v27.82H285l.07-22.07-7.46,21.63h-5.82l-7.32-21.66.09,22.1h-6.34V91.71h10.13l6.46,19.4Z" style="fill: rgb(255, 255, 255);"/>
    <path id="catchphrase_letter_e" d="M315.35,119.53H296.92V91.71h18.21V96.5H303.47v6.34h10.8v4.79h-10.8v7.06h11.88Z" style="fill: rgb(255, 255, 255);"/>
    <path id="catchphrase_letter_e2" d="M350.38,119.53H332V91.71h18.19V96.5H338.5v6.34h10.82v4.79H338.5v7.06h11.88Z" style="fill: rgb(255, 255, 255);"/>
    <path id="catchphrase_letter_n2" d="M373.72,111.54V91.71h6.15v27.82h-7.93l-.26-.44L361.55,99.86v19.67h-6.14V91.71h8.15Z" style="fill: rgb(255, 255, 255);"/>
    <path id="catchphrase_letter_g3" d="M391.16,105.67a9.13,9.13,0,0,0,2.6,6.8,9.29,9.29,0,0,0,6.82,2.55,9.71,9.71,0,0,0,1.94-.16,7.7,7.7,0,0,0,1.32-.36v-6.15h-5v-4.83h11.34v15a36.83,36.83,0,0,1-4.21,1,29.33,29.33,0,0,1-5.48.51q-7.53,0-11.8-3.77c-2.83-2.5-4.24-6-4.24-10.59s1.45-8.12,4.36-10.62,6.94-3.78,12.08-3.78a32.43,32.43,0,0,1,4.89.33,17.29,17.29,0,0,1,3.63,1v.28L409,97.9a13.41,13.41,0,0,0-3.44-1.26,17.27,17.27,0,0,0-3.82-.42A11.2,11.2,0,0,0,394,98.76,8.81,8.81,0,0,0,391.16,105.67Z" style="fill: rgb(255, 255, 255);"/>
    <path id="catchphrase_letter_i" d="M422.24,119.53h-6.55V91.71h6.55Z" style="fill: rgb(255, 255, 255);"/>
    <path id="catchphrase_letter_n-2" data-name="catchphrase_letter_n" d="M446.25,111.54V91.71h6.15v27.82h-7.94l-.24-.44L434.09,99.86v19.67H428V91.71h8.13Z" style="fill: rgb(255, 255, 255);"/>
    <path id="catchphrase_letter_e-2" data-name="catchphrase_letter_e" d="M476.51,119.53H458.08V91.71h18.2V96.5H464.63v6.34h10.79v4.79H464.63v7.06h11.88Z" style="fill: rgb(255, 255, 255);"/>
  </g>
</svg>