<?xml version="1.0" encoding="utf-8"?>
<svg version="1.2" baseProfile="tiny" id="Layer_1" x="0px" y="0px" overflow="visible" xmlns="http://www.w3.org/2000/svg">
  <g>
    <path d="M438.8,57.6c-3.1,0-6.2,0-9.5,0c-8.8-12-17.7-24.1-26.8-36.5c0,12.4,0,24.4,0,36.5c-3.6,0-7,0-10.6,0c0-18.9,0-37.7,0-56.7 c3,0,5.9,0,9.1,0c8.9,12.2,17.9,24.5,27,36.7c0.1,0,0.2-0.1,0.3-0.1c0-12.2,0-24.4,0-36.7c3.6,0,7,0,10.6,0 C438.8,19.8,438.8,38.6,438.8,57.6z" style="fill: rgb(255, 255, 255);"/>
    <path d="M168,0.9c0.3,0,0.5-0.1,0.7-0.1c6.6,0,13.2-0.1,19.8,0.1c8,0.3,14.7,6.8,15.7,14.8c0.9,8.1-4.3,15.9-12,18.1 c-0.3,0.1-0.6,0.2-1,0.3c5.4,7.8,10.8,15.5,16.3,23.4c-4.4,0-8.6,0-12.9,0c-5.2-7.4-10.4-14.9-15.9-22.7c0,7.8,0,15.2,0,22.7 c-3.6,0-7.1,0-10.6,0C168,38.6,168,19.8,168,0.9z M178.7,11.3c0,4.3,0,8.5,0,12.8c2.8,0,5.5,0.2,8.1,0c3.3-0.3,5.7-3.1,5.6-6.3 c0-3.4-2.3-6.1-5.6-6.4C184.2,11.1,181.5,11.3,178.7,11.3z" style="fill: rgb(255, 255, 255);"/>
    <path d="M38.9,0.8c3.6,0,7,0,10.6,0c0,0.6,0,1.1,0,1.6c0,11,0.1,22.1,0,33.1c-0.1,6.2,4.6,11.1,10.1,11.9c6.6,0.9,12.9-4.5,13-11.2 c0-11.3,0-22.5,0-33.8c0-0.5,0-1,0-1.6c3.6,0,7.1,0,10.7,0c0,0.5,0,0.9,0,1.2c0,11.3-0.1,22.6,0,33.9c0.2,11.4-8.9,20.1-17.5,21.9 c-15,3.1-27-8.8-27-20.8c0-11.8,0-23.7,0-35.5C38.9,1.4,38.9,1.2,38.9,0.8z" style="fill: rgb(255, 255, 255);"/>
    <path d="M143,23.9c6.6,0,13.1,0,19.6,0c0,3.5,0,7,0,10.6c-6.5,0-13,0-19.6,0c0,4.2,0,8.3,0,12.6c6.5,0,13,0,19.6,0 c0,3.6,0,7,0,10.5c-10,0-20.1,0-30.2,0c0-18.8,0-37.7,0-56.6c10,0,20.1,0,30.2,0c0,3.5,0,6.9,0,10.5c-6.5,0-13,0-19.6,0 C143,15.6,143,19.6,143,23.9z" style="fill: rgb(255, 255, 255);"/>
    <path d="M230.1,37.4c4.3-12.2,8.6-24.4,12.9-36.6c4,0,7.8,0,11.9,0c-6.6,19-13.1,37.9-19.6,56.8c-3.6,0-7,0-10.7,0 c-6.5-18.8-13.1-37.7-19.7-56.7c4,0,8,0,12,0c4.3,12.1,8.6,24.3,13,36.5C229.8,37.4,229.9,37.4,230.1,37.4z" style="fill: rgb(255, 255, 255);"/>
    <path d="M100.1,34.6c0,7.7,0,15.3,0,23c-3.6,0-7,0-10.6,0c0-18.9,0-37.8,0-56.6c0.1-0.1,0.3-0.2,0.4-0.2c6.8,0,13.6-0.2,20.3,0.1 c8.8,0.4,15.5,7.9,15.5,16.7c0,8.5-6.1,15.7-14.5,16.8c-2.7,0.4-5.5,0.1-8.2,0.1C102.1,34.6,101.2,34.6,100.1,34.6z M100.4,11.3 c0,4.3,0,8.5,0,12.8c2.8,0,5.5,0.2,8.1,0c3.3-0.3,5.7-3.1,5.6-6.3c0-3.4-2.3-6.1-5.6-6.4C105.9,11.1,103.2,11.3,100.4,11.3z" style="fill: rgb(255, 255, 255);"/>
    <path d="M306.1,6.3c-2.5,2.9-4.2,5.2-6.6,7.7c-0.3-0.5-1.4-1.3-1.7-1.7c-2-2.5-4.7-3.2-7.7-2.7c-3,0.5-4.9,2.3-5.7,5.2 c-0.6,2.1-0.2,4.1,1.6,5.5c1.4,1.1,3,2,4.6,2.8c2.2,1.1,4.5,2,6.7,3.2c6.5,3.5,8.9,9.7,8.1,16.4c-1,8.7-8.5,15.2-17.3,15.4 c-5.5,0.1-10.2-1.5-14-5.5c-0.1-0.1-0.2-0.3-0.3-0.4c0-0.1-1.3-0.9-1.4-1.1c2.2-2.4,4-5.4,6.2-7.8c0.8,0.9,3.2,3.2,4.1,3.9 c3.3,2.4,8.1,1.8,10.6-1.3c2.5-3.2,2.1-7.7-1.3-10.4c-1.7-1.4-3.9-2.3-5.8-3.4c-2.6-1.5-5.5-2.7-7.8-4.6 c-5.6-4.7-6.3-13.2-2.1-19.5C283.1-1.8,298.2-2.7,306.1,6.3z" style="fill: rgb(255, 255, 255);"/>
    <path d="M33.3,6.2c-2.3,2.5-3.7,4.8-6.2,8c-0.4-0.6-1.4-1.7-1.7-2.1C23.5,9.9,20,8.9,17,9.9c-2.9,0.9-4.6,2.9-5,5.9 c-0.2,1.7,0.2,3.4,1.6,4.5c1.5,1.1,3.2,2.1,4.8,3c2.2,1.1,4.5,2,6.7,3.2c6.1,3.3,8.4,8.7,8.2,15.4c-0.2,8.7-8.3,16.3-17.4,16.5 c-5.5,0.1-10.2-1.6-14.1-5.6c-0.1-0.2-1.7-1.3-1.8-1.5c2.6-3.1,3.7-4.7,6.2-7.8c0.8,0.9,3.4,3.3,4.2,3.9c3.2,2.4,7.9,1.9,10.5-1.1 c2.6-2.9,2.4-7.2-0.6-10.1c-1.4-1.3-3.1-2.3-4.7-3.2c-2-1.1-4.2-1.9-6.2-3c-9.6-5-9.7-16.3-4.9-22.6C11.5-1.8,25.6-2.6,33.3,6.2z" style="fill: rgb(255, 255, 255);"/>
    <path d="M268.3,57.6c-3.5,0-7,0-10.5,0c0-18.9,0-37.7,0-56.7c3.5,0,7,0,10.5,0C268.3,19.8,268.3,38.6,268.3,57.6z" style="fill: rgb(255, 255, 255);"/>
    <path d="M312.3,0.9c3.5,0,7,0,10.5,0c0,18.9,0,37.8,0,56.7c-3.5,0-7,0-10.5,0C312.3,38.6,312.3,19.8,312.3,0.9z" style="fill: rgb(255, 255, 255);"/>
    <g>
      <polygon points="356.4,21.1 334.3,57.6 378.5,57.6 &#9;&#9;" style="fill: rgb(255, 255, 255);"/>
    </g>
    <path d="M327.2,31c0,0.1,0,0.2,0,0.3c0.1,1.3,0.3,2.7,0.6,4c0,0.2,0.1,0.3,0.1,0.5c0.1,0.6,0.3,1.1,0.5,1.7 c0.1,0.2,0.2,0.5,0.3,0.7c0.1,0.3,0.2,0.6,0.4,1c0.1,0.3,0.3,0.6,0.4,0.9c0.1,0.2,0.1,0.3,0.2,0.5c0.3,0.7,0.6,1.3,1,1.9 c0.1,0.1,0.1,0.3,0.2,0.4c0.5,0.9,1,1.8,1.6,2.6l0,0c0.5,0.7,1,1.3,1.5,1.9l5.9-9.7c-1.5-2.7-2.3-5.7-2.3-8.8 c0-0.8,0.1-1.6,0.2-2.4c0-0.3,0.1-0.5,0.1-0.8c0.1-0.3,0.1-0.5,0.2-0.8c0.1-0.3,0.1-0.6,0.2-0.9c0.1-0.2,0.1-0.5,0.2-0.7 c2.5-7.4,9.7-12.9,17.8-12.9c10.1,0,18.7,8.7,18.7,18.9c0,0.8-0.1,1.6-0.2,2.4c0,0.3-0.1,0.5-0.1,0.8c-0.1,0.3-0.1,0.5-0.2,0.8 c-0.1,0.3-0.1,0.6-0.2,0.9c-0.1,0.2-0.1,0.5-0.2,0.7c-0.3,1-0.8,1.9-1.3,2.9l5.9,9.7c0.5-0.6,1-1.3,1.5-1.9l0,0 c2.2-3.1,3.9-6.7,4.7-10.4c0.1-0.3,0.1-0.6,0.2-0.9c0-0.2,0.1-0.5,0.1-0.7c0.1-0.6,0.2-1.2,0.2-1.8c0-0.1,0-0.3,0-0.4 c0.1-0.6,0.1-1.3,0.1-1.9c0,0,0,0,0,0c0,0,0,0,0,0c0-0.7,0-1.4-0.1-2c0-0.1,0-0.2,0-0.3c-0.1-1.3-0.3-2.7-0.6-4 c0-0.2-0.1-0.3-0.1-0.5c-0.1-0.6-0.3-1.1-0.5-1.7c-0.1-0.2-0.2-0.5-0.3-0.7c-0.1-0.3-0.2-0.6-0.4-1c-0.1-0.3-0.3-0.6-0.4-0.9 c-0.1-0.2-0.1-0.3-0.2-0.5c-0.3-0.7-0.6-1.3-1-1.9c-0.1-0.1-0.1-0.3-0.2-0.4c-0.5-0.9-1-1.8-1.6-2.6l0,0 c-5.5-7.7-14.4-13-23.8-12.8c-9.8-0.2-18.5,5.3-23.8,12.8l0,0c-2.2,3.1-3.9,6.7-4.7,10.4c-0.1,0.3-0.1,0.6-0.2,0.9 c0,0.2-0.1,0.5-0.1,0.7c-0.1,0.6-0.2,1.2-0.2,1.8c0,0.1,0,0.3,0,0.4c-0.1,0.6-0.1,1.3-0.1,1.9c0,0,0,0,0,0c0,0,0,0,0,0 C327.1,29.7,327.1,30.4,327.2,31z" style="fill: rgb(255, 255, 255);"/>
  </g>
</svg>