<?xml version="1.0" encoding="utf-8"?>
<svg xmlns="http://www.w3.org/2000/svg">
  <path d="M 6.069 36.414 L 6.069 12.138 L 18.207 12.138 L 18.207 36.414 Z M 0 12.138 L 0 6.069 L 24.276 6.069 L 24.276 12.138 Z" fill="#fff"/>
  <path d="M 36.414 36.414 L 36.414 30.345 L 60.69 30.345 L 60.69 36.413 Z M 42.483 30.346 L 42.483 12.138 L 54.621 12.138 L 54.621 30.345 Z M 36.414 12.138 L 36.414 6.069 L 60.69 6.069 L 60.69 12.138 Z" fill="#fff"/>
  <path d="M 72.828 36.414 L 72.828 30.345 L 91.035 30.345 L 91.035 36.413 Z M 91.035 30.346 L 91.035 24.276 L 97.103 24.276 L 97.103 30.345 Z M 66.759 30.345 L 66.759 12.138 L 78.897 12.138 L 78.897 30.345 Z M 91.035 18.207 L 91.035 12.138 L 97.103 12.138 L 97.103 18.206 Z M 72.828 12.138 L 72.828 6.069 L 91.035 6.069 L 91.035 12.138 Z" fill="#fff"/>
  <path d="M 109.242 18.207 L 127.449 18.207 L 127.449 24.276 L 109.242 24.276 Z" fill="#fff"/>
  <path d="M 145.657 36.414 L 145.657 30.345 L 163.864 30.345 L 163.864 36.413 Z M 163.864 30.346 L 163.864 24.276 L 169.932 24.276 L 169.932 30.345 Z M 139.588 30.345 L 139.588 24.276 L 151.726 24.276 L 151.726 30.345 Z M 145.657 24.276 L 145.657 18.207 L 163.864 18.207 L 163.864 24.276 Z M 163.864 18.207 L 163.864 12.138 L 169.932 12.138 L 169.932 18.206 Z M 139.588 18.207 L 139.588 12.138 L 151.726 12.138 L 151.726 18.206 Z M 145.657 12.138 L 145.657 6.069 L 163.864 6.069 L 163.864 12.138 Z" fill="#fff"/>
  <path d="M 182.071 36.414 L 182.071 30.345 L 200.278 30.345 L 200.278 36.413 Z M 200.278 30.346 L 200.278 18.207 L 194.209 18.207 L 194.209 12.138 L 206.347 12.138 L 206.347 30.345 Z M 176.002 30.345 L 176.002 12.138 L 188.14 12.138 L 188.14 30.345 Z M 188.14 24.276 L 188.14 18.207 L 194.209 18.207 L 194.209 24.276 Z M 182.071 12.138 L 182.071 6.069 L 200.278 6.069 L 200.278 12.138 Z" fill="#fff"/>
  <path d="M 221.517 3.035 L 254.896 3.035 L 254.896 36.414 L 221.517 36.414 Z" fill="#ccc"/>
  <path d="M 224.552 9.103 L 251.862 9.103 L 251.862 24.275 L 224.552 24.275 Z" fill="#fff"/>
  <path d="M 230.621 12.138 L 233.655 12.138 L 233.655 21.238 L 230.621 21.238 Z" fill="#111"/>
  <path d="M 242.759 12.138 L 245.793 12.138 L 245.793 21.238 L 242.759 21.238 Z" fill="#111"/>
  <path d="M 242.758 42.483 L 242.758 39.449 L 233.658 39.449 L 233.658 42.483 L 224.558 42.483 L 224.558 39.449 L 221.517 39.449 L 221.517 36.414 L 254.897 36.414 L 254.897 39.449 L 251.862 39.449 L 251.862 42.483 Z M 254.895 36.414 L 254.895 3.034 L 224.551 3.034 L 224.551 0 L 254.896 0 L 254.896 3.034 L 257.931 3.034 L 257.931 36.414 Z M 257.93 24.277 L 257.93 21.241 L 260.964 21.241 L 260.964 24.276 Z M 260.964 21.242 L 260.964 12.142 L 263.999 12.142 L 263.999 21.242 Z" fill="#999"/>
  <path d="M 233.655 33.379 L 233.655 30.344 L 242.755 30.344 L 242.755 33.379 Z M 242.755 30.344 L 242.755 27.31 L 245.789 27.31 L 245.789 30.344 Z M 230.621 30.344 L 230.621 27.31 L 233.655 27.31 L 233.655 30.344 Z" fill="#fff"/>
</svg>