<?xml version="1.0" encoding="utf-8"?>
<svg xmlns="http://www.w3.org/2000/svg">
  <path d="M 56.889 52.623 L 56.889 45.794 L 50.697 43.519 C 50.158 41.431 49.438 39.467 48.367 37.654 L 48.43 37.646 L 51.373 31.503 L 46.564 26.677 L 40.433 29.602 L 40.427 29.61 C 38.618 28.538 36.655 27.86 34.573 27.319 L 32.3 21.06 L 25.475 21.06 L 23.204 27.319 C 21.116 27.86 19.152 28.613 17.345 29.684 L 17.332 29.636 L 11.197 26.692 L 6.373 31.512 L 9.295 37.65 L 9.303 37.658 C 8.232 39.467 7.172 41.435 6.633 43.523 L 0 45.794 L 0 52.623 L 6.633 54.899 C 7.172 56.984 8.119 58.954 9.188 60.762 L 9.236 60.77 L 6.347 66.913 L 11.184 71.743 L 17.33 68.82 L 17.341 68.813 C 19.148 69.881 21.116 70.882 23.199 71.42 L 25.475 78 L 32.3 78 L 34.573 71.42 C 36.659 70.882 38.623 69.966 40.429 68.894 L 40.442 68.864 L 46.58 71.762 L 51.401 66.924 L 48.48 60.775 L 48.473 60.766 C 49.543 58.954 50.158 56.984 50.697 54.899 L 56.889 52.623 Z M 28.887 60.59 C 22.608 60.59 17.513 55.495 17.513 49.21 C 17.513 42.926 22.608 37.828 28.887 37.828 C 35.171 37.828 40.261 42.926 40.261 49.21 C 40.261 55.495 35.171 60.59 28.887 60.59 Z" style="fill: rgb(255, 255, 255);"/>
  <path d="M 78.698 11.363 L 77.206 7.759 L 73.344 7.95 C 72.604 6.965 71.747 6.108 70.787 5.387 L 70.789 5.379 L 70.994 1.497 L 67.392 0 L 64.791 2.888 L 64.791 2.895 C 63.602 2.728 62.38 2.714 61.165 2.888 L 58.562 0 L 54.96 1.493 L 55.161 5.374 C 54.181 6.114 53.326 6.984 52.601 7.946 L 52.599 7.944 L 48.718 7.744 L 47.23 11.346 L 50.11 13.947 L 50.119 13.951 C 49.981 15.067 49.922 16.371 50.095 17.59 L 47.188 20.201 L 48.681 23.807 L 52.58 23.596 C 53.319 24.581 54.196 25.433 55.156 26.154 L 55.156 26.162 L 54.96 30.042 L 58.909 31.536 L 61.855 28.648 L 61.855 28.641 C 62.618 28.782 63.921 28.817 65.136 28.648 L 67.567 31.536 L 71.081 30.042 L 70.837 26.162 C 71.821 25.423 72.657 24.55 73.377 23.59 L 73.372 23.592 L 77.245 23.792 L 78.735 20.185 L 75.849 17.586 L 75.84 17.581 C 76.01 16.39 76.001 15.176 75.833 13.96 L 78.698 11.363 Z M 65.463 21.778 C 62.149 23.147 58.351 21.574 56.976 18.254 C 55.601 14.937 57.177 11.135 60.491 9.76 C 63.809 8.386 67.608 9.96 68.983 13.279 C 70.353 16.601 68.777 20.402 65.463 21.778 Z" style="fill: rgb(255, 255, 255);"/>
  <path d="M 54.149 10.665 L 53.279 15.465 L 49.139 15.465 L 46.709 29.415 L 41.009 29.415 L 43.439 15.465 L 39.329 15.465 L 40.199 10.665 L 54.149 10.665 ZM 60.719 16.935 L 59.339 24.735 L 61.709 24.735 C 62.489 24.735 63.069 24.642 63.449 24.455 C 63.829 24.262 64.079 23.825 64.199 23.145 L 65.579 15.345 L 63.179 15.345 C 62.419 15.345 61.849 15.438 61.469 15.625 C 61.089 15.818 60.839 16.255 60.719 16.935 Z M 64.169 10.215 C 66.709 10.215 68.519 10.712 69.599 11.705 C 70.679 12.692 71.219 14.215 71.219 16.275 C 71.219 18.335 70.892 20.492 70.239 22.745 C 69.592 24.992 68.562 26.738 67.149 27.985 C 65.742 29.238 63.682 29.865 60.969 29.865 C 58.262 29.865 56.369 29.372 55.289 28.385 C 54.209 27.392 53.669 25.865 53.669 23.805 C 53.669 22.825 53.809 21.532 54.089 19.925 C 54.369 18.312 54.739 16.922 55.199 15.755 C 55.659 14.582 56.279 13.565 57.059 12.705 C 58.559 11.045 60.929 10.215 64.169 10.215 ZM 79.619 16.935 L 78.239 24.735 L 80.609 24.735 C 81.389 24.735 81.969 24.642 82.349 24.455 C 82.729 24.262 82.979 23.825 83.099 23.145 L 84.479 15.345 L 82.079 15.345 C 81.319 15.345 80.749 15.438 80.369 15.625 C 79.989 15.818 79.739 16.255 79.619 16.935 Z M 83.069 10.215 C 85.609 10.215 87.419 10.712 88.499 11.705 C 89.579 12.692 90.119 14.215 90.119 16.275 C 90.119 18.335 89.792 20.492 89.139 22.745 C 88.492 24.992 87.462 26.738 86.049 27.985 C 84.642 29.238 82.582 29.865 79.869 29.865 C 77.162 29.865 75.269 29.372 74.189 28.385 C 73.109 27.392 72.569 25.865 72.569 23.805 C 72.569 22.825 72.709 21.532 72.989 19.925 C 73.269 18.312 73.639 16.922 74.099 15.755 C 74.559 14.582 75.179 13.565 75.959 12.705 C 77.459 11.045 79.829 10.215 83.069 10.215 ZM 103.288 24.615 L 102.448 29.415 L 91.048 29.415 L 94.348 10.665 L 100.048 10.665 L 97.588 24.615 L 103.288 24.615 ZM 103.288 29.085 L 104.968 24.135 C 106.648 24.595 108.188 24.825 109.588 24.825 C 110.988 24.825 112.118 24.765 112.978 24.645 L 113.218 23.145 L 110.728 22.905 C 108.828 22.725 107.481 22.295 106.688 21.615 C 105.901 20.935 105.508 19.975 105.508 18.735 C 105.508 18.195 105.568 17.595 105.688 16.935 C 106.148 14.375 106.981 12.615 108.188 11.655 C 109.401 10.695 111.278 10.215 113.818 10.215 C 116.358 10.215 118.598 10.465 120.538 10.965 L 118.978 15.765 C 117.238 15.465 115.838 15.315 114.778 15.315 C 113.718 15.315 112.818 15.365 112.078 15.465 L 111.838 16.935 L 113.848 17.145 C 115.888 17.365 117.338 17.852 118.198 18.605 C 119.058 19.352 119.488 20.355 119.488 21.615 C 119.488 22.895 119.208 24.215 118.648 25.575 C 118.368 26.275 118.061 26.862 117.728 27.335 C 117.401 27.802 116.981 28.198 116.468 28.525 C 115.961 28.858 115.498 29.108 115.078 29.275 C 114.658 29.448 114.128 29.575 113.488 29.655 C 112.548 29.795 111.398 29.865 110.038 29.865 C 107.558 29.865 105.308 29.605 103.288 29.085 Z" transform="matrix(2.1859331130981445, 0, 0, 2.1793229579925537, -0.1563730090856552, -0.028732001781463623)" style="fill: rgb(255, 255, 255); white-space: pre;"/>
</svg>