<?xml version="1.0" encoding="utf-8"?>
<svg xmlns="http://www.w3.org/2000/svg">
  <path d="M 0 64.441 L 8.724 23.271 L 21.537 23.405 L 14.948 53.564 L 32.583 53.461 L 38.797 23.362 L 49.994 23.427 L 47.222 35.207 L 125.533 0 L 79.665 61.187 L 109.806 46.865 L 115.109 23.493 L 156.219 23.867 L 153.521 34.319 L 123.398 33.876 L 122.209 38.861 L 143.47 38.987 L 140.981 49.27 L 119.481 48.962 L 118.925 53.382 L 149.594 53.564 L 147.394 64.678 L 105.809 64.258 L 107.599 55.253 L 28.883 92 L 65.055 39.508 L 44.758 48.623 L 41.528 64.984 L 0 64.441 Z" style="fill: rgb(255, 255, 255);"/>
  <path d="M 256.157 28.187 L 257.336 23.307 L 270.031 23.373 L 276.344 34.549 L 288.038 23.24 L 300 23.397 L 299.713 27.758 L 281.776 43.672 L 291.554 59.478 L 291.71 64.415 L 278.819 64.522 L 272.281 53.296 L 260.688 64.4 L 248.124 64.54 L 248.734 60.401 L 266.265 43.912 L 256.157 28.187 Z" style="fill: rgb(255, 255, 255);"/>
  <path d="M 214.838 53.239 L 218.714 34.617 L 237.083 34.606 L 233.431 53.525 Z M 241.255 64.942 L 250.731 23.621 L 209.51 23.612 L 200.494 64.842 Z" style="fill: rgb(255, 255, 255);"/>
  <path d="M 170.603 38.198 L 171.214 34.408 L 190.457 34.463 L 189.76 38.367 Z M 167.851 53.268 L 168.461 49.479 L 187.703 49.533 L 187.007 53.439 Z M 187.967 63.993 L 195.675 58.197 L 197.458 49.148 L 192.303 42.714 L 200.312 37.563 L 202.427 28.165 L 197.245 23.472 L 162.773 23.407 L 153.936 64.009 Z" style="fill: rgb(255, 255, 255);"/>
</svg>