<?xml version="1.0" encoding="utf-8"?>
<svg width="512" height="159.202" xmlns="http://www.w3.org/2000/svg">
  <path d="M920 1530 l0 -70 85 0 85 0 0 70 0 70 -85 0 -85 0 0 -70z" transform="matrix(0.1, 0, 0, -0.1, 0, 160)" style="fill: rgb(255, 255, 255);"/>
  <path d="M4060 1530 l0 -70 85 0 85 0 0 70 0 70 -85 0 -85 0 0 -70z" transform="matrix(0.1, 0, 0, -0.1, 0, 160)" style="fill: rgb(255, 255, 255);"/>
  <path d="M2950 1235 l0 -355 85 0 85 0 0 355 0 355 -85 0 -85 0 0 -355z" transform="matrix(0.1, 0, 0, -0.1, 0, 160)" style="fill: rgb(255, 255, 255);"/>
  <path d="M0 1260 l0 -170 353 -2 c344 -3 352 -3 352 -23 0 -20 -8 -20 -352 -23 l-353 -2 0 -75 0 -75 440 0 440 0 0 170 0 170 -350 0 -350 0 0 25 0 25 350 0 350 0 0 75 0 75 -440 0 -440 0 0 -170z" transform="matrix(0.1, 0, 0, -0.1, 0, 160)" style="fill: rgb(255, 255, 255);"/>
  <path d="M920 1160 l0 -270 85 0 85 0 0 270 0 270 -85 0 -85 0 0 -270z" transform="matrix(0.1, 0, 0, -0.1, 0, 160)" style="fill: rgb(255, 255, 255);"/>
  <path d="M1130 1160 l0 -270 90 0 90 0 0 195 0 195 260 0 260 0 0 -195 0 -195 90 0 90 0 0 270 0 270 -440 0 -440 0 0 -270z" transform="matrix(0.1, 0, 0, -0.1, 0, 160)" style="fill: rgb(255, 255, 255);"/>
  <path d="M2040 1160 l0 -270 435 0 435 0 0 75 0 75 -350 0 -350 0 0 120 0 120 350 0 350 0 0 75 0 75 -435 0 -435 0 0 -270z" transform="matrix(0.1, 0, 0, -0.1, 0, 160)" style="fill: rgb(255, 255, 255);"/>
  <path d="M3160 1355 l0 -75 343 -2 c334 -3 342 -3 342 -23 0 -20 -8 -20 -342 -23 l-343 -2 0 -170 0 -170 435 0 435 0 0 270 0 270 -435 0 -435 0 0 -75z m685 -290 c0 -19 -8 -20 -257 -23 -245 -2 -258 -1 -258 16 0 10 3 22 7 26 4 3 119 5 257 4 243 -3 251 -4 251 -23z" transform="matrix(0.1, 0, 0, -0.1, 0, 160)" style="fill: rgb(255, 255, 255);"/>
  <path d="M4060 1160 l0 -270 85 0 85 0 0 270 0 270 -85 0 -85 0 0 -270z" transform="matrix(0.1, 0, 0, -0.1, 0, 160)" style="fill: rgb(255, 255, 255);"/>
  <path d="M4260 1160 l0 -270 90 0 90 0 2 193 3 192 338 3 337 2 0 75 0 75 -430 0 -430 0 0 -270z" transform="matrix(0.1, 0, 0, -0.1, 0, 160)" style="fill: rgb(255, 255, 255);"/>
  <path d="M1540 700 l0 -60 170 0 c94 0 170 -3 170 -7 0 -5 -86 -113 -190 -241 l-190 -233 0 -70 0 -69 300 0 300 0 0 60 0 60 -210 2 -211 3 206 253 206 252 -3 53 -3 52 -272 3 -273 2 0 -60z" transform="matrix(0.1, 0, 0, -0.1, 0, 160)" style="fill: rgb(255, 255, 255);"/>
  <path d="M2159 741 c6 -11 56 -89 111 -173 56 -84 99 -160 97 -168 -2 -8 -56 -95 -120 -193 -65 -98 -117 -180 -117 -182 0 -3 39 -5 88 -5 l87 0 82 127 81 127 82 -127 82 -127 90 0 c69 0 87 3 82 12 -4 7 -61 93 -126 190 l-118 177 115 178 114 178 -76 3 c-42 2 -82 1 -88 -2 -7 -2 -43 -54 -80 -115 -37 -61 -70 -111 -74 -111 -3 0 -38 51 -76 113 l-70 112 -88 3 c-85 3 -88 2 -78 -17z" transform="matrix(0.1, 0, 0, -0.1, 0, 160)" style="fill: rgb(255, 255, 255);"/>
  <path d="M2979 732 c-115 -60 -134 -209 -36 -287 l35 -28 -31 -21 c-95 -64 -114 -208 -40 -305 38 -50 120 -84 202 -83 84 0 142 23 185 73 77 90 75 221 -4 293 -22 20 -45 36 -52 36 -6 0 7 17 29 38 46 42 67 99 57 153 -20 105 -95 159 -223 159 -56 0 -79 -5 -122 -28z m186 -107 c17 -16 25 -35 25 -59 0 -48 -8 -65 -41 -81 -40 -21 -74 -18 -106 9 -22 19 -28 32 -28 66 0 34 6 47 28 66 38 32 90 32 122 -1z m-15 -280 c69 -36 80 -144 21 -197 -96 -86 -220 46 -151 160 31 50 78 64 130 37z" transform="matrix(0.1, 0, 0, -0.1, 0, 160)" style="fill: rgb(255, 255, 255);"/>
  <path d="M3470 390 l0 -370 75 0 75 0 0 370 0 370 -75 0 -75 0 0 -370z" transform="matrix(0.1, 0, 0, -0.1, 0, 160)" style="fill: rgb(255, 255, 255);"/>
</svg>