<?xml version="1.0" encoding="utf-8"?>
<svg version="1.1" xmlns="http://www.w3.org/2000/svg">
  <path d="M 1.985 0 C 0.896 0 0 0.896 0 1.985 L 0 8.015 C 0 9.104 0.896 10 1.985 10 L 15.515 10 C 16.604 10 17.5 9.104 17.5 8.015 L 17.5 7.5 L 18.75 7.5 C 19.434 7.5 20 6.934 20 6.25 L 20 3.75 C 20 3.066 19.434 2.5 18.75 2.5 L 17.5 2.5 L 17.5 1.985 C 17.5 0.896 16.604 0 15.515 0 L 1.985 0 Z M 1.985 1.25 L 15.515 1.25 C 15.928 1.25 16.25 1.572 16.25 1.985 L 16.25 8.015 C 16.25 8.427 15.928 8.75 15.515 8.75 L 1.985 8.75 C 1.573 8.75 1.25 8.427 1.25 8.015 L 1.25 1.985 C 1.25 1.572 1.573 1.25 1.985 1.25 Z M 2.5 2.5 L 2.5 7.5 L 5 7.5 L 5 2.5 L 2.5 2.5 Z M 17.5 3.75 L 18.75 3.75 L 18.75 6.25 L 17.5 6.25 L 17.5 3.75 Z" style="fill: rgb(255, 255, 255);"/>
</svg>