<?xml version="1.0" encoding="utf-8"?>
<svg version="1.1" viewBox="0 0 24 22.4" xmlns="http://www.w3.org/2000/svg">
  <path d="M 2.382 5.2 C 1.075 5.2 0 6.275 0 7.582 L 0 14.818 C 0 16.125 1.075 17.2 2.382 17.2 L 18.618 17.2 C 19.925 17.2 21 16.125 21 14.818 L 21 14.2 L 22.5 14.2 C 23.321 14.2 24 13.521 24 12.7 L 24 9.7 C 24 8.879 23.321 8.2 22.5 8.2 L 21 8.2 L 21 7.582 C 21 6.275 19.925 5.2 18.618 5.2 L 2.382 5.2 Z M 2.382 6.7 L 18.618 6.7 C 19.114 6.7 19.5 7.086 19.5 7.582 L 19.5 14.818 C 19.5 15.312 19.114 15.7 18.618 15.7 L 2.382 15.7 C 1.888 15.7 1.5 15.312 1.5 14.818 L 1.5 7.582 C 1.5 7.086 1.888 6.7 2.382 6.7 Z M 3 8.2 L 3 14.2 L 10.5 14.2 L 10.5 8.2 L 3 8.2 Z M 21 9.7 L 22.5 9.7 L 22.5 12.7 L 21 12.7 L 21 9.7 Z" style="fill: rgb(255, 255, 255);"/>
</svg>