<?xml version="1.0" encoding="utf-8"?>
<svg xmlns="http://www.w3.org/2000/svg" xmlns:bx="https://boxy-svg.com">
  <ellipse style="paint-order: stroke; stroke: rgb(255, 255, 255); fill: rgb(255, 255, 255);" transform="matrix(1, 0, -0.000001, 1, 2.179012, -2.888)" cx="7.321" cy="6.388" rx="3" ry="3" bx:origin="0.5 2.208"/>
  <ellipse style="fill: none; stroke: rgb(255, 255, 255);" transform="matrix(1, 0, -0.000001, 1, 2.116377, 9.112)" cx="7.321" cy="6.388" rx="3" ry="3" bx:origin="0.5 2.208"/>
  <ellipse style="fill-rule: evenodd; stroke: rgb(255, 255, 255); fill: none;" transform="matrix(1, 0, -0.000001, 1, -3.820991, 3.112001)" cx="7.321" cy="6.388" rx="3" ry="3" bx:origin="0.5 2.208"/>
  <ellipse style="fill: none; stroke: rgb(255, 255, 255);" transform="matrix(1, 0, -0.000001, 1, 8.179002, 3.112001)" cx="7.321" cy="6.388" rx="3" ry="3" bx:origin="0.5 2.208"/>
  <path d="M 29.61 16.149 C 28.423 16.149 27.36 15.876 26.42 15.329 C 25.473 14.782 24.733 14.016 24.2 13.029 C 23.667 12.036 23.4 10.892 23.4 9.599 C 23.4 8.306 23.667 7.162 24.2 6.169 C 24.733 5.182 25.473 4.416 26.42 3.869 C 27.36 3.322 28.423 3.049 29.61 3.049 C 30.797 3.049 31.863 3.322 32.81 3.869 C 33.75 4.416 34.487 5.182 35.02 6.169 C 35.553 7.162 35.82 8.306 35.82 9.599 C 35.82 10.892 35.553 12.036 35.02 13.029 C 34.487 14.016 33.75 14.782 32.81 15.329 C 31.863 15.876 30.797 16.149 29.61 16.149 Z M 29.61 13.919 C 30.837 13.919 31.777 13.522 32.43 12.729 C 33.083 11.936 33.41 10.892 33.41 9.599 C 33.41 8.306 33.083 7.262 32.43 6.469 C 31.777 5.676 30.837 5.279 29.61 5.279 C 28.383 5.279 27.443 5.676 26.79 6.469 C 26.137 7.262 25.81 8.306 25.81 9.599 C 25.81 10.892 26.137 11.936 26.79 12.729 C 27.443 13.522 28.383 13.919 29.61 13.919 Z M 37.839 15.899 L 37.839 3.299 L 42.319 3.299 C 45.306 3.299 46.799 4.656 46.799 7.369 C 46.799 8.769 46.422 9.812 45.669 10.499 C 44.909 11.186 43.809 11.529 42.369 11.529 L 40.139 11.529 L 40.139 15.899 L 37.839 15.899 Z M 40.139 9.599 L 42.099 9.599 C 42.892 9.599 43.486 9.419 43.879 9.059 C 44.266 8.699 44.459 8.146 44.459 7.399 C 44.459 6.659 44.262 6.112 43.869 5.759 C 43.469 5.406 42.862 5.229 42.049 5.229 L 40.139 5.229 L 40.139 9.599 Z M 51.006 15.899 L 51.006 5.529 L 47.446 5.529 L 47.446 3.299 L 56.876 3.299 L 56.876 5.529 L 53.316 5.529 L 53.316 15.899 L 51.006 15.899 Z M 58.538 15.899 L 58.538 3.299 L 60.838 3.299 L 60.838 15.899 L 58.538 15.899 Z M 69.063 16.149 C 67.877 16.149 66.813 15.876 65.873 15.329 C 64.927 14.782 64.187 14.016 63.653 13.029 C 63.12 12.036 62.853 10.892 62.853 9.599 C 62.853 8.306 63.12 7.162 63.653 6.169 C 64.187 5.182 64.927 4.416 65.873 3.869 C 66.813 3.322 67.877 3.049 69.063 3.049 C 70.25 3.049 71.317 3.322 72.263 3.869 C 73.203 4.416 73.94 5.182 74.473 6.169 C 75.007 7.162 75.273 8.306 75.273 9.599 C 75.273 10.892 75.007 12.036 74.473 13.029 C 73.94 14.016 73.203 14.782 72.263 15.329 C 71.317 15.876 70.25 16.149 69.063 16.149 Z M 69.063 13.919 C 70.29 13.919 71.23 13.522 71.883 12.729 C 72.537 11.936 72.863 10.892 72.863 9.599 C 72.863 8.306 72.537 7.262 71.883 6.469 C 71.23 5.676 70.29 5.279 69.063 5.279 C 67.837 5.279 66.897 5.676 66.243 6.469 C 65.59 7.262 65.263 8.306 65.263 9.599 C 65.263 10.892 65.59 11.936 66.243 12.729 C 66.897 13.522 67.837 13.919 69.063 13.919 Z M 77.293 15.899 L 77.293 3.299 L 79.553 3.299 L 84.943 11.439 L 84.943 3.299 L 87.243 3.299 L 87.243 15.899 L 85.353 15.899 L 79.593 7.259 L 79.593 15.899 L 77.293 15.899 Z M 93.668 16.149 C 92.961 16.149 92.201 16.052 91.388 15.859 C 90.581 15.672 89.948 15.462 89.488 15.229 L 89.758 12.789 C 91.344 13.556 92.738 13.939 93.938 13.939 C 94.571 13.939 95.068 13.816 95.428 13.569 C 95.788 13.322 95.968 12.959 95.968 12.479 C 95.968 12.119 95.871 11.822 95.678 11.589 C 95.478 11.356 95.191 11.156 94.818 10.989 C 94.444 10.829 93.851 10.606 93.038 10.319 C 92.271 10.052 91.634 9.772 91.128 9.479 C 90.628 9.186 90.231 8.809 89.938 8.349 C 89.638 7.889 89.488 7.322 89.488 6.649 C 89.488 5.569 89.884 4.699 90.678 4.039 C 91.471 3.379 92.604 3.049 94.078 3.049 C 94.778 3.049 95.471 3.126 96.158 3.279 C 96.851 3.439 97.484 3.632 98.058 3.859 L 97.828 6.219 C 97.081 5.892 96.401 5.649 95.788 5.489 C 95.168 5.322 94.551 5.239 93.938 5.239 C 93.251 5.239 92.728 5.356 92.368 5.589 C 92.008 5.816 91.828 6.146 91.828 6.579 C 91.828 6.912 91.924 7.186 92.118 7.399 C 92.311 7.619 92.574 7.799 92.908 7.939 C 93.234 8.086 93.721 8.262 94.368 8.469 C 95.821 8.922 96.881 9.446 97.548 10.039 C 98.214 10.632 98.548 11.446 98.548 12.479 C 98.548 13.466 98.204 14.322 97.518 15.049 C 96.838 15.782 95.554 16.149 93.668 16.149 Z" style="white-space: pre; fill: rgb(255, 255, 255);"/>
</svg>