<?xml version="1.0" encoding="utf-8"?>
<svg width="10" height="7.5" viewBox="0 0 10 7.5" xmlns="http://www.w3.org/2000/svg">
  <path id="chart-bar" d="M7.75,69.625h.438a.269.269,0,0,0,.25-.25v-4.5a.269.269,0,0,0-.25-.25H7.75a.269.269,0,0,0-.25.25v4.5A.269.269,0,0,0,7.75,69.625Zm-3.75,0h.437a.269.269,0,0,0,.25-.25V65.5a.269.269,0,0,0-.25-.25H4a.269.269,0,0,0-.25.25v3.875A.269.269,0,0,0,4,69.625Zm1.875,0h.437a.269.269,0,0,0,.25-.25V66.75a.269.269,0,0,0-.25-.25H5.875a.269.269,0,0,0-.25.25v2.625A.269.269,0,0,0,5.875,69.625Zm3.813.938H.938v-6.25A.312.312,0,0,0,.625,64H.313A.312.312,0,0,0,0,64.313v6.563a.625.625,0,0,0,.625.625H9.688A.312.312,0,0,0,10,71.188v-.312A.312.312,0,0,0,9.688,70.563Zm-7.563-.937h.437a.269.269,0,0,0,.25-.25V68a.269.269,0,0,0-.25-.25H2.125a.269.269,0,0,0-.25.25v1.375a.269.269,0,0,0,.25.25Z" transform="translate(0 -64)" style="fill: rgb(255, 255, 255);"/>
</svg>