<svg xmlns="http://www.w3.org/2000/svg" width="24" height="24" viewBox="0 0 24 24">
  <g id="Group_20" data-name="Group 20" transform="translate(-140 -110)">
    <rect id="Rectangle_109" data-name="Rectangle 109" width="24" height="24" transform="translate(140 110)" fill="#333"/>
    <path id="star-filled" d="M6,2c-.124,0-.25.1-.344.289L4.375,4.883A1.667,1.667,0,0,1,3.255,5.7L.394,6.111c-.426.062-.521.358-.213.659L2.252,8.788A1.671,1.671,0,0,1,2.68,10.1l-.49,2.852c-.054.307.064.488.279.488a.617.617,0,0,0,.28-.081l2.56-1.347A1.526,1.526,0,0,1,6,11.866a1.529,1.529,0,0,1,.692.149l2.561,1.347a.619.619,0,0,0,.28.081c.215,0,.331-.181.279-.488L9.321,10.1a1.678,1.678,0,0,1,.427-1.315L11.82,6.769c.308-.3.212-.6-.215-.659L8.744,5.7a1.664,1.664,0,0,1-1.119-.812L6.346,2.289C6.25,2.1,6.126,2,6,2Z" transform="translate(146 113)" fill="#fff"/>
  </g>
</svg>
