<?xml version="1.0" encoding="utf-8"?>
<svg width="10" height="10" viewBox="0 0 10 10" xmlns="http://www.w3.org/2000/svg">
  <path id="clock" d="M13,8a5,5,0,1,0,5,5A5,5,0,0,0,13,8Zm0,9.032A4.032,4.032,0,1,1,17.032,13,4.031,4.031,0,0,1,13,17.032Zm1.246-2.1-1.712-1.244a.244.244,0,0,1-.1-.2v-3.31a.243.243,0,0,1,.242-.242h.645a.243.243,0,0,1,.242.242v2.857l1.347.98a.242.242,0,0,1,.052.339l-.379.522A.244.244,0,0,1,14.246,14.927Z" transform="translate(-8 -8)" style="fill: rgb(255, 255, 255);"/>
</svg>