<?xml version="1.0" encoding="utf-8"?>
<svg version="1.0" xmlns="http://www.w3.org/2000/svg">
  <path d="M 6.46 0.006 C 4.494 0.13 2.643 0.996 0.8 2.653 C 0.701 2.743 0.48 2.953 0.309 3.12 L 0 3.424 L 0.577 3.972 L 1.156 4.52 L 1.451 4.231 C 1.614 4.073 1.818 3.879 1.905 3.801 C 3.949 1.976 5.953 1.286 8.024 1.697 C 9.509 1.99 11.082 2.882 12.632 4.306 C 12.713 4.381 12.805 4.464 12.836 4.493 L 12.893 4.544 L 13.383 4.038 C 13.653 3.759 13.903 3.502 13.938 3.465 L 14 3.399 L 13.811 3.226 C 11.665 1.251 9.627 0.216 7.504 0.022 C 7.292 0.003 6.664 -0.007 6.46 0.006 Z" style="fill: rgb(255, 255, 255);"/>
  <path d="M 6.504 2.84 C 5.971 2.883 5.571 2.964 5.082 3.13 C 4.076 3.467 3.099 4.103 2.119 5.054 C 1.983 5.186 1.872 5.298 1.872 5.302 C 1.872 5.308 2.09 5.518 2.356 5.769 C 2.622 6.021 2.88 6.266 2.93 6.314 L 3.019 6.399 L 3.226 6.2 C 3.554 5.882 3.793 5.676 4.098 5.448 C 4.8 4.923 5.495 4.599 6.192 4.475 C 6.444 4.43 6.566 4.42 6.859 4.42 C 7.151 4.421 7.261 4.429 7.526 4.475 C 8.55 4.651 9.625 5.252 10.739 6.271 C 10.832 6.354 10.91 6.422 10.912 6.421 C 10.927 6.411 12.01 5.289 12.01 5.282 C 12.01 5.264 11.579 4.879 11.343 4.684 C 10.285 3.813 9.244 3.254 8.193 2.995 C 7.886 2.919 7.593 2.872 7.258 2.844 C 7.14 2.834 6.612 2.832 6.504 2.84 Z" style="fill: rgb(255, 255, 255);"/>
  <path d="M 6.602 5.612 C 5.868 5.669 5.14 5.976 4.475 6.508 C 4.257 6.682 3.879 7.034 3.885 7.056 C 3.888 7.061 4.147 7.31 4.462 7.608 L 5.033 8.15 L 5.145 8.04 C 5.773 7.429 6.382 7.147 6.965 7.198 C 7.322 7.229 7.657 7.354 8.04 7.596 C 8.237 7.721 8.518 7.942 8.688 8.106 L 8.763 8.178 L 8.825 8.113 C 8.86 8.077 9.107 7.822 9.374 7.545 C 9.642 7.269 9.862 7.038 9.863 7.031 C 9.864 7.024 9.809 6.969 9.743 6.908 C 8.91 6.159 8.108 5.747 7.257 5.633 C 7.132 5.615 6.721 5.603 6.602 5.612 Z" style="fill: rgb(255, 255, 255);"/>
  <path d="M 6.689 8.206 C 6.362 8.253 6.072 8.462 5.936 8.748 C 5.876 8.873 5.859 8.95 5.859 9.098 C 5.859 9.247 5.876 9.324 5.936 9.449 C 6.104 9.802 6.487 10.02 6.903 9.999 C 7.29 9.979 7.616 9.774 7.768 9.455 C 7.827 9.332 7.846 9.241 7.846 9.098 C 7.846 8.951 7.826 8.86 7.761 8.73 C 7.579 8.358 7.138 8.142 6.689 8.206 Z" style="fill: rgb(255, 255, 255);"/>
</svg>