<?xml version="1.0" encoding="utf-8"?>
<svg version="1.0" preserveAspectRatio="none" viewBox="0 0 17 22.4" xmlns="http://www.w3.org/2000/svg">
  <path d="M 7.845 5.207 C 5.457 5.356 3.21 6.394 0.971 8.384 C 0.851 8.491 0.584 8.743 0.375 8.944 L 0 9.308 L 0.7 9.965 L 1.403 10.624 L 1.761 10.276 C 1.961 10.087 2.208 9.854 2.313 9.761 C 4.795 7.57 7.228 6.743 9.743 7.235 C 11.546 7.587 13.456 8.658 15.34 10.366 C 15.437 10.457 15.548 10.557 15.587 10.592 L 15.656 10.652 L 16.251 10.046 C 16.578 9.711 16.882 9.402 16.924 9.358 L 17 9.279 L 16.771 9.071 C 14.164 6.701 11.689 5.459 9.112 5.225 C 8.855 5.202 8.092 5.191 7.845 5.207 Z" style="fill: rgb(255, 255, 255);"/>
  <path d="M 7.897 8.608 C 7.251 8.659 6.765 8.755 6.171 8.955 C 4.949 9.359 3.764 10.123 2.574 11.265 C 2.407 11.424 2.272 11.558 2.272 11.561 C 2.272 11.569 2.539 11.821 2.862 12.122 C 3.185 12.425 3.496 12.718 3.559 12.777 L 3.665 12.878 L 3.918 12.64 C 4.316 12.258 4.606 12.012 4.975 11.737 C 5.829 11.106 6.673 10.719 7.52 10.569 C 7.826 10.516 7.973 10.503 8.329 10.503 C 8.684 10.506 8.816 10.515 9.138 10.569 C 10.381 10.78 11.688 11.502 13.04 12.725 C 13.152 12.824 13.249 12.905 13.251 12.904 C 13.269 12.893 14.584 11.547 14.584 11.539 C 14.584 11.517 14.06 11.055 13.773 10.82 C 12.488 9.776 11.226 9.105 9.948 8.794 C 9.577 8.703 9.221 8.645 8.814 8.612 C 8.67 8.601 8.03 8.599 7.897 8.608 Z" style="fill: rgb(255, 255, 255);"/>
  <path d="M 8.016 11.935 C 7.125 12.003 6.241 12.372 5.433 13.01 C 5.169 13.217 4.71 13.641 4.718 13.667 C 4.72 13.674 5.035 13.972 5.417 14.33 L 6.112 14.98 L 6.248 14.849 C 7.011 14.113 7.75 13.776 8.458 13.837 C 8.891 13.875 9.298 14.023 9.764 14.315 C 10.003 14.466 10.344 14.729 10.549 14.927 L 10.641 15.013 L 10.717 14.936 C 10.759 14.892 11.059 14.584 11.382 14.254 C 11.707 13.921 11.976 13.645 11.977 13.637 C 11.977 13.627 11.91 13.561 11.831 13.49 C 10.82 12.591 9.845 12.097 8.813 11.96 C 8.661 11.938 8.161 11.923 8.016 11.935 Z" style="fill: rgb(255, 255, 255);"/>
  <path d="M 8.123 15.047 C 7.726 15.104 7.372 15.354 7.208 15.698 C 7.134 15.849 7.115 15.942 7.115 16.118 C 7.115 16.296 7.134 16.388 7.208 16.538 C 7.412 16.961 7.878 17.223 8.382 17.198 C 8.851 17.173 9.248 16.928 9.433 16.547 C 9.504 16.398 9.528 16.289 9.528 16.118 C 9.528 15.942 9.503 15.833 9.425 15.676 C 9.204 15.23 8.668 14.97 8.123 15.047 Z" style="fill: rgb(255, 255, 255);"/>
</svg>