<?xml version="1.0" encoding="UTF-8"?>
<svg xmlns="http://www.w3.org/2000/svg" xmlns:xlink="http://www.w3.org/1999/xlink" version="1.1">
<g id="surface1">
<path style=" stroke:none;fill-rule:nonzero;fill:rgb(100%,100%,100%);fill-opacity:1;" d="M 744.941406 232.515625 L 741.535156 232.515625 C 703.203125 232.492188 664.875 232.457031 626.542969 232.421875 C 625.386719 232.453125 624.226562 232.320312 623.105469 232.03125 C 620.984375 231.425781 619.859375 230.144531 619.894531 227.671875 C 620.015625 218.839844 619.9375 210.007812 619.9375 200.847656 L 701.742188 200.847656 C 701.46875 199.6875 701.339844 198.914062 701.101562 198.179688 C 694.230469 176.890625 687.410156 155.53125 680.441406 134.246094 C 670.535156 104.019531 660.535156 73.816406 650.441406 43.636719 C 649.253906 40.003906 647.265625 36.6875 644.621094 33.933594 C 636.28125 25.636719 623.488281 28.054688 618.125 38.800781 C 616.214844 42.644531 615.042969 46.875 613.695312 50.980469 C 602.910156 83.898438 592.125 116.820312 581.347656 149.734375 C 572.792969 175.675781 564.199219 201.601562 555.5625 227.507812 C 554.152344 231.761719 552.953125 232.671875 548.5 232.664062 C 507.503906 232.597656 466.503906 232.664062 425.507812 232.390625 C 394.441406 232.191406 368.078125 207.773438 364.957031 176.734375 C 364.691406 174.164062 364.554688 171.585938 364.546875 169.003906 C 364.539062 136.214844 364.53125 103.429688 364.53125 70.648438 C 364.53125 63.449219 365.261719 56.339844 367.273438 49.398438 C 371.671875 34.21875 381.335938 23.21875 394.371094 14.769531 C 405.410156 7.609375 417.527344 4.335938 430.546875 4.308594 C 462.457031 4.230469 494.367188 4.28125 526.28125 4.28125 L 528.390625 4.28125 L 528.390625 36.613281 L 525.796875 36.613281 C 500.132812 36.640625 474.464844 36.671875 448.800781 36.695312 C 440.976562 36.695312 433.117188 36.195312 425.332031 36.695312 C 409.265625 37.808594 397.734375 49.28125 396.03125 65.316406 C 395.710938 68.214844 395.546875 71.128906 395.53125 74.046875 C 395.46875 104.996094 395.433594 135.945312 395.425781 166.898438 C 395.425781 182.25 404.863281 195.121094 418.953125 199.28125 C 425.015625 201.070312 431.183594 200.324219 437.324219 200.324219 L 497.632812 200.324219 L 497.632812 114.8125 L 441.609375 114.8125 L 441.609375 83.023438 L 528.429688 83.023438 L 528.429688 209.503906 C 529.097656 208.691406 529.355469 208.503906 529.429688 208.257812 C 538.476562 180.574219 547.429688 152.859375 556.570312 125.195312 C 566.136719 96.160156 575.789062 67.152344 585.515625 38.179688 C 590.0625 24.550781 598.0625 13.519531 610.601562 6.308594 C 625.96875 -2.519531 641.457031 -1.445312 656.820312 6.636719 C 667.4375 12.214844 674.609375 20.953125 678.84375 31.902344 C 682.589844 41.59375 685.433594 51.628906 688.699219 61.507812 C 696.792969 85.933594 704.894531 110.355469 713.007812 134.777344 C 723.148438 165.445312 733.277344 196.117188 743.390625 226.789062 C 743.933594 228.515625 744.335938 230.300781 744.941406 232.515625 Z M 744.941406 232.515625 "/>
<path style=" stroke:none;fill-rule:nonzero;fill:rgb(100%,100%,100%);fill-opacity:1;" d="M 420.242188 383.21875 L 215.152344 383.21875 C 215.152344 378.710938 215.121094 374.304688 215.152344 369.921875 C 215.273438 356.90625 215.464844 343.890625 215.539062 330.902344 C 215.589844 321.96875 219.429688 314.988281 226.402344 309.695312 C 235.074219 303.125 244.785156 299.429688 255.796875 299.46875 C 279.210938 299.554688 302.625 299.609375 326.035156 299.640625 C 336.195312 299.640625 346.359375 299.605469 356.535156 299.539062 C 361.214844 299.5 362.535156 298.324219 363.535156 293.816406 C 364.058594 291.542969 365.761719 290.878906 367.828125 290.8125 C 371.078125 290.730469 374.328125 290.640625 377.570312 290.632812 C 391.238281 290.613281 404.902344 290.613281 418.570312 290.632812 L 421.988281 290.632812 C 421.730469 293.78125 422.054688 296.894531 421.140625 299.589844 C 418.910156 306.117188 416.351562 312.527344 413.480469 318.796875 C 412.34375 321.132812 410.640625 323.144531 408.53125 324.652344 C 401.03125 330.085938 393 334.164062 383.328125 334.105469 C 349.578125 334.003906 315.832031 334.066406 282.089844 334.066406 C 281.253906 334.066406 280.417969 334.03125 279.589844 334.066406 C 275.820312 334.332031 274.25 336.214844 274.480469 340.441406 L 420.242188 340.441406 Z M 420.242188 383.21875 "/>
<path style=" stroke:none;fill-rule:nonzero;fill:rgb(100%,100%,100%);fill-opacity:1;" d="M 0.34375 383.859375 L 0.34375 358.828125 C 0.34375 354.070312 0.453125 349.316406 0.300781 344.558594 C 0.226562 342.308594 0.839844 341.617188 3.195312 341.621094 C 30.609375 341.710938 58.019531 341.675781 85.433594 341.675781 L 126.929688 341.675781 C 130.753906 341.675781 134.59375 341.898438 138.429688 341.675781 C 143.230469 341.382812 145.472656 339.101562 146.371094 334.09375 L 36.253906 334.09375 L 36.253906 299.539062 L 124.472656 299.539062 C 129.054688 299.539062 133.636719 299.632812 138.21875 299.613281 C 145.25 299.585938 147.3125 297.78125 148.3125 290.605469 L 150.914062 290.605469 C 166.492188 290.664062 182.070312 290.726562 197.652344 290.789062 C 201.648438 290.789062 203.738281 292.90625 203.753906 296.980469 C 203.824219 313.660156 203.921875 330.34375 203.929688 347.042969 C 203.929688 365.671875 190.011719 381.15625 171.511719 382.585938 C 161.0625 383.402344 150.558594 383.75 140.078125 383.773438 C 94.667969 383.898438 49.257812 383.828125 3.84375 383.828125 Z M 0.34375 383.859375 "/>
<path style=" stroke:none;fill-rule:nonzero;fill:rgb(100%,100%,100%);fill-opacity:1;" d="M 171.246094 36.5 C 170.527344 36.535156 169.71875 36.605469 168.902344 36.605469 C 142.988281 36.644531 117.078125 36.671875 91.167969 36.695312 C 84.507812 36.695312 77.824219 36.277344 71.167969 36.695312 C 51.25 37.949219 34.863281 53.816406 31.949219 73.628906 C 28.347656 98.15625 45.203125 118.183594 67.214844 121.570312 C 71.621094 122.25 76.175781 121.972656 80.660156 122.175781 C 88.796875 122.539062 97.042969 122.222656 105.046875 123.453125 C 122.859375 126.195312 135.308594 142.976562 133.289062 161.769531 C 131.289062 180.632812 116.636719 193.410156 97.652344 193.410156 L 5.160156 193.410156 C 4.660156 193.410156 4.160156 193.410156 3.660156 193.410156 C 0.355469 193.328125 0.351562 193.328125 0.34375 190.035156 L 0.34375 162 C 1.960938 161.890625 3.429688 161.707031 4.898438 161.699219 C 34.308594 161.625 63.71875 161.460938 93.128906 161.636719 C 97.128906 161.636719 99.574219 160.292969 101.628906 157.246094 C 99.90625 154.910156 97.582031 154.074219 94.742188 154.085938 C 86 154.085938 77.246094 154.296875 68.515625 153.9375 C 45.515625 152.984375 27.734375 142.246094 14.449219 123.832031 C -5.453125 96.253906 -4.210938 57 17.449219 31.859375 C 28.996094 18.449219 43.167969 8.957031 60.839844 5.554688 C 64.761719 4.789062 68.746094 4.390625 72.738281 4.367188 C 104.324219 4.273438 135.898438 4.3125 167.484375 4.320312 C 168.394531 4.320312 169.371094 4.230469 170.1875 4.542969 C 170.777344 4.765625 171.539062 5.582031 171.539062 6.140625 C 171.601562 16.066406 171.539062 25.988281 171.539062 35.914062 C 171.546875 36.03125 171.402344 36.175781 171.246094 36.5 Z M 171.246094 36.5 "/>
<path style=" stroke:none;fill-rule:nonzero;fill:rgb(100%,100%,100%);fill-opacity:1;" d="M 171.496094 44.011719 L 171.496094 75.1875 C 169.632812 75.285156 167.757812 75.464844 165.878906 75.464844 C 143.964844 75.484375 122.054688 75.492188 100.144531 75.488281 C 92.644531 75.488281 85.144531 75.667969 77.644531 75.625 C 74.507812 75.625 72.746094 77.730469 70.480469 79.425781 C 73.105469 81.5625 75.792969 82.824219 79.175781 82.757812 C 86.082031 82.625 93.007812 82.542969 99.914062 82.757812 C 131.234375 83.792969 158.734375 105.199219 168.40625 135.273438 C 179.40625 169.515625 163.691406 203.855469 140.503906 219.589844 C 128.304688 227.917969 113.910156 232.433594 99.144531 232.566406 C 68.074219 233.042969 37.003906 233.011719 5.933594 233.144531 C 1.128906 233.144531 0 231.921875 0.015625 227.242188 C 0.046875 219.152344 0.0703125 211.0625 0.0898438 202.976562 C 0.0898438 202.15625 0.0898438 201.339844 0.0898438 200.191406 L 3.476562 200.191406 C 34.632812 200.191406 65.796875 200.191406 96.96875 200.191406 C 104.105469 200.191406 111.101562 199.277344 117.640625 196.210938 C 130.335938 190.253906 136.863281 179.570312 140.050781 166.375 C 145.699219 142.890625 127.210938 117.6875 103.261719 115.289062 C 95.90625 114.550781 88.453125 114.828125 81.085938 114.222656 C 74.285156 113.722656 67.515625 112.835938 60.816406 111.574219 C 52.316406 109.890625 46.550781 104.445312 42.816406 96.726562 C 34.632812 80.1875 39.800781 60.140625 54.957031 49.632812 C 61.070312 45.367188 68.019531 43.878906 75.300781 43.867188 C 84.796875 43.867188 94.296875 44.144531 103.796875 44.144531 C 125.207031 44.144531 146.621094 44.0625 168.027344 44.011719 Z M 171.496094 44.011719 "/>
<path style=" stroke:none;fill-rule:nonzero;fill:rgb(100%,100%,100%);fill-opacity:1;" d="M 630.457031 316.695312 C 633.652344 318.949219 636 320.949219 638.644531 322.417969 C 662.859375 335.898438 687.140625 349.234375 711.367188 362.726562 C 717.90625 366.371094 724.316406 370.277344 730.621094 374.316406 C 733.230469 375.984375 735.410156 378.320312 737.785156 380.324219 C 737.75 380.664062 737.710938 381 737.675781 381.324219 C 736.496094 381.746094 735.316406 382.527344 734.132812 382.53125 C 711.636719 382.570312 689.136719 382.554688 666.636719 382.476562 C 662.890625 382.476562 659.050781 382.71875 655.425781 381.976562 C 651.707031 381.234375 648.121094 379.941406 644.789062 378.136719 C 625.503906 367.625 606.320312 356.878906 587.148438 346.152344 C 583.597656 344.148438 580.355469 344.195312 576.792969 346.1875 C 557.019531 357.230469 537.183594 368.125 517.421875 379.167969 C 512.1875 382.144531 506.273438 383.707031 500.253906 383.703125 C 474.921875 383.753906 449.589844 383.804688 424.257812 383.851562 C 423.6875 383.851562 423.113281 383.777344 422.1875 383.714844 C 424.277344 380.710938 426.511719 378.371094 429.589844 376.703125 C 451.433594 364.761719 473.246094 352.761719 495.023438 340.707031 C 506.742188 334.195312 518.367188 327.527344 529.945312 320.78125 C 532.089844 319.535156 533.804688 317.550781 536.054688 315.621094 L 493.8125 292.175781 C 495.386719 290.910156 667.441406 290.421875 672.066406 291.53125 C 671.210938 292.242188 670.671875 292.867188 669.992188 293.238281 C 659.78125 298.847656 649.492188 304.332031 639.363281 310.074219 C 636.378906 311.757812 633.8125 314.167969 630.457031 316.695312 Z M 630.457031 316.695312 "/>
<path style=" stroke:none;fill-rule:nonzero;fill:rgb(100%,100%,100%);fill-opacity:1;" d="M 352.089844 231.957031 C 348.058594 231.957031 344.324219 231.957031 340.589844 231.957031 C 319.515625 232.085938 298.449219 232.371094 277.375 232.3125 C 264.640625 232.273438 251.910156 231.9375 239.175781 231.3125 C 221.679688 230.414062 208.542969 221.695312 198.71875 207.546875 C 190.132812 195.171875 186.1875 181.28125 186.109375 166.355469 C 185.957031 136.488281 186.0625 106.621094 186.066406 76.746094 C 186.066406 66.382812 186.515625 56.089844 189.984375 46.160156 C 193.160156 37.066406 198.21875 29.257812 205.484375 22.925781 C 213.699219 15.746094 222.484375 9.40625 233.15625 6.472656 C 236.988281 5.367188 240.945312 4.765625 244.933594 4.675781 C 280.007812 4.546875 315.085938 4.601562 350.160156 4.601562 L 352.769531 4.601562 L 352.769531 36.597656 L 350.035156 36.597656 C 325.535156 36.625 301.039062 36.691406 276.539062 36.660156 C 268.050781 36.660156 259.5625 36.523438 251.070312 36.246094 C 232.664062 35.714844 218.144531 48.730469 217.007812 67.253906 C 216.628906 73.40625 216.632812 79.585938 216.617188 85.777344 C 216.578125 108.136719 216.578125 130.5 216.617188 152.859375 C 216.617188 159.027344 216.570312 165.214844 217.023438 171.351562 C 218.25 187.960938 230.398438 199.863281 247.050781 200.386719 C 259.945312 200.804688 272.859375 200.539062 285.769531 200.546875 C 307.015625 200.546875 328.257812 200.546875 349.503906 200.546875 L 352.089844 200.546875 Z M 352.089844 231.957031 "/>
<path style=" stroke:none;fill-rule:nonzero;fill:rgb(100%,100%,100%);fill-opacity:1;" d="M 692.054688 193.164062 L 620.132812 193.164062 L 620.132812 169.816406 L 619.449219 169.648438 C 618.726562 170.992188 618.085938 172.378906 617.523438 173.796875 C 611.523438 191.71875 605.566406 209.660156 599.644531 227.609375 C 598.265625 231.769531 597.304688 232.515625 593.027344 232.515625 L 561.84375 232.515625 C 562.035156 231.703125 562.125 231.074219 562.34375 230.484375 C 578.722656 180.582031 595.113281 130.679688 611.515625 80.769531 C 615.492188 68.671875 619.472656 56.574219 623.453125 44.476562 C 625.300781 38.910156 628.253906 36.605469 633.34375 36.652344 C 638.738281 36.695312 642.058594 39.203125 643.8125 44.589844 C 659.613281 93.199219 675.410156 141.800781 691.203125 190.40625 C 691.507812 191.261719 691.734375 192.121094 692.054688 193.164062 Z M 633.285156 126.027344 C 629.707031 136.90625 626.355469 147.121094 622.984375 157.390625 L 644.28125 157.390625 C 640.628906 146.976562 637.082031 136.871094 633.285156 126.027344 Z M 633.285156 126.027344 "/>
<path style=" stroke:none;fill-rule:nonzero;fill:rgb(100%,100%,100%);fill-opacity:1;" d="M 489.355469 192.972656 C 488.523438 193.027344 487.800781 193.113281 487.070312 193.117188 C 470.910156 193.183594 454.746094 193.285156 438.574219 193.277344 C 433.414062 193.277344 428.222656 193.277344 423.105469 192.738281 C 411.054688 191.492188 403.296875 182.796875 403.105469 169.90625 C 402.753906 147.136719 402.714844 124.347656 402.648438 101.601562 C 402.625 91.089844 402.894531 80.574219 402.949219 70.085938 C 403.035156 54.421875 415.632812 43.175781 431.242188 43.78125 C 448.792969 44.464844 466.375 44.28125 483.9375 44.332031 C 498.4375 44.390625 512.9375 44.292969 527.4375 44.265625 C 527.722656 44.308594 528 44.382812 528.269531 44.480469 L 528.269531 74.824219 L 525.382812 74.824219 C 499.136719 74.824219 472.890625 74.824219 446.648438 74.824219 C 444.976562 74.832031 443.304688 74.9375 441.648438 75.140625 C 436.148438 75.792969 433.71875 78.40625 433.519531 84.011719 C 433.394531 87.425781 433.402344 90.847656 433.40625 94.265625 C 433.40625 113.121094 433.4375 131.976562 433.492188 150.835938 C 433.492188 157.742188 436.40625 161.023438 443.300781 161.433594 C 447.800781 161.699219 452.300781 161.535156 456.800781 161.375 C 457.429688 161.375 458.453125 160.324219 458.546875 159.652344 C 458.800781 157.949219 458.632812 156.183594 458.632812 154.144531 L 441.851562 154.144531 L 441.851562 122.605469 L 489.347656 122.605469 Z M 489.355469 192.972656 "/>
<path style=" stroke:none;fill-rule:nonzero;fill:rgb(100%,100%,100%);fill-opacity:1;" d="M 330.71875 114.3125 L 224.699219 114.3125 C 224.59375 113.675781 224.527344 113.039062 224.492188 112.394531 C 224.429688 98.71875 224.292969 85.046875 224.359375 71.371094 C 224.410156 60.589844 228.53125 51.84375 238.210938 46.492188 C 240.53125 45.222656 243.121094 44.523438 245.761719 44.445312 C 263.761719 44.171875 281.757812 44.125 299.722656 44.039062 C 316.460938 43.960938 333.203125 43.898438 349.945312 43.855469 L 352.535156 43.855469 C 352.613281 44.832031 352.722656 45.550781 352.722656 46.277344 C 352.722656 55.289062 352.6875 64.300781 352.769531 73.3125 C 352.769531 75.140625 352.292969 75.738281 350.390625 75.734375 C 324.890625 75.675781 299.394531 75.851562 273.925781 75.578125 C 267.800781 75.507812 261.925781 75.394531 256.710938 79.035156 C 256.011719 79.535156 255.570312 80.375 255.007812 81.0625 C 255.851562 81.480469 256.695312 82.269531 257.546875 82.273438 C 281.035156 82.339844 304.53125 82.355469 328.039062 82.324219 L 330.730469 82.324219 Z M 330.71875 114.3125 "/>
<path style=" stroke:none;fill-rule:nonzero;fill:rgb(100%,100%,100%);fill-opacity:1;" d="M 214.785156 287.523438 L 214.785156 250.128906 C 217.394531 250.003906 219.9375 249.777344 222.484375 249.777344 C 277.046875 249.757812 331.605469 249.757812 386.167969 249.777344 C 403.707031 249.777344 420.578125 265.578125 421.664062 282.820312 C 421.757812 284.320312 421.664062 285.789062 421.664062 287.496094 Z M 214.785156 287.523438 "/>
<path style=" stroke:none;fill-rule:nonzero;fill:rgb(100%,100%,100%);fill-opacity:1;" d="M 255.109375 153.734375 C 255.609375 158.109375 258.109375 160.785156 262.074219 161.339844 C 263.734375 161.554688 265.402344 161.65625 267.074219 161.644531 C 294.222656 161.644531 321.375 161.644531 348.53125 161.644531 L 351.929688 161.644531 L 351.929688 192.792969 L 349.21875 192.792969 C 316.402344 192.792969 283.585938 192.78125 250.773438 192.757812 C 248.109375 192.75 245.453125 192.476562 242.847656 191.941406 C 232.28125 189.78125 225.914062 182.929688 225.136719 172.207031 C 224.574219 164.328125 224.75 156.390625 224.683594 148.46875 C 224.617188 140.460938 224.726562 132.449219 224.628906 124.441406 C 224.601562 122.539062 225.203125 122.035156 227.042969 122.046875 C 245.199219 122.15625 263.351562 122.214844 281.503906 122.214844 C 295.660156 122.214844 309.8125 122.011719 323.964844 121.925781 C 325.136719 121.953125 326.304688 122.054688 327.464844 122.222656 C 329.824219 122.503906 331.0625 123.914062 331.074219 126.226562 C 331.089844 128.539062 330.8125 130.730469 330.8125 132.964844 C 330.8125 138.710938 330.90625 144.480469 330.957031 150.207031 C 330.957031 151.273438 330.957031 152.332031 330.957031 153.710938 Z M 255.109375 153.734375 "/>
<path style=" stroke:none;fill-rule:nonzero;fill:rgb(100%,100%,100%);fill-opacity:1;" d="M 1.703125 287.921875 L 1.703125 249.761719 L 4.5 249.761719 C 20.664062 249.761719 36.832031 249.761719 52.996094 249.761719 C 74.996094 249.796875 96.992188 249.894531 118.992188 249.902344 C 134.066406 249.902344 149.140625 249.742188 164.21875 249.777344 C 180.917969 249.808594 192.960938 257.421875 200.324219 272.425781 C 202.347656 276.570312 203.136719 281.207031 202.601562 285.789062 C 202.441406 287.289062 201.949219 288.136719 200.304688 287.921875 C 199.804688 287.890625 199.304688 287.890625 198.804688 287.921875 Z M 1.703125 287.921875 "/>
<path style=" stroke:none;fill-rule:nonzero;fill:rgb(100%,100%,100%);fill-opacity:1;" d="M 747.003906 249.394531 C 741.503906 252.601562 736.003906 255.851562 730.460938 259.011719 C 715.058594 267.800781 699.648438 276.578125 684.230469 285.34375 C 681.046875 287.171875 677.433594 288.109375 673.765625 288.054688 C 648.101562 287.992188 622.433594 288.054688 596.769531 288.085938 L 591.902344 288.085938 C 591.847656 287.839844 591.796875 287.585938 591.742188 287.351562 C 592.742188 286.671875 593.742188 286.03125 594.742188 285.347656 C 613.5 271.617188 634.203125 261.199219 654.585938 250.257812 C 656.664062 249.214844 658.957031 248.671875 661.28125 248.675781 C 687.945312 248.542969 714.605469 248.542969 741.277344 248.535156 C 743.15625 248.535156 745.03125 248.792969 746.910156 248.933594 C 746.925781 249.066406 746.964844 249.234375 747.003906 249.394531 Z M 747.003906 249.394531 "/>
<path style=" stroke:none;fill-rule:nonzero;fill:rgb(100%,100%,100%);fill-opacity:1;" d="M 421.984375 249.917969 C 429.117188 249.917969 436.253906 249.964844 443.386719 249.917969 C 459.386719 249.808594 475.386719 249.972656 491.34375 249.386719 C 501.464844 248.933594 511.515625 251.332031 520.339844 256.3125 C 537.550781 265.941406 554.585938 275.902344 571.664062 285.761719 C 572.164062 286.0625 572.449219 286.820312 572.832031 287.359375 C 572.027344 287.605469 571.21875 288.066406 570.40625 288.066406 C 547.25 288.105469 524.085938 288.105469 500.914062 288.066406 C 495.925781 288.113281 490.941406 287.902344 485.980469 287.429688 C 483.335938 287.121094 480.78125 286.269531 478.480469 284.925781 C 460.285156 274.308594 442.183594 263.535156 424.074219 252.78125 C 423.214844 252.171875 422.414062 251.488281 421.667969 250.746094 C 421.769531 250.480469 421.875 250.1875 421.984375 249.917969 Z M 421.984375 249.917969 "/>
</g>
</svg>
